<?xml version="1.0" encoding="UTF-8" standalone="no"?><svg xmlns="http://www.w3.org/2000/svg" xmlns:xlink="http://www.w3.org/1999/xlink" contentScriptType="application/ecmascript" contentStyleType="text/css" height="320.4px" preserveAspectRatio="none" style="width:761px;height:320px;" version="1.1" viewBox="0 0 761 320" width="761.4px" zoomAndPan="magnify"><defs><filter height="300%" id="f1apv43srkin79" width="300%" x="-1" y="-1"><feGaussianBlur result="blurOut" stdDeviation="1.8"/><feColorMatrix in="blurOut" result="blurOut2" type="matrix" values="0 0 0 0 0 0 0 0 0 0 0 0 0 0 0 0 0 0 .4 0"/><feOffset dx="3.6" dy="3.6" in="blurOut2" result="blurOut3"/><feBlend in="SourceGraphic" in2="blurOut3" mode="normal"/></filter></defs><g><!--MD5=[7f2a9fafcebe4f099f71398fd3e2ed00]
class Pharmacy--><rect codeLine="6" fill="#FEFECE" filter="url(#f1apv43srkin79)" height="60.9047" id="Pharmacy" style="stroke: #A80036; stroke-width: 1.35;" width="91.8" x="466.2" y="18.45"/><ellipse cx="485.775" cy="32.85" fill="#ADD1B2" rx="9.9" ry="9.9" style="stroke: #A80036; stroke-width: 0.9;"/><path d="M487.575,29.7 Q487.7578,29.25 487.9688,29.025 Q488.1797,28.8 488.4188,28.8 Q488.8406,28.8 489.1078,29.0531 Q489.375,29.3063 489.375,29.8969 L489.375,31.3031 Q489.375,31.8938 489.1219,32.1469 Q488.8688,32.4 488.475,32.4 Q488.1234,32.4 487.8984,32.2453 Q487.6734,32.0906 487.575,31.6828 Q487.5328,31.4016 487.3781,31.2469 Q487.0969,30.9516 486.5906,30.7828 Q486.0844,30.6 485.5781,30.6 Q484.9453,30.6 484.4109,30.8531 Q483.8906,31.1063 483.4828,31.6688 Q483.075,32.2313 483.075,33.0047 L483.075,33.8344 Q483.075,34.7625 483.8344,35.3813 Q484.5938,36 485.9438,36 Q486.7453,36 487.3078,35.8172 Q487.6313,35.7188 487.9969,35.3953 Q488.2359,35.2125 488.3625,35.1563 Q488.4891,35.1 488.6438,35.1 Q488.9391,35.1 489.15,35.3391 Q489.375,35.5641 489.375,35.8875 Q489.375,36.1969 489.0656,36.5625 Q488.6156,37.0969 487.8984,37.3922 Q486.9563,37.8 485.8031,37.8 Q484.4531,37.8 483.3703,37.2656 Q482.4984,36.8438 481.8797,35.9297 Q481.275,35.0156 481.275,33.9328 L481.275,32.9484 Q481.275,31.8234 481.8094,30.8391 Q482.3578,29.8547 483.3,29.3344 Q484.2563,28.8 485.325,28.8 Q485.9719,28.8 486.5344,29.025 Q487.0969,29.25 487.575,29.7 Z " fill="#000000"/><text fill="#000000" font-family="sans-serif" font-size="10.8" lengthAdjust="spacingAndGlyphs" textLength="49.5" x="499.725" y="37.2691">Pharmacy</text><line style="stroke: #A80036; stroke-width: 1.35;" x1="467.1" x2="557.1" y1="47.25" y2="47.25"/><text fill="#000000" font-family="sans-serif" font-size="9.9" lengthAdjust="spacingAndGlyphs" textLength="43.2" x="471.6" y="61.1271">-Integer id</text><text fill="#000000" font-family="sans-serif" font-size="9.9" lengthAdjust="spacingAndGlyphs" textLength="81" x="471.6" y="73.5794">-String designation</text><!--MD5=[c6a2171c11447acbe08a3dfeee0e1710]
class Courier--><rect codeLine="11" fill="#FEFECE" filter="url(#f1apv43srkin79)" height="98.2617" id="Courier" style="stroke: #A80036; stroke-width: 1.35;" width="83.7" x="214.2" y="92.7"/><ellipse cx="235.8" cy="107.1" fill="#ADD1B2" rx="9.9" ry="9.9" style="stroke: #A80036; stroke-width: 0.9;"/><path d="M237.6,103.95 Q237.7828,103.5 237.9938,103.275 Q238.2047,103.05 238.4438,103.05 Q238.8656,103.05 239.1328,103.3031 Q239.4,103.5563 239.4,104.1469 L239.4,105.5531 Q239.4,106.1438 239.1469,106.3969 Q238.8938,106.65 238.5,106.65 Q238.1484,106.65 237.9234,106.4953 Q237.6984,106.3406 237.6,105.9328 Q237.5578,105.6516 237.4031,105.4969 Q237.1219,105.2016 236.6156,105.0328 Q236.1094,104.85 235.6031,104.85 Q234.9703,104.85 234.4359,105.1031 Q233.9156,105.3563 233.5078,105.9188 Q233.1,106.4813 233.1,107.2547 L233.1,108.0844 Q233.1,109.0125 233.8594,109.6313 Q234.6188,110.25 235.9688,110.25 Q236.7703,110.25 237.3328,110.0672 Q237.6563,109.9688 238.0219,109.6453 Q238.2609,109.4625 238.3875,109.4063 Q238.5141,109.35 238.6688,109.35 Q238.9641,109.35 239.175,109.5891 Q239.4,109.8141 239.4,110.1375 Q239.4,110.4469 239.0906,110.8125 Q238.6406,111.3469 237.9234,111.6422 Q236.9813,112.05 235.8281,112.05 Q234.4781,112.05 233.3953,111.5156 Q232.5234,111.0938 231.9047,110.1797 Q231.3,109.2656 231.3,108.1828 L231.3,107.1984 Q231.3,106.0734 231.8344,105.0891 Q232.3828,104.1047 233.325,103.5844 Q234.2813,103.05 235.35,103.05 Q235.9969,103.05 236.5594,103.275 Q237.1219,103.5 237.6,103.95 Z " fill="#000000"/><text fill="#000000" font-family="sans-serif" font-size="10.8" lengthAdjust="spacingAndGlyphs" textLength="36.9" x="250.2" y="111.5191">Courier</text><line style="stroke: #A80036; stroke-width: 1.35;" x1="215.1" x2="297" y1="121.5" y2="121.5"/><text fill="#000000" font-family="sans-serif" font-size="9.9" lengthAdjust="spacingAndGlyphs" textLength="46.8" x="219.6" y="135.3771">-Integer nif</text><text fill="#000000" font-family="sans-serif" font-size="9.9" lengthAdjust="spacingAndGlyphs" textLength="44.1" x="219.6" y="147.8294">-char niss</text><text fill="#000000" font-family="sans-serif" font-size="9.9" lengthAdjust="spacingAndGlyphs" textLength="54.9" x="219.6" y="160.2817">-String name</text><text fill="#000000" font-family="sans-serif" font-size="9.9" lengthAdjust="spacingAndGlyphs" textLength="53.1" x="219.6" y="172.7341">-String email</text><text fill="#000000" font-family="sans-serif" font-size="9.9" lengthAdjust="spacingAndGlyphs" textLength="72.9" x="219.6" y="185.1864">-float maxWeight</text><!--MD5=[1af12a6959f9d032ac160a5f5581c06f]
class CourierState--><rect codeLine="19" fill="#FEFECE" filter="url(#f1apv43srkin79)" height="60.9047" id="CourierState" style="stroke: #A80036; stroke-width: 1.35;" width="91.8" x="466.2" y="111.15"/><ellipse cx="480.105" cy="125.55" fill="#ADD1B2" rx="9.9" ry="9.9" style="stroke: #A80036; stroke-width: 0.9;"/><path d="M481.905,122.4 Q482.0878,121.95 482.2988,121.725 Q482.5097,121.5 482.7488,121.5 Q483.1706,121.5 483.4378,121.7531 Q483.705,122.0063 483.705,122.5969 L483.705,124.0031 Q483.705,124.5938 483.4519,124.8469 Q483.1988,125.1 482.805,125.1 Q482.4534,125.1 482.2284,124.9453 Q482.0034,124.7906 481.905,124.3828 Q481.8628,124.1016 481.7081,123.9469 Q481.4269,123.6516 480.9206,123.4828 Q480.4144,123.3 479.9081,123.3 Q479.2753,123.3 478.7409,123.5531 Q478.2206,123.8063 477.8128,124.3688 Q477.405,124.9313 477.405,125.7047 L477.405,126.5344 Q477.405,127.4625 478.1644,128.0813 Q478.9238,128.7 480.2738,128.7 Q481.0753,128.7 481.6378,128.5172 Q481.9613,128.4188 482.3269,128.0953 Q482.5659,127.9125 482.6925,127.8563 Q482.8191,127.8 482.9738,127.8 Q483.2691,127.8 483.48,128.0391 Q483.705,128.2641 483.705,128.5875 Q483.705,128.8969 483.3956,129.2625 Q482.9456,129.7969 482.2284,130.0922 Q481.2863,130.5 480.1331,130.5 Q478.7831,130.5 477.7003,129.9656 Q476.8284,129.5438 476.2097,128.6297 Q475.605,127.7156 475.605,126.6328 L475.605,125.6484 Q475.605,124.5234 476.1394,123.5391 Q476.6878,122.5547 477.63,122.0344 Q478.5863,121.5 479.655,121.5 Q480.3019,121.5 480.8644,121.725 Q481.4269,121.95 481.905,122.4 Z " fill="#000000"/><text fill="#000000" font-family="sans-serif" font-size="10.8" lengthAdjust="spacingAndGlyphs" textLength="62.1" x="492.795" y="129.9691">CourierState</text><line style="stroke: #A80036; stroke-width: 1.35;" x1="467.1" x2="557.1" y1="139.95" y2="139.95"/><text fill="#000000" font-family="sans-serif" font-size="9.9" lengthAdjust="spacingAndGlyphs" textLength="43.2" x="471.6" y="153.8271">-Integer id</text><text fill="#000000" font-family="sans-serif" font-size="9.9" lengthAdjust="spacingAndGlyphs" textLength="81" x="471.6" y="166.2794">-String designation</text><!--MD5=[f4402668d5d5bb8485350c0fdb60ac8e]
class Scooter--><rect codeLine="24" fill="#FEFECE" filter="url(#f1apv43srkin79)" height="48.4523" id="Scooter" style="stroke: #A80036; stroke-width: 1.35;" width="82.8" x="470.7" y="203.85"/><ellipse cx="491.49" cy="218.25" fill="#ADD1B2" rx="9.9" ry="9.9" style="stroke: #A80036; stroke-width: 0.9;"/><path d="M493.29,215.1 Q493.4728,214.65 493.6838,214.425 Q493.8947,214.2 494.1338,214.2 Q494.5556,214.2 494.8228,214.4531 Q495.09,214.7063 495.09,215.2969 L495.09,216.7031 Q495.09,217.2938 494.8369,217.5469 Q494.5838,217.8 494.19,217.8 Q493.8384,217.8 493.6134,217.6453 Q493.3884,217.4906 493.29,217.0828 Q493.2478,216.8016 493.0931,216.6469 Q492.8119,216.3516 492.3056,216.1828 Q491.7994,216 491.2931,216 Q490.6603,216 490.1259,216.2531 Q489.6056,216.5063 489.1978,217.0688 Q488.79,217.6313 488.79,218.4047 L488.79,219.2344 Q488.79,220.1625 489.5494,220.7813 Q490.3088,221.4 491.6588,221.4 Q492.4603,221.4 493.0228,221.2172 Q493.3463,221.1188 493.7119,220.7953 Q493.9509,220.6125 494.0775,220.5563 Q494.2041,220.5 494.3588,220.5 Q494.6541,220.5 494.865,220.7391 Q495.09,220.9641 495.09,221.2875 Q495.09,221.5969 494.7806,221.9625 Q494.3306,222.4969 493.6134,222.7922 Q492.6713,223.2 491.5181,223.2 Q490.1681,223.2 489.0853,222.6656 Q488.2134,222.2438 487.5947,221.3297 Q486.99,220.4156 486.99,219.3328 L486.99,218.3484 Q486.99,217.2234 487.5244,216.2391 Q488.0728,215.2547 489.015,214.7344 Q489.9713,214.2 491.04,214.2 Q491.6869,214.2 492.2494,214.425 Q492.8119,214.65 493.29,215.1 Z " fill="#000000"/><text fill="#000000" font-family="sans-serif" font-size="10.8" lengthAdjust="spacingAndGlyphs" textLength="37.8" x="505.71" y="222.6691">Scooter</text><line style="stroke: #A80036; stroke-width: 1.35;" x1="471.6" x2="552.6" y1="232.65" y2="232.65"/><text fill="#000000" font-family="sans-serif" font-size="9.9" lengthAdjust="spacingAndGlyphs" textLength="72" x="476.1" y="246.5271">-boolean qrCode</text><!--MD5=[3aa0d89c6bfdcbf7f32042cedac57549]
class Vehicle--><rect codeLine="28" fill="#FEFECE" filter="url(#f1apv43srkin79)" height="85.8094" id="Vehicle" style="stroke: #A80036; stroke-width: 1.35;" width="104.4" x="644.4" y="6.3"/><ellipse cx="675.72" cy="20.7" fill="#ADD1B2" rx="9.9" ry="9.9" style="stroke: #A80036; stroke-width: 0.9;"/><path d="M677.52,17.55 Q677.7028,17.1 677.9137,16.875 Q678.1247,16.65 678.3638,16.65 Q678.7856,16.65 679.0528,16.9031 Q679.32,17.1563 679.32,17.7469 L679.32,19.1531 Q679.32,19.7438 679.0669,19.9969 Q678.8138,20.25 678.42,20.25 Q678.0684,20.25 677.8434,20.0953 Q677.6184,19.9406 677.52,19.5328 Q677.4778,19.2516 677.3231,19.0969 Q677.0419,18.8016 676.5356,18.6328 Q676.0294,18.45 675.5231,18.45 Q674.8903,18.45 674.3559,18.7031 Q673.8356,18.9563 673.4278,19.5188 Q673.02,20.0813 673.02,20.8547 L673.02,21.6844 Q673.02,22.6125 673.7794,23.2313 Q674.5387,23.85 675.8888,23.85 Q676.6903,23.85 677.2528,23.6672 Q677.5763,23.5688 677.9419,23.2453 Q678.1809,23.0625 678.3075,23.0063 Q678.4341,22.95 678.5888,22.95 Q678.8841,22.95 679.095,23.1891 Q679.32,23.4141 679.32,23.7375 Q679.32,24.0469 679.0106,24.4125 Q678.5606,24.9469 677.8434,25.2422 Q676.9013,25.65 675.7481,25.65 Q674.3981,25.65 673.3153,25.1156 Q672.4434,24.6938 671.8247,23.7797 Q671.22,22.8656 671.22,21.7828 L671.22,20.7984 Q671.22,19.6734 671.7544,18.6891 Q672.3028,17.7047 673.245,17.1844 Q674.2013,16.65 675.27,16.65 Q675.9169,16.65 676.4794,16.875 Q677.0419,17.1 677.52,17.55 Z " fill="#000000"/><text fill="#000000" font-family="sans-serif" font-size="10.8" lengthAdjust="spacingAndGlyphs" textLength="36" x="692.28" y="25.1191">Vehicle</text><line style="stroke: #A80036; stroke-width: 1.35;" x1="645.3" x2="747.9" y1="35.1" y2="35.1"/><text fill="#000000" font-family="sans-serif" font-size="9.9" lengthAdjust="spacingAndGlyphs" textLength="43.2" x="649.8" y="48.9771">-Integer id</text><text fill="#000000" font-family="sans-serif" font-size="9.9" lengthAdjust="spacingAndGlyphs" textLength="93.6" x="649.8" y="61.4294">-float batteryCapacity</text><text fill="#000000" font-family="sans-serif" font-size="9.9" lengthAdjust="spacingAndGlyphs" textLength="55.8" x="649.8" y="73.8817">-float battery</text><text fill="#000000" font-family="sans-serif" font-size="9.9" lengthAdjust="spacingAndGlyphs" textLength="87.3" x="649.8" y="86.3341">-double maxPayload</text><!--MD5=[da547346deef918ea16944ba046651ef]
class Administrator--><rect codeLine="34" fill="#FEFECE" filter="url(#f1apv43srkin79)" height="36" id="Administrator" style="stroke: #A80036; stroke-width: 1.35;" width="94.5" x="6.3" y="203.85"/><ellipse cx="19.8" cy="218.25" fill="#ADD1B2" rx="9.9" ry="9.9" style="stroke: #A80036; stroke-width: 0.9;"/><path d="M21.6,215.1 Q21.7828,214.65 21.9938,214.425 Q22.2047,214.2 22.4438,214.2 Q22.8656,214.2 23.1328,214.4531 Q23.4,214.7063 23.4,215.2969 L23.4,216.7031 Q23.4,217.2938 23.1469,217.5469 Q22.8938,217.8 22.5,217.8 Q22.1484,217.8 21.9234,217.6453 Q21.6984,217.4906 21.6,217.0828 Q21.5578,216.8016 21.4031,216.6469 Q21.1219,216.3516 20.6156,216.1828 Q20.1094,216 19.6031,216 Q18.9703,216 18.4359,216.2531 Q17.9156,216.5063 17.5078,217.0688 Q17.1,217.6313 17.1,218.4047 L17.1,219.2344 Q17.1,220.1625 17.8594,220.7813 Q18.6188,221.4 19.9688,221.4 Q20.7703,221.4 21.3328,221.2172 Q21.6563,221.1188 22.0219,220.7953 Q22.2609,220.6125 22.3875,220.5563 Q22.5141,220.5 22.6688,220.5 Q22.9641,220.5 23.175,220.7391 Q23.4,220.9641 23.4,221.2875 Q23.4,221.5969 23.0906,221.9625 Q22.6406,222.4969 21.9234,222.7922 Q20.9813,223.2 19.8281,223.2 Q18.4781,223.2 17.3953,222.6656 Q16.5234,222.2438 15.9047,221.3297 Q15.3,220.4156 15.3,219.3328 L15.3,218.3484 Q15.3,217.2234 15.8344,216.2391 Q16.3828,215.2547 17.325,214.7344 Q18.2813,214.2 19.35,214.2 Q19.9969,214.2 20.5594,214.425 Q21.1219,214.65 21.6,215.1 Z " fill="#000000"/><text fill="#000000" font-family="sans-serif" font-size="10.8" lengthAdjust="spacingAndGlyphs" textLength="65.7" x="32.4" y="222.6691">Administrator</text><line style="stroke: #A80036; stroke-width: 1.35;" x1="7.2" x2="99.9" y1="232.65" y2="232.65"/><!--MD5=[3fd616f346a44cd59a91eb10b19e157c]
class User--><rect codeLine="37" fill="#FEFECE" filter="url(#f1apv43srkin79)" height="85.8094" id="User" style="stroke: #A80036; stroke-width: 1.35;" width="87.3" x="212.4" y="222.3"/><ellipse cx="241.29" cy="236.7" fill="#ADD1B2" rx="9.9" ry="9.9" style="stroke: #A80036; stroke-width: 0.9;"/><path d="M243.09,233.55 Q243.2728,233.1 243.4838,232.875 Q243.6947,232.65 243.9338,232.65 Q244.3556,232.65 244.6228,232.9031 Q244.89,233.1563 244.89,233.7469 L244.89,235.1531 Q244.89,235.7438 244.6369,235.9969 Q244.3838,236.25 243.99,236.25 Q243.6384,236.25 243.4134,236.0953 Q243.1884,235.9406 243.09,235.5328 Q243.0478,235.2516 242.8931,235.0969 Q242.6119,234.8016 242.1056,234.6328 Q241.5994,234.45 241.0931,234.45 Q240.4603,234.45 239.9259,234.7031 Q239.4056,234.9563 238.9978,235.5188 Q238.59,236.0813 238.59,236.8547 L238.59,237.6844 Q238.59,238.6125 239.3494,239.2313 Q240.1088,239.85 241.4588,239.85 Q242.2603,239.85 242.8228,239.6672 Q243.1463,239.5688 243.5119,239.2453 Q243.7509,239.0625 243.8775,239.0063 Q244.0041,238.95 244.1588,238.95 Q244.4541,238.95 244.665,239.1891 Q244.89,239.4141 244.89,239.7375 Q244.89,240.0469 244.5806,240.4125 Q244.1306,240.9469 243.4134,241.2422 Q242.4713,241.65 241.3181,241.65 Q239.9681,241.65 238.8853,241.1156 Q238.0134,240.6938 237.3947,239.7797 Q236.79,238.8656 236.79,237.7828 L236.79,236.7984 Q236.79,235.6734 237.3244,234.6891 Q237.8728,233.7047 238.815,233.1844 Q239.7713,232.65 240.84,232.65 Q241.4869,232.65 242.0494,232.875 Q242.6119,233.1 243.09,233.55 Z " fill="#000000"/><text fill="#000000" font-family="sans-serif" font-size="10.8" lengthAdjust="spacingAndGlyphs" textLength="24.3" x="257.31" y="241.1191">User</text><line style="stroke: #A80036; stroke-width: 1.35;" x1="213.3" x2="298.8" y1="251.1" y2="251.1"/><text fill="#000000" font-family="sans-serif" font-size="9.9" lengthAdjust="spacingAndGlyphs" textLength="53.1" x="217.8" y="264.9771">-String email</text><text fill="#000000" font-family="sans-serif" font-size="9.9" lengthAdjust="spacingAndGlyphs" textLength="29.7" x="217.8" y="277.4294">-int NIF</text><text fill="#000000" font-family="sans-serif" font-size="9.9" lengthAdjust="spacingAndGlyphs" textLength="54.9" x="217.8" y="289.8817">-String name</text><text fill="#000000" font-family="sans-serif" font-size="9.9" lengthAdjust="spacingAndGlyphs" textLength="76.5" x="217.8" y="302.3341">-String password</text><!--MD5=[edc107c0a572352bcd12c9afaba4390b]
link Administrator to User--><path codeLine="47" d="M100.9989,231.8695 C134.5806,239.0979 179.5743,248.7827 212.2794,255.8223 " fill="none" id="Administrator-User" style="stroke: #A80036; stroke-width: 0.9;"/><polygon fill="#000000" points="136.6992,231.0551,129.2975,226.7563,128.1844,231.9279,136.6992,231.0551" style="stroke: #000000; stroke-width: 0.9;"/><text fill="#000000" font-family="sans-serif" font-size="11.7" lengthAdjust="spacingAndGlyphs" textLength="44.1" x="140.4" y="234.8956">acts like</text><text fill="#000000" font-family="sans-serif" font-size="11.7" lengthAdjust="spacingAndGlyphs" textLength="6.3" x="108.1144" y="246.4589">1</text><text fill="#000000" font-family="sans-serif" font-size="11.7" lengthAdjust="spacingAndGlyphs" textLength="6.3" x="198.7947" y="267.658">1</text><!--MD5=[ee27bb4a35795612dd183df45031e556]
link Administrator to Courier--><path codeLine="48" d="M99.7416,203.7744 C134.0784,190.0701 180.873,171.3942 214.1181,158.1264 " fill="none" id="Administrator-Courier" style="stroke: #A80036; stroke-width: 0.9;"/><polygon fill="#000000" points="137.8294,160.0402,129.2883,160.6011,131.2492,165.5143,137.8294,160.0402" style="stroke: #000000; stroke-width: 0.9;"/><text fill="#000000" font-family="sans-serif" font-size="11.7" lengthAdjust="spacingAndGlyphs" textLength="41.4" x="141.75" y="166.4956">updates</text><text fill="#000000" font-family="sans-serif" font-size="11.7" lengthAdjust="spacingAndGlyphs" textLength="6.3" x="106.0846" y="194.1418">1</text><text fill="#000000" font-family="sans-serif" font-size="11.7" lengthAdjust="spacingAndGlyphs" textLength="4.5" x="202.5766" y="174.0418">*</text><!--MD5=[a6555772697f24f0ba1eb2fefc99ef48]
link Courier to Scooter--><path codeLine="49" d="M298.0818,155.7279 C345.5856,171.8703 423.2484,198.2619 470.5479,214.335 " fill="none" id="Courier-Scooter" style="stroke: #A80036; stroke-width: 0.9;"/><polygon fill="#000000" points="372.3607,167.6561,365.504,162.5325,363.802,167.5412,372.3607,167.6561" style="stroke: #000000; stroke-width: 0.9;"/><text fill="#000000" font-family="sans-serif" font-size="11.7" lengthAdjust="spacingAndGlyphs" textLength="25.2" x="376.2" y="170.9956">uses</text><text fill="#000000" font-family="sans-serif" font-size="11.7" lengthAdjust="spacingAndGlyphs" textLength="6.3" x="305.0003" y="171.1282">1</text><text fill="#000000" font-family="sans-serif" font-size="11.7" lengthAdjust="spacingAndGlyphs" textLength="18" x="445.439" y="225.583">1..*</text><!--MD5=[88616e74bf96530d476f0a19698bdbd4]
link Courier to Pharmacy--><path codeLine="50" d="M298.0818,126.7533 C344.0403,109.9971 418.2246,82.9485 465.8355,65.5902 " fill="none" id="Courier-Pharmacy" style="stroke: #A80036; stroke-width: 0.9;"/><polygon fill="#000000" points="363.3278,75.5668,354.7736,75.8702,356.5857,80.8403,363.3278,75.5668" style="stroke: #000000; stroke-width: 0.9;"/><text fill="#000000" font-family="sans-serif" font-size="11.7" lengthAdjust="spacingAndGlyphs" textLength="43.2" x="367.2" y="81.8956">works in</text><text fill="#000000" font-family="sans-serif" font-size="11.7" lengthAdjust="spacingAndGlyphs" textLength="4.5" x="305.1392" y="137.6686">*</text><text fill="#000000" font-family="sans-serif" font-size="11.7" lengthAdjust="spacingAndGlyphs" textLength="6.3" x="452.5866" y="81.1173">1</text><!--MD5=[b96cbfe587e5bbe9a6bfd521aa63f6d2]
link Courier to CourierState--><path codeLine="51" d="M298.0818,141.75 C344.0403,141.75 418.2246,141.75 465.8355,141.75 " fill="none" id="Courier-CourierState" style="stroke: #A80036; stroke-width: 0.9;"/><polygon fill="#000000" points="375.75,133.8082,367.6094,131.1632,367.6094,136.4532,375.75,133.8082" style="stroke: #000000; stroke-width: 0.9;"/><text fill="#000000" font-family="sans-serif" font-size="11.7" lengthAdjust="spacingAndGlyphs" textLength="18.9" x="379.35" y="138.5956">has</text><text fill="#000000" font-family="sans-serif" font-size="11.7" lengthAdjust="spacingAndGlyphs" textLength="6.3" x="305.0003" y="155.0099">1</text><text fill="#000000" font-family="sans-serif" font-size="11.7" lengthAdjust="spacingAndGlyphs" textLength="6.3" x="452.5866" y="154.9511">1</text><!--MD5=[54d578fb0508ace1f5af24263b5e5dc0]
link Pharmacy to Vehicle--><path codeLine="52" d="M558.162,49.05 C584.262,49.05 617.1894,49.05 644.2821,49.05 " fill="none" id="Pharmacy-Vehicle" style="stroke: #A80036; stroke-width: 0.9;"/><polygon fill="#000000" points="594,41.1082,585.8594,38.4632,585.8594,43.7532,594,41.1082" style="stroke: #000000; stroke-width: 0.9;"/><text fill="#000000" font-family="sans-serif" font-size="11.7" lengthAdjust="spacingAndGlyphs" textLength="18.9" x="597.6" y="45.8956">has</text><text fill="#000000" font-family="sans-serif" font-size="11.7" lengthAdjust="spacingAndGlyphs" textLength="6.3" x="565.0824" y="62.2511">1</text><text fill="#000000" font-family="sans-serif" font-size="11.7" lengthAdjust="spacingAndGlyphs" textLength="18" x="619.1922" y="62.0285">1..*</text><!--MD5=[4e35249c167aa06188f5c6e29bee9ff4]
@startuml
skinparam classAttributeIconSize 0
hide methods
left to right direction


class Pharmacy {
    -Integer id
    -String designation
}

class Courier {
    -Integer nif
    -char niss
    -String name
    -String email
    -float maxWeight
}

class CourierState{
    -Integer id
    -String designation
}

class Scooter {
    -boolean qrCode
}

class Vehicle{
    -Integer id
    -float batteryCapacity
    -float battery
    -double maxPayload
}
class Administrator {

}
class User{
-String email
-int NIF
-String name
-String password
}


/'- - - - - - - - - - - - - - - - - - - - - - - - - - - - - - - - - - - - - - - - - - - - - - - - - - - - - - - - - - - - - - - - - - - - - - - - - - - - - - - - - - - - '/

Administrator "1" - - "1" User: acts like >
Administrator "1" - - "*" Courier: updates >
Courier "1" - - - "1..*" Scooter: uses >
Courier "*" - - - "1" Pharmacy: works in >
Courier "1" - - - "1" CourierState: has >
Pharmacy "1" - - "1..*" Vehicle: has >






@enduml

@startuml
skinparam classAttributeIconSize 0
hide methods
left to right direction


class Pharmacy {
    -Integer id
    -String designation
}

class Courier {
    -Integer nif
    -char niss
    -String name
    -String email
    -float maxWeight
}

class CourierState{
    -Integer id
    -String designation
}

class Scooter {
    -boolean qrCode
}

class Vehicle{
    -Integer id
    -float batteryCapacity
    -float battery
    -double maxPayload
}
class Administrator {

}
class User{
-String email
-int NIF
-String name
-String password
}



Administrator "1" - - "1" User: acts like >
Administrator "1" - - "*" Courier: updates >
Courier "1" - - - "1..*" Scooter: uses >
Courier "*" - - - "1" Pharmacy: works in >
Courier "1" - - - "1" CourierState: has >
Pharmacy "1" - - "1..*" Vehicle: has >






@enduml

PlantUML version 1.2020.20(Sat Nov 21 10:02:45 GMT 2020)
(GPL source distribution)
Java Runtime: OpenJDK Runtime Environment
JVM: OpenJDK 64-Bit Server VM
Default Encoding: Cp1252
Language: pt
Country: PT
--></g></svg>