<?xml version="1.0" encoding="UTF-8" standalone="no"?><svg xmlns="http://www.w3.org/2000/svg" xmlns:xlink="http://www.w3.org/1999/xlink" contentScriptType="application/ecmascript" contentStyleType="text/css" height="173.7px" preserveAspectRatio="none" style="width:811px;height:173px;" version="1.1" viewBox="0 0 811 173" width="811.8px" zoomAndPan="magnify"><defs><filter height="300%" id="fymgmsnnjoio6" width="300%" x="-1" y="-1"><feGaussianBlur result="blurOut" stdDeviation="1.8"/><feColorMatrix in="blurOut" result="blurOut2" type="matrix" values="0 0 0 0 0 0 0 0 0 0 0 0 0 0 0 0 0 0 .4 0"/><feOffset dx="3.6" dy="3.6" in="blurOut2" result="blurOut3"/><feBlend in="SourceGraphic" in2="blurOut3" mode="normal"/></filter></defs><g><!--MD5=[17a3ebf5611c1ba9c6fd429f5d0d77a4]
class CourierDB--><rect codeLine="5" fill="#FEFECE" filter="url(#fymgmsnnjoio6)" height="68.1047" id="CourierDB" style="stroke: #A80036; stroke-width: 1.35;" width="284.4" x="514.8" y="6.3"/><ellipse cx="627.075" cy="20.7" fill="#ADD1B2" rx="9.9" ry="9.9" style="stroke: #A80036; stroke-width: 0.9;"/><path d="M628.875,17.55 Q629.0578,17.1 629.2688,16.875 Q629.4797,16.65 629.7188,16.65 Q630.1406,16.65 630.4078,16.9031 Q630.675,17.1563 630.675,17.7469 L630.675,19.1531 Q630.675,19.7438 630.4219,19.9969 Q630.1688,20.25 629.775,20.25 Q629.4234,20.25 629.1984,20.0953 Q628.9734,19.9406 628.875,19.5328 Q628.8328,19.2516 628.6781,19.0969 Q628.3969,18.8016 627.8906,18.6328 Q627.3844,18.45 626.8781,18.45 Q626.2453,18.45 625.7109,18.7031 Q625.1906,18.9563 624.7828,19.5188 Q624.375,20.0813 624.375,20.8547 L624.375,21.6844 Q624.375,22.6125 625.1344,23.2313 Q625.8938,23.85 627.2438,23.85 Q628.0453,23.85 628.6078,23.6672 Q628.9313,23.5688 629.2969,23.2453 Q629.5359,23.0625 629.6625,23.0063 Q629.7891,22.95 629.9438,22.95 Q630.2391,22.95 630.45,23.1891 Q630.675,23.4141 630.675,23.7375 Q630.675,24.0469 630.3656,24.4125 Q629.9156,24.9469 629.1984,25.2422 Q628.2563,25.65 627.1031,25.65 Q625.7531,25.65 624.6703,25.1156 Q623.7984,24.6938 623.1797,23.7797 Q622.575,22.8656 622.575,21.7828 L622.575,20.7984 Q622.575,19.6734 623.1094,18.6891 Q623.6578,17.7047 624.6,17.1844 Q625.5563,16.65 626.625,16.65 Q627.2719,16.65 627.8344,16.875 Q628.3969,17.1 628.875,17.55 Z " fill="#000000"/><text fill="#000000" font-family="sans-serif" font-size="10.8" lengthAdjust="spacingAndGlyphs" textLength="52.2" x="645.525" y="25.1191">CourierDB</text><line style="stroke: #A80036; stroke-width: 1.35;" x1="515.7" x2="798.3" y1="35.1" y2="35.1"/><line style="stroke: #A80036; stroke-width: 1.35;" x1="515.7" x2="798.3" y1="42.3" y2="42.3"/><text fill="#000000" font-family="sans-serif" font-size="9.9" lengthAdjust="spacingAndGlyphs" textLength="72.9" x="520.2" y="56.1771">+getCourierList()</text><text fill="#000000" font-family="sans-serif" font-size="9.9" lengthAdjust="spacingAndGlyphs" textLength="273.6" x="520.2" y="68.6294">+updateCourier(name,nif,niss,email,state,pharmacyId,vehicleId)</text><!--MD5=[b860ecc58d0ca70e482845cb1f7b4615]
class PharmacyDB--><rect codeLine="10" fill="#FEFECE" filter="url(#fymgmsnnjoio6)" height="55.6523" id="PharmacyDB" style="stroke: #A80036; stroke-width: 1.35;" width="98.1" x="607.95" y="106.2"/><ellipse cx="623.475" cy="120.6" fill="#ADD1B2" rx="9.9" ry="9.9" style="stroke: #A80036; stroke-width: 0.9;"/><path d="M625.275,117.45 Q625.4578,117 625.6688,116.775 Q625.8797,116.55 626.1188,116.55 Q626.5406,116.55 626.8078,116.8031 Q627.075,117.0563 627.075,117.6469 L627.075,119.0531 Q627.075,119.6438 626.8219,119.8969 Q626.5688,120.15 626.175,120.15 Q625.8234,120.15 625.5984,119.9953 Q625.3734,119.8406 625.275,119.4328 Q625.2328,119.1516 625.0781,118.9969 Q624.7969,118.7016 624.2906,118.5328 Q623.7844,118.35 623.2781,118.35 Q622.6453,118.35 622.1109,118.6031 Q621.5906,118.8563 621.1828,119.4188 Q620.775,119.9813 620.775,120.7547 L620.775,121.5844 Q620.775,122.5125 621.5344,123.1313 Q622.2938,123.75 623.6438,123.75 Q624.4453,123.75 625.0078,123.5672 Q625.3313,123.4688 625.6969,123.1453 Q625.9359,122.9625 626.0625,122.9063 Q626.1891,122.85 626.3438,122.85 Q626.6391,122.85 626.85,123.0891 Q627.075,123.3141 627.075,123.6375 Q627.075,123.9469 626.7656,124.3125 Q626.3156,124.8469 625.5984,125.1422 Q624.6563,125.55 623.5031,125.55 Q622.1531,125.55 621.0703,125.0156 Q620.1984,124.5938 619.5797,123.6797 Q618.975,122.7656 618.975,121.6828 L618.975,120.6984 Q618.975,119.5734 619.5094,118.5891 Q620.0578,117.6047 621,117.0844 Q621.9563,116.55 623.025,116.55 Q623.6719,116.55 624.2344,116.775 Q624.7969,117 625.275,117.45 Z " fill="#000000"/><text fill="#000000" font-family="sans-serif" font-size="10.8" lengthAdjust="spacingAndGlyphs" textLength="64.8" x="636.525" y="125.0191">PharmacyDB</text><line style="stroke: #A80036; stroke-width: 1.35;" x1="608.85" x2="705.15" y1="135" y2="135"/><line style="stroke: #A80036; stroke-width: 1.35;" x1="608.85" x2="705.15" y1="142.2" y2="142.2"/><text fill="#000000" font-family="sans-serif" font-size="9.9" lengthAdjust="spacingAndGlyphs" textLength="87.3" x="613.35" y="156.0771">+getAllPharmacies()</text><!--MD5=[31cd0dbce0ee273eb91fa6d1836b5e4c]
class ManageCourierController--><rect codeLine="15" fill="#FEFECE" filter="url(#fymgmsnnjoio6)" height="68.1047" id="ManageCourierController" style="stroke: #A80036; stroke-width: 1.35;" width="284.4" x="176.4" y="6.3"/><ellipse cx="252.225" cy="20.7" fill="#ADD1B2" rx="9.9" ry="9.9" style="stroke: #A80036; stroke-width: 0.9;"/><path d="M254.025,17.55 Q254.2078,17.1 254.4188,16.875 Q254.6297,16.65 254.8688,16.65 Q255.2906,16.65 255.5578,16.9031 Q255.825,17.1563 255.825,17.7469 L255.825,19.1531 Q255.825,19.7438 255.5719,19.9969 Q255.3188,20.25 254.925,20.25 Q254.5734,20.25 254.3484,20.0953 Q254.1234,19.9406 254.025,19.5328 Q253.9828,19.2516 253.8281,19.0969 Q253.5469,18.8016 253.0406,18.6328 Q252.5344,18.45 252.0281,18.45 Q251.3953,18.45 250.8609,18.7031 Q250.3406,18.9563 249.9328,19.5188 Q249.525,20.0813 249.525,20.8547 L249.525,21.6844 Q249.525,22.6125 250.2844,23.2313 Q251.0438,23.85 252.3938,23.85 Q253.1953,23.85 253.7578,23.6672 Q254.0813,23.5688 254.4469,23.2453 Q254.6859,23.0625 254.8125,23.0063 Q254.9391,22.95 255.0938,22.95 Q255.3891,22.95 255.6,23.1891 Q255.825,23.4141 255.825,23.7375 Q255.825,24.0469 255.5156,24.4125 Q255.0656,24.9469 254.3484,25.2422 Q253.4063,25.65 252.2531,25.65 Q250.9031,25.65 249.8203,25.1156 Q248.9484,24.6938 248.3297,23.7797 Q247.725,22.8656 247.725,21.7828 L247.725,20.7984 Q247.725,19.6734 248.2594,18.6891 Q248.8078,17.7047 249.75,17.1844 Q250.7063,16.65 251.775,16.65 Q252.4219,16.65 252.9844,16.875 Q253.5469,17.1 254.025,17.55 Z " fill="#000000"/><text fill="#000000" font-family="sans-serif" font-size="10.8" lengthAdjust="spacingAndGlyphs" textLength="125.1" x="270.675" y="25.1191">ManageCourierController</text><line style="stroke: #A80036; stroke-width: 1.35;" x1="177.3" x2="459.9" y1="35.1" y2="35.1"/><line style="stroke: #A80036; stroke-width: 1.35;" x1="177.3" x2="459.9" y1="42.3" y2="42.3"/><text fill="#000000" font-family="sans-serif" font-size="9.9" lengthAdjust="spacingAndGlyphs" textLength="72.9" x="181.8" y="56.1771">+getCourierList()</text><text fill="#000000" font-family="sans-serif" font-size="9.9" lengthAdjust="spacingAndGlyphs" textLength="273.6" x="181.8" y="68.6294">+updateCourier(name,nif,niss,email,state,pharmacyId,vehicleId)</text><!--MD5=[72850ab1f2b39c2e9c41c48bf9ecb15e]
class PharmacyController--><rect codeLine="20" fill="#FEFECE" filter="url(#fymgmsnnjoio6)" height="55.6523" id="PharmacyController" style="stroke: #A80036; stroke-width: 1.35;" width="126.9" x="255.15" y="106.2"/><ellipse cx="268.65" cy="120.6" fill="#ADD1B2" rx="9.9" ry="9.9" style="stroke: #A80036; stroke-width: 0.9;"/><path d="M270.45,117.45 Q270.6328,117 270.8438,116.775 Q271.0547,116.55 271.2938,116.55 Q271.7156,116.55 271.9828,116.8031 Q272.25,117.0563 272.25,117.6469 L272.25,119.0531 Q272.25,119.6438 271.9969,119.8969 Q271.7438,120.15 271.35,120.15 Q270.9984,120.15 270.7734,119.9953 Q270.5484,119.8406 270.45,119.4328 Q270.4078,119.1516 270.2531,118.9969 Q269.9719,118.7016 269.4656,118.5328 Q268.9594,118.35 268.4531,118.35 Q267.8203,118.35 267.2859,118.6031 Q266.7656,118.8563 266.3578,119.4188 Q265.95,119.9813 265.95,120.7547 L265.95,121.5844 Q265.95,122.5125 266.7094,123.1313 Q267.4688,123.75 268.8188,123.75 Q269.6203,123.75 270.1828,123.5672 Q270.5063,123.4688 270.8719,123.1453 Q271.1109,122.9625 271.2375,122.9063 Q271.3641,122.85 271.5188,122.85 Q271.8141,122.85 272.025,123.0891 Q272.25,123.3141 272.25,123.6375 Q272.25,123.9469 271.9406,124.3125 Q271.4906,124.8469 270.7734,125.1422 Q269.8313,125.55 268.6781,125.55 Q267.3281,125.55 266.2453,125.0156 Q265.3734,124.5938 264.7547,123.6797 Q264.15,122.7656 264.15,121.6828 L264.15,120.6984 Q264.15,119.5734 264.6844,118.5891 Q265.2328,117.6047 266.175,117.0844 Q267.1313,116.55 268.2,116.55 Q268.8469,116.55 269.4094,116.775 Q269.9719,117 270.45,117.45 Z " fill="#000000"/><text fill="#000000" font-family="sans-serif" font-size="10.8" lengthAdjust="spacingAndGlyphs" textLength="98.1" x="281.25" y="125.0191">PharmacyController</text><line style="stroke: #A80036; stroke-width: 1.35;" x1="256.05" x2="381.15" y1="135" y2="135"/><line style="stroke: #A80036; stroke-width: 1.35;" x1="256.05" x2="381.15" y1="142.2" y2="142.2"/><text fill="#000000" font-family="sans-serif" font-size="9.9" lengthAdjust="spacingAndGlyphs" textLength="87.3" x="260.55" y="156.0771">+getAllPharmacies()</text><!--MD5=[2de770b2ef94d36b74d5d6e3885db709]
class ManageCourierUI--><rect codeLine="24" fill="#FEFECE" filter="url(#fymgmsnnjoio6)" height="43.2" id="ManageCourierUI" style="stroke: #A80036; stroke-width: 1.35;" width="116.1" x="6.3" y="65.7"/><ellipse cx="19.8" cy="80.1" fill="#ADD1B2" rx="9.9" ry="9.9" style="stroke: #A80036; stroke-width: 0.9;"/><path d="M21.6,76.95 Q21.7828,76.5 21.9938,76.275 Q22.2047,76.05 22.4438,76.05 Q22.8656,76.05 23.1328,76.3031 Q23.4,76.5563 23.4,77.1469 L23.4,78.5531 Q23.4,79.1438 23.1469,79.3969 Q22.8938,79.65 22.5,79.65 Q22.1484,79.65 21.9234,79.4953 Q21.6984,79.3406 21.6,78.9328 Q21.5578,78.6516 21.4031,78.4969 Q21.1219,78.2016 20.6156,78.0328 Q20.1094,77.85 19.6031,77.85 Q18.9703,77.85 18.4359,78.1031 Q17.9156,78.3563 17.5078,78.9188 Q17.1,79.4813 17.1,80.2547 L17.1,81.0844 Q17.1,82.0125 17.8594,82.6313 Q18.6188,83.25 19.9688,83.25 Q20.7703,83.25 21.3328,83.0672 Q21.6563,82.9688 22.0219,82.6453 Q22.2609,82.4625 22.3875,82.4063 Q22.5141,82.35 22.6688,82.35 Q22.9641,82.35 23.175,82.5891 Q23.4,82.8141 23.4,83.1375 Q23.4,83.4469 23.0906,83.8125 Q22.6406,84.3469 21.9234,84.6422 Q20.9813,85.05 19.8281,85.05 Q18.4781,85.05 17.3953,84.5156 Q16.5234,84.0938 15.9047,83.1797 Q15.3,82.2656 15.3,81.1828 L15.3,80.1984 Q15.3,79.0734 15.8344,78.0891 Q16.3828,77.1047 17.325,76.5844 Q18.2813,76.05 19.35,76.05 Q19.9969,76.05 20.5594,76.275 Q21.1219,76.5 21.6,76.95 Z " fill="#000000"/><text fill="#000000" font-family="sans-serif" font-size="10.8" lengthAdjust="spacingAndGlyphs" textLength="87.3" x="32.4" y="84.5191">ManageCourierUI</text><line style="stroke: #A80036; stroke-width: 1.35;" x1="7.2" x2="121.5" y1="94.5" y2="94.5"/><line style="stroke: #A80036; stroke-width: 1.35;" x1="7.2" x2="121.5" y1="101.7" y2="101.7"/><!--MD5=[18279d0653af75169e9be7b9d4abdc8b]
link ManageCourierUI to ManageCourierController--><path codeLine="27" d="M122.535,76.6804 C137.5551,73.8959 154.4544,70.7634 171.8631,67.536 " fill="none" id="ManageCourierUI-to-ManageCourierController" style="stroke: #A80036; stroke-width: 0.9; stroke-dasharray: 7.0,7.0;"/><polygon fill="#A80036" points="176.3001,66.7134,167.6795,64.6504,171.8755,67.5338,168.9921,71.7297,176.3001,66.7134" style="stroke: #A80036; stroke-width: 0.9;"/><!--MD5=[ba7725e3b063ae998a1a21ab81cba398]
link ManageCourierUI to PharmacyController--><path codeLine="28" d="M122.535,97.9196 C160.4952,104.9569 210.456,114.2188 250.3251,121.6098 " fill="none" id="ManageCourierUI-to-PharmacyController" style="stroke: #A80036; stroke-width: 0.9; stroke-dasharray: 7.0,7.0;"/><polygon fill="#A80036" points="254.889,122.4558,247.581,117.4396,250.4644,121.6355,246.2685,124.5189,254.889,122.4558" style="stroke: #A80036; stroke-width: 0.9;"/><!--MD5=[737adc4311a9c7ffecc65510e75532b5]
link PharmacyController to PharmacyDB--><path codeLine="29" d="M382.4172,134.1 C446.1192,134.1 543.5262,134.1 603.3258,134.1 " fill="none" id="PharmacyController-to-PharmacyDB" style="stroke: #A80036; stroke-width: 0.9; stroke-dasharray: 7.0,7.0;"/><polygon fill="#A80036" points="607.9221,134.1,599.8221,130.5,603.4221,134.1,599.8221,137.7,607.9221,134.1" style="stroke: #A80036; stroke-width: 0.9;"/><!--MD5=[dec3ea2a98b4a1a7c0312487dd7aef04]
link ManageCourierController to CourierDB--><path codeLine="30" d="M461.0295,40.5 C477.2169,40.5 493.7436,40.5 509.9895,40.5 " fill="none" id="ManageCourierController-to-CourierDB" style="stroke: #A80036; stroke-width: 0.9; stroke-dasharray: 7.0,7.0;"/><polygon fill="#A80036" points="514.5633,40.5,506.4633,36.9,510.0633,40.5,506.4633,44.1,514.5633,40.5" style="stroke: #A80036; stroke-width: 0.9;"/><!--MD5=[0df579405ba78ee95802cdf8054005c8]
@startuml
skinparam classAttributeIconSize 0
left to right direction


class CourierDB{
  +getCourierList()
  +updateCourier(name,nif,niss,email,state,pharmacyId,vehicleId)
}

class PharmacyDB{
  +getAllPharmacies()
}


class ManageCourierController {
 +getCourierList()
 +updateCourier(name,nif,niss,email,state,pharmacyId,vehicleId)
}

class PharmacyController {
  +getAllPharmacies()
}

class ManageCourierUI {
}

ManageCourierUI  ..>  ManageCourierController
ManageCourierUI  ..>  PharmacyController
PharmacyController  ..>  PharmacyDB
ManageCourierController  ..>  CourierDB
@enduml

PlantUML version 1.2020.20(Sat Nov 21 10:02:45 GMT 2020)
(GPL source distribution)
Java Runtime: OpenJDK Runtime Environment
JVM: OpenJDK 64-Bit Server VM
Default Encoding: Cp1252
Language: pt
Country: PT
--></g></svg>