<?xml version="1.0" encoding="UTF-8" standalone="no"?><svg xmlns="http://www.w3.org/2000/svg" xmlns:xlink="http://www.w3.org/1999/xlink" contentScriptType="application/ecmascript" contentStyleType="text/css" height="172px" preserveAspectRatio="none" style="width:724px;height:172px;" version="1.1" viewBox="0 0 724 172" width="724px" zoomAndPan="magnify"><defs><filter height="300%" id="f9vkg47hb44fw" width="300%" x="-1" y="-1"><feGaussianBlur result="blurOut" stdDeviation="4.0"/><feColorMatrix in="blurOut" result="blurOut2" type="matrix" values="0 0 0 0 0 0 0 0 0 0 0 0 0 0 0 0 0 0 .4 0"/><feOffset dx="8.0" dy="8.0" in="blurOut2" result="blurOut3"/><feBlend in="SourceGraphic" in2="blurOut3" mode="normal"/></filter></defs><g><!--MD5=[7f2a9fafcebe4f099f71398fd3e2ed00]
class Pharmacy--><rect codeLine="5" fill="#FEFECE" filter="url(#f9vkg47hb44fw)" height="131.8203" id="Pharmacy" style="stroke:#A80036;stroke-width:3.0;" width="232" x="14" y="14"/><ellipse cx="69.2" cy="46" fill="#ADD1B2" rx="22" ry="22" style="stroke:#A80036;stroke-width:2.0;"/><path d="M74.1463,58.2861 Q72.9842,58.8838 71.7059,59.1826 Q70.4275,59.4814 69.0164,59.4814 Q64.0027,59.4814 61.3631,56.1777 Q58.7234,52.874 58.7234,46.6318 Q58.7234,40.373 61.3631,37.0693 Q64.0027,33.7656 69.0164,33.7656 Q70.4275,33.7656 71.7225,34.0645 Q73.0174,34.3633 74.1463,34.9609 L74.1463,40.4063 Q72.8846,39.2441 71.6976,38.7046 Q70.5105,38.165 69.2488,38.165 Q66.5594,38.165 65.1897,40.2983 Q63.8201,42.4316 63.8201,46.6318 Q63.8201,50.8154 65.1897,52.9487 Q66.5594,55.082 69.2488,55.082 Q70.5105,55.082 71.6976,54.5425 Q72.8846,54.0029 74.1463,52.8408 Z " fill="#000000"/><text fill="#000000" font-family="sans-serif" font-size="24" lengthAdjust="spacing" textLength="112" x="102.8" y="55.0703">Pharmacy</text><line style="stroke:#A80036;stroke-width:3.0;" x1="16" x2="244" y1="78" y2="78"/><text fill="#000000" font-family="sans-serif" font-size="22" lengthAdjust="spacing" textLength="114" x="26" y="107.2695">-Integer id</text><text fill="#000000" font-family="sans-serif" font-size="22" lengthAdjust="spacing" textLength="208" x="26" y="133.1797">-String designation</text><!--MD5=[d1eeb527b96f439f56c6bd12ac0dd707]
class Park--><rect codeLine="11" fill="#FEFECE" filter="url(#f9vkg47hb44fw)" height="131.8203" id="Park" style="stroke:#A80036;stroke-width:3.0;" width="256" x="440" y="14"/><ellipse cx="533.5" cy="46" fill="#ADD1B2" rx="22" ry="22" style="stroke:#A80036;stroke-width:2.0;"/><path d="M538.4463,58.2861 Q537.2842,58.8838 536.0059,59.1826 Q534.7275,59.4814 533.3164,59.4814 Q528.3027,59.4814 525.6631,56.1777 Q523.0234,52.874 523.0234,46.6318 Q523.0234,40.373 525.6631,37.0693 Q528.3027,33.7656 533.3164,33.7656 Q534.7275,33.7656 536.0225,34.0645 Q537.3174,34.3633 538.4463,34.9609 L538.4463,40.4063 Q537.1846,39.2441 535.9976,38.7046 Q534.8105,38.165 533.5488,38.165 Q530.8594,38.165 529.4897,40.2983 Q528.1201,42.4316 528.1201,46.6318 Q528.1201,50.8154 529.4897,52.9487 Q530.8594,55.082 533.5488,55.082 Q534.8105,55.082 535.9976,54.5425 Q537.1846,54.0029 538.4463,52.8408 Z " fill="#000000"/><text fill="#000000" font-family="sans-serif" font-size="24" lengthAdjust="spacing" textLength="52" x="574.5" y="55.0703">Park</text><line style="stroke:#A80036;stroke-width:3.0;" x1="442" x2="694" y1="78" y2="78"/><text fill="#000000" font-family="sans-serif" font-size="22" lengthAdjust="spacing" textLength="114" x="452" y="107.2695">-Integer id</text><text fill="#000000" font-family="sans-serif" font-size="22" lengthAdjust="spacing" textLength="232" x="452" y="133.1797">-Integer maxCapacity</text><!--MD5=[0ae4e3be80761dbc176b3d01b8ab98e4]
link Pharmacy to Park--><path codeLine="19" d="M246.02,80 C305.54,80 378.52,80 439.74,80 " fill="none" id="Pharmacy-Park" style="stroke:#A80036;stroke-width:2.0;"/><polygon fill="#000000" points="326,63.3105,307.9098,57.4327,307.9098,69.1884,326,63.3105" style="stroke:#000000;stroke-width:2.0;"/><text fill="#000000" font-family="sans-serif" font-size="26" lengthAdjust="spacing" textLength="44" x="334" y="73.1367">has</text><text fill="#000000" font-family="sans-serif" font-size="26" lengthAdjust="spacing" textLength="16" x="261.9101" y="107.1099">1</text><text fill="#000000" font-family="sans-serif" font-size="26" lengthAdjust="spacing" textLength="44" x="380.2444" y="106.7249">1..*</text><!--MD5=[70c8dc23f3a95c46d52e16f0f4a8b730]
@startuml
skinparam classAttributeIconSize 0
hide methods
left to right direction

class Pharmacy {
    -Integer id
    -String designation
}


class Park {
    -Integer id
    -Integer maxCapacity
}

/'- - - - - - - - - - - - - - - - - - - - - - - - - - - - - - - - - - - - - - - - - - - - - - - - - - - - - - - - - - - - - - - - - - - - - - - - - - - - - - - - - - - - '/


Pharmacy "1" - - "1..*" Park: has >

@enduml

@startuml
skinparam classAttributeIconSize 0
hide methods
left to right direction

class Pharmacy {
    -Integer id
    -String designation
}


class Park {
    -Integer id
    -Integer maxCapacity
}



Pharmacy "1" - - "1..*" Park: has >

@enduml

PlantUML version 1.2021.00(Sun Jan 10 10:25:05 WET 2021)
(GPL source distribution)
Java Runtime: OpenJDK Runtime Environment
JVM: OpenJDK 64-Bit Server VM
Default Encoding: UTF-8
Language: en
Country: GB
--></g></svg>