<?xml version="1.0" encoding="UTF-8" standalone="no"?><svg xmlns="http://www.w3.org/2000/svg" xmlns:xlink="http://www.w3.org/1999/xlink" contentScriptType="application/ecmascript" contentStyleType="text/css" height="482px" preserveAspectRatio="none" style="width:960px;height:482px;" version="1.1" viewBox="0 0 960 482" width="960px" zoomAndPan="magnify"><defs><filter height="300%" id="fz6iw1yjq6iid" width="300%" x="-1" y="-1"><feGaussianBlur result="blurOut" stdDeviation="2.0"/><feColorMatrix in="blurOut" result="blurOut2" type="matrix" values="0 0 0 0 0 0 0 0 0 0 0 0 0 0 0 0 0 0 .4 0"/><feOffset dx="4.0" dy="4.0" in="blurOut2" result="blurOut3"/><feBlend in="SourceGraphic" in2="blurOut3" mode="normal"/></filter></defs><g><!--MD5=[04a6dc905fadf4994c7d41028efe6599]
class AddProductToBasketUI--><rect codeLine="2" fill="#FEFECE" filter="url(#fz6iw1yjq6iid)" height="48" id="AddProductToBasketUI" style="stroke:#A80036;stroke-width:1.5;" width="159" x="429" y="7"/><ellipse cx="444" cy="23" fill="#ADD1B2" rx="11" ry="11" style="stroke:#A80036;stroke-width:1.0;"/><path d="M446,19.5 Q446.2031,19 446.4375,18.75 Q446.6719,18.5 446.9375,18.5 Q447.4063,18.5 447.7031,18.7813 Q448,19.0625 448,19.7188 L448,21.2813 Q448,21.9375 447.7188,22.2188 Q447.4375,22.5 447,22.5 Q446.6094,22.5 446.3594,22.3281 Q446.1094,22.1563 446,21.7031 Q445.9531,21.3906 445.7813,21.2188 Q445.4688,20.8906 444.9063,20.7031 Q444.3438,20.5 443.7813,20.5 Q443.0781,20.5 442.4844,20.7813 Q441.9063,21.0625 441.4531,21.6875 Q441,22.3125 441,23.1719 L441,24.0938 Q441,25.125 441.8438,25.8125 Q442.6875,26.5 444.1875,26.5 Q445.0781,26.5 445.7031,26.2969 Q446.0625,26.1875 446.4688,25.8281 Q446.7344,25.625 446.875,25.5625 Q447.0156,25.5 447.1875,25.5 Q447.5156,25.5 447.75,25.7656 Q448,26.0156 448,26.375 Q448,26.7188 447.6563,27.125 Q447.1563,27.7188 446.3594,28.0469 Q445.3125,28.5 444.0313,28.5 Q442.5313,28.5 441.3281,27.9063 Q440.3594,27.4375 439.6719,26.4219 Q439,25.4063 439,24.2031 L439,23.1094 Q439,21.8594 439.5938,20.7656 Q440.2031,19.6719 441.25,19.0938 Q442.3125,18.5 443.5,18.5 Q444.2188,18.5 444.8438,18.75 Q445.4688,19 446,19.5 Z " fill="#000000"/><text fill="#000000" font-family="sans-serif" font-size="12" lengthAdjust="spacing" textLength="127" x="458" y="27.9102">AddProductToBasketUI</text><line style="stroke:#A80036;stroke-width:1.5;" x1="430" x2="587" y1="39" y2="39"/><line style="stroke:#A80036;stroke-width:1.5;" x1="430" x2="587" y1="47" y2="47"/><!--MD5=[9e3d4a81c16f3217b7c8ab40ed3b705f]
class AddProductToBasketController--><rect codeLine="6" fill="#FEFECE" filter="url(#fz6iw1yjq6iid)" height="75.6719" id="AddProductToBasketController" style="stroke:#A80036;stroke-width:1.5;" width="279" x="369" y="116"/><ellipse cx="419.75" cy="132" fill="#ADD1B2" rx="11" ry="11" style="stroke:#A80036;stroke-width:1.0;"/><path d="M421.75,128.5 Q421.9531,128 422.1875,127.75 Q422.4219,127.5 422.6875,127.5 Q423.1563,127.5 423.4531,127.7813 Q423.75,128.0625 423.75,128.7188 L423.75,130.2813 Q423.75,130.9375 423.4688,131.2188 Q423.1875,131.5 422.75,131.5 Q422.3594,131.5 422.1094,131.3281 Q421.8594,131.1563 421.75,130.7031 Q421.7031,130.3906 421.5313,130.2188 Q421.2188,129.8906 420.6563,129.7031 Q420.0938,129.5 419.5313,129.5 Q418.8281,129.5 418.2344,129.7813 Q417.6563,130.0625 417.2031,130.6875 Q416.75,131.3125 416.75,132.1719 L416.75,133.0938 Q416.75,134.125 417.5938,134.8125 Q418.4375,135.5 419.9375,135.5 Q420.8281,135.5 421.4531,135.2969 Q421.8125,135.1875 422.2188,134.8281 Q422.4844,134.625 422.625,134.5625 Q422.7656,134.5 422.9375,134.5 Q423.2656,134.5 423.5,134.7656 Q423.75,135.0156 423.75,135.375 Q423.75,135.7188 423.4063,136.125 Q422.9063,136.7188 422.1094,137.0469 Q421.0625,137.5 419.7813,137.5 Q418.2813,137.5 417.0781,136.9063 Q416.1094,136.4375 415.4219,135.4219 Q414.75,134.4063 414.75,133.2031 L414.75,132.1094 Q414.75,130.8594 415.3438,129.7656 Q415.9531,128.6719 417,128.0938 Q418.0625,127.5 419.25,127.5 Q419.9688,127.5 420.5938,127.75 Q421.2188,128 421.75,128.5 Z " fill="#000000"/><text fill="#000000" font-family="sans-serif" font-size="12" lengthAdjust="spacing" textLength="169" x="440.25" y="136.9102">AddProductToBasketController</text><line style="stroke:#A80036;stroke-width:1.5;" x1="370" x2="647" y1="148" y2="148"/><line style="stroke:#A80036;stroke-width:1.5;" x1="370" x2="647" y1="156" y2="156"/><ellipse cx="380" cy="167" fill="#84BE84" rx="3" ry="3" style="stroke:#038048;stroke-width:1.0;"/><text fill="#000000" font-family="sans-serif" font-size="11" lengthAdjust="spacing" textLength="83" x="389" y="171.4189">getProductsList()</text><ellipse cx="380" cy="180.8359" fill="#84BE84" rx="3" ry="3" style="stroke:#038048;stroke-width:1.0;"/><text fill="#000000" font-family="sans-serif" font-size="11" lengthAdjust="spacing" textLength="253" x="389" y="185.2549">addProductToBasket(Integer option, Integer quantity)</text><!--MD5=[fc1678140399a0d6811cc256094bc0f7]
class ProductsDB--><rect codeLine="13" fill="#FEFECE" filter="url(#fz6iw1yjq6iid)" height="75.6719" id="ProductsDB" style="stroke:#A80036;stroke-width:1.5;" width="307" x="7" y="253"/><ellipse cx="123.25" cy="269" fill="#ADD1B2" rx="11" ry="11" style="stroke:#A80036;stroke-width:1.0;"/><path d="M125.25,265.5 Q125.4531,265 125.6875,264.75 Q125.9219,264.5 126.1875,264.5 Q126.6563,264.5 126.9531,264.7813 Q127.25,265.0625 127.25,265.7188 L127.25,267.2813 Q127.25,267.9375 126.9688,268.2188 Q126.6875,268.5 126.25,268.5 Q125.8594,268.5 125.6094,268.3281 Q125.3594,268.1563 125.25,267.7031 Q125.2031,267.3906 125.0313,267.2188 Q124.7188,266.8906 124.1563,266.7031 Q123.5938,266.5 123.0313,266.5 Q122.3281,266.5 121.7344,266.7813 Q121.1563,267.0625 120.7031,267.6875 Q120.25,268.3125 120.25,269.1719 L120.25,270.0938 Q120.25,271.125 121.0938,271.8125 Q121.9375,272.5 123.4375,272.5 Q124.3281,272.5 124.9531,272.2969 Q125.3125,272.1875 125.7188,271.8281 Q125.9844,271.625 126.125,271.5625 Q126.2656,271.5 126.4375,271.5 Q126.7656,271.5 127,271.7656 Q127.25,272.0156 127.25,272.375 Q127.25,272.7188 126.9063,273.125 Q126.4063,273.7188 125.6094,274.0469 Q124.5625,274.5 123.2813,274.5 Q121.7813,274.5 120.5781,273.9063 Q119.6094,273.4375 118.9219,272.4219 Q118.25,271.4063 118.25,270.2031 L118.25,269.1094 Q118.25,267.8594 118.8438,266.7656 Q119.4531,265.6719 120.5,265.0938 Q121.5625,264.5 122.75,264.5 Q123.4688,264.5 124.0938,264.75 Q124.7188,265 125.25,265.5 Z " fill="#000000"/><text fill="#000000" font-family="sans-serif" font-size="12" lengthAdjust="spacing" textLength="66" x="143.75" y="273.9102">ProductsDB</text><line style="stroke:#A80036;stroke-width:1.5;" x1="8" x2="313" y1="285" y2="285"/><line style="stroke:#A80036;stroke-width:1.5;" x1="8" x2="313" y1="293" y2="293"/><ellipse cx="18" cy="304" fill="#84BE84" rx="3" ry="3" style="stroke:#038048;stroke-width:1.0;"/><text fill="#000000" font-family="sans-serif" font-size="11" lengthAdjust="spacing" textLength="152" x="27" y="308.4189">List&lt;Product&gt; getProductsList()</text><ellipse cx="18" cy="317.8359" fill="#84BE84" rx="3" ry="3" style="stroke:#038048;stroke-width:1.0;"/><text fill="#000000" font-family="sans-serif" font-size="11" lengthAdjust="spacing" textLength="281" x="27" y="322.2549">addBasketProduct(String email, Integer id, Integer quantity)</text><!--MD5=[72136138052d025cffdce3c22fbd185f]
class Product--><rect codeLine="18" fill="#FEFECE" filter="url(#fz6iw1yjq6iid)" height="48" id="Product" style="stroke:#A80036;stroke-width:1.5;" width="74" x="307.5" y="414"/><ellipse cx="322.5" cy="430" fill="#ADD1B2" rx="11" ry="11" style="stroke:#A80036;stroke-width:1.0;"/><path d="M324.5,426.5 Q324.7031,426 324.9375,425.75 Q325.1719,425.5 325.4375,425.5 Q325.9063,425.5 326.2031,425.7813 Q326.5,426.0625 326.5,426.7188 L326.5,428.2813 Q326.5,428.9375 326.2188,429.2188 Q325.9375,429.5 325.5,429.5 Q325.1094,429.5 324.8594,429.3281 Q324.6094,429.1563 324.5,428.7031 Q324.4531,428.3906 324.2813,428.2188 Q323.9688,427.8906 323.4063,427.7031 Q322.8438,427.5 322.2813,427.5 Q321.5781,427.5 320.9844,427.7813 Q320.4063,428.0625 319.9531,428.6875 Q319.5,429.3125 319.5,430.1719 L319.5,431.0938 Q319.5,432.125 320.3438,432.8125 Q321.1875,433.5 322.6875,433.5 Q323.5781,433.5 324.2031,433.2969 Q324.5625,433.1875 324.9688,432.8281 Q325.2344,432.625 325.375,432.5625 Q325.5156,432.5 325.6875,432.5 Q326.0156,432.5 326.25,432.7656 Q326.5,433.0156 326.5,433.375 Q326.5,433.7188 326.1563,434.125 Q325.6563,434.7188 324.8594,435.0469 Q323.8125,435.5 322.5313,435.5 Q321.0313,435.5 319.8281,434.9063 Q318.8594,434.4375 318.1719,433.4219 Q317.5,432.4063 317.5,431.2031 L317.5,430.1094 Q317.5,428.8594 318.0938,427.7656 Q318.7031,426.6719 319.75,426.0938 Q320.8125,425.5 322,425.5 Q322.7188,425.5 323.3438,425.75 Q323.9688,426 324.5,426.5 Z " fill="#000000"/><text fill="#000000" font-family="sans-serif" font-size="12" lengthAdjust="spacing" textLength="42" x="336.5" y="434.9102">Product</text><line style="stroke:#A80036;stroke-width:1.5;" x1="308.5" x2="380.5" y1="446" y2="446"/><line style="stroke:#A80036;stroke-width:1.5;" x1="308.5" x2="380.5" y1="454" y2="454"/><!--MD5=[c5b08e60048ef1bcd788d24cf324082e]
class UserSession--><rect codeLine="22" fill="#FEFECE" filter="url(#fz6iw1yjq6iid)" height="75.6719" id="UserSession" style="stroke:#A80036;stroke-width:1.5;" width="176" x="420.5" y="253"/><ellipse cx="467.75" cy="269" fill="#ADD1B2" rx="11" ry="11" style="stroke:#A80036;stroke-width:1.0;"/><path d="M469.75,265.5 Q469.9531,265 470.1875,264.75 Q470.4219,264.5 470.6875,264.5 Q471.1563,264.5 471.4531,264.7813 Q471.75,265.0625 471.75,265.7188 L471.75,267.2813 Q471.75,267.9375 471.4688,268.2188 Q471.1875,268.5 470.75,268.5 Q470.3594,268.5 470.1094,268.3281 Q469.8594,268.1563 469.75,267.7031 Q469.7031,267.3906 469.5313,267.2188 Q469.2188,266.8906 468.6563,266.7031 Q468.0938,266.5 467.5313,266.5 Q466.8281,266.5 466.2344,266.7813 Q465.6563,267.0625 465.2031,267.6875 Q464.75,268.3125 464.75,269.1719 L464.75,270.0938 Q464.75,271.125 465.5938,271.8125 Q466.4375,272.5 467.9375,272.5 Q468.8281,272.5 469.4531,272.2969 Q469.8125,272.1875 470.2188,271.8281 Q470.4844,271.625 470.625,271.5625 Q470.7656,271.5 470.9375,271.5 Q471.2656,271.5 471.5,271.7656 Q471.75,272.0156 471.75,272.375 Q471.75,272.7188 471.4063,273.125 Q470.9063,273.7188 470.1094,274.0469 Q469.0625,274.5 467.7813,274.5 Q466.2813,274.5 465.0781,273.9063 Q464.1094,273.4375 463.4219,272.4219 Q462.75,271.4063 462.75,270.2031 L462.75,269.1094 Q462.75,267.8594 463.3438,266.7656 Q463.9531,265.6719 465,265.0938 Q466.0625,264.5 467.25,264.5 Q467.9688,264.5 468.5938,264.75 Q469.2188,265 469.75,265.5 Z " fill="#000000"/><text fill="#000000" font-family="sans-serif" font-size="12" lengthAdjust="spacing" textLength="73" x="488.25" y="273.9102">UserSession</text><line style="stroke:#A80036;stroke-width:1.5;" x1="421.5" x2="595.5" y1="285" y2="285"/><line style="stroke:#A80036;stroke-width:1.5;" x1="421.5" x2="595.5" y1="293" y2="293"/><ellipse cx="431.5" cy="304" fill="#84BE84" rx="3" ry="3" style="stroke:#038048;stroke-width:1.0;"/><text fill="#000000" font-family="sans-serif" font-size="11" lengthAdjust="spacing" textLength="150" x="440.5" y="308.4189">UserSession getUserSession()</text><ellipse cx="431.5" cy="317.8359" fill="#84BE84" rx="3" ry="3" style="stroke:#038048;stroke-width:1.0;"/><text fill="#000000" font-family="sans-serif" font-size="11" lengthAdjust="spacing" textLength="72" x="440.5" y="322.2549">User getUser()</text><!--MD5=[3fd616f346a44cd59a91eb10b19e157c]
class User--><rect codeLine="27" fill="#FEFECE" filter="url(#fz6iw1yjq6iid)" height="61.8359" id="User" style="stroke:#A80036;stroke-width:1.5;" width="127" x="550" y="407"/><ellipse cx="595.75" cy="423" fill="#ADD1B2" rx="11" ry="11" style="stroke:#A80036;stroke-width:1.0;"/><path d="M597.75,419.5 Q597.9531,419 598.1875,418.75 Q598.4219,418.5 598.6875,418.5 Q599.1563,418.5 599.4531,418.7813 Q599.75,419.0625 599.75,419.7188 L599.75,421.2813 Q599.75,421.9375 599.4688,422.2188 Q599.1875,422.5 598.75,422.5 Q598.3594,422.5 598.1094,422.3281 Q597.8594,422.1563 597.75,421.7031 Q597.7031,421.3906 597.5313,421.2188 Q597.2188,420.8906 596.6563,420.7031 Q596.0938,420.5 595.5313,420.5 Q594.8281,420.5 594.2344,420.7813 Q593.6563,421.0625 593.2031,421.6875 Q592.75,422.3125 592.75,423.1719 L592.75,424.0938 Q592.75,425.125 593.5938,425.8125 Q594.4375,426.5 595.9375,426.5 Q596.8281,426.5 597.4531,426.2969 Q597.8125,426.1875 598.2188,425.8281 Q598.4844,425.625 598.625,425.5625 Q598.7656,425.5 598.9375,425.5 Q599.2656,425.5 599.5,425.7656 Q599.75,426.0156 599.75,426.375 Q599.75,426.7188 599.4063,427.125 Q598.9063,427.7188 598.1094,428.0469 Q597.0625,428.5 595.7813,428.5 Q594.2813,428.5 593.0781,427.9063 Q592.1094,427.4375 591.4219,426.4219 Q590.75,425.4063 590.75,424.2031 L590.75,423.1094 Q590.75,421.8594 591.3438,420.7656 Q591.9531,419.6719 593,419.0938 Q594.0625,418.5 595.25,418.5 Q595.9688,418.5 596.5938,418.75 Q597.2188,419 597.75,419.5 Z " fill="#000000"/><text fill="#000000" font-family="sans-serif" font-size="12" lengthAdjust="spacing" textLength="27" x="616.25" y="427.9102">User</text><line style="stroke:#A80036;stroke-width:1.5;" x1="551" x2="676" y1="439" y2="439"/><line style="stroke:#A80036;stroke-width:1.5;" x1="551" x2="676" y1="447" y2="447"/><ellipse cx="561" cy="458" fill="#84BE84" rx="3" ry="3" style="stroke:#038048;stroke-width:1.0;"/><text fill="#000000" font-family="sans-serif" font-size="11" lengthAdjust="spacing" textLength="101" x="570" y="462.4189">String getUserEmail()</text><!--MD5=[f8d2b21678b6ea5d90e779ee6463ca37]
class Utils--><rect codeLine="32" fill="#FEFECE" filter="url(#fz6iw1yjq6iid)" height="61.8359" id="Utils" style="stroke:#A80036;stroke-width:1.5;" width="243" x="703" y="260"/><ellipse cx="807.75" cy="276" fill="#ADD1B2" rx="11" ry="11" style="stroke:#A80036;stroke-width:1.0;"/><path d="M809.75,272.5 Q809.9531,272 810.1875,271.75 Q810.4219,271.5 810.6875,271.5 Q811.1563,271.5 811.4531,271.7813 Q811.75,272.0625 811.75,272.7188 L811.75,274.2813 Q811.75,274.9375 811.4688,275.2188 Q811.1875,275.5 810.75,275.5 Q810.3594,275.5 810.1094,275.3281 Q809.8594,275.1563 809.75,274.7031 Q809.7031,274.3906 809.5313,274.2188 Q809.2188,273.8906 808.6563,273.7031 Q808.0938,273.5 807.5313,273.5 Q806.8281,273.5 806.2344,273.7813 Q805.6563,274.0625 805.2031,274.6875 Q804.75,275.3125 804.75,276.1719 L804.75,277.0938 Q804.75,278.125 805.5938,278.8125 Q806.4375,279.5 807.9375,279.5 Q808.8281,279.5 809.4531,279.2969 Q809.8125,279.1875 810.2188,278.8281 Q810.4844,278.625 810.625,278.5625 Q810.7656,278.5 810.9375,278.5 Q811.2656,278.5 811.5,278.7656 Q811.75,279.0156 811.75,279.375 Q811.75,279.7188 811.4063,280.125 Q810.9063,280.7188 810.1094,281.0469 Q809.0625,281.5 807.7813,281.5 Q806.2813,281.5 805.0781,280.9063 Q804.1094,280.4375 803.4219,279.4219 Q802.75,278.4063 802.75,277.2031 L802.75,276.1094 Q802.75,274.8594 803.3438,273.7656 Q803.9531,272.6719 805,272.0938 Q806.0625,271.5 807.25,271.5 Q807.9688,271.5 808.5938,271.75 Q809.2188,272 809.75,272.5 Z " fill="#000000"/><text fill="#000000" font-family="sans-serif" font-size="12" lengthAdjust="spacing" textLength="25" x="828.25" y="280.9102">Utils</text><line style="stroke:#A80036;stroke-width:1.5;" x1="704" x2="945" y1="292" y2="292"/><line style="stroke:#A80036;stroke-width:1.5;" x1="704" x2="945" y1="300" y2="300"/><ellipse cx="714" cy="311" fill="#84BE84" rx="3" ry="3" style="stroke:#038048;stroke-width:1.0;"/><text fill="#000000" font-family="sans-serif" font-size="11" lengthAdjust="spacing" textLength="217" x="723" y="315.4189">E getItemByOption(List&lt;E&gt; list, Integer option)</text><!--MD5=[20d114388e92f89dd6c13afb8c1caa04]
link AddProductToBasketUI to AddProductToBasketController--><path codeLine="37" d="M508.5,55.04 C508.5,70.71 508.5,91.91 508.5,110.58 " fill="none" id="AddProductToBasketUI-to-AddProductToBasketController" style="stroke:#A80036;stroke-width:1.0;stroke-dasharray:7.0,7.0;"/><polygon fill="#A80036" points="508.5,115.77,512.5,106.77,508.5,110.77,504.5,106.77,508.5,115.77" style="stroke:#A80036;stroke-width:1.0;"/><!--MD5=[e94439853d02dad09d3f1fb44f22b8f6]
link AddProductToBasketController to UserSession--><path codeLine="39" d="M508.5,192.25 C508.5,209.36 508.5,229.75 508.5,247.47 " fill="none" id="AddProductToBasketController-to-UserSession" style="stroke:#A80036;stroke-width:1.0;stroke-dasharray:7.0,7.0;"/><polygon fill="#A80036" points="508.5,252.87,512.5,243.87,508.5,247.87,504.5,243.87,508.5,252.87" style="stroke:#A80036;stroke-width:1.0;"/><!--MD5=[747e4d69823c8e019604cc1c849809db]
link AddProductToBasketController to ProductsDB--><path codeLine="40" d="M412.95,192.07 C365.77,210.37 308.87,232.44 261.04,251 " fill="none" id="AddProductToBasketController-to-ProductsDB" style="stroke:#A80036;stroke-width:1.0;stroke-dasharray:7.0,7.0;"/><polygon fill="#A80036" points="256.14,252.9,265.9781,253.3602,260.7989,251.085,263.0741,245.9059,256.14,252.9" style="stroke:#A80036;stroke-width:1.0;"/><!--MD5=[07a3eb94ae257d5165d1e8288e56c912]
link AddProductToBasketController to Product--><path codeLine="41" d="M458.25,192.01 C438.51,208.74 417.13,229.93 402.5,253 C371.05,302.61 355.47,370.6 348.78,408.51 " fill="none" id="AddProductToBasketController-to-Product" style="stroke:#A80036;stroke-width:1.0;stroke-dasharray:7.0,7.0;"/><polygon fill="#A80036" points="347.85,413.88,353.3099,405.6831,348.6928,408.9515,345.4243,404.3345,347.85,413.88" style="stroke:#A80036;stroke-width:1.0;"/><!--MD5=[fb869e19ab59081d763b9d3d35fb00ef]
link AddProductToBasketController to User--><path codeLine="42" d="M564.11,192 C583.53,208.19 603.07,228.99 613.5,253 C634.46,301.23 628.46,363.51 621.51,401.83 " fill="none" id="AddProductToBasketController-to-User" style="stroke:#A80036;stroke-width:1.0;stroke-dasharray:7.0,7.0;"/><polygon fill="#A80036" points="620.57,406.85,626.1487,398.7335,621.4845,401.9343,618.2837,397.2702,620.57,406.85" style="stroke:#A80036;stroke-width:1.0;"/><!--MD5=[53eb63eb39ce8ce1677cd78c94215c3d]
link AddProductToBasketController to Utils--><path codeLine="43" d="M603.32,192.15 C626.98,201.67 652.24,212.03 675.5,222 C701.83,233.28 730.5,246.21 755.61,257.75 " fill="none" id="AddProductToBasketController-to-Utils" style="stroke:#A80036;stroke-width:1.0;stroke-dasharray:7.0,7.0;"/><polygon fill="#A80036" points="760.25,259.89,753.7398,252.4996,755.706,257.8038,750.4019,259.77,760.25,259.89" style="stroke:#A80036;stroke-width:1.0;"/><!--MD5=[261a9f975a95b8b9805b87baf77053d0]
link UserSession to User--><path codeLine="45" d="M535.54,329.34 C551.83,351.84 572.44,380.3 588.38,402.31 " fill="none" id="UserSession-to-User" style="stroke:#A80036;stroke-width:1.0;"/><polygon fill="#A80036" points="591.5,406.62,589.4596,396.9848,588.5668,402.5708,582.9809,401.6779,591.5,406.62" style="stroke:#A80036;stroke-width:1.0;"/><text fill="#000000" font-family="sans-serif" font-size="13" lengthAdjust="spacing" textLength="21" x="568.5" y="373.4951">has</text><text fill="#000000" font-family="sans-serif" font-size="13" lengthAdjust="spacing" textLength="7" x="532.2917" y="350.2747">1</text><text fill="#000000" font-family="sans-serif" font-size="13" lengthAdjust="spacing" textLength="7" x="579.2406" y="396.0462">1</text><!--MD5=[304860e9c7dcee35f7631cfd2df82196]
link ProductsDB to Product--><path codeLine="46" d="M207.88,329.34 C240.16,354.77 282.1,387.82 310.95,410.56 " fill="none" id="ProductsDB-to-Product" style="stroke:#A80036;stroke-width:1.0;"/><polygon fill="#A80036" points="315.11,413.84,310.503,405.1351,311.1779,410.7515,305.5615,411.4264,315.11,413.84" style="stroke:#A80036;stroke-width:1.0;"/><text fill="#000000" font-family="sans-serif" font-size="13" lengthAdjust="spacing" textLength="21" x="265.5" y="373.4951">has</text><text fill="#000000" font-family="sans-serif" font-size="13" lengthAdjust="spacing" textLength="7" x="207.8734" y="350.2747">1</text><text fill="#000000" font-family="sans-serif" font-size="13" lengthAdjust="spacing" textLength="5" x="301.9382" y="403.1392">*</text><!--MD5=[21149d9fe13fbc9da3b4fc22040e37f8]
@startuml

class AddProductToBasketUI {

}

class AddProductToBasketController {
  +getProductsList()
  +addProductToBasket(Integer option, Integer quantity)


}

class ProductsDB {
    +List<Product> getProductsList()
    +addBasketProduct(String email, Integer id, Integer quantity)
}

class Product {

}

class UserSession {
    +UserSession getUserSession()
    +User getUser()
}

class User {
    +String getUserEmail()

}

class Utils {
    +E getItemByOption(List<E> list, Integer option)
}


AddProductToBasketUI ..> AddProductToBasketController

AddProductToBasketController ..> UserSession
AddProductToBasketController ..> ProductsDB
AddProductToBasketController ..> Product
AddProductToBasketController ..> User
AddProductToBasketController ..> Utils

UserSession "1" - -> "1" User: has
ProductsDB "1" - -> "*" Product: has



@enduml

PlantUML version 1.2021.00(Sun Jan 10 10:25:05 GMT 2021)
(GPL source distribution)
Java Runtime: OpenJDK Runtime Environment
JVM: OpenJDK 64-Bit Server VM
Default Encoding: Cp1252
Language: pt
Country: PT
--></g></svg>