<?xml version="1.0" encoding="UTF-8" standalone="no"?><svg xmlns="http://www.w3.org/2000/svg" xmlns:xlink="http://www.w3.org/1999/xlink" contentScriptType="application/ecmascript" contentStyleType="text/css" height="178px" preserveAspectRatio="none" style="width:1691px;height:178px;" version="1.1" viewBox="0 0 1691 178" width="1691.5px" zoomAndPan="magnify"><defs><filter height="300%" id="f17j6veb25d0jj" width="300%" x="-1" y="-1"><feGaussianBlur result="blurOut" stdDeviation="1.0"/><feColorMatrix in="blurOut" result="blurOut2" type="matrix" values="0 0 0 0 0 0 0 0 0 0 0 0 0 0 0 0 0 0 .4 0"/><feOffset dx="2.0" dy="2.0" in="blurOut2" result="blurOut3"/><feBlend in="SourceGraphic" in2="blurOut3" mode="normal"/></filter></defs><g><!--MD5=[e407a5d78186820869b2b94a2dc8539e]
class DroneDeliveryPlanningTask--><rect codeLine="2" fill="#FEFECE" filter="url(#f17j6veb25d0jj)" height="51.6719" id="DroneDeliveryPlanningTask" style="stroke:#A80036;stroke-width:0.75;" width="502.5" x="553.5" y="3.5"/><ellipse cx="764.375" cy="11.5" fill="#ADD1B2" rx="5.5" ry="5.5" style="stroke:#A80036;stroke-width:0.5;"/><path d="M765.375,9.75 Q765.4766,9.5 765.5938,9.375 Q765.7109,9.25 765.8438,9.25 Q766.0781,9.25 766.2266,9.3906 Q766.375,9.5313 766.375,9.8594 L766.375,10.6406 Q766.375,10.9688 766.2344,11.1094 Q766.0938,11.25 765.875,11.25 Q765.6797,11.25 765.5547,11.1641 Q765.4297,11.0781 765.375,10.8516 Q765.3516,10.6953 765.2656,10.6094 Q765.1094,10.4453 764.8281,10.3516 Q764.5469,10.25 764.2656,10.25 Q763.9141,10.25 763.6172,10.3906 Q763.3281,10.5313 763.1016,10.8438 Q762.875,11.1563 762.875,11.5859 L762.875,12.0469 Q762.875,12.5625 763.2969,12.9063 Q763.7188,13.25 764.4688,13.25 Q764.9141,13.25 765.2266,13.1484 Q765.4063,13.0938 765.6094,12.9141 Q765.7422,12.8125 765.8125,12.7813 Q765.8828,12.75 765.9688,12.75 Q766.1328,12.75 766.25,12.8828 Q766.375,13.0078 766.375,13.1875 Q766.375,13.3594 766.2031,13.5625 Q765.9531,13.8594 765.5547,14.0234 Q765.0313,14.25 764.3906,14.25 Q763.6406,14.25 763.0391,13.9531 Q762.5547,13.7188 762.2109,13.2109 Q761.875,12.7031 761.875,12.1016 L761.875,11.5547 Q761.875,10.9297 762.1719,10.3828 Q762.4766,9.8359 763,9.5469 Q763.5313,9.25 764.125,9.25 Q764.4844,9.25 764.7969,9.375 Q765.1094,9.5 765.375,9.75 Z " fill="#000000"/><text fill="#000000" font-family="sans-serif" font-size="6" lengthAdjust="spacing" textLength="76.5" x="774.625" y="13.9551">DroneDeliveryPlanningTask</text><line style="stroke:#A80036;stroke-width:0.75;" x1="554" x2="1055.5" y1="19.5" y2="19.5"/><line style="stroke:#A80036;stroke-width:0.75;" x1="554" x2="1055.5" y1="23.5" y2="23.5"/><ellipse cx="559" cy="29" fill="#84BE84" rx="1.5" ry="1.5" style="stroke:#038048;stroke-width:0.5;"/><text fill="#000000" font-family="sans-serif" font-size="5.5" lengthAdjust="spacing" textLength="376" x="563.5" y="31.2095">boolean plan(List&lt;Integer&gt; pharmacyOrders, int pharmacyID, List&lt;String&gt; cords, String pharmacyCords, float payload, PlanningDB db, DeliveryPlanning plan)</text><ellipse cx="559" cy="35.918" fill="#84BE84" rx="1.5" ry="1.5" style="stroke:#038048;stroke-width:0.5;"/><text fill="#000000" font-family="sans-serif" font-size="5.5" lengthAdjust="spacing" textLength="362" x="563.5" y="38.1274">finalSteps(PlanningDB db, int droneID, int pharmacyID, List&lt;Integer&gt; pharmacyOrders, float distanceDrone, float time, float energyCost, boolean[] pass)</text><ellipse cx="559" cy="42.8359" fill="#84BE84" rx="1.5" ry="1.5" style="stroke:#038048;stroke-width:0.5;"/><text fill="#000000" font-family="sans-serif" font-size="5.5" lengthAdjust="spacing" textLength="489.5" x="563.5" y="45.0454">boolean tratarRemainingPath( LinkedList&lt;String&gt; remaining, int droneID, int pharmacyID, DeliveryPlanning plan, Map&lt;String, Float&gt; pesosPorEncomenda, int idDelivery, PlanningDB db, String outputFileName)</text><ellipse cx="559" cy="49.7539" fill="#84BE84" rx="1.5" ry="1.5" style="stroke:#038048;stroke-width:0.5;"/><text fill="#000000" font-family="sans-serif" font-size="5.5" lengthAdjust="spacing" textLength="126.5" x="563.5" y="51.9634">boolean changeStateDrone(ChangeStatesTask task)</text><!--MD5=[30aa2e6d262eb55099bf3223aa7d8540]
class PlanningDB--><rect codeLine="11" fill="#FEFECE" filter="url(#f17j6veb25d0jj)" height="86.2617" id="PlanningDB" style="stroke:#A80036;stroke-width:0.75;" width="294.5" x="3.5" y="85"/><ellipse cx="132.125" cy="93" fill="#ADD1B2" rx="5.5" ry="5.5" style="stroke:#A80036;stroke-width:0.5;"/><path d="M133.125,91.25 Q133.2266,91 133.3438,90.875 Q133.4609,90.75 133.5938,90.75 Q133.8281,90.75 133.9766,90.8906 Q134.125,91.0313 134.125,91.3594 L134.125,92.1406 Q134.125,92.4688 133.9844,92.6094 Q133.8438,92.75 133.625,92.75 Q133.4297,92.75 133.3047,92.6641 Q133.1797,92.5781 133.125,92.3516 Q133.1016,92.1953 133.0156,92.1094 Q132.8594,91.9453 132.5781,91.8516 Q132.2969,91.75 132.0156,91.75 Q131.6641,91.75 131.3672,91.8906 Q131.0781,92.0313 130.8516,92.3438 Q130.625,92.6563 130.625,93.0859 L130.625,93.5469 Q130.625,94.0625 131.0469,94.4063 Q131.4688,94.75 132.2188,94.75 Q132.6641,94.75 132.9766,94.6484 Q133.1563,94.5938 133.3594,94.4141 Q133.4922,94.3125 133.5625,94.2813 Q133.6328,94.25 133.7188,94.25 Q133.8828,94.25 134,94.3828 Q134.125,94.5078 134.125,94.6875 Q134.125,94.8594 133.9531,95.0625 Q133.7031,95.3594 133.3047,95.5234 Q132.7813,95.75 132.1406,95.75 Q131.3906,95.75 130.7891,95.4531 Q130.3047,95.2188 129.9609,94.7109 Q129.625,94.2031 129.625,93.6016 L129.625,93.0547 Q129.625,92.4297 129.9219,91.8828 Q130.2266,91.3359 130.75,91.0469 Q131.2813,90.75 131.875,90.75 Q132.2344,90.75 132.5469,90.875 Q132.8594,91 133.125,91.25 Z " fill="#000000"/><text fill="#000000" font-family="sans-serif" font-size="6" lengthAdjust="spacing" textLength="33" x="142.375" y="95.4551">PlanningDB</text><line style="stroke:#A80036;stroke-width:0.75;" x1="4" x2="297.5" y1="101" y2="101"/><line style="stroke:#A80036;stroke-width:0.75;" x1="4" x2="297.5" y1="105" y2="105"/><ellipse cx="9" cy="110.5" fill="#84BE84" rx="1.5" ry="1.5" style="stroke:#038048;stroke-width:0.5;"/><text fill="#000000" font-family="sans-serif" font-size="5.5" lengthAdjust="spacing" textLength="135.5" x="13.5" y="112.7095">Integer getAvailableDrone(int pharmacyID, float payload)</text><ellipse cx="9" cy="117.418" fill="#84BE84" rx="1.5" ry="1.5" style="stroke:#038048;stroke-width:0.5;"/><text fill="#000000" font-family="sans-serif" font-size="5.5" lengthAdjust="spacing" textLength="154" x="13.5" y="119.6274">float getActualBatteryVehicle(int scooterID, Integer pharmacyID)</text><ellipse cx="9" cy="124.3359" fill="#84BE84" rx="1.5" ry="1.5" style="stroke:#038048;stroke-width:0.5;"/><text fill="#000000" font-family="sans-serif" font-size="5.5" lengthAdjust="spacing" textLength="222.5" x="13.5" y="126.5454">Map&lt;Integer, String&gt; getCordsOfPharmacysWithAvailableChargingStation(VehicleType type)</text><ellipse cx="9" cy="131.2539" fill="#84BE84" rx="1.5" ry="1.5" style="stroke:#038048;stroke-width:0.5;"/><text fill="#000000" font-family="sans-serif" font-size="5.5" lengthAdjust="spacing" textLength="182" x="13.5" y="133.4634">Map&lt;String, Float&gt; getPesosPorEncomenda(List&lt;Integer&gt; pharmacyOrders)</text><ellipse cx="9" cy="138.1719" fill="#84BE84" rx="1.5" ry="1.5" style="stroke:#038048;stroke-width:0.5;"/><text fill="#000000" font-family="sans-serif" font-size="5.5" lengthAdjust="spacing" textLength="137.5" x="13.5" y="140.3813">boolean updateOrderStateToDelivered(Integer deliveryID)</text><ellipse cx="9" cy="145.0898" fill="#84BE84" rx="1.5" ry="1.5" style="stroke:#038048;stroke-width:0.5;"/><text fill="#000000" font-family="sans-serif" font-size="5.5" lengthAdjust="spacing" textLength="181.5" x="13.5" y="147.2993">boolean changeStates(int vehicleID, Integer courierNIF, Integer pharmacyID)</text><ellipse cx="9" cy="152.0078" fill="#84BE84" rx="1.5" ry="1.5" style="stroke:#038048;stroke-width:0.5;"/><text fill="#000000" font-family="sans-serif" font-size="5.5" lengthAdjust="spacing" textLength="281.5" x="13.5" y="154.2173">Integer insertDelivery(Integer courierNIF, int vehicleID, Integer pharmacyID, float distance, float time, float energyCost)</text><ellipse cx="9" cy="158.9258" fill="#84BE84" rx="1.5" ry="1.5" style="stroke:#038048;stroke-width:0.5;"/><text fill="#000000" font-family="sans-serif" font-size="5.5" lengthAdjust="spacing" textLength="178.5" x="13.5" y="161.1353">boolean takeVehicleEnergy(int vehicleID, float totalEnergy, int pharmacyID)</text><ellipse cx="9" cy="165.8438" fill="#84BE84" rx="1.5" ry="1.5" style="stroke:#038048;stroke-width:0.5;"/><text fill="#000000" font-family="sans-serif" font-size="5.5" lengthAdjust="spacing" textLength="189" x="13.5" y="168.0532">boolean updateOrdersDeliveryID(List&lt;Integer&gt; pharmacyOrders, int deliveryID)</text><!--MD5=[5fae18e8aa20ca672b42fb4f551f7ea3]
class DeliveryPlanning--><rect codeLine="30" fill="#FEFECE" filter="url(#f17j6veb25d0jj)" height="58.5898" id="DeliveryPlanning" style="stroke:#A80036;stroke-width:0.75;" width="607" x="315.75" y="99"/><ellipse cx="594.125" cy="107" fill="#ADD1B2" rx="5.5" ry="5.5" style="stroke:#A80036;stroke-width:0.5;"/><path d="M595.125,105.25 Q595.2266,105 595.3438,104.875 Q595.4609,104.75 595.5938,104.75 Q595.8281,104.75 595.9766,104.8906 Q596.125,105.0313 596.125,105.3594 L596.125,106.1406 Q596.125,106.4688 595.9844,106.6094 Q595.8438,106.75 595.625,106.75 Q595.4297,106.75 595.3047,106.6641 Q595.1797,106.5781 595.125,106.3516 Q595.1016,106.1953 595.0156,106.1094 Q594.8594,105.9453 594.5781,105.8516 Q594.2969,105.75 594.0156,105.75 Q593.6641,105.75 593.3672,105.8906 Q593.0781,106.0313 592.8516,106.3438 Q592.625,106.6563 592.625,107.0859 L592.625,107.5469 Q592.625,108.0625 593.0469,108.4063 Q593.4688,108.75 594.2188,108.75 Q594.6641,108.75 594.9766,108.6484 Q595.1563,108.5938 595.3594,108.4141 Q595.4922,108.3125 595.5625,108.2813 Q595.6328,108.25 595.7188,108.25 Q595.8828,108.25 596,108.3828 Q596.125,108.5078 596.125,108.6875 Q596.125,108.8594 595.9531,109.0625 Q595.7031,109.3594 595.3047,109.5234 Q594.7813,109.75 594.1406,109.75 Q593.3906,109.75 592.7891,109.4531 Q592.3047,109.2188 591.9609,108.7109 Q591.625,108.2031 591.625,107.6016 L591.625,107.0547 Q591.625,106.4297 591.9219,105.8828 Q592.2266,105.3359 592.75,105.0469 Q593.2813,104.75 593.875,104.75 Q594.2344,104.75 594.5469,104.875 Q594.8594,105 595.125,105.25 Z " fill="#000000"/><text fill="#000000" font-family="sans-serif" font-size="6" lengthAdjust="spacing" textLength="46" x="604.375" y="109.4551">DeliveryPlanning</text><line style="stroke:#A80036;stroke-width:0.75;" x1="316.25" x2="922.25" y1="115" y2="115"/><line style="stroke:#A80036;stroke-width:0.75;" x1="316.25" x2="922.25" y1="119" y2="119"/><ellipse cx="321.25" cy="124.5" fill="#84BE84" rx="1.5" ry="1.5" style="stroke:#038048;stroke-width:0.5;"/><text fill="#000000" font-family="sans-serif" font-size="5.5" lengthAdjust="spacing" textLength="594" x="325.75" y="126.7095">List&lt;String&gt; mostEficientPath(List&lt;String&gt; casasClientes, String startingFarmacia, VehicleType type, float bateriaAtualMW, float payload, Map&lt;String, Float&gt; pesosPorEncomenda, Map&lt;Integer, String&gt; allFarmacias, LinkedList&lt;String&gt; remainingPath)</text><ellipse cx="321.25" cy="131.418" fill="#84BE84" rx="1.5" ry="1.5" style="stroke:#038048;stroke-width:0.5;"/><text fill="#000000" font-family="sans-serif" font-size="5.5" lengthAdjust="spacing" textLength="83.5" x="325.75" y="133.6274">float pathWeight(List&lt;String&gt; path)</text><ellipse cx="321.25" cy="138.3359" fill="#84BE84" rx="1.5" ry="1.5" style="stroke:#038048;stroke-width:0.5;"/><text fill="#000000" font-family="sans-serif" font-size="5.5" lengthAdjust="spacing" textLength="285" x="325.75" y="140.5454">float calculateEnergyCost(List&lt;String&gt; path, float payload, VehicleType type, Map&lt;String, Float&gt; pesosPorEncomenda)</text><ellipse cx="321.25" cy="145.2539" fill="#84BE84" rx="1.5" ry="1.5" style="stroke:#038048;stroke-width:0.5;"/><text fill="#000000" font-family="sans-serif" font-size="5.5" lengthAdjust="spacing" textLength="84" x="325.75" y="147.4634">float getSpentTimeLastDronePath()</text><ellipse cx="321.25" cy="152.1719" fill="#84BE84" rx="1.5" ry="1.5" style="stroke:#038048;stroke-width:0.5;"/><text fill="#000000" font-family="sans-serif" font-size="5.5" lengthAdjust="spacing" textLength="229" x="325.75" y="154.3813">List&lt;String&gt; shortestPathDrone(List&lt;String&gt; cords, String pharmacyCords, String lastFarmacia)</text><!--MD5=[5e0d82805469b0e2e9b571db9ba415a6]
class StopForCharging--><rect codeLine="43" fill="#FEFECE" filter="url(#f17j6veb25d0jj)" height="30.918" id="StopForCharging" style="stroke:#A80036;stroke-width:0.75;" width="100" x="940.25" y="112.75"/><ellipse cx="964.625" cy="120.75" fill="#ADD1B2" rx="5.5" ry="5.5" style="stroke:#A80036;stroke-width:0.5;"/><path d="M965.625,119 Q965.7266,118.75 965.8438,118.625 Q965.9609,118.5 966.0938,118.5 Q966.3281,118.5 966.4766,118.6406 Q966.625,118.7813 966.625,119.1094 L966.625,119.8906 Q966.625,120.2188 966.4844,120.3594 Q966.3438,120.5 966.125,120.5 Q965.9297,120.5 965.8047,120.4141 Q965.6797,120.3281 965.625,120.1016 Q965.6016,119.9453 965.5156,119.8594 Q965.3594,119.6953 965.0781,119.6016 Q964.7969,119.5 964.5156,119.5 Q964.1641,119.5 963.8672,119.6406 Q963.5781,119.7813 963.3516,120.0938 Q963.125,120.4063 963.125,120.8359 L963.125,121.2969 Q963.125,121.8125 963.5469,122.1563 Q963.9688,122.5 964.7188,122.5 Q965.1641,122.5 965.4766,122.3984 Q965.6563,122.3438 965.8594,122.1641 Q965.9922,122.0625 966.0625,122.0313 Q966.1328,122 966.2188,122 Q966.3828,122 966.5,122.1328 Q966.625,122.2578 966.625,122.4375 Q966.625,122.6094 966.4531,122.8125 Q966.2031,123.1094 965.8047,123.2734 Q965.2813,123.5 964.6406,123.5 Q963.8906,123.5 963.2891,123.2031 Q962.8047,122.9688 962.4609,122.4609 Q962.125,121.9531 962.125,121.3516 L962.125,120.8047 Q962.125,120.1797 962.4219,119.6328 Q962.7266,119.0859 963.25,118.7969 Q963.7813,118.5 964.375,118.5 Q964.7344,118.5 965.0469,118.625 Q965.3594,118.75 965.625,119 Z " fill="#000000"/><text fill="#000000" font-family="sans-serif" font-size="6" lengthAdjust="spacing" textLength="47" x="974.875" y="123.2051">StopForCharging</text><line style="stroke:#A80036;stroke-width:0.75;" x1="940.75" x2="1039.75" y1="128.75" y2="128.75"/><line style="stroke:#A80036;stroke-width:0.75;" x1="940.75" x2="1039.75" y1="132.75" y2="132.75"/><ellipse cx="945.75" cy="138.25" fill="#84BE84" rx="1.5" ry="1.5" style="stroke:#038048;stroke-width:0.5;"/><text fill="#000000" font-family="sans-serif" font-size="5.5" lengthAdjust="spacing" textLength="87" x="950.25" y="140.4595">boolean run(ChangeStatesTask cst)</text><!--MD5=[0356cafb68da2b0b54ca6630c89310d5]
class Print--><rect codeLine="49" fill="#FEFECE" filter="url(#f17j6veb25d0jj)" height="44.7539" id="Print" style="stroke:#A80036;stroke-width:0.75;" width="627" x="1057.75" y="105.75"/><ellipse cx="1362.875" cy="113.75" fill="#ADD1B2" rx="5.5" ry="5.5" style="stroke:#A80036;stroke-width:0.5;"/><path d="M1363.875,112 Q1363.9766,111.75 1364.0938,111.625 Q1364.2109,111.5 1364.3438,111.5 Q1364.5781,111.5 1364.7266,111.6406 Q1364.875,111.7813 1364.875,112.1094 L1364.875,112.8906 Q1364.875,113.2188 1364.7344,113.3594 Q1364.5938,113.5 1364.375,113.5 Q1364.1797,113.5 1364.0547,113.4141 Q1363.9297,113.3281 1363.875,113.1016 Q1363.8516,112.9453 1363.7656,112.8594 Q1363.6094,112.6953 1363.3281,112.6016 Q1363.0469,112.5 1362.7656,112.5 Q1362.4141,112.5 1362.1172,112.6406 Q1361.8281,112.7813 1361.6016,113.0938 Q1361.375,113.4063 1361.375,113.8359 L1361.375,114.2969 Q1361.375,114.8125 1361.7969,115.1563 Q1362.2188,115.5 1362.9688,115.5 Q1363.4141,115.5 1363.7266,115.3984 Q1363.9063,115.3438 1364.1094,115.1641 Q1364.2422,115.0625 1364.3125,115.0313 Q1364.3828,115 1364.4688,115 Q1364.6328,115 1364.75,115.1328 Q1364.875,115.2578 1364.875,115.4375 Q1364.875,115.6094 1364.7031,115.8125 Q1364.4531,116.1094 1364.0547,116.2734 Q1363.5313,116.5 1362.8906,116.5 Q1362.1406,116.5 1361.5391,116.2031 Q1361.0547,115.9688 1360.7109,115.4609 Q1360.375,114.9531 1360.375,114.3516 L1360.375,113.8047 Q1360.375,113.1797 1360.6719,112.6328 Q1360.9766,112.0859 1361.5,111.7969 Q1362.0313,111.5 1362.625,111.5 Q1362.9844,111.5 1363.2969,111.625 Q1363.6094,111.75 1363.875,112 Z " fill="#000000"/><text fill="#000000" font-family="sans-serif" font-size="6" lengthAdjust="spacing" textLength="12.5" x="1373.125" y="116.2051">Print</text><line style="stroke:#A80036;stroke-width:0.75;" x1="1058.25" x2="1684.25" y1="121.75" y2="121.75"/><line style="stroke:#A80036;stroke-width:0.75;" x1="1058.25" x2="1684.25" y1="125.75" y2="125.75"/><ellipse cx="1063.25" cy="131.25" fill="#84BE84" rx="1.5" ry="1.5" style="stroke:#038048;stroke-width:0.5;"/><text fill="#000000" font-family="sans-serif" font-size="5.5" lengthAdjust="spacing" textLength="614" x="1067.75" y="133.4595">boolean printFileDelivery(LinkedList&lt;String&gt; mostEficiente, LinkedList&lt;String&gt; path, float distance, float time, float energyCost, Integer deliveryID, String outputFileName, float actualBatteryWH, float payload, int vehicleID, int courierNIF, String pharmacyCords)</text><ellipse cx="1063.25" cy="138.168" fill="#84BE84" rx="1.5" ry="1.5" style="stroke:#038048;stroke-width:0.5;"/><text fill="#000000" font-family="sans-serif" font-size="5.5" lengthAdjust="spacing" textLength="140" x="1067.75" y="140.3774">void printPhisics(String outputFileName, VehicleType type)</text><ellipse cx="1063.25" cy="145.0859" fill="#84BE84" rx="1.5" ry="1.5" style="stroke:#038048;stroke-width:0.5;"/><text fill="#000000" font-family="sans-serif" font-size="5.5" lengthAdjust="spacing" textLength="507.5" x="1067.75" y="147.2954">void printRemainingDeliveryPath(String outputFileName, String actualFarmacia, LinkedList&lt;String&gt; fullRemainingPath, float gastoEnergeticoRestante, float distanciaRestante, float tempoRestante, VehicleType type)</text><!--MD5=[695f32bc5c4c109717ce6daa30ff734e]
link DroneDeliveryPlanningTask to DeliveryPlanning--><path codeLine="58" d="M756.74,55.115 C732.095,68.135 701.91,84.08 676.105,97.715 " fill="none" id="DroneDeliveryPlanningTask-to-DeliveryPlanning" style="stroke:#A80036;stroke-width:0.5;stroke-dasharray:7.0,7.0;"/><polygon fill="#A80036" points="673.78,98.94,678.6933,98.6094,675.9912,97.7736,676.827,95.0715,673.78,98.94" style="stroke:#A80036;stroke-width:0.5;"/><!--MD5=[82b855dd8a23b33b0b1c116f8b3954cf]
link DroneDeliveryPlanningTask to PlanningDB--><path codeLine="59" d="M553.445,49.87 C474.13,58.295 386.425,69.76 306.75,85 C304.76,85.38 302.765,85.775 300.755,86.175 " fill="none" id="DroneDeliveryPlanningTask-to-PlanningDB" style="stroke:#A80036;stroke-width:0.5;stroke-dasharray:7.0,7.0;"/><polygon fill="#A80036" points="298.205,86.695,303.014,87.7548,300.6545,86.1951,302.2142,83.8356,298.205,86.695" style="stroke:#A80036;stroke-width:0.5;"/><!--MD5=[a6288f2945a4b3d2a6d3e3b7ef5b2e17]
link DroneDeliveryPlanningTask to Print--><path codeLine="60" d="M950.82,55.02 C1040.665,70.56 1154.78,90.3 1241.445,105.295 " fill="none" id="DroneDeliveryPlanningTask-to-Print" style="stroke:#A80036;stroke-width:0.5;stroke-dasharray:7.0,7.0;"/><polygon fill="#A80036" points="1244,105.735,1239.9015,103.0051,1241.5358,105.3136,1239.2273,106.9478,1244,105.735" style="stroke:#A80036;stroke-width:0.5;"/><!--MD5=[8ac2f30d15d2c691505b5f7f66f07acd]
link DroneDeliveryPlanningTask to StopForCharging--><path codeLine="61" d="M870.38,55.03 C890.525,63.655 912.455,73.935 931.75,85 C945.055,92.63 958.955,102.685 969.865,111.13 " fill="none" id="DroneDeliveryPlanningTask-to-StopForCharging" style="stroke:#A80036;stroke-width:0.5;stroke-dasharray:7.0,7.0;"/><polygon fill="#A80036" points="971.865,112.685,969.5365,108.3459,969.8901,111.1521,967.0839,111.5058,971.865,112.685" style="stroke:#A80036;stroke-width:0.5;"/><!--MD5=[f2565bfc23ad139a3b34f9c65c4d7340]
@startuml

class DroneDeliveryPlanningTask {
+boolean plan(List<Integer> pharmacyOrders, int pharmacyID, List<String> cords, String pharmacyCords, float payload, PlanningDB db, DeliveryPlanning plan)
+finalSteps(PlanningDB db, int droneID, int pharmacyID, List<Integer> pharmacyOrders, float distanceDrone, float time, float energyCost, boolean[] pass)
+boolean tratarRemainingPath( LinkedList<String> remaining, int droneID, int pharmacyID, DeliveryPlanning plan, Map<String, Float> pesosPorEncomenda, int idDelivery, PlanningDB db, String outputFileName)
+boolean changeStateDrone(ChangeStatesTask task)


}

class PlanningDB {
+Integer getAvailableDrone(int pharmacyID, float payload)
+float getActualBatteryVehicle(int scooterID, Integer pharmacyID)
+Map<Integer, String> getCordsOfPharmacysWithAvailableChargingStation(VehicleType type)
+Map<String, Float> getPesosPorEncomenda(List<Integer> pharmacyOrders)
+boolean updateOrderStateToDelivered(Integer deliveryID)
+boolean changeStates(int vehicleID, Integer courierNIF, Integer pharmacyID)
+Integer insertDelivery(Integer courierNIF, int vehicleID, Integer pharmacyID, float distance, float time, float energyCost)
+boolean takeVehicleEnergy(int vehicleID, float totalEnergy, int pharmacyID)
+boolean updateOrdersDeliveryID(List<Integer> pharmacyOrders, int deliveryID)







}

 class DeliveryPlanning {
 +List<String> mostEficientPath(List<String> casasClientes, String startingFarmacia, VehicleType type, float bateriaAtualMW, float payload, Map<String, Float> pesosPorEncomenda, Map<Integer, String> allFarmacias, LinkedList<String> remainingPath)
  +float pathWeight(List<String> path)
  +float calculateEnergyCost(List<String> path, float payload, VehicleType type, Map<String, Float> pesosPorEncomenda)
  +float getSpentTimeLastDronePath()
  +List<String> shortestPathDrone(List<String> cords, String pharmacyCords, String lastFarmacia)





 }

 class StopForCharging {
 +boolean run(ChangeStatesTask cst)


 }

 class Print {
 +boolean printFileDelivery(LinkedList<String> mostEficiente, LinkedList<String> path, float distance, float time, float energyCost, Integer deliveryID, String outputFileName, float actualBatteryWH, float payload, int vehicleID, int courierNIF, String pharmacyCords)
 +void printPhisics(String outputFileName, VehicleType type)
 +void printRemainingDeliveryPath(String outputFileName, String actualFarmacia, LinkedList<String> fullRemainingPath, float gastoEnergeticoRestante, float distanciaRestante, float tempoRestante, VehicleType type)
 }




DroneDeliveryPlanningTask ..> DeliveryPlanning
DroneDeliveryPlanningTask ..> PlanningDB
DroneDeliveryPlanningTask ..> Print
DroneDeliveryPlanningTask ..> StopForCharging






@enduml

PlantUML version 1.2021.00(Sun Jan 10 10:25:05 GMT 2021)
(GPL source distribution)
Java Runtime: OpenJDK Runtime Environment
JVM: OpenJDK 64-Bit Server VM
Default Encoding: Cp1252
Language: pt
Country: PT
--></g></svg>