<?xml version="1.0" encoding="UTF-8" standalone="no"?><svg xmlns="http://www.w3.org/2000/svg" xmlns:xlink="http://www.w3.org/1999/xlink" contentScriptType="application/ecmascript" contentStyleType="text/css" height="414px" preserveAspectRatio="none" style="width:1003px;height:414px;" version="1.1" viewBox="0 0 1003 414" width="1003.2px" zoomAndPan="magnify"><defs><filter height="300%" id="f67dkqstv0nn5" width="300%" x="-1" y="-1"><feGaussianBlur result="blurOut" stdDeviation="1.2"/><feColorMatrix in="blurOut" result="blurOut2" type="matrix" values="0 0 0 0 0 0 0 0 0 0 0 0 0 0 0 0 0 0 .4 0"/><feOffset dx="2.4" dy="2.4" in="blurOut2" result="blurOut3"/><feBlend in="SourceGraphic" in2="blurOut3" mode="normal"/></filter></defs><g><!--MD5=[ed6624c6556d5e7b1bd23032162d20b7]
class Client--><rect codeLine="9" fill="#FEFECE" filter="url(#f67dkqstv0nn5)" height="32.3016" id="Client" style="stroke:#A80036;stroke-width:0.8999999999999999;" width="51" x="285.6" y="77.1"/><ellipse cx="300.27" cy="86.7" fill="#ADD1B2" rx="6.6" ry="6.6" style="stroke:#A80036;stroke-width:0.6;"/><path d="M301.47,84.6 Q301.5919,84.3 301.7325,84.15 Q301.8731,84 302.0325,84 Q302.3137,84 302.4919,84.1688 Q302.67,84.3375 302.67,84.7313 L302.67,85.6688 Q302.67,86.0625 302.5012,86.2313 Q302.3325,86.4 302.07,86.4 Q301.8356,86.4 301.6856,86.2969 Q301.5356,86.1938 301.47,85.9219 Q301.4419,85.7344 301.3388,85.6313 Q301.1513,85.4344 300.8137,85.3219 Q300.4763,85.2 300.1387,85.2 Q299.7169,85.2 299.3606,85.3687 Q299.0137,85.5375 298.7419,85.9125 Q298.47,86.2875 298.47,86.8031 L298.47,87.3563 Q298.47,87.975 298.9763,88.3875 Q299.4825,88.8 300.3825,88.8 Q300.9169,88.8 301.2919,88.6781 Q301.5075,88.6125 301.7512,88.3969 Q301.9106,88.275 301.995,88.2375 Q302.0794,88.2 302.1825,88.2 Q302.3794,88.2 302.52,88.3594 Q302.67,88.5094 302.67,88.725 Q302.67,88.9312 302.4638,89.175 Q302.1638,89.5313 301.6856,89.7281 Q301.0575,90 300.2888,90 Q299.3887,90 298.6669,89.6438 Q298.0856,89.3625 297.6731,88.7531 Q297.27,88.1438 297.27,87.4219 L297.27,86.7656 Q297.27,86.0156 297.6262,85.3594 Q297.9919,84.7031 298.62,84.3563 Q299.2575,84 299.97,84 Q300.4013,84 300.7763,84.15 Q301.1513,84.3 301.47,84.6 Z " fill="#000000"/><text fill="#000000" font-family="sans-serif" font-size="7.2" lengthAdjust="spacing" textLength="19.2" x="309.93" y="89.6461">Client</text><line style="stroke:#A80036;stroke-width:0.8999999999999999;" x1="286.2" x2="336" y1="96.3" y2="96.3"/><text fill="#000000" font-family="sans-serif" font-size="6.6" lengthAdjust="spacing" textLength="43.8" x="289.2" y="105.5514">-Integer credits</text><!--MD5=[0f39e4cb6f03951afbf6d14bd2505654]
class Address--><rect codeLine="13" fill="#FEFECE" filter="url(#f67dkqstv0nn5)" height="57.2063" id="Address" style="stroke:#A80036;stroke-width:0.8999999999999999;" width="66.6" x="676.2" y="64.2"/><ellipse cx="694.11" cy="73.8" fill="#ADD1B2" rx="6.6" ry="6.6" style="stroke:#A80036;stroke-width:0.6;"/><path d="M695.31,71.7 Q695.4319,71.4 695.5725,71.25 Q695.7131,71.1 695.8725,71.1 Q696.1538,71.1 696.3319,71.2688 Q696.51,71.4375 696.51,71.8313 L696.51,72.7688 Q696.51,73.1625 696.3413,73.3313 Q696.1725,73.5 695.91,73.5 Q695.6756,73.5 695.5256,73.3969 Q695.3756,73.2938 695.31,73.0219 Q695.2819,72.8344 695.1787,72.7313 Q694.9912,72.5344 694.6538,72.4219 Q694.3163,72.3 693.9787,72.3 Q693.5569,72.3 693.2006,72.4688 Q692.8537,72.6375 692.5819,73.0125 Q692.31,73.3875 692.31,73.9031 L692.31,74.4563 Q692.31,75.075 692.8163,75.4875 Q693.3225,75.9 694.2225,75.9 Q694.7569,75.9 695.1319,75.7781 Q695.3475,75.7125 695.5913,75.4969 Q695.7506,75.375 695.835,75.3375 Q695.9194,75.3 696.0225,75.3 Q696.2194,75.3 696.36,75.4594 Q696.51,75.6094 696.51,75.825 Q696.51,76.0313 696.3037,76.275 Q696.0038,76.6313 695.5256,76.8281 Q694.8975,77.1 694.1288,77.1 Q693.2287,77.1 692.5069,76.7437 Q691.9256,76.4625 691.5131,75.8531 Q691.11,75.2437 691.11,74.5219 L691.11,73.8656 Q691.11,73.1156 691.4663,72.4594 Q691.8319,71.8031 692.46,71.4563 Q693.0975,71.1 693.81,71.1 Q694.2412,71.1 694.6162,71.25 Q694.9912,71.4 695.31,71.7 Z " fill="#000000"/><text fill="#000000" font-family="sans-serif" font-size="7.2" lengthAdjust="spacing" textLength="27.6" x="704.49" y="76.7461">Address</text><line style="stroke:#A80036;stroke-width:0.8999999999999999;" x1="676.8" x2="742.2" y1="83.4" y2="83.4"/><text fill="#000000" font-family="sans-serif" font-size="6.6" lengthAdjust="spacing" textLength="55.2" x="679.8" y="92.6514">-String coordinates</text><text fill="#000000" font-family="sans-serif" font-size="6.6" lengthAdjust="spacing" textLength="37.8" x="679.8" y="100.9529">-String street</text><text fill="#000000" font-family="sans-serif" font-size="6.6" lengthAdjust="spacing" textLength="53.4" x="679.8" y="109.2545">-String postalCode</text><text fill="#000000" font-family="sans-serif" font-size="6.6" lengthAdjust="spacing" textLength="59.4" x="679.8" y="117.5561">-Integer doorNumber</text><!--MD5=[7242b657ebd9e3e849bae771c0aa5809]
class MapPoint--><rect codeLine="21" fill="#FEFECE" filter="url(#f67dkqstv0nn5)" height="40.6031" id="MapPoint" style="stroke:#A80036;stroke-width:0.8999999999999999;" width="62.4" x="797.4" y="72.3"/><ellipse cx="812.07" cy="81.9" fill="#ADD1B2" rx="6.6" ry="6.6" style="stroke:#A80036;stroke-width:0.6;"/><path d="M813.27,79.8 Q813.3919,79.5 813.5325,79.35 Q813.6731,79.2 813.8325,79.2 Q814.1138,79.2 814.2919,79.3687 Q814.47,79.5375 814.47,79.9312 L814.47,80.8687 Q814.47,81.2625 814.3013,81.4312 Q814.1325,81.6 813.87,81.6 Q813.6356,81.6 813.4856,81.4969 Q813.3356,81.3938 813.27,81.1219 Q813.2419,80.9344 813.1388,80.8313 Q812.9513,80.6344 812.6138,80.5219 Q812.2763,80.4 811.9388,80.4 Q811.5169,80.4 811.1606,80.5688 Q810.8138,80.7375 810.5419,81.1125 Q810.27,81.4875 810.27,82.0031 L810.27,82.5562 Q810.27,83.175 810.7763,83.5875 Q811.2825,84 812.1825,84 Q812.7169,84 813.0919,83.8781 Q813.3075,83.8125 813.5513,83.5969 Q813.7106,83.475 813.795,83.4375 Q813.8794,83.4 813.9825,83.4 Q814.1794,83.4 814.32,83.5594 Q814.47,83.7094 814.47,83.925 Q814.47,84.1313 814.2638,84.375 Q813.9638,84.7313 813.4856,84.9281 Q812.8575,85.2 812.0888,85.2 Q811.1888,85.2 810.4669,84.8438 Q809.8856,84.5625 809.4731,83.9531 Q809.07,83.3438 809.07,82.6219 L809.07,81.9656 Q809.07,81.2156 809.4263,80.5594 Q809.7919,79.9031 810.42,79.5562 Q811.0575,79.2 811.77,79.2 Q812.2013,79.2 812.5763,79.35 Q812.9513,79.5 813.27,79.8 Z " fill="#000000"/><text fill="#000000" font-family="sans-serif" font-size="7.2" lengthAdjust="spacing" textLength="30.6" x="821.73" y="84.8461">MapPoint</text><line style="stroke:#A80036;stroke-width:0.8999999999999999;" x1="798" x2="859.2" y1="91.5" y2="91.5"/><text fill="#000000" font-family="sans-serif" font-size="6.6" lengthAdjust="spacing" textLength="55.2" x="801" y="100.7514">-String coordinates</text><text fill="#000000" font-family="sans-serif" font-size="6.6" lengthAdjust="spacing" textLength="37.2" x="801" y="109.0529">-float altitude</text><!--MD5=[db94511ff73c25040c57072aa4771965]
class Path--><rect codeLine="26" fill="#FEFECE" filter="url(#f67dkqstv0nn5)" height="57.2063" id="Path" style="stroke:#A80036;stroke-width:0.8999999999999999;" width="77.4" x="917.4" y="64.2"/><ellipse cx="946.05" cy="73.8" fill="#ADD1B2" rx="6.6" ry="6.6" style="stroke:#A80036;stroke-width:0.6;"/><path d="M947.25,71.7 Q947.3719,71.4 947.5125,71.25 Q947.6531,71.1 947.8125,71.1 Q948.0938,71.1 948.2719,71.2688 Q948.45,71.4375 948.45,71.8313 L948.45,72.7688 Q948.45,73.1625 948.2813,73.3313 Q948.1125,73.5 947.85,73.5 Q947.6156,73.5 947.4656,73.3969 Q947.3156,73.2938 947.25,73.0219 Q947.2219,72.8344 947.1188,72.7313 Q946.9313,72.5344 946.5938,72.4219 Q946.2562,72.3 945.9187,72.3 Q945.4969,72.3 945.1406,72.4688 Q944.7937,72.6375 944.5219,73.0125 Q944.25,73.3875 944.25,73.9031 L944.25,74.4563 Q944.25,75.075 944.7562,75.4875 Q945.2625,75.9 946.1625,75.9 Q946.6969,75.9 947.0719,75.7781 Q947.2875,75.7125 947.5313,75.4969 Q947.6906,75.375 947.775,75.3375 Q947.8594,75.3 947.9625,75.3 Q948.1594,75.3 948.3,75.4594 Q948.45,75.6094 948.45,75.825 Q948.45,76.0313 948.2438,76.275 Q947.9437,76.6313 947.4656,76.8281 Q946.8375,77.1 946.0687,77.1 Q945.1687,77.1 944.4469,76.7437 Q943.8656,76.4625 943.4531,75.8531 Q943.05,75.2437 943.05,74.5219 L943.05,73.8656 Q943.05,73.1156 943.4063,72.4594 Q943.7719,71.8031 944.4,71.4563 Q945.0375,71.1 945.75,71.1 Q946.1813,71.1 946.5563,71.25 Q946.9313,71.4 947.25,71.7 Z " fill="#000000"/><text fill="#000000" font-family="sans-serif" font-size="7.2" lengthAdjust="spacing" textLength="15" x="958.35" y="76.7461">Path</text><line style="stroke:#A80036;stroke-width:0.8999999999999999;" x1="918" x2="994.2" y1="83.4" y2="83.4"/><text fill="#000000" font-family="sans-serif" font-size="6.6" lengthAdjust="spacing" textLength="28.8" x="921" y="92.6514">-Integer id</text><text fill="#000000" font-family="sans-serif" font-size="6.6" lengthAdjust="spacing" textLength="38.4" x="921" y="100.9529">-String point1</text><text fill="#000000" font-family="sans-serif" font-size="6.6" lengthAdjust="spacing" textLength="38.4" x="921" y="109.2545">-String point2</text><text fill="#000000" font-family="sans-serif" font-size="6.6" lengthAdjust="spacing" textLength="70.2" x="921" y="117.5561">-Integer connectionType</text><!--MD5=[7f2a9fafcebe4f099f71398fd3e2ed00]
class Pharmacy--><rect codeLine="33" fill="#FEFECE" filter="url(#f67dkqstv0nn5)" height="40.6031" id="Pharmacy" style="stroke:#A80036;stroke-width:0.8999999999999999;" width="61.2" x="4.2" y="237.3"/><ellipse cx="17.25" cy="246.9" fill="#ADD1B2" rx="6.6" ry="6.6" style="stroke:#A80036;stroke-width:0.6;"/><path d="M18.45,244.8 Q18.5719,244.5 18.7125,244.35 Q18.8531,244.2 19.0125,244.2 Q19.2938,244.2 19.4719,244.3687 Q19.65,244.5375 19.65,244.9312 L19.65,245.8687 Q19.65,246.2625 19.4813,246.4312 Q19.3125,246.6 19.05,246.6 Q18.8156,246.6 18.6656,246.4969 Q18.5156,246.3937 18.45,246.1219 Q18.4219,245.9344 18.3187,245.8312 Q18.1312,245.6344 17.7938,245.5219 Q17.4563,245.4 17.1188,245.4 Q16.6969,245.4 16.3406,245.5688 Q15.9937,245.7375 15.7219,246.1125 Q15.45,246.4875 15.45,247.0031 L15.45,247.5562 Q15.45,248.175 15.9562,248.5875 Q16.4625,249 17.3625,249 Q17.8969,249 18.2719,248.8781 Q18.4875,248.8125 18.7313,248.5969 Q18.8906,248.475 18.975,248.4375 Q19.0594,248.4 19.1625,248.4 Q19.3594,248.4 19.5,248.5594 Q19.65,248.7094 19.65,248.925 Q19.65,249.1313 19.4437,249.375 Q19.1438,249.7313 18.6656,249.9281 Q18.0375,250.2 17.2688,250.2 Q16.3688,250.2 15.6469,249.8438 Q15.0656,249.5625 14.6531,248.9531 Q14.25,248.3438 14.25,247.6219 L14.25,246.9656 Q14.25,246.2156 14.6063,245.5594 Q14.9719,244.9031 15.6,244.5562 Q16.2375,244.2 16.95,244.2 Q17.3812,244.2 17.7562,244.35 Q18.1312,244.5 18.45,244.8 Z " fill="#000000"/><text fill="#000000" font-family="sans-serif" font-size="7.2" lengthAdjust="spacing" textLength="33" x="26.55" y="249.8461">Pharmacy</text><line style="stroke:#A80036;stroke-width:0.8999999999999999;" x1="4.8" x2="64.8" y1="256.5" y2="256.5"/><text fill="#000000" font-family="sans-serif" font-size="6.6" lengthAdjust="spacing" textLength="28.8" x="7.8" y="265.7514">-Integer id</text><text fill="#000000" font-family="sans-serif" font-size="6.6" lengthAdjust="spacing" textLength="54" x="7.8" y="274.0529">-String designation</text><!--MD5=[3aa0d89c6bfdcbf7f32042cedac57549]
class Vehicle--><rect codeLine="38" fill="#FEFECE" filter="url(#f67dkqstv0nn5)" height="57.2063" id="Vehicle" style="stroke:#A80036;stroke-width:0.8999999999999999;" width="69.6" x="130.8" y="207"/><ellipse cx="151.68" cy="216.6" fill="#ADD1B2" rx="6.6" ry="6.6" style="stroke:#A80036;stroke-width:0.6;"/><path d="M152.88,214.5 Q153.0019,214.2 153.1425,214.05 Q153.2831,213.9 153.4425,213.9 Q153.7238,213.9 153.9019,214.0688 Q154.08,214.2375 154.08,214.6313 L154.08,215.5688 Q154.08,215.9625 153.9113,216.1313 Q153.7425,216.3 153.48,216.3 Q153.2456,216.3 153.0956,216.1969 Q152.9456,216.0938 152.88,215.8219 Q152.8519,215.6344 152.7488,215.5313 Q152.5613,215.3344 152.2238,215.2219 Q151.8863,215.1 151.5488,215.1 Q151.1269,215.1 150.7706,215.2687 Q150.4238,215.4375 150.1519,215.8125 Q149.88,216.1875 149.88,216.7031 L149.88,217.2563 Q149.88,217.875 150.3863,218.2875 Q150.8925,218.7 151.7925,218.7 Q152.3269,218.7 152.7019,218.5781 Q152.9175,218.5125 153.1613,218.2969 Q153.3206,218.175 153.405,218.1375 Q153.4894,218.1 153.5925,218.1 Q153.7894,218.1 153.93,218.2594 Q154.08,218.4094 154.08,218.625 Q154.08,218.8312 153.8738,219.075 Q153.5738,219.4313 153.0956,219.6281 Q152.4675,219.9 151.6988,219.9 Q150.7988,219.9 150.0769,219.5438 Q149.4956,219.2625 149.0831,218.6531 Q148.68,218.0438 148.68,217.3219 L148.68,216.6656 Q148.68,215.9156 149.0363,215.2594 Q149.4019,214.6031 150.03,214.2563 Q150.6675,213.9 151.38,213.9 Q151.8113,213.9 152.1863,214.05 Q152.5613,214.2 152.88,214.5 Z " fill="#000000"/><text fill="#000000" font-family="sans-serif" font-size="7.2" lengthAdjust="spacing" textLength="24" x="162.72" y="219.5461">Vehicle</text><line style="stroke:#A80036;stroke-width:0.8999999999999999;" x1="131.4" x2="199.8" y1="226.2" y2="226.2"/><text fill="#000000" font-family="sans-serif" font-size="6.6" lengthAdjust="spacing" textLength="28.8" x="134.4" y="235.4514">-Integer id</text><text fill="#000000" font-family="sans-serif" font-size="6.6" lengthAdjust="spacing" textLength="62.4" x="134.4" y="243.7529">-float batteryCapacity</text><text fill="#000000" font-family="sans-serif" font-size="6.6" lengthAdjust="spacing" textLength="37.2" x="134.4" y="252.0545">-float battery</text><text fill="#000000" font-family="sans-serif" font-size="6.6" lengthAdjust="spacing" textLength="58.2" x="134.4" y="260.3561">-double maxPayload</text><!--MD5=[2e3f1e60e74253ff42e47f8bfdb04ee2]
class Drone--><rect codeLine="45" fill="#FEFECE" filter="url(#f67dkqstv0nn5)" height="32.3016" id="Drone" style="stroke:#A80036;stroke-width:0.8999999999999999;" width="39.6" x="291.3" y="144.3"/><ellipse cx="300.3" cy="153.9" fill="#ADD1B2" rx="6.6" ry="6.6" style="stroke:#A80036;stroke-width:0.6;"/><path d="M301.5,151.8 Q301.6219,151.5 301.7625,151.35 Q301.9031,151.2 302.0625,151.2 Q302.3438,151.2 302.5219,151.3688 Q302.7,151.5375 302.7,151.9313 L302.7,152.8688 Q302.7,153.2625 302.5313,153.4313 Q302.3625,153.6 302.1,153.6 Q301.8656,153.6 301.7156,153.4969 Q301.5656,153.3937 301.5,153.1219 Q301.4719,152.9344 301.3688,152.8312 Q301.1813,152.6344 300.8438,152.5219 Q300.5062,152.4 300.1688,152.4 Q299.7469,152.4 299.3906,152.5688 Q299.0438,152.7375 298.7719,153.1125 Q298.5,153.4875 298.5,154.0031 L298.5,154.5563 Q298.5,155.175 299.0062,155.5875 Q299.5125,156 300.4125,156 Q300.9469,156 301.3219,155.8781 Q301.5375,155.8125 301.7813,155.5969 Q301.9406,155.475 302.025,155.4375 Q302.1094,155.4 302.2125,155.4 Q302.4094,155.4 302.55,155.5594 Q302.7,155.7094 302.7,155.925 Q302.7,156.1313 302.4938,156.375 Q302.1937,156.7313 301.7156,156.9281 Q301.0875,157.2 300.3187,157.2 Q299.4188,157.2 298.6969,156.8438 Q298.1156,156.5625 297.7031,155.9531 Q297.3,155.3438 297.3,154.6219 L297.3,153.9656 Q297.3,153.2156 297.6563,152.5594 Q298.0219,151.9031 298.65,151.5563 Q299.2875,151.2 300,151.2 Q300.4313,151.2 300.8063,151.35 Q301.1813,151.5 301.5,151.8 Z " fill="#000000"/><text fill="#000000" font-family="sans-serif" font-size="7.2" lengthAdjust="spacing" textLength="20.4" x="308.7" y="156.8461">Drone</text><line style="stroke:#A80036;stroke-width:0.8999999999999999;" x1="291.9" x2="330.3" y1="163.5" y2="163.5"/><text fill="#000000" font-family="sans-serif" font-size="6.6" lengthAdjust="spacing" textLength="28.8" x="294.9" y="172.7514">-Integer id</text><!--MD5=[d1eeb527b96f439f56c6bd12ac0dd707]
class Park--><rect codeLine="49" fill="#FEFECE" filter="url(#f67dkqstv0nn5)" height="40.6031" id="Park" style="stroke:#A80036;stroke-width:0.8999999999999999;" width="68.4" x="131.4" y="302.7"/><ellipse cx="155.79" cy="312.3" fill="#ADD1B2" rx="6.6" ry="6.6" style="stroke:#A80036;stroke-width:0.6;"/><path d="M156.99,310.2 Q157.1119,309.9 157.2525,309.75 Q157.3931,309.6 157.5525,309.6 Q157.8337,309.6 158.0119,309.7688 Q158.19,309.9375 158.19,310.3313 L158.19,311.2688 Q158.19,311.6625 158.0212,311.8313 Q157.8525,312 157.59,312 Q157.3556,312 157.2056,311.8969 Q157.0556,311.7938 156.99,311.5219 Q156.9619,311.3344 156.8588,311.2313 Q156.6713,311.0344 156.3337,310.9219 Q155.9962,310.8 155.6587,310.8 Q155.2369,310.8 154.8806,310.9688 Q154.5337,311.1375 154.2619,311.5125 Q153.99,311.8875 153.99,312.4031 L153.99,312.9563 Q153.99,313.575 154.4962,313.9875 Q155.0025,314.4 155.9025,314.4 Q156.4369,314.4 156.8119,314.2781 Q157.0275,314.2125 157.2712,313.9969 Q157.4306,313.875 157.515,313.8375 Q157.5994,313.8 157.7025,313.8 Q157.8994,313.8 158.04,313.9594 Q158.19,314.1094 158.19,314.325 Q158.19,314.5313 157.9838,314.775 Q157.6837,315.1312 157.2056,315.3281 Q156.5775,315.6 155.8087,315.6 Q154.9087,315.6 154.1869,315.2438 Q153.6056,314.9625 153.1931,314.3531 Q152.79,313.7438 152.79,313.0219 L152.79,312.3656 Q152.79,311.6156 153.1462,310.9594 Q153.5119,310.3031 154.14,309.9563 Q154.7775,309.6 155.49,309.6 Q155.9213,309.6 156.2963,309.75 Q156.6713,309.9 156.99,310.2 Z " fill="#000000"/><text fill="#000000" font-family="sans-serif" font-size="7.2" lengthAdjust="spacing" textLength="15" x="167.61" y="315.2461">Park</text><line style="stroke:#A80036;stroke-width:0.8999999999999999;" x1="132" x2="199.2" y1="321.9" y2="321.9"/><text fill="#000000" font-family="sans-serif" font-size="6.6" lengthAdjust="spacing" textLength="28.8" x="135" y="331.1514">-Integer id</text><text fill="#000000" font-family="sans-serif" font-size="6.6" lengthAdjust="spacing" textLength="61.2" x="135" y="339.4529">-Integer maxCapacity</text><!--MD5=[388196bfb1e60c011795b3c04c7c53f7]
class ParkPlace--><rect codeLine="54" fill="#FEFECE" filter="url(#f67dkqstv0nn5)" height="40.6031" id="ParkPlace" style="stroke:#A80036;stroke-width:0.8999999999999999;" width="62.4" x="425.4" y="302.7"/><ellipse cx="438.72" cy="312.3" fill="#ADD1B2" rx="6.6" ry="6.6" style="stroke:#A80036;stroke-width:0.6;"/><path d="M439.92,310.2 Q440.0419,309.9 440.1825,309.75 Q440.3231,309.6 440.4825,309.6 Q440.7638,309.6 440.9419,309.7688 Q441.12,309.9375 441.12,310.3313 L441.12,311.2688 Q441.12,311.6625 440.9513,311.8313 Q440.7825,312 440.52,312 Q440.2856,312 440.1356,311.8969 Q439.9856,311.7938 439.92,311.5219 Q439.8919,311.3344 439.7888,311.2313 Q439.6013,311.0344 439.2638,310.9219 Q438.9263,310.8 438.5888,310.8 Q438.1669,310.8 437.8106,310.9688 Q437.4638,311.1375 437.1919,311.5125 Q436.92,311.8875 436.92,312.4031 L436.92,312.9563 Q436.92,313.575 437.4263,313.9875 Q437.9325,314.4 438.8325,314.4 Q439.3669,314.4 439.7419,314.2781 Q439.9575,314.2125 440.2013,313.9969 Q440.3606,313.875 440.445,313.8375 Q440.5294,313.8 440.6325,313.8 Q440.8294,313.8 440.97,313.9594 Q441.12,314.1094 441.12,314.325 Q441.12,314.5313 440.9138,314.775 Q440.6138,315.1312 440.1356,315.3281 Q439.5075,315.6 438.7388,315.6 Q437.8388,315.6 437.1169,315.2438 Q436.5356,314.9625 436.1231,314.3531 Q435.72,313.7438 435.72,313.0219 L435.72,312.3656 Q435.72,311.6156 436.0763,310.9594 Q436.4419,310.3031 437.07,309.9563 Q437.7075,309.6 438.42,309.6 Q438.8513,309.6 439.2263,309.75 Q439.6013,309.9 439.92,310.2 Z " fill="#000000"/><text fill="#000000" font-family="sans-serif" font-size="7.2" lengthAdjust="spacing" textLength="33.6" x="448.08" y="315.2461">ParkPlace</text><line style="stroke:#A80036;stroke-width:0.8999999999999999;" x1="426" x2="487.2" y1="321.9" y2="321.9"/><text fill="#000000" font-family="sans-serif" font-size="6.6" lengthAdjust="spacing" textLength="28.8" x="429" y="331.1514">-Integer id</text><text fill="#000000" font-family="sans-serif" font-size="6.6" lengthAdjust="spacing" textLength="55.2" x="429" y="339.4529">-Integer isAvailable</text><!--MD5=[0ba4f986c1f05d5f741be8d2354a25b2]
class ParkType--><rect codeLine="59" fill="#FEFECE" filter="url(#f67dkqstv0nn5)" height="40.6031" id="ParkType" style="stroke:#A80036;stroke-width:0.8999999999999999;" width="61.2" x="4.2" y="302.7"/><ellipse cx="18.33" cy="312.3" fill="#ADD1B2" rx="6.6" ry="6.6" style="stroke:#A80036;stroke-width:0.6;"/><path d="M19.53,310.2 Q19.6519,309.9 19.7925,309.75 Q19.9331,309.6 20.0925,309.6 Q20.3737,309.6 20.5519,309.7688 Q20.73,309.9375 20.73,310.3313 L20.73,311.2688 Q20.73,311.6625 20.5612,311.8313 Q20.3925,312 20.13,312 Q19.8956,312 19.7456,311.8969 Q19.5956,311.7938 19.53,311.5219 Q19.5019,311.3344 19.3987,311.2313 Q19.2112,311.0344 18.8738,310.9219 Q18.5363,310.8 18.1988,310.8 Q17.7769,310.8 17.4206,310.9688 Q17.0738,311.1375 16.8019,311.5125 Q16.53,311.8875 16.53,312.4031 L16.53,312.9563 Q16.53,313.575 17.0363,313.9875 Q17.5425,314.4 18.4425,314.4 Q18.9769,314.4 19.3519,314.2781 Q19.5675,314.2125 19.8112,313.9969 Q19.9706,313.875 20.055,313.8375 Q20.1394,313.8 20.2425,313.8 Q20.4394,313.8 20.58,313.9594 Q20.73,314.1094 20.73,314.325 Q20.73,314.5313 20.5237,314.775 Q20.2238,315.1312 19.7456,315.3281 Q19.1175,315.6 18.3488,315.6 Q17.4488,315.6 16.7269,315.2438 Q16.1456,314.9625 15.7331,314.3531 Q15.33,313.7438 15.33,313.0219 L15.33,312.3656 Q15.33,311.6156 15.6863,310.9594 Q16.0519,310.3031 16.68,309.9563 Q17.3175,309.6 18.03,309.6 Q18.4613,309.6 18.8363,309.75 Q19.2112,309.9 19.53,310.2 Z " fill="#000000"/><text fill="#000000" font-family="sans-serif" font-size="7.2" lengthAdjust="spacing" textLength="30.6" x="27.87" y="315.2461">ParkType</text><line style="stroke:#A80036;stroke-width:0.8999999999999999;" x1="4.8" x2="64.8" y1="321.9" y2="321.9"/><text fill="#000000" font-family="sans-serif" font-size="6.6" lengthAdjust="spacing" textLength="28.8" x="7.8" y="331.1514">-Integer id</text><text fill="#000000" font-family="sans-serif" font-size="6.6" lengthAdjust="spacing" textLength="54" x="7.8" y="339.4529">-String designation</text><!--MD5=[7ca35fa42fdd2584ef5892c05d53c42e]
class ChargingStation--><rect codeLine="64" fill="#FEFECE" filter="url(#f67dkqstv0nn5)" height="40.6031" id="ChargingStation" style="stroke:#A80036;stroke-width:0.8999999999999999;" width="72.6" x="274.8" y="365.1"/><ellipse cx="283.8" cy="374.7" fill="#ADD1B2" rx="6.6" ry="6.6" style="stroke:#A80036;stroke-width:0.6;"/><path d="M285,372.6 Q285.1219,372.3 285.2625,372.15 Q285.4031,372 285.5625,372 Q285.8438,372 286.0219,372.1688 Q286.2,372.3375 286.2,372.7313 L286.2,373.6688 Q286.2,374.0625 286.0313,374.2313 Q285.8625,374.4 285.6,374.4 Q285.3656,374.4 285.2156,374.2969 Q285.0656,374.1937 285,373.9219 Q284.9719,373.7344 284.8688,373.6312 Q284.6813,373.4344 284.3438,373.3219 Q284.0062,373.2 283.6688,373.2 Q283.2469,373.2 282.8906,373.3688 Q282.5438,373.5375 282.2719,373.9125 Q282,374.2875 282,374.8031 L282,375.3563 Q282,375.975 282.5062,376.3875 Q283.0125,376.8 283.9125,376.8 Q284.4469,376.8 284.8219,376.6781 Q285.0375,376.6125 285.2813,376.3969 Q285.4406,376.275 285.525,376.2375 Q285.6094,376.2 285.7125,376.2 Q285.9094,376.2 286.05,376.3594 Q286.2,376.5094 286.2,376.725 Q286.2,376.9313 285.9938,377.175 Q285.6937,377.5313 285.2156,377.7281 Q284.5875,378 283.8187,378 Q282.9188,378 282.1969,377.6438 Q281.6156,377.3625 281.2031,376.7531 Q280.8,376.1438 280.8,375.4219 L280.8,374.7656 Q280.8,374.0156 281.1563,373.3594 Q281.5219,372.7031 282.15,372.3563 Q282.7875,372 283.5,372 Q283.9313,372 284.3063,372.15 Q284.6813,372.3 285,372.6 Z " fill="#000000"/><text fill="#000000" font-family="sans-serif" font-size="7.2" lengthAdjust="spacing" textLength="53.4" x="292.2" y="377.6461">ChargingStation</text><line style="stroke:#A80036;stroke-width:0.8999999999999999;" x1="275.4" x2="346.8" y1="384.3" y2="384.3"/><text fill="#000000" font-family="sans-serif" font-size="6.6" lengthAdjust="spacing" textLength="28.8" x="278.4" y="393.5514">-Integer id</text><text fill="#000000" font-family="sans-serif" font-size="6.6" lengthAdjust="spacing" textLength="37.8" x="278.4" y="401.8529">-float voltage</text><!--MD5=[fff5db4abcb6eec6574b9ea9c3ee0eae]
class Delivery--><rect codeLine="72" fill="#FEFECE" filter="url(#f67dkqstv0nn5)" height="65.5078" id="Delivery" style="stroke:#A80036;stroke-width:0.8999999999999999;" width="68.4" x="422.4" y="127.8"/><ellipse cx="441.93" cy="137.4" fill="#ADD1B2" rx="6.6" ry="6.6" style="stroke:#A80036;stroke-width:0.6;"/><path d="M443.13,135.3 Q443.2519,135 443.3925,134.85 Q443.5331,134.7 443.6925,134.7 Q443.9737,134.7 444.1519,134.8688 Q444.33,135.0375 444.33,135.4313 L444.33,136.3688 Q444.33,136.7625 444.1612,136.9313 Q443.9925,137.1 443.73,137.1 Q443.4956,137.1 443.3456,136.9969 Q443.1956,136.8937 443.13,136.6219 Q443.1019,136.4344 442.9988,136.3312 Q442.8113,136.1344 442.4737,136.0219 Q442.1362,135.9 441.7988,135.9 Q441.3769,135.9 441.0206,136.0688 Q440.6738,136.2375 440.4019,136.6125 Q440.13,136.9875 440.13,137.5031 L440.13,138.0563 Q440.13,138.675 440.6362,139.0875 Q441.1425,139.5 442.0425,139.5 Q442.5769,139.5 442.9519,139.3781 Q443.1675,139.3125 443.4112,139.0969 Q443.5706,138.975 443.655,138.9375 Q443.7394,138.9 443.8425,138.9 Q444.0394,138.9 444.18,139.0594 Q444.33,139.2094 444.33,139.425 Q444.33,139.6313 444.1238,139.875 Q443.8237,140.2313 443.3456,140.4281 Q442.7175,140.7 441.9487,140.7 Q441.0488,140.7 440.3269,140.3438 Q439.7456,140.0625 439.3331,139.4531 Q438.93,138.8438 438.93,138.1219 L438.93,137.4656 Q438.93,136.7156 439.2862,136.0594 Q439.6519,135.4031 440.28,135.0563 Q440.9175,134.7 441.63,134.7 Q442.0613,134.7 442.4363,134.85 Q442.8113,135 443.13,135.3 Z " fill="#000000"/><text fill="#000000" font-family="sans-serif" font-size="7.2" lengthAdjust="spacing" textLength="25.8" x="452.67" y="140.3461">Delivery</text><line style="stroke:#A80036;stroke-width:0.8999999999999999;" x1="423" x2="490.2" y1="147" y2="147"/><text fill="#000000" font-family="sans-serif" font-size="6.6" lengthAdjust="spacing" textLength="28.8" x="426" y="156.2514">-Integer id</text><text fill="#000000" font-family="sans-serif" font-size="6.6" lengthAdjust="spacing" textLength="31.2" x="426" y="164.5529">-Integer nif</text><text fill="#000000" font-family="sans-serif" font-size="6.6" lengthAdjust="spacing" textLength="61.2" x="426" y="172.8545">-float distanceMeters</text><text fill="#000000" font-family="sans-serif" font-size="6.6" lengthAdjust="spacing" textLength="50.4" x="426" y="181.1561">-float timeMinutes</text><text fill="#000000" font-family="sans-serif" font-size="6.6" lengthAdjust="spacing" textLength="60.6" x="426" y="189.4576">-float energyCostWH</text><!--MD5=[cf4d6237fcae255cd2e1656cf84a30e2]
class Order--><rect codeLine="80" fill="#FEFECE" filter="url(#f67dkqstv0nn5)" height="57.2063" id="Order" style="stroke:#A80036;stroke-width:0.8999999999999999;" width="57" x="561.6" y="133.2"/><ellipse cx="579.24" cy="142.8" fill="#ADD1B2" rx="6.6" ry="6.6" style="stroke:#A80036;stroke-width:0.6;"/><path d="M580.44,140.7 Q580.5619,140.4 580.7025,140.25 Q580.8431,140.1 581.0025,140.1 Q581.2837,140.1 581.4619,140.2687 Q581.64,140.4375 581.64,140.8312 L581.64,141.7687 Q581.64,142.1625 581.4712,142.3312 Q581.3025,142.5 581.04,142.5 Q580.8056,142.5 580.6556,142.3969 Q580.5056,142.2938 580.44,142.0219 Q580.4119,141.8344 580.3087,141.7313 Q580.1212,141.5344 579.7837,141.4219 Q579.4463,141.3 579.1088,141.3 Q578.6869,141.3 578.3306,141.4688 Q577.9838,141.6375 577.7119,142.0125 Q577.44,142.3875 577.44,142.9031 L577.44,143.4562 Q577.44,144.075 577.9463,144.4875 Q578.4525,144.9 579.3525,144.9 Q579.8869,144.9 580.2619,144.7781 Q580.4775,144.7125 580.7212,144.4969 Q580.8806,144.375 580.965,144.3375 Q581.0494,144.3 581.1525,144.3 Q581.3494,144.3 581.49,144.4594 Q581.64,144.6094 581.64,144.825 Q581.64,145.0313 581.4337,145.275 Q581.1338,145.6313 580.6556,145.8281 Q580.0275,146.1 579.2588,146.1 Q578.3588,146.1 577.6369,145.7438 Q577.0556,145.4625 576.6431,144.8531 Q576.24,144.2438 576.24,143.5219 L576.24,142.8656 Q576.24,142.1156 576.5962,141.4594 Q576.9619,140.8031 577.59,140.4562 Q578.2275,140.1 578.94,140.1 Q579.3712,140.1 579.7462,140.25 Q580.1212,140.4 580.44,140.7 Z " fill="#000000"/><text fill="#000000" font-family="sans-serif" font-size="7.2" lengthAdjust="spacing" textLength="18.6" x="589.56" y="145.7461">Order</text><line style="stroke:#A80036;stroke-width:0.8999999999999999;" x1="562.2" x2="618" y1="152.4" y2="152.4"/><text fill="#000000" font-family="sans-serif" font-size="6.6" lengthAdjust="spacing" textLength="28.8" x="565.2" y="161.6514">-Integer id</text><text fill="#000000" font-family="sans-serif" font-size="6.6" lengthAdjust="spacing" textLength="46.2" x="565.2" y="169.9529">-Date orderDate</text><text fill="#000000" font-family="sans-serif" font-size="6.6" lengthAdjust="spacing" textLength="49.8" x="565.2" y="178.2545">-Date deliverDate</text><text fill="#000000" font-family="sans-serif" font-size="6.6" lengthAdjust="spacing" textLength="33" x="565.2" y="186.5561">-Integer NIF</text><!--MD5=[b0808aa00a5c1d2430824b5104b080bc]
class OrderState--><rect codeLine="87" fill="#FEFECE" filter="url(#f67dkqstv0nn5)" height="40.6031" id="OrderState" style="stroke:#A80036;stroke-width:0.8999999999999999;" width="61.2" x="678.9" y="142.5"/><ellipse cx="690.87" cy="152.1" fill="#ADD1B2" rx="6.6" ry="6.6" style="stroke:#A80036;stroke-width:0.6;"/><path d="M692.07,150 Q692.1919,149.7 692.3325,149.55 Q692.4731,149.4 692.6325,149.4 Q692.9138,149.4 693.0919,149.5688 Q693.27,149.7375 693.27,150.1313 L693.27,151.0688 Q693.27,151.4625 693.1013,151.6313 Q692.9325,151.8 692.67,151.8 Q692.4356,151.8 692.2856,151.6969 Q692.1356,151.5938 692.07,151.3219 Q692.0419,151.1344 691.9388,151.0313 Q691.7513,150.8344 691.4138,150.7219 Q691.0763,150.6 690.7388,150.6 Q690.3169,150.6 689.9606,150.7687 Q689.6138,150.9375 689.3419,151.3125 Q689.07,151.6875 689.07,152.2031 L689.07,152.7563 Q689.07,153.375 689.5763,153.7875 Q690.0825,154.2 690.9825,154.2 Q691.5169,154.2 691.8919,154.0781 Q692.1075,154.0125 692.3513,153.7969 Q692.5106,153.675 692.595,153.6375 Q692.6794,153.6 692.7825,153.6 Q692.9794,153.6 693.12,153.7594 Q693.27,153.9094 693.27,154.125 Q693.27,154.3312 693.0638,154.575 Q692.7638,154.9313 692.2856,155.1281 Q691.6575,155.4 690.8888,155.4 Q689.9888,155.4 689.2669,155.0438 Q688.6856,154.7625 688.2731,154.1531 Q687.87,153.5438 687.87,152.8219 L687.87,152.1656 Q687.87,151.4156 688.2263,150.7594 Q688.5919,150.1031 689.22,149.7563 Q689.8575,149.4 690.57,149.4 Q691.0013,149.4 691.3763,149.55 Q691.7513,149.7 692.07,150 Z " fill="#000000"/><text fill="#000000" font-family="sans-serif" font-size="7.2" lengthAdjust="spacing" textLength="35.4" x="699.93" y="155.0461">OrderState</text><line style="stroke:#A80036;stroke-width:0.8999999999999999;" x1="679.5" x2="739.5" y1="161.7" y2="161.7"/><text fill="#000000" font-family="sans-serif" font-size="6.6" lengthAdjust="spacing" textLength="28.8" x="682.5" y="170.9514">-Integer id</text><text fill="#000000" font-family="sans-serif" font-size="6.6" lengthAdjust="spacing" textLength="54" x="682.5" y="179.2529">-String designation</text><!--MD5=[3fd616f346a44cd59a91eb10b19e157c]
class User--><rect codeLine="95" fill="#FEFECE" filter="url(#f67dkqstv0nn5)" height="57.2063" id="User" style="stroke:#A80036;stroke-width:0.8999999999999999;" width="58.2" x="427.5" y="4.2"/><ellipse cx="446.76" cy="13.8" fill="#ADD1B2" rx="6.6" ry="6.6" style="stroke:#A80036;stroke-width:0.6;"/><path d="M447.96,11.7 Q448.0819,11.4 448.2225,11.25 Q448.3631,11.1 448.5225,11.1 Q448.8038,11.1 448.9819,11.2687 Q449.16,11.4375 449.16,11.8312 L449.16,12.7687 Q449.16,13.1625 448.9913,13.3312 Q448.8225,13.5 448.56,13.5 Q448.3256,13.5 448.1756,13.3969 Q448.0256,13.2938 447.96,13.0219 Q447.9319,12.8344 447.8288,12.7313 Q447.6413,12.5344 447.3038,12.4219 Q446.9663,12.3 446.6288,12.3 Q446.2069,12.3 445.8506,12.4688 Q445.5038,12.6375 445.2319,13.0125 Q444.96,13.3875 444.96,13.9031 L444.96,14.4562 Q444.96,15.075 445.4663,15.4875 Q445.9725,15.9 446.8725,15.9 Q447.4069,15.9 447.7819,15.7781 Q447.9975,15.7125 448.2413,15.4969 Q448.4006,15.375 448.485,15.3375 Q448.5694,15.3 448.6725,15.3 Q448.8694,15.3 449.01,15.4594 Q449.16,15.6094 449.16,15.825 Q449.16,16.0313 448.9538,16.275 Q448.6538,16.6312 448.1756,16.8281 Q447.5475,17.1 446.7788,17.1 Q445.8788,17.1 445.1569,16.7438 Q444.5756,16.4625 444.1631,15.8531 Q443.76,15.2437 443.76,14.5219 L443.76,13.8656 Q443.76,13.1156 444.1163,12.4594 Q444.4819,11.8031 445.11,11.4562 Q445.7475,11.1 446.46,11.1 Q446.8913,11.1 447.2663,11.25 Q447.6413,11.4 447.96,11.7 Z " fill="#000000"/><text fill="#000000" font-family="sans-serif" font-size="7.2" lengthAdjust="spacing" textLength="16.2" x="457.44" y="16.7461">User</text><line style="stroke:#A80036;stroke-width:0.8999999999999999;" x1="428.1" x2="485.1" y1="23.4" y2="23.4"/><text fill="#000000" font-family="sans-serif" font-size="6.6" lengthAdjust="spacing" textLength="35.4" x="431.1" y="32.6514">-String email</text><text fill="#000000" font-family="sans-serif" font-size="6.6" lengthAdjust="spacing" textLength="19.8" x="431.1" y="40.9529">-int NIF</text><text fill="#000000" font-family="sans-serif" font-size="6.6" lengthAdjust="spacing" textLength="36.6" x="431.1" y="49.2545">-String name</text><text fill="#000000" font-family="sans-serif" font-size="6.6" lengthAdjust="spacing" textLength="51" x="431.1" y="57.5561">-String password</text><!--MD5=[207480c68836bdc00a20c8f267df5562]
class VehicleState--><rect codeLine="103" fill="#FEFECE" filter="url(#f67dkqstv0nn5)" height="40.6031" id="VehicleState" style="stroke:#A80036;stroke-width:0.8999999999999999;" width="61.2" x="280.5" y="197.7"/><ellipse cx="290.04" cy="207.3" fill="#ADD1B2" rx="6.6" ry="6.6" style="stroke:#A80036;stroke-width:0.6;"/><path d="M291.24,205.2 Q291.3619,204.9 291.5025,204.75 Q291.6431,204.6 291.8025,204.6 Q292.0837,204.6 292.2619,204.7687 Q292.44,204.9375 292.44,205.3312 L292.44,206.2687 Q292.44,206.6625 292.2712,206.8312 Q292.1025,207 291.84,207 Q291.6056,207 291.4556,206.8969 Q291.3056,206.7938 291.24,206.5219 Q291.2119,206.3344 291.1088,206.2313 Q290.9213,206.0344 290.5837,205.9219 Q290.2463,205.8 289.9088,205.8 Q289.4869,205.8 289.1306,205.9688 Q288.7838,206.1375 288.5119,206.5125 Q288.24,206.8875 288.24,207.4031 L288.24,207.9562 Q288.24,208.575 288.7463,208.9875 Q289.2525,209.4 290.1525,209.4 Q290.6869,209.4 291.0619,209.2781 Q291.2775,209.2125 291.5212,208.9969 Q291.6806,208.875 291.765,208.8375 Q291.8494,208.8 291.9525,208.8 Q292.1494,208.8 292.29,208.9594 Q292.44,209.1094 292.44,209.325 Q292.44,209.5313 292.2338,209.775 Q291.9338,210.1313 291.4556,210.3281 Q290.8275,210.6 290.0588,210.6 Q289.1588,210.6 288.4369,210.2438 Q287.8556,209.9625 287.4431,209.3531 Q287.04,208.7438 287.04,208.0219 L287.04,207.3656 Q287.04,206.6156 287.3962,205.9594 Q287.7619,205.3031 288.39,204.9562 Q289.0275,204.6 289.74,204.6 Q290.1713,204.6 290.5463,204.75 Q290.9213,204.9 291.24,205.2 Z " fill="#000000"/><text fill="#000000" font-family="sans-serif" font-size="7.2" lengthAdjust="spacing" textLength="40.8" x="298.56" y="210.2461">VehicleState</text><line style="stroke:#A80036;stroke-width:0.8999999999999999;" x1="281.1" x2="341.1" y1="216.9" y2="216.9"/><text fill="#000000" font-family="sans-serif" font-size="6.6" lengthAdjust="spacing" textLength="15.6" x="284.1" y="226.1514">-int id</text><text fill="#000000" font-family="sans-serif" font-size="6.6" lengthAdjust="spacing" textLength="54" x="284.1" y="234.4529">-String designation</text><!--MD5=[9718277f9258144d2bf42020b41990a4]
link Address to MapPoint--><path codeLine="115" d="M742.944,92.7 C759.978,92.7 780.654,92.7 797.358,92.7 " fill="none" id="Address-MapPoint" style="stroke:#A80036;stroke-width:0.6;"/><text fill="#000000" font-family="sans-serif" font-size="7.8" lengthAdjust="spacing" textLength="17.4" x="761.4" y="90.5971">has&gt;</text><text fill="#000000" font-family="sans-serif" font-size="7.8" lengthAdjust="spacing" textLength="4.2" x="747.4981" y="101.4124">1</text><text fill="#000000" font-family="sans-serif" font-size="7.8" lengthAdjust="spacing" textLength="4.2" x="788.4693" y="101.5007">1</text><!--MD5=[30fc60c7d6db23489d43a78ff2406909]
link MapPoint to Path--><path codeLine="117" d="M859.932,92.7 C877.242,92.7 899.004,92.7 917.382,92.7 " fill="none" id="MapPoint-Path" style="stroke:#A80036;stroke-width:0.6;"/><text fill="#000000" font-family="sans-serif" font-size="7.8" lengthAdjust="spacing" textLength="20.4" x="878.4" y="90.5971">have&gt;</text><text fill="#000000" font-family="sans-serif" font-size="7.8" lengthAdjust="spacing" textLength="4.2" x="864.6334" y="101.5007">2</text><text fill="#000000" font-family="sans-serif" font-size="7.8" lengthAdjust="spacing" textLength="3" x="909.4804" y="101.3824">*</text><!--MD5=[f0a77bc3963d8f5241d504538db6a850]
link ChargingStation to ParkPlace--><path codeLine="121" d="M347.49,372.582 C364.842,366.066 385.89,357.804 404.4,349.5 C411.192,346.452 418.374,342.96 425.142,339.534 " fill="none" id="ChargingStation-ParkPlace" style="stroke:#A80036;stroke-width:0.6;"/><polygon fill="#000000" points="379.8604,343.0307,374.1763,343.5334,375.5573,346.7784,379.8604,343.0307" style="stroke:#000000;stroke-width:0.6;"/><text fill="#000000" font-family="sans-serif" font-size="7.8" lengthAdjust="spacing" textLength="12.6" x="382.5" y="347.3971">is a</text><text fill="#000000" font-family="sans-serif" font-size="7.8" lengthAdjust="spacing" textLength="4.2" x="352.181" y="379.7145">1</text><text fill="#000000" font-family="sans-serif" font-size="7.8" lengthAdjust="spacing" textLength="4.2" x="416.4326" y="350.5118">1</text><!--MD5=[9a8dc34b38f85b9f3fcdb440f4bffc6a]
link Client to User--><path codeLine="123" d="M336.672,82.812 C361.92,72.21 400.896,55.842 427.374,44.724 " fill="none" id="Client-User" style="stroke:#A80036;stroke-width:0.6;"/><polygon fill="#000000" points="371.466,49.6439,365.7795,50.1193,367.145,53.371,371.466,49.6439" style="stroke:#000000;stroke-width:0.6;"/><text fill="#000000" font-family="sans-serif" font-size="7.8" lengthAdjust="spacing" textLength="29.4" x="374.1" y="53.9971">acts like</text><text fill="#000000" font-family="sans-serif" font-size="7.8" lengthAdjust="spacing" textLength="4.2" x="341.4281" y="89.958">1</text><text fill="#000000" font-family="sans-serif" font-size="7.8" lengthAdjust="spacing" textLength="4.2" x="418.573" y="55.2924">1</text><!--MD5=[bd708f2371c655af07b49ddbdb30848a]
link Client to Address--><path codeLine="124" d="M336.696,93.264 C405.624,93.156 598.398,92.868 675.96,92.748 " fill="none" id="Client-Address" style="stroke:#A80036;stroke-width:0.6;"/><polygon fill="#000000" points="521.4,88.0009,515.9703,86.2458,515.9756,89.7725,521.4,88.0009" style="stroke:#000000;stroke-width:0.6;"/><text fill="#000000" font-family="sans-serif" font-size="7.8" lengthAdjust="spacing" textLength="12.6" x="523.8" y="91.1971">has</text><text fill="#000000" font-family="sans-serif" font-size="7.8" lengthAdjust="spacing" textLength="4.2" x="341.4563" y="102.2065">1</text><text fill="#000000" font-family="sans-serif" font-size="7.8" lengthAdjust="spacing" textLength="4.2" x="667.1936" y="101.4665">1</text><!--MD5=[708fc3f4650a2ae1237917fe048fe522]
link Client to Delivery--><path codeLine="125" d="M336.75,105.834 C345.75,110.28 355.998,115.272 365.4,119.7 C384.126,128.52 405.204,138.036 422.316,145.656 " fill="none" id="Client-Delivery" style="stroke:#A80036;stroke-width:0.6;"/><polygon fill="#000000" points="371.1199,115.6713,366.9436,111.7827,365.4555,114.9801,371.1199,115.6713" style="stroke:#000000;stroke-width:0.6;"/><text fill="#000000" font-family="sans-serif" font-size="7.8" lengthAdjust="spacing" textLength="30" x="373.8" y="117.5971">requests</text><text fill="#000000" font-family="sans-serif" font-size="7.8" lengthAdjust="spacing" textLength="4.2" x="341.3461" y="116.8276">1</text><text fill="#000000" font-family="sans-serif" font-size="7.8" lengthAdjust="spacing" textLength="3" x="414.5075" y="152.4103">*</text><!--MD5=[80882edf1ba1a5a23075835c2ff1cb78]
link Park to ChargingStation--><path codeLine="128" d="M199.95,340.758 C206.04,343.776 212.376,346.806 218.4,349.5 C236.736,357.696 257.55,365.922 274.746,372.438 " fill="none" id="Park-ChargingStation" style="stroke:#A80036;stroke-width:0.6;"/><polygon fill="#000000" points="232.5624,345.3755,228.2529,341.6352,226.8774,344.8826,232.5624,345.3755" style="stroke:#000000;stroke-width:0.6;"/><text fill="#000000" font-family="sans-serif" font-size="7.8" lengthAdjust="spacing" textLength="12.6" x="235.2" y="347.3971">has</text><text fill="#000000" font-family="sans-serif" font-size="7.8" lengthAdjust="spacing" textLength="4.2" x="204.6202" y="351.7586">1</text><text fill="#000000" font-family="sans-serif" font-size="7.8" lengthAdjust="spacing" textLength="12" x="258.1135" y="379.6537">1..*</text><!--MD5=[9afa01edeb13dd686951f07f9b6d7017]
link Park to ParkPlace--><path codeLine="129" d="M200.01,323.1 C256.824,323.1 370.572,323.1 425.256,323.1 " fill="none" id="Park-ParkPlace" style="stroke:#A80036;stroke-width:0.6;"/><polygon fill="#000000" points="306.3,317.8055,300.8729,316.0421,300.8729,319.5688,306.3,317.8055" style="stroke:#000000;stroke-width:0.6;"/><text fill="#000000" font-family="sans-serif" font-size="7.8" lengthAdjust="spacing" textLength="12.6" x="308.7" y="320.9971">has</text><text fill="#000000" font-family="sans-serif" font-size="7.8" lengthAdjust="spacing" textLength="4.2" x="204.6878" y="331.8382">1</text><text fill="#000000" font-family="sans-serif" font-size="7.8" lengthAdjust="spacing" textLength="12" x="408.7047" y="331.8069">1..*</text><!--MD5=[e02562d9d47503622059b9fc1e39a8ec]
link ParkType to Park--><path codeLine="131" d="M65.46,323.1 C85.122,323.1 110.85,323.1 131.226,323.1 " fill="none" id="ParkType-Park" style="stroke:#A80036;stroke-width:0.6;"/><text fill="#000000" font-family="sans-serif" font-size="7.8" lengthAdjust="spacing" textLength="28.2" x="84" y="320.9971">can be&gt;</text><text fill="#000000" font-family="sans-serif" font-size="7.8" lengthAdjust="spacing" textLength="4.2" x="70.2716" y="331.932">1</text><text fill="#000000" font-family="sans-serif" font-size="7.8" lengthAdjust="spacing" textLength="4.2" x="122.3528" y="331.8382">1</text><!--MD5=[13927f1cf5307b773a226a4207989453]
link Vehicle to ParkPlace--><path codeLine="135" d="M200.58,245.892 C257.628,263.136 370.95,297.39 425.4,313.848 " fill="none" id="Vehicle-ParkPlace" style="stroke:#A80036;stroke-width:0.6;"/><polygon fill="#000000" points="298.3717,264.6735,293.687,261.4153,292.6666,264.7912,298.3717,264.6735" style="stroke:#000000;stroke-width:0.6;"/><text fill="#000000" font-family="sans-serif" font-size="7.8" lengthAdjust="spacing" textLength="28.2" x="300.9" y="266.9971">parks at</text><text fill="#000000" font-family="sans-serif" font-size="7.8" lengthAdjust="spacing" textLength="4.2" x="205.0991" y="255.8409">1</text><text fill="#000000" font-family="sans-serif" font-size="7.8" lengthAdjust="spacing" textLength="4.2" x="416.3091" y="310.3111">1</text><!--MD5=[06efc869691796c492c284b2034979fd]
link Vehicle to VehicleState--><path codeLine="136" d="M200.58,231.354 C224.838,228.432 257.028,224.55 280.302,221.742 " fill="none" id="Vehicle-VehicleState" style="stroke:#A80036;stroke-width:0.6;"/><polygon fill="#000000" points="232.7784,219.0464,227.1793,217.9453,227.6015,221.4467,232.7784,219.0464" style="stroke:#000000;stroke-width:0.6;"/><text fill="#000000" font-family="sans-serif" font-size="7.8" lengthAdjust="spacing" textLength="12.6" x="235.2" y="222.5971">has</text><text fill="#000000" font-family="sans-serif" font-size="7.8" lengthAdjust="spacing" textLength="4.2" x="205.0991" y="239.5311">1</text><text fill="#000000" font-family="sans-serif" font-size="7.8" lengthAdjust="spacing" textLength="4.2" x="271.4757" y="231.0549">1</text><!--MD5=[5d462235496920812faf21348f4080ac]
link Delivery to Order--><path codeLine="139" d="M490.926,160.806 C512.748,161.004 540.816,161.256 561.42,161.448 " fill="none" id="Delivery-Order" style="stroke:#A80036;stroke-width:0.6;"/><polygon fill="#000000" points="514.7999,155.2328,509.3891,153.4201,509.357,156.9466,514.7999,155.2328" style="stroke:#000000;stroke-width:0.6;"/><text fill="#000000" font-family="sans-serif" font-size="7.8" lengthAdjust="spacing" textLength="25.8" x="517.2" y="158.3971">delivers</text><text fill="#000000" font-family="sans-serif" font-size="7.8" lengthAdjust="spacing" textLength="4.2" x="495.5931" y="169.5639">1</text><text fill="#000000" font-family="sans-serif" font-size="7.8" lengthAdjust="spacing" textLength="12" x="544.7599" y="170.1565">1..*</text><!--MD5=[0ae4e3be80761dbc176b3d01b8ab98e4]
link Pharmacy to Park--><path codeLine="141" d="M65.46,272.868 C85.122,282.792 110.85,295.776 131.226,306.054 " fill="none" id="Pharmacy-Park" style="stroke:#A80036;stroke-width:0.6;"/><polygon fill="#000000" points="92.9783,278.357,88.9276,274.3378,87.3388,277.4864,92.9783,278.357" style="stroke:#000000;stroke-width:0.6;"/><text fill="#000000" font-family="sans-serif" font-size="7.8" lengthAdjust="spacing" textLength="12.6" x="95.7" y="280.1971">has</text><text fill="#000000" font-family="sans-serif" font-size="7.8" lengthAdjust="spacing" textLength="4.2" x="70.2716" y="283.9278">1</text><text fill="#000000" font-family="sans-serif" font-size="7.8" lengthAdjust="spacing" textLength="12" x="114.5578" y="312.7587">1..*</text><!--MD5=[54d578fb0508ace1f5af24263b5e5dc0]
link Pharmacy to Vehicle--><path codeLine="142" d="M65.46,252.552 C84.978,249.21 110.46,244.842 130.758,241.368 " fill="none" id="Pharmacy-Vehicle" style="stroke:#A80036;stroke-width:0.6;"/><polygon fill="#000000" points="93.2569,238.699,87.6101,237.8772,88.2055,241.3532,93.2569,238.699" style="stroke:#000000;stroke-width:0.6;"/><text fill="#000000" font-family="sans-serif" font-size="7.8" lengthAdjust="spacing" textLength="12.6" x="95.7" y="242.3971">has</text><text fill="#000000" font-family="sans-serif" font-size="7.8" lengthAdjust="spacing" textLength="4.2" x="70.2716" y="260.6279">1</text><text fill="#000000" font-family="sans-serif" font-size="7.8" lengthAdjust="spacing" textLength="12" x="114.0356" y="250.6988">1..*</text><!--MD5=[ab4946417b991c9aec273b5527d3eb58]
link Order to OrderState--><path codeLine="146" d="M618.714,161.982 C636.804,162.168 660.33,162.408 678.816,162.594 " fill="none" id="Order-OrderState" style="stroke:#A80036;stroke-width:0.6;"/><polygon fill="#000000" points="642.5998,156.436,637.191,154.6175,637.1551,158.144,642.5998,156.436" style="stroke:#000000;stroke-width:0.6;"/><text fill="#000000" font-family="sans-serif" font-size="7.8" lengthAdjust="spacing" textLength="12.6" x="645" y="159.5971">has</text><text fill="#000000" font-family="sans-serif" font-size="7.8" lengthAdjust="spacing" textLength="4.2" x="623.4171" y="170.8576">1</text><text fill="#000000" font-family="sans-serif" font-size="7.8" lengthAdjust="spacing" textLength="4.2" x="669.8009" y="171.3811">1</text><!--MD5=[7fa656d13838733e7b6e9c650048e773]
link Vehicle to Drone--><path codeLine="149" d="M200.58,217.632 C228.924,202.902 268.098,182.538 291.216,170.526 " fill="none" id="Vehicle-Drone" style="stroke:#A80036;stroke-width:0.6;"/><polygon fill="#000000" points="224.0619,182.022,218.4332,182.9601,220.0596,186.0894,224.0619,182.022" style="stroke:#000000;stroke-width:0.6;"/><text fill="#000000" font-family="sans-serif" font-size="7.8" lengthAdjust="spacing" textLength="29.4" x="226.8" y="186.5971">could be</text><text fill="#000000" font-family="sans-serif" font-size="7.8" lengthAdjust="spacing" textLength="4.2" x="205.0991" y="224.1367">1</text><text fill="#000000" font-family="sans-serif" font-size="7.8" lengthAdjust="spacing" textLength="4.2" x="282.207" y="181.9001">1</text><!--MD5=[e74c3773f7220de387ccc54998cd9fb1]
link Drone to Delivery--><path codeLine="151" d="M331.158,160.5 C354.468,160.5 393.912,160.5 422.232,160.5 " fill="none" id="Drone-Delivery" style="stroke:#A80036;stroke-width:0.6;"/><polygon fill="#000000" points="374.7,155.2055,369.2729,153.4421,369.2729,156.9688,374.7,155.2055" style="stroke:#000000;stroke-width:0.6;"/><text fill="#000000" font-family="sans-serif" font-size="7.8" lengthAdjust="spacing" textLength="23.4" x="377.1" y="158.3971">makes</text><text fill="#000000" font-family="sans-serif" font-size="7.8" lengthAdjust="spacing" textLength="4.2" x="335.7281" y="169.619">1</text><text fill="#000000" font-family="sans-serif" font-size="7.8" lengthAdjust="spacing" textLength="3" x="414.6364" y="169.2187">*</text><!--MD5=[6666b01c0565f68e40efe78a24a1f563]
@startuml
skinparam classAttributeIconSize 0
hide methods
left to right direction





class Client {
    -Integer credits
}

class Address {
    -String coordinates
    -String street
    -String postalCode
    -Integer doorNumber

}

class MapPoint{
    -String coordinates
    -float altitude
}

class Path{
    -Integer id
    -String point1
    -String point2
    -Integer connectionType
}

class Pharmacy {
    -Integer id
    -String designation
}

class Vehicle{
    -Integer id
    -float batteryCapacity
    -float battery
    -double maxPayload
}

class Drone{
    -Integer id
}

class Park {
    -Integer id
    -Integer maxCapacity
}

class ParkPlace {
    -Integer id
    -Integer isAvailable
}

class ParkType{
    -Integer id
    -String designation
}

class ChargingStation {
    -Integer id
    -float voltage
}




class Delivery {
    -Integer id
    -Integer nif
    -float distanceMeters
    -float timeMinutes
    -float energyCostWH
}

class Order {
    -Integer id
    -Date orderDate
    -Date deliverDate
    -Integer NIF
}

class OrderState {
    -Integer id
    -String designation
}




class User{
-String email
-int NIF
-String name
-String password
}


class VehicleState{
-int id
-String designation
}


/'- - - - - - - - - - - - - - - - - - - - - - - - - - - - - - - - - - - - - - - - - - - - - - - - - - - - - - - - - - - - - - - - - - - - - - - - - - - - - - - - - - - - '/





Address "1" - - "1" MapPoint: has>

MapPoint "2" - - "*" Path: have>



ChargingStation "1" - - "1" ParkPlace : is a >

Client "1" - - "1" User: acts like >
Client "1" - - - - "1" Address: has >
Client "1" - - "*" Delivery: requests >


Park "1" - - "1..*" ChargingStation: has >
Park "1" - - "1..*" ParkPlace: has >

ParkType "1" - - "1" Park: can be>



Vehicle "1" - - "1" ParkPlace: parks at >
Vehicle "1" - - "1" VehicleState: has >


Delivery "1" - - "1..*" Order: delivers >

Pharmacy "1" - - "1..*" Park: has >
Pharmacy "1" - - "1..*" Vehicle: has >



Order "1" - - "1" OrderState: has >


Vehicle "1" - - "1" Drone: could be >

Drone "1" - - "*" Delivery: makes >

@enduml

@startuml
skinparam classAttributeIconSize 0
hide methods
left to right direction





class Client {
    -Integer credits
}

class Address {
    -String coordinates
    -String street
    -String postalCode
    -Integer doorNumber

}

class MapPoint{
    -String coordinates
    -float altitude
}

class Path{
    -Integer id
    -String point1
    -String point2
    -Integer connectionType
}

class Pharmacy {
    -Integer id
    -String designation
}

class Vehicle{
    -Integer id
    -float batteryCapacity
    -float battery
    -double maxPayload
}

class Drone{
    -Integer id
}

class Park {
    -Integer id
    -Integer maxCapacity
}

class ParkPlace {
    -Integer id
    -Integer isAvailable
}

class ParkType{
    -Integer id
    -String designation
}

class ChargingStation {
    -Integer id
    -float voltage
}




class Delivery {
    -Integer id
    -Integer nif
    -float distanceMeters
    -float timeMinutes
    -float energyCostWH
}

class Order {
    -Integer id
    -Date orderDate
    -Date deliverDate
    -Integer NIF
}

class OrderState {
    -Integer id
    -String designation
}




class User{
-String email
-int NIF
-String name
-String password
}


class VehicleState{
-int id
-String designation
}







Address "1" - - "1" MapPoint: has>

MapPoint "2" - - "*" Path: have>



ChargingStation "1" - - "1" ParkPlace : is a >

Client "1" - - "1" User: acts like >
Client "1" - - - - "1" Address: has >
Client "1" - - "*" Delivery: requests >


Park "1" - - "1..*" ChargingStation: has >
Park "1" - - "1..*" ParkPlace: has >

ParkType "1" - - "1" Park: can be>



Vehicle "1" - - "1" ParkPlace: parks at >
Vehicle "1" - - "1" VehicleState: has >


Delivery "1" - - "1..*" Order: delivers >

Pharmacy "1" - - "1..*" Park: has >
Pharmacy "1" - - "1..*" Vehicle: has >



Order "1" - - "1" OrderState: has >


Vehicle "1" - - "1" Drone: could be >

Drone "1" - - "*" Delivery: makes >

@enduml

PlantUML version 1.2021.00(Sun Jan 10 10:25:05 GMT 2021)
(GPL source distribution)
Java Runtime: OpenJDK Runtime Environment
JVM: OpenJDK 64-Bit Server VM
Default Encoding: Cp1252
Language: pt
Country: PT
--></g></svg>