<?xml version="1.0" encoding="UTF-8" standalone="no"?><svg xmlns="http://www.w3.org/2000/svg" xmlns:xlink="http://www.w3.org/1999/xlink" contentScriptType="application/ecmascript" contentStyleType="text/css" height="326px" preserveAspectRatio="none" style="width:447px;height:326px;" version="1.1" viewBox="0 0 447 326" width="447px" zoomAndPan="magnify"><defs><filter height="300%" id="f1xuznx5le0ca5" width="300%" x="-1" y="-1"><feGaussianBlur result="blurOut" stdDeviation="2.0"/><feColorMatrix in="blurOut" result="blurOut2" type="matrix" values="0 0 0 0 0 0 0 0 0 0 0 0 0 0 0 0 0 0 .4 0"/><feOffset dx="4.0" dy="4.0" in="blurOut2" result="blurOut3"/><feBlend in="SourceGraphic" in2="blurOut3" mode="normal"/></filter></defs><g><!--MD5=[0fa71c0a5d5d6e6a6dbedaf012de652d]
class StatsUI--><rect codeLine="3" fill="#FEFECE" filter="url(#f1xuznx5le0ca5)" height="48" id="StatsUI" style="stroke:#A80036;stroke-width:1.5;" width="72" x="193" y="7"/><ellipse cx="208" cy="23" fill="#ADD1B2" rx="11" ry="11" style="stroke:#A80036;stroke-width:1.0;"/><path d="M210,19.5 Q210.2031,19 210.4375,18.75 Q210.6719,18.5 210.9375,18.5 Q211.4063,18.5 211.7031,18.7813 Q212,19.0625 212,19.7188 L212,21.2813 Q212,21.9375 211.7188,22.2188 Q211.4375,22.5 211,22.5 Q210.6094,22.5 210.3594,22.3281 Q210.1094,22.1563 210,21.7031 Q209.9531,21.3906 209.7813,21.2188 Q209.4688,20.8906 208.9063,20.7031 Q208.3438,20.5 207.7813,20.5 Q207.0781,20.5 206.4844,20.7813 Q205.9063,21.0625 205.4531,21.6875 Q205,22.3125 205,23.1719 L205,24.0938 Q205,25.125 205.8438,25.8125 Q206.6875,26.5 208.1875,26.5 Q209.0781,26.5 209.7031,26.2969 Q210.0625,26.1875 210.4688,25.8281 Q210.7344,25.625 210.875,25.5625 Q211.0156,25.5 211.1875,25.5 Q211.5156,25.5 211.75,25.7656 Q212,26.0156 212,26.375 Q212,26.7188 211.6563,27.125 Q211.1563,27.7188 210.3594,28.0469 Q209.3125,28.5 208.0313,28.5 Q206.5313,28.5 205.3281,27.9063 Q204.3594,27.4375 203.6719,26.4219 Q203,25.4063 203,24.2031 L203,23.1094 Q203,21.8594 203.5938,20.7656 Q204.2031,19.6719 205.25,19.0938 Q206.3125,18.5 207.5,18.5 Q208.2188,18.5 208.8438,18.75 Q209.4688,19 210,19.5 Z " fill="#000000"/><text fill="#000000" font-family="sans-serif" font-size="12" lengthAdjust="spacing" textLength="40" x="222" y="27.9102">StatsUI</text><line style="stroke:#A80036;stroke-width:1.5;" x1="194" x2="264" y1="39" y2="39"/><line style="stroke:#A80036;stroke-width:1.5;" x1="194" x2="264" y1="47" y2="47"/><!--MD5=[b6bebd04bb72b22cfab58728e6e048f8]
class StatsController--><rect codeLine="7" fill="#FEFECE" filter="url(#f1xuznx5le0ca5)" height="61.8359" id="StatsController" style="stroke:#A80036;stroke-width:1.5;" width="114" x="172" y="115"/><ellipse cx="187" cy="131" fill="#ADD1B2" rx="11" ry="11" style="stroke:#A80036;stroke-width:1.0;"/><path d="M189,127.5 Q189.2031,127 189.4375,126.75 Q189.6719,126.5 189.9375,126.5 Q190.4063,126.5 190.7031,126.7813 Q191,127.0625 191,127.7188 L191,129.2813 Q191,129.9375 190.7188,130.2188 Q190.4375,130.5 190,130.5 Q189.6094,130.5 189.3594,130.3281 Q189.1094,130.1563 189,129.7031 Q188.9531,129.3906 188.7813,129.2188 Q188.4688,128.8906 187.9063,128.7031 Q187.3438,128.5 186.7813,128.5 Q186.0781,128.5 185.4844,128.7813 Q184.9063,129.0625 184.4531,129.6875 Q184,130.3125 184,131.1719 L184,132.0938 Q184,133.125 184.8438,133.8125 Q185.6875,134.5 187.1875,134.5 Q188.0781,134.5 188.7031,134.2969 Q189.0625,134.1875 189.4688,133.8281 Q189.7344,133.625 189.875,133.5625 Q190.0156,133.5 190.1875,133.5 Q190.5156,133.5 190.75,133.7656 Q191,134.0156 191,134.375 Q191,134.7188 190.6563,135.125 Q190.1563,135.7188 189.3594,136.0469 Q188.3125,136.5 187.0313,136.5 Q185.5313,136.5 184.3281,135.9063 Q183.3594,135.4375 182.6719,134.4219 Q182,133.4063 182,132.2031 L182,131.1094 Q182,129.8594 182.5938,128.7656 Q183.2031,127.6719 184.25,127.0938 Q185.3125,126.5 186.5,126.5 Q187.2188,126.5 187.8438,126.75 Q188.4688,127 189,127.5 Z " fill="#000000"/><text fill="#000000" font-family="sans-serif" font-size="12" lengthAdjust="spacing" textLength="82" x="201" y="135.9102">StatsController</text><line style="stroke:#A80036;stroke-width:1.5;" x1="173" x2="285" y1="147" y2="147"/><line style="stroke:#A80036;stroke-width:1.5;" x1="173" x2="285" y1="155" y2="155"/><ellipse cx="183" cy="166" fill="#84BE84" rx="3" ry="3" style="stroke:#038048;stroke-width:1.0;"/><text fill="#000000" font-family="sans-serif" font-size="11" lengthAdjust="spacing" textLength="61" x="192" y="170.4189">showStats()</text><!--MD5=[40d2668bbcd459976779c45dfe17221f]
class Statistics--><rect codeLine="12" fill="#FEFECE" filter="url(#f1xuznx5le0ca5)" height="75.6719" id="Statistics" style="stroke:#A80036;stroke-width:1.5;" width="214" x="7" y="237"/><ellipse cx="84.75" cy="253" fill="#ADD1B2" rx="11" ry="11" style="stroke:#A80036;stroke-width:1.0;"/><path d="M86.75,249.5 Q86.9531,249 87.1875,248.75 Q87.4219,248.5 87.6875,248.5 Q88.1563,248.5 88.4531,248.7813 Q88.75,249.0625 88.75,249.7188 L88.75,251.2813 Q88.75,251.9375 88.4688,252.2188 Q88.1875,252.5 87.75,252.5 Q87.3594,252.5 87.1094,252.3281 Q86.8594,252.1563 86.75,251.7031 Q86.7031,251.3906 86.5313,251.2188 Q86.2188,250.8906 85.6563,250.7031 Q85.0938,250.5 84.5313,250.5 Q83.8281,250.5 83.2344,250.7813 Q82.6563,251.0625 82.2031,251.6875 Q81.75,252.3125 81.75,253.1719 L81.75,254.0938 Q81.75,255.125 82.5938,255.8125 Q83.4375,256.5 84.9375,256.5 Q85.8281,256.5 86.4531,256.2969 Q86.8125,256.1875 87.2188,255.8281 Q87.4844,255.625 87.625,255.5625 Q87.7656,255.5 87.9375,255.5 Q88.2656,255.5 88.5,255.7656 Q88.75,256.0156 88.75,256.375 Q88.75,256.7188 88.4063,257.125 Q87.9063,257.7188 87.1094,258.0469 Q86.0625,258.5 84.7813,258.5 Q83.2813,258.5 82.0781,257.9063 Q81.1094,257.4375 80.4219,256.4219 Q79.75,255.4063 79.75,254.2031 L79.75,253.1094 Q79.75,251.8594 80.3438,250.7656 Q80.9531,249.6719 82,249.0938 Q83.0625,248.5 84.25,248.5 Q84.9688,248.5 85.5938,248.75 Q86.2188,249 86.75,249.5 Z " fill="#000000"/><text fill="#000000" font-family="sans-serif" font-size="12" lengthAdjust="spacing" textLength="50" x="105.25" y="257.9102">Statistics</text><line style="stroke:#A80036;stroke-width:1.5;" x1="8" x2="220" y1="269" y2="269"/><line style="stroke:#A80036;stroke-width:1.5;" x1="8" x2="220" y1="277" y2="277"/><ellipse cx="18" cy="288" fill="#84BE84" rx="3" ry="3" style="stroke:#038048;stroke-width:1.0;"/><text fill="#000000" font-family="sans-serif" font-size="11" lengthAdjust="spacing" textLength="151" x="27" y="292.4189">List&lt;Delivery&gt; getAllDeliverys()</text><ellipse cx="18" cy="301.8359" fill="#84BE84" rx="3" ry="3" style="stroke:#038048;stroke-width:1.0;"/><text fill="#000000" font-family="sans-serif" font-size="11" lengthAdjust="spacing" textLength="188" x="27" y="306.2549">printStatistics(List&lt;Delivery&gt; deliverys)</text><!--MD5=[84bf006e7569a745edb35eec93ef8ae7]
class StatisticsDB--><rect codeLine="18" fill="#FEFECE" filter="url(#f1xuznx5le0ca5)" height="61.8359" id="StatisticsDB" style="stroke:#A80036;stroke-width:1.5;" width="177" x="256.5" y="244"/><ellipse cx="307.25" cy="260" fill="#ADD1B2" rx="11" ry="11" style="stroke:#A80036;stroke-width:1.0;"/><path d="M309.25,256.5 Q309.4531,256 309.6875,255.75 Q309.9219,255.5 310.1875,255.5 Q310.6563,255.5 310.9531,255.7813 Q311.25,256.0625 311.25,256.7188 L311.25,258.2813 Q311.25,258.9375 310.9688,259.2188 Q310.6875,259.5 310.25,259.5 Q309.8594,259.5 309.6094,259.3281 Q309.3594,259.1563 309.25,258.7031 Q309.2031,258.3906 309.0313,258.2188 Q308.7188,257.8906 308.1563,257.7031 Q307.5938,257.5 307.0313,257.5 Q306.3281,257.5 305.7344,257.7813 Q305.1563,258.0625 304.7031,258.6875 Q304.25,259.3125 304.25,260.1719 L304.25,261.0938 Q304.25,262.125 305.0938,262.8125 Q305.9375,263.5 307.4375,263.5 Q308.3281,263.5 308.9531,263.2969 Q309.3125,263.1875 309.7188,262.8281 Q309.9844,262.625 310.125,262.5625 Q310.2656,262.5 310.4375,262.5 Q310.7656,262.5 311,262.7656 Q311.25,263.0156 311.25,263.375 Q311.25,263.7188 310.9063,264.125 Q310.4063,264.7188 309.6094,265.0469 Q308.5625,265.5 307.2813,265.5 Q305.7813,265.5 304.5781,264.9063 Q303.6094,264.4375 302.9219,263.4219 Q302.25,262.4063 302.25,261.2031 L302.25,260.1094 Q302.25,258.8594 302.8438,257.7656 Q303.4531,256.6719 304.5,256.0938 Q305.5625,255.5 306.75,255.5 Q307.4688,255.5 308.0938,255.75 Q308.7188,256 309.25,256.5 Z " fill="#000000"/><text fill="#000000" font-family="sans-serif" font-size="12" lengthAdjust="spacing" textLength="67" x="327.75" y="264.9102">StatisticsDB</text><line style="stroke:#A80036;stroke-width:1.5;" x1="257.5" x2="432.5" y1="276" y2="276"/><line style="stroke:#A80036;stroke-width:1.5;" x1="257.5" x2="432.5" y1="284" y2="284"/><ellipse cx="267.5" cy="295" fill="#84BE84" rx="3" ry="3" style="stroke:#038048;stroke-width:1.0;"/><text fill="#000000" font-family="sans-serif" font-size="11" lengthAdjust="spacing" textLength="151" x="276.5" y="299.4189">List&lt;Delivery&gt; getAllDeliverys()</text><!--MD5=[17b5b10d35ba060cb866f45d4fbef4a5]
link StatsUI to StatsController--><path codeLine="22" d="M229,55.14 C229,70.71 229,91.53 229,109.22 " fill="none" id="StatsUI-to-StatsController" style="stroke:#A80036;stroke-width:1.0;stroke-dasharray:7.0,7.0;"/><polygon fill="#A80036" points="229,114.6,233,105.6,229,109.6,225,105.6,229,114.6" style="stroke:#A80036;stroke-width:1.0;"/><!--MD5=[1a7e1ae88e43365f81261d0f19888b50]
link StatsController to Statistics--><path codeLine="24" d="M201.75,177.1 C186.68,193.74 167.74,214.65 151.32,232.79 " fill="none" id="StatsController-to-Statistics" style="stroke:#A80036;stroke-width:1.0;stroke-dasharray:7.0,7.0;"/><polygon fill="#A80036" points="147.63,236.86,156.6324,232.8653,150.9827,233.1506,150.6974,227.501,147.63,236.86" style="stroke:#A80036;stroke-width:1.0;"/><!--MD5=[439f0eb4001306fe4d7118f42eb685ef]
link StatsController to StatisticsDB--><path codeLine="25" d="M256.49,177.1 C273.7,195.94 295.92,220.27 313.79,239.83 " fill="none" id="StatsController-to-StatisticsDB" style="stroke:#A80036;stroke-width:1.0;stroke-dasharray:7.0,7.0;"/><polygon fill="#A80036" points="317.3,243.68,314.1949,234.3334,313.9324,239.9842,308.2816,239.7216,317.3,243.68" style="stroke:#A80036;stroke-width:1.0;"/><!--MD5=[b3bf2a8b878927a2cf2c02a4715a6991]
@startuml


class StatsUI {

}

class StatsController {
    +showStats()

}

class Statistics {
    +List<Delivery> getAllDeliverys()
    +printStatistics(List<Delivery> deliverys)

}

class StatisticsDB {
    +List<Delivery> getAllDeliverys()
}

StatsUI ..> StatsController

StatsController ..> Statistics
StatsController ..> StatisticsDB



@enduml

PlantUML version 1.2021.00(Sun Jan 10 10:25:05 GMT 2021)
(GPL source distribution)
Java Runtime: OpenJDK Runtime Environment
JVM: OpenJDK 64-Bit Server VM
Default Encoding: Cp1252
Language: pt
Country: PT
--></g></svg>