<?xml version="1.0" encoding="UTF-8" standalone="no"?><svg xmlns="http://www.w3.org/2000/svg" xmlns:xlink="http://www.w3.org/1999/xlink" contentScriptType="application/ecmascript" contentStyleType="text/css" height="437px" preserveAspectRatio="none" style="width:692px;height:437px;" version="1.1" viewBox="0 0 692 437" width="692px" zoomAndPan="magnify"><defs><filter height="300%" id="ft9cc6wr5pm40" width="300%" x="-1" y="-1"><feGaussianBlur result="blurOut" stdDeviation="2.0"/><feColorMatrix in="blurOut" result="blurOut2" type="matrix" values="0 0 0 0 0 0 0 0 0 0 0 0 0 0 0 0 0 0 .4 0"/><feOffset dx="4.0" dy="4.0" in="blurOut2" result="blurOut3"/><feBlend in="SourceGraphic" in2="blurOut3" mode="normal"/></filter></defs><g><rect fill="#FFFFFF" filter="url(#ft9cc6wr5pm40)" height="234.1094" style="stroke:#A80036;stroke-width:1.0;" width="10" x="22.5" y="99.6094"/><rect fill="#FFFFFF" filter="url(#ft9cc6wr5pm40)" height="211.7578" style="stroke:#A80036;stroke-width:1.0;" width="10" x="187.5" y="121.9609"/><rect fill="#FFFFFF" filter="url(#ft9cc6wr5pm40)" height="151.0547" style="stroke:#A80036;stroke-width:1.0;" width="10" x="296.5" y="152.3125"/><rect fill="#FFFFFF" filter="url(#ft9cc6wr5pm40)" height="60.3516" style="stroke:#A80036;stroke-width:1.0;" width="10" x="495.5" y="182.6641"/><rect fill="#FFFFFF" filter="url(#ft9cc6wr5pm40)" height="30" style="stroke:#A80036;stroke-width:1.0;" width="10" x="495.5" y="273.3672"/><rect fill="#FFFFFF" filter="url(#ft9cc6wr5pm40)" height="30" style="stroke:#A80036;stroke-width:1.0;" width="10" x="628.5" y="213.0156"/><line style="stroke:#A80036;stroke-width:1.0;stroke-dasharray:5.0,5.0;" x1="27" x2="27" y1="89.6094" y2="351.7188"/><line style="stroke:#A80036;stroke-width:1.0;stroke-dasharray:5.0,5.0;" x1="192.5" x2="192.5" y1="89.6094" y2="351.7188"/><line style="stroke:#A80036;stroke-width:1.0;stroke-dasharray:5.0,5.0;" x1="301.5" x2="301.5" y1="89.6094" y2="351.7188"/><line style="stroke:#A80036;stroke-width:1.0;stroke-dasharray:5.0,5.0;" x1="500.5" x2="500.5" y1="89.6094" y2="351.7188"/><line style="stroke:#A80036;stroke-width:1.0;stroke-dasharray:5.0,5.0;" x1="633" x2="633" y1="89.6094" y2="351.7188"/><text fill="#000000" font-family="sans-serif" font-size="14" lengthAdjust="spacing" textLength="39" x="5" y="86.5332">Admin</text><ellipse cx="27.5" cy="15" fill="#FEFECE" filter="url(#ft9cc6wr5pm40)" rx="8" ry="8" style="stroke:#A80036;stroke-width:2.0;"/><path d="M27.5,23 L27.5,50 M14.5,31 L40.5,31 M27.5,50 L14.5,65 M27.5,50 L40.5,65 " fill="none" filter="url(#ft9cc6wr5pm40)" style="stroke:#A80036;stroke-width:2.0;"/><text fill="#000000" font-family="sans-serif" font-size="14" lengthAdjust="spacing" textLength="39" x="5" y="365.252">Admin</text><ellipse cx="27.5" cy="378.3281" fill="#FEFECE" filter="url(#ft9cc6wr5pm40)" rx="8" ry="8" style="stroke:#A80036;stroke-width:2.0;"/><path d="M27.5,386.3281 L27.5,413.3281 M14.5,394.3281 L40.5,394.3281 M27.5,413.3281 L14.5,428.3281 M27.5,413.3281 L40.5,428.3281 " fill="none" filter="url(#ft9cc6wr5pm40)" style="stroke:#A80036;stroke-width:2.0;"/><rect fill="#FEFECE" filter="url(#ft9cc6wr5pm40)" height="31.6094" style="stroke:#A80036;stroke-width:1.5;" width="62" x="159.5" y="53"/><text fill="#000000" font-family="sans-serif" font-size="14" lengthAdjust="spacing" textLength="48" x="166.5" y="74.5332">:StatsUI</text><rect fill="#FEFECE" filter="url(#ft9cc6wr5pm40)" height="31.6094" style="stroke:#A80036;stroke-width:1.5;" width="62" x="159.5" y="350.7188"/><text fill="#000000" font-family="sans-serif" font-size="14" lengthAdjust="spacing" textLength="48" x="166.5" y="372.252">:StatsUI</text><rect fill="#FEFECE" filter="url(#ft9cc6wr5pm40)" height="31.6094" style="stroke:#A80036;stroke-width:1.5;" width="112" x="243.5" y="53"/><text fill="#000000" font-family="sans-serif" font-size="14" lengthAdjust="spacing" textLength="98" x="250.5" y="74.5332">:StatsController</text><rect fill="#FEFECE" filter="url(#ft9cc6wr5pm40)" height="31.6094" style="stroke:#A80036;stroke-width:1.5;" width="112" x="243.5" y="350.7188"/><text fill="#000000" font-family="sans-serif" font-size="14" lengthAdjust="spacing" textLength="98" x="250.5" y="372.252">:StatsController</text><rect fill="#FEFECE" filter="url(#ft9cc6wr5pm40)" height="31.6094" style="stroke:#A80036;stroke-width:1.5;" width="74" x="461.5" y="53"/><text fill="#000000" font-family="sans-serif" font-size="14" lengthAdjust="spacing" textLength="60" x="468.5" y="74.5332">:Statistics</text><rect fill="#FEFECE" filter="url(#ft9cc6wr5pm40)" height="31.6094" style="stroke:#A80036;stroke-width:1.5;" width="74" x="461.5" y="350.7188"/><text fill="#000000" font-family="sans-serif" font-size="14" lengthAdjust="spacing" textLength="60" x="468.5" y="372.252">:Statistics</text><rect fill="#FEFECE" filter="url(#ft9cc6wr5pm40)" height="31.6094" style="stroke:#A80036;stroke-width:1.5;" width="93" x="585" y="53"/><text fill="#000000" font-family="sans-serif" font-size="14" lengthAdjust="spacing" textLength="79" x="592" y="74.5332">:StatisticsDB</text><rect fill="#FEFECE" filter="url(#ft9cc6wr5pm40)" height="31.6094" style="stroke:#A80036;stroke-width:1.5;" width="93" x="585" y="350.7188"/><text fill="#000000" font-family="sans-serif" font-size="14" lengthAdjust="spacing" textLength="79" x="592" y="372.252">:StatisticsDB</text><rect fill="#FFFFFF" filter="url(#ft9cc6wr5pm40)" height="234.1094" style="stroke:#A80036;stroke-width:1.0;" width="10" x="22.5" y="99.6094"/><rect fill="#FFFFFF" filter="url(#ft9cc6wr5pm40)" height="211.7578" style="stroke:#A80036;stroke-width:1.0;" width="10" x="187.5" y="121.9609"/><rect fill="#FFFFFF" filter="url(#ft9cc6wr5pm40)" height="151.0547" style="stroke:#A80036;stroke-width:1.0;" width="10" x="296.5" y="152.3125"/><rect fill="#FFFFFF" filter="url(#ft9cc6wr5pm40)" height="60.3516" style="stroke:#A80036;stroke-width:1.0;" width="10" x="495.5" y="182.6641"/><rect fill="#FFFFFF" filter="url(#ft9cc6wr5pm40)" height="30" style="stroke:#A80036;stroke-width:1.0;" width="10" x="495.5" y="273.3672"/><rect fill="#FFFFFF" filter="url(#ft9cc6wr5pm40)" height="30" style="stroke:#A80036;stroke-width:1.0;" width="10" x="628.5" y="213.0156"/><polygon fill="#A80036" points="175.5,117.9609,185.5,121.9609,175.5,125.9609,179.5,121.9609" style="stroke:#A80036;stroke-width:1.0;"/><line style="stroke:#A80036;stroke-width:1.0;" x1="32.5" x2="181.5" y1="121.9609" y2="121.9609"/><text fill="#000000" font-family="sans-serif" font-size="13" font-weight="bold" lengthAdjust="spacing" textLength="7" x="39.5" y="117.1045">1</text><text fill="#000000" font-family="sans-serif" font-size="13" lengthAdjust="spacing" textLength="125" x="50.5" y="117.1045">requests for statistics</text><polygon fill="#A80036" points="284.5,148.3125,294.5,152.3125,284.5,156.3125,288.5,152.3125" style="stroke:#A80036;stroke-width:1.0;"/><line style="stroke:#A80036;stroke-width:1.0;" x1="197.5" x2="290.5" y1="152.3125" y2="152.3125"/><text fill="#000000" font-family="sans-serif" font-size="13" font-weight="bold" lengthAdjust="spacing" textLength="7" x="204.5" y="147.4561">2</text><text fill="#000000" font-family="sans-serif" font-size="13" lengthAdjust="spacing" textLength="69" x="215.5" y="147.4561">showStats()</text><polygon fill="#A80036" points="483.5,178.6641,493.5,182.6641,483.5,186.6641,487.5,182.6641" style="stroke:#A80036;stroke-width:1.0;"/><line style="stroke:#A80036;stroke-width:1.0;" x1="306.5" x2="489.5" y1="182.6641" y2="182.6641"/><text fill="#000000" font-family="sans-serif" font-size="13" font-weight="bold" lengthAdjust="spacing" textLength="7" x="313.5" y="177.8076">3</text><text fill="#000000" font-family="sans-serif" font-size="13" lengthAdjust="spacing" textLength="159" x="324.5" y="177.8076">deliverys = getAllDeliverys()</text><polygon fill="#A80036" points="616.5,209.0156,626.5,213.0156,616.5,217.0156,620.5,213.0156" style="stroke:#A80036;stroke-width:1.0;"/><line style="stroke:#A80036;stroke-width:1.0;" x1="505.5" x2="622.5" y1="213.0156" y2="213.0156"/><text fill="#000000" font-family="sans-serif" font-size="13" font-weight="bold" lengthAdjust="spacing" textLength="7" x="512.5" y="208.1592">4</text><text fill="#000000" font-family="sans-serif" font-size="13" lengthAdjust="spacing" textLength="93" x="523.5" y="208.1592">getAllDeliverys()</text><polygon fill="#A80036" points="483.5,269.3672,493.5,273.3672,483.5,277.3672,487.5,273.3672" style="stroke:#A80036;stroke-width:1.0;"/><line style="stroke:#A80036;stroke-width:1.0;" x1="306.5" x2="489.5" y1="273.3672" y2="273.3672"/><text fill="#000000" font-family="sans-serif" font-size="13" font-weight="bold" lengthAdjust="spacing" textLength="7" x="313.5" y="268.5107">5</text><text fill="#000000" font-family="sans-serif" font-size="13" lengthAdjust="spacing" textLength="138" x="324.5" y="268.5107">printStatistics(deliverys)</text><polygon fill="#A80036" points="38.5,329.7188,28.5,333.7188,38.5,337.7188,34.5,333.7188" style="stroke:#A80036;stroke-width:1.0;"/><line style="stroke:#A80036;stroke-width:1.0;stroke-dasharray:2.0,2.0;" x1="32.5" x2="191.5" y1="333.7188" y2="333.7188"/><text fill="#000000" font-family="sans-serif" font-size="13" font-weight="bold" lengthAdjust="spacing" textLength="7" x="44.5" y="328.8623">6</text><text fill="#000000" font-family="sans-serif" font-size="13" lengthAdjust="spacing" textLength="94" x="55.5" y="328.8623">process finished</text><!--MD5=[271674ba6e040b4d039b4075ec47de84]
@startuml
autonumber

actor "Admin" as ADMIN


participant ":StatsUI" as UI
participant ":StatsController" as CTRL
participant ":Statistics" as STATS
participant ":StatisticsDB" as DB

activate ADMIN

ADMIN -> UI: requests for statistics

activate UI

UI -> CTRL: showStats()

activate CTRL

CTRL -> STATS: deliverys = getAllDeliverys()
activate STATS

STATS -> DB: getAllDeliverys()

activate DB
deactivate DB

deactivate STATS

CTRL -> STATS: printStatistics(deliverys)

activate STATS

deactivate STATS

deactivate CTRL

UI - -> ADMIN: process finished

deactivate UI
deactivate ADMIN




@enduml

PlantUML version 1.2021.00(Sun Jan 10 10:25:05 GMT 2021)
(GPL source distribution)
Java Runtime: OpenJDK Runtime Environment
JVM: OpenJDK 64-Bit Server VM
Default Encoding: Cp1252
Language: pt
Country: PT
--></g></svg>