<?xml version="1.0" encoding="UTF-8" standalone="no"?><svg xmlns="http://www.w3.org/2000/svg" xmlns:xlink="http://www.w3.org/1999/xlink" contentScriptType="application/ecmascript" contentStyleType="text/css" height="433.5px" preserveAspectRatio="none" style="width:603px;height:433px;" version="1.1" viewBox="0 0 603 433" width="603.5px" zoomAndPan="magnify"><defs><filter height="300%" id="f30stak76e96o" width="300%" x="-1" y="-1"><feGaussianBlur result="blurOut" stdDeviation="3.4"/><feColorMatrix in="blurOut" result="blurOut2" type="matrix" values="0 0 0 0 0 0 0 0 0 0 0 0 0 0 0 0 0 0 .4 0"/><feOffset dx="6.8" dy="6.8" in="blurOut2" result="blurOut3"/><feBlend in="SourceGraphic" in2="blurOut3" mode="normal"/></filter></defs><g><rect fill="#FFFFFF" filter="url(#f30stak76e96o)" height="104.8953" style="stroke:#A80036;stroke-width:1.7;" width="17" x="38.25" y="169.3359"/><rect fill="#FFFFFF" filter="url(#f30stak76e96o)" height="51.5977" style="stroke:#A80036;stroke-width:1.7;" width="17" x="521.05" y="207.3336"/><line style="stroke:#A80036;stroke-width:1.7;stroke-dasharray:5.0,5.0;" x1="45.9" x2="45.9" y1="152.3359" y2="289.5313"/><line style="stroke:#A80036;stroke-width:1.7;stroke-dasharray:5.0,5.0;" x1="529.55" x2="529.55" y1="152.3359" y2="289.5313"/><text fill="#000000" font-family="sans-serif" font-size="23.8" lengthAdjust="spacing" textLength="66.3" x="8.5" y="147.1064">Admin</text><ellipse cx="46.75" cy="25.5" fill="#FEFECE" filter="url(#f30stak76e96o)" rx="13.6" ry="13.6" style="stroke:#A80036;stroke-width:3.4;"/><path d="M46.75,39.1 L46.75,85 M24.65,52.7 L68.85,52.7 M46.75,85 L24.65,110.5 M46.75,85 L68.85,110.5 " fill="none" filter="url(#f30stak76e96o)" style="stroke:#A80036;stroke-width:3.4;"/><text fill="#000000" font-family="sans-serif" font-size="23.8" lengthAdjust="spacing" textLength="66.3" x="8.5" y="312.5377">Admin</text><ellipse cx="46.75" cy="334.7672" fill="#FEFECE" filter="url(#f30stak76e96o)" rx="13.6" ry="13.6" style="stroke:#A80036;stroke-width:3.4;"/><path d="M46.75,348.3672 L46.75,394.2672 M24.65,361.9672 L68.85,361.9672 M46.75,394.2672 L24.65,419.7672 M46.75,394.2672 L68.85,419.7672 " fill="none" filter="url(#f30stak76e96o)" style="stroke:#A80036;stroke-width:3.4;"/><rect fill="#FEFECE" filter="url(#f30stak76e96o)" height="53.7359" style="stroke:#A80036;stroke-width:2.55;" width="108.8" x="471.75" y="90.1"/><text fill="#000000" font-family="sans-serif" font-size="23.8" lengthAdjust="spacing" textLength="85" x="483.65" y="126.7064">:System</text><rect fill="#FEFECE" filter="url(#f30stak76e96o)" height="53.7359" style="stroke:#A80036;stroke-width:2.55;" width="108.8" x="471.75" y="287.8313"/><text fill="#000000" font-family="sans-serif" font-size="23.8" lengthAdjust="spacing" textLength="85" x="483.65" y="324.4377">:System</text><rect fill="#FFFFFF" filter="url(#f30stak76e96o)" height="104.8953" style="stroke:#A80036;stroke-width:1.7;" width="17" x="38.25" y="169.3359"/><rect fill="#FFFFFF" filter="url(#f30stak76e96o)" height="51.5977" style="stroke:#A80036;stroke-width:1.7;" width="17" x="521.05" y="207.3336"/><polygon fill="#A80036" points="500.65,200.5336,517.65,207.3336,500.65,214.1336,507.45,207.3336" style="stroke:#A80036;stroke-width:1.7;"/><line style="stroke:#A80036;stroke-width:1.7;" x1="55.25" x2="510.85" y1="207.3336" y2="207.3336"/><text fill="#000000" font-family="sans-serif" font-size="22.1" font-weight="bold" lengthAdjust="spacing" textLength="11.9" x="67.15" y="199.0776">1</text><text fill="#000000" font-family="sans-serif" font-size="22.1" lengthAdjust="spacing" textLength="224.4" x="85.85" y="199.0776">starts seeing statistics</text><polygon fill="#A80036" points="73.95,252.1313,56.95,258.9313,73.95,265.7313,67.15,258.9313" style="stroke:#A80036;stroke-width:1.7;"/><line style="stroke:#A80036;stroke-width:1.7;stroke-dasharray:2.0,2.0;" x1="63.75" x2="527.85" y1="258.9313" y2="258.9313"/><text fill="#000000" font-family="sans-serif" font-size="22.1" font-weight="bold" lengthAdjust="spacing" textLength="11.9" x="84.15" y="250.6753">2</text><text fill="#000000" font-family="sans-serif" font-size="22.1" lengthAdjust="spacing" textLength="406.3" x="102.85" y="250.6753">shows statistics and finishes the process</text><!--MD5=[f1a7ef8b39bc4f975264c522cb95fe6a]
@startuml
autonumber
actor "Admin" as CLI

participant ":System" as SY

activate CLI
CLI -> SY: starts seeing statistics

activate SY

SY - -> CLI : shows statistics and finishes the process

deactivate SY


@enduml

PlantUML version 1.2021.00(Sun Jan 10 10:25:05 GMT 2021)
(GPL source distribution)
Java Runtime: OpenJDK Runtime Environment
JVM: OpenJDK 64-Bit Server VM
Default Encoding: Cp1252
Language: pt
Country: PT
--></g></svg>