<?xml version="1.0" encoding="UTF-8" standalone="no"?><svg xmlns="http://www.w3.org/2000/svg" xmlns:xlink="http://www.w3.org/1999/xlink" contentScriptType="application/ecmascript" contentStyleType="text/css" height="623px" preserveAspectRatio="none" style="width:837px;height:623px;" version="1.1" viewBox="0 0 837 623" width="837.9px" zoomAndPan="magnify"><defs><filter height="300%" id="f1dbcog5mq9j07" width="300%" x="-1" y="-1"><feGaussianBlur result="blurOut" stdDeviation="1.4"/><feColorMatrix in="blurOut" result="blurOut2" type="matrix" values="0 0 0 0 0 0 0 0 0 0 0 0 0 0 0 0 0 0 .4 0"/><feOffset dx="2.8" dy="2.8" in="blurOut2" result="blurOut3"/><feBlend in="SourceGraphic" in2="blurOut3" mode="normal"/></filter></defs><g><!--MD5=[3fd616f346a44cd59a91eb10b19e157c]
class User--><rect codeLine="7" fill="#FEFECE" filter="url(#f1dbcog5mq9j07)" height="66.7406" id="User" style="stroke:#A80036;stroke-width:1.0499999999999998;" width="67.9" x="261.45" y="67.55"/><ellipse cx="283.92" cy="78.75" fill="#ADD1B2" rx="7.7" ry="7.7" style="stroke:#A80036;stroke-width:0.7;"/><path d="M285.32,76.3 Q285.4622,75.95 285.6262,75.775 Q285.7903,75.6 285.9763,75.6 Q286.3044,75.6 286.5122,75.7969 Q286.72,75.9937 286.72,76.4531 L286.72,77.5469 Q286.72,78.0063 286.5231,78.2031 Q286.3263,78.4 286.02,78.4 Q285.7466,78.4 285.5716,78.2797 Q285.3966,78.1594 285.32,77.8422 Q285.2872,77.6234 285.1669,77.5031 Q284.9481,77.2734 284.5544,77.1422 Q284.1606,77 283.7669,77 Q283.2747,77 282.8591,77.1969 Q282.4544,77.3938 282.1372,77.8313 Q281.82,78.2688 281.82,78.8703 L281.82,79.5156 Q281.82,80.2375 282.4106,80.7188 Q283.0012,81.2 284.0513,81.2 Q284.6747,81.2 285.1122,81.0578 Q285.3638,80.9812 285.6481,80.7297 Q285.8341,80.5875 285.9325,80.5437 Q286.0309,80.5 286.1513,80.5 Q286.3809,80.5 286.545,80.6859 Q286.72,80.8609 286.72,81.1125 Q286.72,81.3531 286.4794,81.6375 Q286.1294,82.0531 285.5716,82.2828 Q284.8388,82.6 283.9419,82.6 Q282.8919,82.6 282.0497,82.1844 Q281.3716,81.8562 280.8903,81.1453 Q280.42,80.4344 280.42,79.5922 L280.42,78.8266 Q280.42,77.9516 280.8356,77.1859 Q281.2622,76.4203 281.995,76.0156 Q282.7388,75.6 283.57,75.6 Q284.0731,75.6 284.5106,75.775 Q284.9481,75.95 285.32,76.3 Z " fill="#000000"/><text fill="#000000" font-family="sans-serif" font-size="8.4" lengthAdjust="spacing" textLength="18.9" x="296.38" y="82.1871">User</text><line style="stroke:#A80036;stroke-width:1.0499999999999998;" x1="262.15" x2="328.65" y1="89.95" y2="89.95"/><text fill="#000000" font-family="sans-serif" font-size="7.7" lengthAdjust="spacing" textLength="42.7" x="265.65" y="100.7433">-String name</text><text fill="#000000" font-family="sans-serif" font-size="7.7" lengthAdjust="spacing" textLength="41.3" x="265.65" y="110.4284">-String email</text><text fill="#000000" font-family="sans-serif" font-size="7.7" lengthAdjust="spacing" textLength="59.5" x="265.65" y="120.1136">-String password</text><text fill="#000000" font-family="sans-serif" font-size="7.7" lengthAdjust="spacing" textLength="38.5" x="265.65" y="129.7987">-Integer NIF</text><!--MD5=[ed6624c6556d5e7b1bd23032162d20b7]
class Client--><rect codeLine="16" fill="#FEFECE" filter="url(#f1dbcog5mq9j07)" height="37.6852" id="Client" style="stroke:#A80036;stroke-width:1.0499999999999998;" width="59.5" x="112.7" y="116.9"/><ellipse cx="129.815" cy="128.1" fill="#ADD1B2" rx="7.7" ry="7.7" style="stroke:#A80036;stroke-width:0.7;"/><path d="M131.215,125.65 Q131.3572,125.3 131.5212,125.125 Q131.6853,124.95 131.8712,124.95 Q132.1994,124.95 132.4072,125.1469 Q132.615,125.3437 132.615,125.8031 L132.615,126.8969 Q132.615,127.3562 132.4181,127.5531 Q132.2213,127.75 131.915,127.75 Q131.6416,127.75 131.4666,127.6297 Q131.2916,127.5094 131.215,127.1922 Q131.1822,126.9734 131.0619,126.8531 Q130.8431,126.6234 130.4494,126.4922 Q130.0556,126.35 129.6619,126.35 Q129.1697,126.35 128.7541,126.5469 Q128.3494,126.7437 128.0322,127.1812 Q127.715,127.6187 127.715,128.2203 L127.715,128.8656 Q127.715,129.5875 128.3056,130.0688 Q128.8962,130.55 129.9463,130.55 Q130.5697,130.55 131.0072,130.4078 Q131.2588,130.3312 131.5431,130.0797 Q131.7291,129.9375 131.8275,129.8937 Q131.9259,129.85 132.0463,129.85 Q132.2759,129.85 132.44,130.0359 Q132.615,130.2109 132.615,130.4625 Q132.615,130.7031 132.3744,130.9875 Q132.0244,131.4031 131.4666,131.6328 Q130.7338,131.95 129.8369,131.95 Q128.7869,131.95 127.9447,131.5344 Q127.2666,131.2062 126.7853,130.4953 Q126.315,129.7844 126.315,128.9422 L126.315,128.1766 Q126.315,127.3016 126.7306,126.5359 Q127.1572,125.7703 127.89,125.3656 Q128.6338,124.95 129.465,124.95 Q129.9681,124.95 130.4056,125.125 Q130.8431,125.3 131.215,125.65 Z " fill="#000000"/><text fill="#000000" font-family="sans-serif" font-size="8.4" lengthAdjust="spacing" textLength="22.4" x="141.085" y="131.5371">Client</text><line style="stroke:#A80036;stroke-width:1.0499999999999998;" x1="113.4" x2="171.5" y1="139.3" y2="139.3"/><text fill="#000000" font-family="sans-serif" font-size="7.7" lengthAdjust="spacing" textLength="51.1" x="116.9" y="150.0933">-Integer credits</text><!--MD5=[0f39e4cb6f03951afbf6d14bd2505654]
class Address--><rect codeLine="20" fill="#FEFECE" filter="url(#f1dbcog5mq9j07)" height="66.7406" id="Address" style="stroke:#A80036;stroke-width:1.0499999999999998;" width="106.4" x="581.7" y="203.35"/><ellipse cx="615.825" cy="214.55" fill="#ADD1B2" rx="7.7" ry="7.7" style="stroke:#A80036;stroke-width:0.7;"/><path d="M617.225,212.1 Q617.3672,211.75 617.5313,211.575 Q617.6953,211.4 617.8812,211.4 Q618.2094,211.4 618.4172,211.5969 Q618.625,211.7938 618.625,212.2531 L618.625,213.3469 Q618.625,213.8062 618.4281,214.0031 Q618.2312,214.2 617.925,214.2 Q617.6516,214.2 617.4766,214.0797 Q617.3016,213.9594 617.225,213.6422 Q617.1922,213.4234 617.0719,213.3031 Q616.8531,213.0734 616.4594,212.9422 Q616.0656,212.8 615.6719,212.8 Q615.1797,212.8 614.7641,212.9969 Q614.3594,213.1938 614.0422,213.6313 Q613.725,214.0688 613.725,214.6703 L613.725,215.3156 Q613.725,216.0375 614.3156,216.5187 Q614.9063,217 615.9563,217 Q616.5797,217 617.0172,216.8578 Q617.2688,216.7813 617.5531,216.5297 Q617.7391,216.3875 617.8375,216.3438 Q617.9359,216.3 618.0563,216.3 Q618.2859,216.3 618.45,216.4859 Q618.625,216.6609 618.625,216.9125 Q618.625,217.1531 618.3844,217.4375 Q618.0344,217.8531 617.4766,218.0828 Q616.7438,218.4 615.8469,218.4 Q614.7969,218.4 613.9547,217.9844 Q613.2766,217.6563 612.7953,216.9453 Q612.325,216.2344 612.325,215.3922 L612.325,214.6266 Q612.325,213.7516 612.7406,212.9859 Q613.1672,212.2203 613.9,211.8156 Q614.6438,211.4 615.475,211.4 Q615.9781,211.4 616.4156,211.575 Q616.8531,211.75 617.225,212.1 Z " fill="#000000"/><text fill="#000000" font-family="sans-serif" font-size="8.4" lengthAdjust="spacing" textLength="32.2" x="630.175" y="217.9871">Address</text><line style="stroke:#A80036;stroke-width:1.0499999999999998;" x1="582.4" x2="687.4" y1="225.75" y2="225.75"/><text fill="#000000" font-family="sans-serif" font-size="7.7" lengthAdjust="spacing" textLength="44.8" x="585.9" y="236.5433">-String Street</text><text fill="#000000" font-family="sans-serif" font-size="7.7" lengthAdjust="spacing" textLength="62.3" x="585.9" y="246.2284">-String PostalCode</text><text fill="#000000" font-family="sans-serif" font-size="7.7" lengthAdjust="spacing" textLength="98" x="585.9" y="255.9136">-String GeographicalLocation</text><text fill="#000000" font-family="sans-serif" font-size="7.7" lengthAdjust="spacing" textLength="69.3" x="585.9" y="265.5987">-Integer doorNumber</text><!--MD5=[7f2a9fafcebe4f099f71398fd3e2ed00]
class Pharmacy--><rect codeLine="29" fill="#FEFECE" filter="url(#f1dbcog5mq9j07)" height="47.3703" id="Pharmacy" style="stroke:#A80036;stroke-width:1.0499999999999998;" width="71.4" x="259.7" y="338.1"/><ellipse cx="274.925" cy="349.3" fill="#ADD1B2" rx="7.7" ry="7.7" style="stroke:#A80036;stroke-width:0.7;"/><path d="M276.325,346.85 Q276.4672,346.5 276.6312,346.325 Q276.7953,346.15 276.9813,346.15 Q277.3094,346.15 277.5172,346.3469 Q277.725,346.5438 277.725,347.0031 L277.725,348.0969 Q277.725,348.5563 277.5281,348.7531 Q277.3312,348.95 277.025,348.95 Q276.7516,348.95 276.5766,348.8297 Q276.4016,348.7094 276.325,348.3922 Q276.2922,348.1734 276.1719,348.0531 Q275.9531,347.8234 275.5594,347.6922 Q275.1656,347.55 274.7719,347.55 Q274.2797,347.55 273.8641,347.7469 Q273.4594,347.9437 273.1422,348.3812 Q272.825,348.8187 272.825,349.4203 L272.825,350.0656 Q272.825,350.7875 273.4156,351.2687 Q274.0062,351.75 275.0563,351.75 Q275.6797,351.75 276.1172,351.6078 Q276.3688,351.5313 276.6531,351.2797 Q276.8391,351.1375 276.9375,351.0938 Q277.0359,351.05 277.1563,351.05 Q277.3859,351.05 277.55,351.2359 Q277.725,351.4109 277.725,351.6625 Q277.725,351.9031 277.4844,352.1875 Q277.1344,352.6031 276.5766,352.8328 Q275.8438,353.15 274.9469,353.15 Q273.8969,353.15 273.0547,352.7344 Q272.3766,352.4063 271.8953,351.6953 Q271.425,350.9844 271.425,350.1422 L271.425,349.3766 Q271.425,348.5016 271.8406,347.7359 Q272.2672,346.9703 273,346.5656 Q273.7438,346.15 274.575,346.15 Q275.0781,346.15 275.5156,346.325 Q275.9531,346.5 276.325,346.85 Z " fill="#000000"/><text fill="#000000" font-family="sans-serif" font-size="8.4" lengthAdjust="spacing" textLength="38.5" x="285.775" y="352.7371">Pharmacy</text><line style="stroke:#A80036;stroke-width:1.0499999999999998;" x1="260.4" x2="330.4" y1="360.5" y2="360.5"/><text fill="#000000" font-family="sans-serif" font-size="7.7" lengthAdjust="spacing" textLength="33.6" x="263.9" y="371.2933">-Integer id</text><text fill="#000000" font-family="sans-serif" font-size="7.7" lengthAdjust="spacing" textLength="63" x="263.9" y="380.9784">-String designation</text><!--MD5=[3aa0d89c6bfdcbf7f32042cedac57549]
class Vehicle--><rect codeLine="34" fill="#FEFECE" filter="url(#f1dbcog5mq9j07)" height="66.7406" id="Vehicle" style="stroke:#A80036;stroke-width:1.0499999999999998;" width="81.2" x="413.7" y="453.95"/><ellipse cx="438.06" cy="465.15" fill="#ADD1B2" rx="7.7" ry="7.7" style="stroke:#A80036;stroke-width:0.7;"/><path d="M439.46,462.7 Q439.6022,462.35 439.7662,462.175 Q439.9303,462 440.1162,462 Q440.4444,462 440.6522,462.1969 Q440.86,462.3937 440.86,462.8531 L440.86,463.9469 Q440.86,464.4062 440.6631,464.6031 Q440.4662,464.8 440.16,464.8 Q439.8866,464.8 439.7116,464.6797 Q439.5366,464.5594 439.46,464.2422 Q439.4272,464.0234 439.3069,463.9031 Q439.0881,463.6734 438.6944,463.5422 Q438.3006,463.4 437.9069,463.4 Q437.4147,463.4 436.9991,463.5969 Q436.5944,463.7938 436.2772,464.2313 Q435.96,464.6688 435.96,465.2703 L435.96,465.9156 Q435.96,466.6375 436.5506,467.1188 Q437.1412,467.6 438.1912,467.6 Q438.8147,467.6 439.2522,467.4578 Q439.5037,467.3812 439.7881,467.1297 Q439.9741,466.9875 440.0725,466.9437 Q440.1709,466.9 440.2912,466.9 Q440.5209,466.9 440.685,467.0859 Q440.86,467.2609 440.86,467.5125 Q440.86,467.7531 440.6194,468.0375 Q440.2694,468.4531 439.7116,468.6828 Q438.9787,469 438.0819,469 Q437.0319,469 436.1897,468.5844 Q435.5116,468.2562 435.0303,467.5453 Q434.56,466.8344 434.56,465.9922 L434.56,465.2266 Q434.56,464.3516 434.9756,463.5859 Q435.4022,462.8203 436.135,462.4156 Q436.8787,462 437.71,462 Q438.2131,462 438.6506,462.175 Q439.0881,462.35 439.46,462.7 Z " fill="#000000"/><text fill="#000000" font-family="sans-serif" font-size="8.4" lengthAdjust="spacing" textLength="28" x="450.94" y="468.5871">Vehicle</text><line style="stroke:#A80036;stroke-width:1.0499999999999998;" x1="414.4" x2="494.2" y1="476.35" y2="476.35"/><text fill="#000000" font-family="sans-serif" font-size="7.7" lengthAdjust="spacing" textLength="18.2" x="417.9" y="487.1433">-int id</text><text fill="#000000" font-family="sans-serif" font-size="7.7" lengthAdjust="spacing" textLength="72.8" x="417.9" y="496.8284">-float batteryCapacity</text><text fill="#000000" font-family="sans-serif" font-size="7.7" lengthAdjust="spacing" textLength="64.4" x="417.9" y="506.5136">-float actualBattery</text><text fill="#000000" font-family="sans-serif" font-size="7.7" lengthAdjust="spacing" textLength="64.4" x="417.9" y="516.1987">-double maxWeight</text><!--MD5=[f4402668d5d5bb8485350c0fdb60ac8e]
class Scooter--><rect codeLine="40" fill="#FEFECE" filter="url(#f1dbcog5mq9j07)" height="37.6852" id="Scooter" style="stroke:#A80036;stroke-width:1.0499999999999998;" width="64.4" x="602.7" y="576.1"/><ellipse cx="618.87" cy="587.3" fill="#ADD1B2" rx="7.7" ry="7.7" style="stroke:#A80036;stroke-width:0.7;"/><path d="M620.27,584.85 Q620.4122,584.5 620.5763,584.325 Q620.7403,584.15 620.9263,584.15 Q621.2544,584.15 621.4622,584.3469 Q621.67,584.5437 621.67,585.0031 L621.67,586.0969 Q621.67,586.5563 621.4731,586.7531 Q621.2763,586.95 620.97,586.95 Q620.6966,586.95 620.5216,586.8297 Q620.3466,586.7094 620.27,586.3922 Q620.2372,586.1734 620.1169,586.0531 Q619.8981,585.8234 619.5044,585.6922 Q619.1106,585.55 618.7169,585.55 Q618.2247,585.55 617.8091,585.7469 Q617.4044,585.9437 617.0872,586.3812 Q616.77,586.8187 616.77,587.4203 L616.77,588.0656 Q616.77,588.7875 617.3606,589.2688 Q617.9513,589.75 619.0013,589.75 Q619.6247,589.75 620.0622,589.6078 Q620.3138,589.5313 620.5981,589.2797 Q620.7841,589.1375 620.8825,589.0938 Q620.9809,589.05 621.1012,589.05 Q621.3309,589.05 621.495,589.2359 Q621.67,589.4109 621.67,589.6625 Q621.67,589.9031 621.4294,590.1875 Q621.0794,590.6031 620.5216,590.8328 Q619.7887,591.15 618.8919,591.15 Q617.8419,591.15 616.9997,590.7344 Q616.3216,590.4063 615.8403,589.6953 Q615.37,588.9844 615.37,588.1422 L615.37,587.3766 Q615.37,586.5016 615.7856,585.7359 Q616.2122,584.9703 616.945,584.5656 Q617.6888,584.15 618.52,584.15 Q619.0231,584.15 619.4606,584.325 Q619.8981,584.5 620.27,584.85 Z " fill="#000000"/><text fill="#000000" font-family="sans-serif" font-size="8.4" lengthAdjust="spacing" textLength="29.4" x="629.93" y="590.7371">Scooter</text><line style="stroke:#A80036;stroke-width:1.0499999999999998;" x1="603.4" x2="666.4" y1="598.5" y2="598.5"/><text fill="#000000" font-family="sans-serif" font-size="7.7" lengthAdjust="spacing" textLength="56" x="606.9" y="609.2933">-boolean qrCode</text><!--MD5=[d1eeb527b96f439f56c6bd12ac0dd707]
class Park--><rect codeLine="45" fill="#FEFECE" filter="url(#f1dbcog5mq9j07)" height="47.3703" id="Park" style="stroke:#A80036;stroke-width:1.0499999999999998;" width="79.8" x="414.4" y="338.1"/><ellipse cx="442.855" cy="349.3" fill="#ADD1B2" rx="7.7" ry="7.7" style="stroke:#A80036;stroke-width:0.7;"/><path d="M444.255,346.85 Q444.3972,346.5 444.5613,346.325 Q444.7253,346.15 444.9112,346.15 Q445.2394,346.15 445.4472,346.3469 Q445.655,346.5438 445.655,347.0031 L445.655,348.0969 Q445.655,348.5563 445.4581,348.7531 Q445.2612,348.95 444.955,348.95 Q444.6816,348.95 444.5066,348.8297 Q444.3316,348.7094 444.255,348.3922 Q444.2222,348.1734 444.1019,348.0531 Q443.8831,347.8234 443.4894,347.6922 Q443.0956,347.55 442.7019,347.55 Q442.2097,347.55 441.7941,347.7469 Q441.3894,347.9437 441.0722,348.3812 Q440.755,348.8187 440.755,349.4203 L440.755,350.0656 Q440.755,350.7875 441.3456,351.2687 Q441.9363,351.75 442.9863,351.75 Q443.6097,351.75 444.0472,351.6078 Q444.2988,351.5313 444.5831,351.2797 Q444.7691,351.1375 444.8675,351.0938 Q444.9659,351.05 445.0862,351.05 Q445.3159,351.05 445.48,351.2359 Q445.655,351.4109 445.655,351.6625 Q445.655,351.9031 445.4144,352.1875 Q445.0644,352.6031 444.5066,352.8328 Q443.7737,353.15 442.8769,353.15 Q441.8269,353.15 440.9847,352.7344 Q440.3066,352.4063 439.8253,351.6953 Q439.355,350.9844 439.355,350.1422 L439.355,349.3766 Q439.355,348.5016 439.7706,347.7359 Q440.1972,346.9703 440.93,346.5656 Q441.6738,346.15 442.505,346.15 Q443.0081,346.15 443.4456,346.325 Q443.8831,346.5 444.255,346.85 Z " fill="#000000"/><text fill="#000000" font-family="sans-serif" font-size="8.4" lengthAdjust="spacing" textLength="17.5" x="456.645" y="352.7371">Park</text><line style="stroke:#A80036;stroke-width:1.0499999999999998;" x1="415.1" x2="493.5" y1="360.5" y2="360.5"/><text fill="#000000" font-family="sans-serif" font-size="7.7" lengthAdjust="spacing" textLength="33.6" x="418.6" y="371.2933">-Integer id</text><text fill="#000000" font-family="sans-serif" font-size="7.7" lengthAdjust="spacing" textLength="71.4" x="418.6" y="380.9784">-Integer maxCapacity</text><!--MD5=[388196bfb1e60c011795b3c04c7c53f7]
class ParkPlace--><rect codeLine="50" fill="#FEFECE" filter="url(#f1dbcog5mq9j07)" height="37.6852" id="ParkPlace" style="stroke:#A80036;stroke-width:1.0499999999999998;" width="61.6" x="760.9" y="315"/><ellipse cx="771.4" cy="326.2" fill="#ADD1B2" rx="7.7" ry="7.7" style="stroke:#A80036;stroke-width:0.7;"/><path d="M772.8,323.75 Q772.9422,323.4 773.1062,323.225 Q773.2703,323.05 773.4563,323.05 Q773.7844,323.05 773.9922,323.2469 Q774.2,323.4437 774.2,323.9031 L774.2,324.9969 Q774.2,325.4562 774.0031,325.6531 Q773.8063,325.85 773.5,325.85 Q773.2266,325.85 773.0516,325.7297 Q772.8766,325.6094 772.8,325.2922 Q772.7672,325.0734 772.6469,324.9531 Q772.4281,324.7234 772.0344,324.5922 Q771.6406,324.45 771.2469,324.45 Q770.7547,324.45 770.3391,324.6469 Q769.9344,324.8438 769.6172,325.2813 Q769.3,325.7188 769.3,326.3203 L769.3,326.9656 Q769.3,327.6875 769.8906,328.1688 Q770.4812,328.65 771.5313,328.65 Q772.1547,328.65 772.5922,328.5078 Q772.8438,328.4313 773.1281,328.1797 Q773.3141,328.0375 773.4125,327.9938 Q773.5109,327.95 773.6312,327.95 Q773.8609,327.95 774.025,328.1359 Q774.2,328.3109 774.2,328.5625 Q774.2,328.8031 773.9594,329.0875 Q773.6094,329.5031 773.0516,329.7328 Q772.3187,330.05 771.4219,330.05 Q770.3719,330.05 769.5297,329.6344 Q768.8516,329.3063 768.3703,328.5953 Q767.9,327.8844 767.9,327.0422 L767.9,326.2766 Q767.9,325.4016 768.3156,324.6359 Q768.7422,323.8703 769.475,323.4656 Q770.2188,323.05 771.05,323.05 Q771.5531,323.05 771.9906,323.225 Q772.4281,323.4 772.8,323.75 Z " fill="#000000"/><text fill="#000000" font-family="sans-serif" font-size="8.4" lengthAdjust="spacing" textLength="39.2" x="781.2" y="329.6371">ParkPlace</text><line style="stroke:#A80036;stroke-width:1.0499999999999998;" x1="761.6" x2="821.8" y1="337.4" y2="337.4"/><text fill="#000000" font-family="sans-serif" font-size="7.7" lengthAdjust="spacing" textLength="33.6" x="765.1" y="348.1933">-Integer id</text><!--MD5=[7ca35fa42fdd2584ef5892c05d53c42e]
class ChargingStation--><rect codeLine="55" fill="#FEFECE" filter="url(#f1dbcog5mq9j07)" height="37.6852" id="ChargingStation" style="stroke:#A80036;stroke-width:1.0499999999999998;" width="84.7" x="592.55" y="360.5"/><ellipse cx="603.05" cy="371.7" fill="#ADD1B2" rx="7.7" ry="7.7" style="stroke:#A80036;stroke-width:0.7;"/><path d="M604.45,369.25 Q604.5922,368.9 604.7562,368.725 Q604.9203,368.55 605.1062,368.55 Q605.4344,368.55 605.6422,368.7469 Q605.85,368.9437 605.85,369.4031 L605.85,370.4969 Q605.85,370.9562 605.6531,371.1531 Q605.4563,371.35 605.15,371.35 Q604.8766,371.35 604.7016,371.2297 Q604.5266,371.1094 604.45,370.7922 Q604.4172,370.5734 604.2969,370.4531 Q604.0781,370.2234 603.6844,370.0922 Q603.2906,369.95 602.8969,369.95 Q602.4047,369.95 601.9891,370.1469 Q601.5844,370.3438 601.2672,370.7813 Q600.95,371.2188 600.95,371.8203 L600.95,372.4656 Q600.95,373.1875 601.5406,373.6688 Q602.1312,374.15 603.1813,374.15 Q603.8047,374.15 604.2422,374.0078 Q604.4938,373.9313 604.7781,373.6797 Q604.9641,373.5375 605.0625,373.4938 Q605.1609,373.45 605.2813,373.45 Q605.5109,373.45 605.675,373.6359 Q605.85,373.8109 605.85,374.0625 Q605.85,374.3031 605.6094,374.5875 Q605.2594,375.0031 604.7016,375.2328 Q603.9688,375.55 603.0719,375.55 Q602.0219,375.55 601.1797,375.1344 Q600.5016,374.8063 600.0203,374.0953 Q599.55,373.3844 599.55,372.5422 L599.55,371.7766 Q599.55,370.9016 599.9656,370.1359 Q600.3922,369.3703 601.125,368.9656 Q601.8688,368.55 602.7,368.55 Q603.2031,368.55 603.6406,368.725 Q604.0781,368.9 604.45,369.25 Z " fill="#000000"/><text fill="#000000" font-family="sans-serif" font-size="8.4" lengthAdjust="spacing" textLength="62.3" x="612.85" y="375.1371">ChargingStation</text><line style="stroke:#A80036;stroke-width:1.0499999999999998;" x1="593.25" x2="676.55" y1="382.9" y2="382.9"/><text fill="#000000" font-family="sans-serif" font-size="7.7" lengthAdjust="spacing" textLength="33.6" x="596.75" y="393.6933">-Integer id</text><!--MD5=[c6a2171c11447acbe08a3dfeee0e1710]
class Courier--><rect codeLine="59" fill="#FEFECE" filter="url(#f1dbcog5mq9j07)" height="37.6852" id="Courier" style="stroke:#A80036;stroke-width:1.0499999999999998;" width="65.1" x="4.9" y="343"/><ellipse cx="21.7" cy="354.2" fill="#ADD1B2" rx="7.7" ry="7.7" style="stroke:#A80036;stroke-width:0.7;"/><path d="M23.1,351.75 Q23.2422,351.4 23.4063,351.225 Q23.5703,351.05 23.7562,351.05 Q24.0844,351.05 24.2922,351.2469 Q24.5,351.4437 24.5,351.9031 L24.5,352.9969 Q24.5,353.4562 24.3031,353.6531 Q24.1063,353.85 23.8,353.85 Q23.5266,353.85 23.3516,353.7297 Q23.1766,353.6094 23.1,353.2922 Q23.0672,353.0734 22.9469,352.9531 Q22.7281,352.7234 22.3344,352.5922 Q21.9406,352.45 21.5469,352.45 Q21.0547,352.45 20.6391,352.6469 Q20.2344,352.8438 19.9172,353.2813 Q19.6,353.7188 19.6,354.3203 L19.6,354.9656 Q19.6,355.6875 20.1906,356.1688 Q20.7813,356.65 21.8312,356.65 Q22.4547,356.65 22.8922,356.5078 Q23.1437,356.4313 23.4281,356.1797 Q23.6141,356.0375 23.7125,355.9938 Q23.8109,355.95 23.9313,355.95 Q24.1609,355.95 24.325,356.1359 Q24.5,356.3109 24.5,356.5625 Q24.5,356.8031 24.2594,357.0875 Q23.9094,357.5031 23.3516,357.7328 Q22.6188,358.05 21.7219,358.05 Q20.6719,358.05 19.8297,357.6344 Q19.1516,357.3063 18.6703,356.5953 Q18.2,355.8844 18.2,355.0422 L18.2,354.2766 Q18.2,353.4016 18.6156,352.6359 Q19.0422,351.8703 19.775,351.4656 Q20.5187,351.05 21.35,351.05 Q21.8531,351.05 22.2906,351.225 Q22.7281,351.4 23.1,351.75 Z " fill="#000000"/><text fill="#000000" font-family="sans-serif" font-size="8.4" lengthAdjust="spacing" textLength="28.7" x="32.9" y="357.6371">Courier</text><line style="stroke:#A80036;stroke-width:1.0499999999999998;" x1="5.6" x2="69.3" y1="365.4" y2="365.4"/><text fill="#000000" font-family="sans-serif" font-size="7.7" lengthAdjust="spacing" textLength="56.7" x="9.1" y="376.1933">-float maxWeight</text><!--MD5=[fff5db4abcb6eec6574b9ea9c3ee0eae]
class Delivery--><rect codeLine="65" fill="#FEFECE" filter="url(#f1dbcog5mq9j07)" height="37.6852" id="Delivery" style="stroke:#A80036;stroke-width:1.0499999999999998;" width="52.5" x="269.15" y="4.9"/><ellipse cx="279.65" cy="16.1" fill="#ADD1B2" rx="7.7" ry="7.7" style="stroke:#A80036;stroke-width:0.7;"/><path d="M281.05,13.65 Q281.1922,13.3 281.3563,13.125 Q281.5203,12.95 281.7062,12.95 Q282.0344,12.95 282.2422,13.1469 Q282.45,13.3438 282.45,13.8031 L282.45,14.8969 Q282.45,15.3563 282.2531,15.5531 Q282.0563,15.75 281.75,15.75 Q281.4766,15.75 281.3016,15.6297 Q281.1266,15.5094 281.05,15.1922 Q281.0172,14.9734 280.8969,14.8531 Q280.6781,14.6234 280.2844,14.4922 Q279.8906,14.35 279.4969,14.35 Q279.0047,14.35 278.5891,14.5469 Q278.1844,14.7437 277.8672,15.1812 Q277.55,15.6187 277.55,16.2203 L277.55,16.8656 Q277.55,17.5875 278.1406,18.0687 Q278.7313,18.55 279.7813,18.55 Q280.4047,18.55 280.8422,18.4078 Q281.0938,18.3312 281.3781,18.0797 Q281.5641,17.9375 281.6625,17.8937 Q281.7609,17.85 281.8812,17.85 Q282.1109,17.85 282.275,18.0359 Q282.45,18.2109 282.45,18.4625 Q282.45,18.7031 282.2094,18.9875 Q281.8594,19.4031 281.3016,19.6328 Q280.5687,19.95 279.6719,19.95 Q278.6219,19.95 277.7797,19.5344 Q277.1016,19.2062 276.6203,18.4953 Q276.15,17.7844 276.15,16.9422 L276.15,16.1766 Q276.15,15.3016 276.5656,14.5359 Q276.9922,13.7703 277.725,13.3656 Q278.4688,12.95 279.3,12.95 Q279.8031,12.95 280.2406,13.125 Q280.6781,13.3 281.05,13.65 Z " fill="#000000"/><text fill="#000000" font-family="sans-serif" font-size="8.4" lengthAdjust="spacing" textLength="30.1" x="289.45" y="19.5371">Delivery</text><line style="stroke:#A80036;stroke-width:1.0499999999999998;" x1="269.85" x2="320.95" y1="27.3" y2="27.3"/><text fill="#000000" font-family="sans-serif" font-size="7.7" lengthAdjust="spacing" textLength="33.6" x="273.35" y="38.0933">-Integer id</text><!--MD5=[cf4d6237fcae255cd2e1656cf84a30e2]
class Order--><rect codeLine="69" fill="#FEFECE" filter="url(#f1dbcog5mq9j07)" height="66.7406" id="Order" style="stroke:#A80036;stroke-width:1.0499999999999998;" width="66.5" x="421.05" y="86.45"/><ellipse cx="441.63" cy="97.65" fill="#ADD1B2" rx="7.7" ry="7.7" style="stroke:#A80036;stroke-width:0.7;"/><path d="M443.03,95.2 Q443.1722,94.85 443.3362,94.675 Q443.5003,94.5 443.6863,94.5 Q444.0144,94.5 444.2222,94.6969 Q444.43,94.8938 444.43,95.3531 L444.43,96.4469 Q444.43,96.9063 444.2331,97.1031 Q444.0362,97.3 443.73,97.3 Q443.4566,97.3 443.2816,97.1797 Q443.1066,97.0594 443.03,96.7422 Q442.9972,96.5234 442.8769,96.4031 Q442.6581,96.1734 442.2644,96.0422 Q441.8706,95.9 441.4769,95.9 Q440.9847,95.9 440.5691,96.0969 Q440.1644,96.2937 439.8472,96.7312 Q439.53,97.1687 439.53,97.7703 L439.53,98.4156 Q439.53,99.1375 440.1206,99.6187 Q440.7112,100.1 441.7612,100.1 Q442.3847,100.1 442.8222,99.9578 Q443.0737,99.8813 443.3581,99.6297 Q443.5441,99.4875 443.6425,99.4438 Q443.7409,99.4 443.8613,99.4 Q444.0909,99.4 444.255,99.5859 Q444.43,99.7609 444.43,100.0125 Q444.43,100.2531 444.1894,100.5375 Q443.8394,100.9531 443.2816,101.1828 Q442.5488,101.5 441.6519,101.5 Q440.6019,101.5 439.7597,101.0844 Q439.0816,100.7563 438.6003,100.0453 Q438.13,99.3344 438.13,98.4922 L438.13,97.7266 Q438.13,96.8516 438.5456,96.0859 Q438.9722,95.3203 439.705,94.9156 Q440.4487,94.5 441.28,94.5 Q441.7831,94.5 442.2206,94.675 Q442.6581,94.85 443.03,95.2 Z " fill="#000000"/><text fill="#000000" font-family="sans-serif" font-size="8.4" lengthAdjust="spacing" textLength="21.7" x="453.67" y="101.0871">Order</text><line style="stroke:#A80036;stroke-width:1.0499999999999998;" x1="421.75" x2="486.85" y1="108.85" y2="108.85"/><text fill="#000000" font-family="sans-serif" font-size="7.7" lengthAdjust="spacing" textLength="33.6" x="425.25" y="119.6433">-Integer id</text><text fill="#000000" font-family="sans-serif" font-size="7.7" lengthAdjust="spacing" textLength="53.9" x="425.25" y="129.3284">-Date orderDate</text><text fill="#000000" font-family="sans-serif" font-size="7.7" lengthAdjust="spacing" textLength="58.1" x="425.25" y="139.0136">-Date deliverDate</text><text fill="#000000" font-family="sans-serif" font-size="7.7" lengthAdjust="spacing" textLength="38.5" x="425.25" y="148.6987">-Integer NIF</text><!--MD5=[207480c68836bdc00a20c8f267df5562]
class VehicleState--><rect codeLine="82" fill="#FEFECE" filter="url(#f1dbcog5mq9j07)" height="66.7406" id="VehicleState" style="stroke:#A80036;stroke-width:1.0499999999999998;" width="70" x="599.9" y="484.75"/><ellipse cx="610.4" cy="495.95" fill="#ADD1B2" rx="7.7" ry="7.7" style="stroke:#A80036;stroke-width:0.7;"/><path d="M611.8,493.5 Q611.9422,493.15 612.1062,492.975 Q612.2703,492.8 612.4563,492.8 Q612.7844,492.8 612.9922,492.9969 Q613.2,493.1937 613.2,493.6531 L613.2,494.7469 Q613.2,495.2062 613.0031,495.4031 Q612.8063,495.6 612.5,495.6 Q612.2266,495.6 612.0516,495.4797 Q611.8766,495.3594 611.8,495.0422 Q611.7672,494.8234 611.6469,494.7031 Q611.4281,494.4734 611.0344,494.3422 Q610.6406,494.2 610.2469,494.2 Q609.7547,494.2 609.3391,494.3969 Q608.9344,494.5937 608.6172,495.0312 Q608.3,495.4687 608.3,496.0703 L608.3,496.7156 Q608.3,497.4375 608.8906,497.9188 Q609.4812,498.4 610.5313,498.4 Q611.1547,498.4 611.5922,498.2578 Q611.8438,498.1813 612.1281,497.9297 Q612.3141,497.7875 612.4125,497.7438 Q612.5109,497.7 612.6312,497.7 Q612.8609,497.7 613.025,497.8859 Q613.2,498.0609 613.2,498.3125 Q613.2,498.5531 612.9594,498.8375 Q612.6094,499.2531 612.0516,499.4828 Q611.3187,499.8 610.4219,499.8 Q609.3719,499.8 608.5297,499.3844 Q607.8516,499.0563 607.3703,498.3453 Q606.9,497.6344 606.9,496.7922 L606.9,496.0266 Q606.9,495.1516 607.3156,494.3859 Q607.7422,493.6203 608.475,493.2156 Q609.2188,492.8 610.05,492.8 Q610.5531,492.8 610.9906,492.975 Q611.4281,493.15 611.8,493.5 Z " fill="#000000"/><text fill="#000000" font-family="sans-serif" font-size="8.4" lengthAdjust="spacing" textLength="47.6" x="620.2" y="499.3871">VehicleState</text><line style="stroke:#A80036;stroke-width:1.0499999999999998;" x1="600.6" x2="669.2" y1="507.15" y2="507.15"/><text fill="#000000" font-family="sans-serif" font-size="7.7" lengthAdjust="spacing" textLength="18.2" x="604.1" y="517.9433">-int id</text><text fill="#000000" font-family="sans-serif" font-size="7.7" lengthAdjust="spacing" textLength="61.6" x="604.1" y="527.6284">-String description</text><text fill="#000000" font-family="sans-serif" font-size="7.7" lengthAdjust="spacing" textLength="18.2" x="604.1" y="537.3136">-int id</text><text fill="#000000" font-family="sans-serif" font-size="7.7" lengthAdjust="spacing" textLength="58.1" x="604.1" y="546.9987">-String descricao</text><!--MD5=[bcf33e039c9f38a306ec5209c2a9f4f8]
class EmailService--><rect codeLine="87" fill="#FEFECE" filter="url(#f1dbcog5mq9j07)" height="28" id="EmailService" style="stroke:#A80036;stroke-width:1.0499999999999998;" width="72.8" x="755.3" y="377.3"/><ellipse cx="765.8" cy="388.5" fill="#ADD1B2" rx="7.7" ry="7.7" style="stroke:#A80036;stroke-width:0.7;"/><path d="M767.2,386.05 Q767.3422,385.7 767.5062,385.525 Q767.6703,385.35 767.8562,385.35 Q768.1844,385.35 768.3922,385.5469 Q768.6,385.7438 768.6,386.2031 L768.6,387.2969 Q768.6,387.7562 768.4031,387.9531 Q768.2063,388.15 767.9,388.15 Q767.6266,388.15 767.4516,388.0297 Q767.2766,387.9094 767.2,387.5922 Q767.1672,387.3734 767.0469,387.2531 Q766.8281,387.0234 766.4344,386.8922 Q766.0406,386.75 765.6469,386.75 Q765.1547,386.75 764.7391,386.9469 Q764.3344,387.1437 764.0172,387.5812 Q763.7,388.0187 763.7,388.6203 L763.7,389.2656 Q763.7,389.9875 764.2906,390.4688 Q764.8812,390.95 765.9313,390.95 Q766.5547,390.95 766.9922,390.8078 Q767.2438,390.7313 767.5281,390.4797 Q767.7141,390.3375 767.8125,390.2938 Q767.9109,390.25 768.0313,390.25 Q768.2609,390.25 768.425,390.4359 Q768.6,390.6109 768.6,390.8625 Q768.6,391.1031 768.3594,391.3875 Q768.0094,391.8031 767.4516,392.0328 Q766.7188,392.35 765.8219,392.35 Q764.7719,392.35 763.9297,391.9344 Q763.2516,391.6063 762.7703,390.8953 Q762.3,390.1844 762.3,389.3422 L762.3,388.5766 Q762.3,387.7016 762.7156,386.9359 Q763.1422,386.1703 763.875,385.7656 Q764.6188,385.35 765.45,385.35 Q765.9531,385.35 766.3906,385.525 Q766.8281,385.7 767.2,386.05 Z " fill="#000000"/><text fill="#000000" font-family="sans-serif" font-size="8.4" lengthAdjust="spacing" textLength="50.4" x="775.6" y="391.9371">EmailService</text><line style="stroke:#A80036;stroke-width:1.0499999999999998;" x1="756" x2="827.4" y1="399.7" y2="399.7"/><!--MD5=[b0808aa00a5c1d2430824b5104b080bc]
class OrderState--><rect fill="#FEFECE" filter="url(#f1dbcog5mq9j07)" height="28" id="OrderState" style="stroke:#A80036;stroke-width:1.0499999999999998;" width="63.7" x="603.05" y="105.7"/><ellipse cx="613.55" cy="116.9" fill="#ADD1B2" rx="7.7" ry="7.7" style="stroke:#A80036;stroke-width:0.7;"/><path d="M614.95,114.45 Q615.0922,114.1 615.2562,113.925 Q615.4203,113.75 615.6062,113.75 Q615.9344,113.75 616.1422,113.9469 Q616.35,114.1438 616.35,114.6031 L616.35,115.6969 Q616.35,116.1562 616.1531,116.3531 Q615.9563,116.55 615.65,116.55 Q615.3766,116.55 615.2016,116.4297 Q615.0266,116.3094 614.95,115.9922 Q614.9172,115.7734 614.7969,115.6531 Q614.5781,115.4234 614.1844,115.2922 Q613.7906,115.15 613.3969,115.15 Q612.9047,115.15 612.4891,115.3469 Q612.0844,115.5437 611.7672,115.9812 Q611.45,116.4187 611.45,117.0203 L611.45,117.6656 Q611.45,118.3875 612.0406,118.8687 Q612.6312,119.35 613.6813,119.35 Q614.3047,119.35 614.7422,119.2078 Q614.9938,119.1313 615.2781,118.8797 Q615.4641,118.7375 615.5625,118.6938 Q615.6609,118.65 615.7813,118.65 Q616.0109,118.65 616.175,118.8359 Q616.35,119.0109 616.35,119.2625 Q616.35,119.5031 616.1094,119.7875 Q615.7594,120.2031 615.2016,120.4328 Q614.4688,120.75 613.5719,120.75 Q612.5219,120.75 611.6797,120.3344 Q611.0016,120.0063 610.5203,119.2953 Q610.05,118.5844 610.05,117.7422 L610.05,116.9766 Q610.05,116.1016 610.4656,115.3359 Q610.8922,114.5703 611.625,114.1656 Q612.3688,113.75 613.2,113.75 Q613.7031,113.75 614.1406,113.925 Q614.5781,114.1 614.95,114.45 Z " fill="#000000"/><text fill="#000000" font-family="sans-serif" font-size="8.4" lengthAdjust="spacing" textLength="41.3" x="623.35" y="120.3371">OrderState</text><line style="stroke:#A80036;stroke-width:1.0499999999999998;" x1="603.75" x2="666.05" y1="128.1" y2="128.1"/><!--MD5=[f0a77bc3963d8f5241d504538db6a850]
link ChargingStation to ParkPlace--><path codeLine="100" d="M677.446,367.15 C703.696,359.464 736.939,349.727 760.662,342.783 " fill="none" id="ChargingStation-ParkPlace" style="stroke:#A80036;stroke-width:0.7;"/><polygon fill="#000000" points="715.959,344.2395,709.3044,344.0444,710.4607,347.9931,715.959,344.2395" style="stroke:#000000;stroke-width:0.7;"/><text fill="#000000" font-family="sans-serif" font-size="9.1" lengthAdjust="spacing" textLength="14.7" x="718.9" y="348.9466">is a</text><text fill="#000000" font-family="sans-serif" font-size="9.1" lengthAdjust="spacing" textLength="4.9" x="682.9299" y="375.8081">1</text><text fill="#000000" font-family="sans-serif" font-size="9.1" lengthAdjust="spacing" textLength="4.9" x="750.4249" y="354.5666">1</text><!--MD5=[9a8dc34b38f85b9f3fcdb440f4bffc6a]
link Client to User--><path codeLine="103" d="M172.368,129.052 C197.827,123.172 234.738,114.646 261.345,108.5 " fill="none" id="Client-User" style="stroke:#A80036;stroke-width:0.7;"/><polygon fill="#000000" points="200.4602,107.8354,193.8281,107.2558,194.7541,111.2648,200.4602,107.8354" style="stroke:#000000;stroke-width:0.7;"/><text fill="#000000" font-family="sans-serif" font-size="9.1" lengthAdjust="spacing" textLength="34.3" x="203.35" y="112.3466">acts like</text><text fill="#000000" font-family="sans-serif" font-size="9.1" lengthAdjust="spacing" textLength="4.9" x="177.729" y="138.3383">1</text><text fill="#000000" font-family="sans-serif" font-size="9.1" lengthAdjust="spacing" textLength="4.9" x="250.8552" y="119.9836">1</text><!--MD5=[bd708f2371c655af07b49ddbdb30848a]
link Client to Address--><path codeLine="104" d="M172.263,154.294 C178.941,157.906 186.151,161.329 193.2,163.8 C328.139,211.05 497.28,227.997 581.49,233.786 " fill="none" id="Client-Address" style="stroke:#A80036;stroke-width:0.7;"/><polygon fill="#000000" points="366.7358,200.2904,360.9127,197.0636,360.1281,201.1026,366.7358,200.2904" style="stroke:#000000;stroke-width:0.7;"/><text fill="#000000" font-family="sans-serif" font-size="9.1" lengthAdjust="spacing" textLength="14.7" x="369.6" y="203.3466">has</text><text fill="#000000" font-family="sans-serif" font-size="9.1" lengthAdjust="spacing" textLength="4.9" x="174.0327" y="169.6575">1</text><text fill="#000000" font-family="sans-serif" font-size="9.1" lengthAdjust="spacing" textLength="4.9" x="571.2658" y="243.4984">1</text><!--MD5=[708fc3f4650a2ae1237917fe048fe522]
link Client to Delivery--><path codeLine="105" d="M166.922,116.851 C175.182,110.355 184.548,103.089 193.2,96.6 C218.708,77.476 248.388,56.315 269.038,41.755 " fill="none" id="Client-Delivery" style="stroke:#A80036;stroke-width:0.7;"/><polygon fill="#000000" points="199.5196,56.1495,193.2001,58.2432,195.6377,61.5579,199.5196,56.1495" style="stroke:#000000;stroke-width:0.7;"/><text fill="#000000" font-family="sans-serif" font-size="9.1" lengthAdjust="spacing" textLength="35" x="203" y="61.9466">requests</text><text fill="#000000" font-family="sans-serif" font-size="9.1" lengthAdjust="spacing" textLength="4.9" x="167.3899" y="109.1578">1</text><text fill="#000000" font-family="sans-serif" font-size="9.1" lengthAdjust="spacing" textLength="3.5" x="260.0035" y="55.8745">*</text><!--MD5=[879bec428a80d843af24dc47845bf14c]
link Client to Order--><path codeLine="106" d="M172.207,144.361 C209.209,154.119 275.065,167.65 331.1,158.9 C362.432,154.007 396.69,142.485 420.994,133.189 " fill="none" id="Client-Order" style="stroke:#A80036;stroke-width:0.7;"/><polygon fill="#000000" points="286.2965,152.566,279.879,150.7949,280.0636,154.9052,286.2965,152.566" style="stroke:#000000;stroke-width:0.7;"/><text fill="#000000" font-family="sans-serif" font-size="9.1" lengthAdjust="spacing" textLength="21.7" x="289.1" y="156.4466">place</text><text fill="#000000" font-family="sans-serif" font-size="9.1" lengthAdjust="spacing" textLength="4.9" x="177.7426" y="152.9913">1</text><text fill="#000000" font-family="sans-serif" font-size="9.1" lengthAdjust="spacing" textLength="3.5" x="411.9069" y="145.6783">*</text><!--MD5=[80882edf1ba1a5a23075835c2ff1cb78]
link Park to ChargingStation--><path codeLine="111" d="M494.326,365.743 C523.383,368.578 562.863,372.435 592.473,375.326 " fill="none" id="Park-ChargingStation" style="stroke:#A80036;stroke-width:0.7;"/><polygon fill="#000000" points="532.6834,362.3632,526.5818,359.7004,526.1819,363.7954,532.6834,362.3632" style="stroke:#000000;stroke-width:0.7;"/><text fill="#000000" font-family="sans-serif" font-size="9.1" lengthAdjust="spacing" textLength="14.7" x="535.5" y="365.7466">has</text><text fill="#000000" font-family="sans-serif" font-size="9.1" lengthAdjust="spacing" textLength="4.9" x="499.7682" y="376.4299">1</text><text fill="#000000" font-family="sans-serif" font-size="9.1" lengthAdjust="spacing" textLength="14" x="573.0669" y="384.9592">1..*</text><!--MD5=[9afa01edeb13dd686951f07f9b6d7017]
link Park to ParkPlace--><path codeLine="112" d="M494.207,353.605 C501.403,352.261 508.858,350.994 515.9,350 C601.251,337.988 622.993,336.938 709.1,333.2 C726.215,332.458 745.367,332.57 760.844,332.892 " fill="none" id="Park-ParkPlace" style="stroke:#A80036;stroke-width:0.7;"/><polygon fill="#000000" points="629.2895,328.152,622.8176,326.5913,623.1363,330.6934,629.2895,328.152" style="stroke:#000000;stroke-width:0.7;"/><text fill="#000000" font-family="sans-serif" font-size="9.1" lengthAdjust="spacing" textLength="14.7" x="632.1" y="332.1466">has</text><text fill="#000000" font-family="sans-serif" font-size="9.1" lengthAdjust="spacing" textLength="4.9" x="499.8987" y="362.7214">1</text><text fill="#000000" font-family="sans-serif" font-size="9.1" lengthAdjust="spacing" textLength="14" x="741.2839" y="330.1945">1..*</text><!--MD5=[0ae4e3be80761dbc176b3d01b8ab98e4]
link Pharmacy to Park--><path codeLine="114" d="M331.247,361.9 C355.817,361.9 388.654,361.9 414.127,361.9 " fill="none" id="Pharmacy-Park" style="stroke:#A80036;stroke-width:0.7;"/><polygon fill="#000000" points="366.8,355.723,360.4684,353.6658,360.4684,357.7803,366.8,355.723" style="stroke:#000000;stroke-width:0.7;"/><text fill="#000000" font-family="sans-serif" font-size="9.1" lengthAdjust="spacing" textLength="14.7" x="369.6" y="359.4466">has</text><text fill="#000000" font-family="sans-serif" font-size="9.1" lengthAdjust="spacing" textLength="4.9" x="336.6325" y="372.1675">1</text><text fill="#000000" font-family="sans-serif" font-size="9.1" lengthAdjust="spacing" textLength="14" x="394.6726" y="372.0216">1..*</text><!--MD5=[54d578fb0508ace1f5af24263b5e5dc0]
link Pharmacy to Vehicle--><path codeLine="115" d="M326.095,385.763 C350.91,405.503 386.365,433.713 413.595,455.371 " fill="none" id="Pharmacy-Vehicle" style="stroke:#A80036;stroke-width:0.7;"/><polygon fill="#000000" points="366.039,406.202,362.3648,400.6503,359.8033,403.8702,366.039,406.202" style="stroke:#000000;stroke-width:0.7;"/><text fill="#000000" font-family="sans-serif" font-size="9.1" lengthAdjust="spacing" textLength="14.7" x="369.6" y="407.7466">has</text><text fill="#000000" font-family="sans-serif" font-size="9.1" lengthAdjust="spacing" textLength="4.9" x="326.2261" y="400.5001">1</text><text fill="#000000" font-family="sans-serif" font-size="9.1" lengthAdjust="spacing" textLength="14" x="394.0791" y="461.7852">1..*</text><!--MD5=[89baec1bfb4a213750f7c61516e0a0f1]
link Pharmacy to Address--><path codeLine="116" d="M331.324,348.845 C390.943,326.753 512.036,281.876 581.693,256.06 " fill="none" id="Pharmacy-Address" style="stroke:#A80036;stroke-width:0.7;"/><polygon fill="#000000" points="448.4819,281.7068,441.83,281.978,443.2598,285.8361,448.4819,281.7068" style="stroke:#000000;stroke-width:0.7;"/><text fill="#000000" font-family="sans-serif" font-size="9.1" lengthAdjust="spacing" textLength="14.7" x="451.5" y="286.6466">has</text><text fill="#000000" font-family="sans-serif" font-size="9.1" lengthAdjust="spacing" textLength="4.9" x="336.7203" y="357.2767">1</text><text fill="#000000" font-family="sans-serif" font-size="9.1" lengthAdjust="spacing" textLength="4.9" x="571.0534" y="268.0912">1</text><!--MD5=[13927f1cf5307b773a226a4207989453]
link Vehicle to ParkPlace--><path codeLine="119" d="M494.949,479.801 C542.339,470.211 623.105,451.262 688.1,422.8 C710.241,413.105 716.667,410.634 734.3,394.1 C746.011,383.117 744.478,376.565 755.3,364.7 C758.996,360.647 763.203,356.608 767.403,352.849 " fill="none" id="Vehicle-ParkPlace" style="stroke:#A80036;stroke-width:0.7;"/><polygon fill="#000000" points="619.8725,415.1448,613.2645,415.9542,615.0023,419.6837,619.8725,415.1448" style="stroke:#000000;stroke-width:0.7;"/><text fill="#000000" font-family="sans-serif" font-size="9.1" lengthAdjust="spacing" textLength="32.9" x="623" y="420.3466">parks at</text><text fill="#000000" font-family="sans-serif" font-size="9.1" lengthAdjust="spacing" textLength="4.9" x="500.4711" y="489.0174">1</text><text fill="#000000" font-family="sans-serif" font-size="9.1" lengthAdjust="spacing" textLength="4.9" x="756.6521" y="367.7052">1</text><!--MD5=[06efc869691796c492c284b2034979fd]
link Vehicle to VehicleState--><path codeLine="120" d="M494.991,494.074 C526.456,499.478 569.835,506.94 599.767,512.078 " fill="none" id="Vehicle-VehicleState" style="stroke:#A80036;stroke-width:0.7;"/><polygon fill="#000000" points="532.6494,492.8158,526.7577,489.716,526.0609,493.7711,532.6494,492.8158" style="stroke:#000000;stroke-width:0.7;"/><text fill="#000000" font-family="sans-serif" font-size="9.1" lengthAdjust="spacing" textLength="14.7" x="535.5" y="495.9466">has</text><text fill="#000000" font-family="sans-serif" font-size="9.1" lengthAdjust="spacing" textLength="4.9" x="500.5184" y="505.1192">1</text><text fill="#000000" font-family="sans-serif" font-size="9.1" lengthAdjust="spacing" textLength="4.9" x="589.347" y="521.4777">1</text><!--MD5=[a6555772697f24f0ba1eb2fefc99ef48]
link Courier to Scooter--><path codeLine="122" d="M37.968,380.975 C38.521,436.646 48.307,595 141.75,595 C141.75,595 141.75,595 455,595 C506.646,595 566.664,595 602.476,595 " fill="none" id="Courier-Scooter" style="stroke:#A80036;stroke-width:0.7;"/><polygon fill="#000000" points="287.1227,590.0638,281.9317,585.8956,280.473,589.7429,287.1227,590.0638" style="stroke:#000000;stroke-width:0.7;"/><text fill="#000000" font-family="sans-serif" font-size="9.1" lengthAdjust="spacing" textLength="19.6" x="290.15" y="592.5466">uses</text><text fill="#000000" font-family="sans-serif" font-size="9.1" lengthAdjust="spacing" textLength="4.9" x="32.6454" y="395.8587">1</text><text fill="#000000" font-family="sans-serif" font-size="9.1" lengthAdjust="spacing" textLength="14" x="583.1784" y="605.2233">1..*</text><!--MD5=[7471b15d97b16c1e8744ea00ac81bc31]
link Courier to Delivery--><path codeLine="123" d="M39.445,342.951 C43.358,297.696 58.408,181.377 112.7,104.3 C138.11,68.229 152.936,64.239 193.2,46.2 C217.658,35.245 247.891,29.463 268.975,26.537 " fill="none" id="Courier-Delivery" style="stroke:#A80036;stroke-width:0.7;"/><polygon fill="#000000" points="129.1051,46.99,123.7221,50.9071,127.0526,53.323,129.1051,46.99" style="stroke:#000000;stroke-width:0.7;"/><text fill="#000000" font-family="sans-serif" font-size="9.1" lengthAdjust="spacing" textLength="27.3" x="133.35" y="53.5466">makes</text><text fill="#000000" font-family="sans-serif" font-size="9.1" lengthAdjust="spacing" textLength="4.9" x="34.4341" y="335.2578">1</text><text fill="#000000" font-family="sans-serif" font-size="9.1" lengthAdjust="spacing" textLength="3.5" x="260.1041" y="37.6072">*</text><!--MD5=[88616e74bf96530d476f0a19698bdbd4]
link Courier to Pharmacy--><path codeLine="124" d="M70.126,361.9 C118.412,361.9 209.608,361.9 259.651,361.9 " fill="none" id="Courier-Pharmacy" style="stroke:#A80036;stroke-width:0.7;"/><polygon fill="#000000" points="127.4,355.723,121.0684,353.6658,121.0684,357.7803,127.4,355.723" style="stroke:#000000;stroke-width:0.7;"/><text fill="#000000" font-family="sans-serif" font-size="9.1" lengthAdjust="spacing" textLength="33.6" x="130.2" y="359.4466">works in</text><text fill="#000000" font-family="sans-serif" font-size="9.1" lengthAdjust="spacing" textLength="3.5" x="75.6126" y="372.2678">*</text><text fill="#000000" font-family="sans-serif" font-size="9.1" lengthAdjust="spacing" textLength="4.9" x="249.1405" y="372.204">1</text><!--MD5=[5d462235496920812faf21348f4080ac]
link Delivery to Order--><path codeLine="127" d="M321.755,39.424 C348.775,55.874 391.412,81.837 420.847,99.757 " fill="none" id="Delivery-Order" style="stroke:#A80036;stroke-width:0.7;"/><polygon fill="#000000" points="358.5895,56.5432,354.2513,51.4933,352.1116,55.0077,358.5895,56.5432" style="stroke:#000000;stroke-width:0.7;"/><text fill="#000000" font-family="sans-serif" font-size="9.1" lengthAdjust="spacing" textLength="30.1" x="361.9" y="58.4466">delivers</text><text fill="#000000" font-family="sans-serif" font-size="9.1" lengthAdjust="spacing" textLength="4.9" x="327.246" y="52.9508">1</text><text fill="#000000" font-family="sans-serif" font-size="9.1" lengthAdjust="spacing" textLength="14" x="401.4111" y="107.2766">1..*</text><!--MD5=[ab4946417b991c9aec273b5527d3eb58]
link Order to OrderState--><path codeLine="132" d="M487.662,119.7 C520.471,119.7 570.668,119.7 602.966,119.7 " fill="none" id="Order-OrderState" style="stroke:#A80036;stroke-width:0.7;"/><polygon fill="#000000" points="532.7,113.523,526.3684,111.4658,526.3684,115.5803,532.7,113.523" style="stroke:#000000;stroke-width:0.7;"/><text fill="#000000" font-family="sans-serif" font-size="9.1" lengthAdjust="spacing" textLength="14.7" x="535.5" y="117.2466">has</text><text fill="#000000" font-family="sans-serif" font-size="9.1" lengthAdjust="spacing" textLength="4.9" x="493.1457" y="130.0045">1</text><text fill="#000000" font-family="sans-serif" font-size="9.1" lengthAdjust="spacing" textLength="4.9" x="592.5861" y="130.0587">1</text><!--MD5=[588bc571d22cacd243791d0fd5983e05]
link ChargingStation to EmailService--><path codeLine="134" d="M677.362,383.635 C687.729,384.615 698.81,385.602 709.1,386.4 C724.157,387.569 740.782,388.605 755.104,389.424 " fill="none" id="ChargingStation-EmailService" style="stroke:#A80036;stroke-width:0.7;"/><polygon fill="#000000" points="716.0903,380.483,709.929,377.9612,709.6235,382.0643,716.0903,380.483" style="stroke:#000000;stroke-width:0.7;"/><text fill="#000000" font-family="sans-serif" font-size="9.1" lengthAdjust="spacing" textLength="14.7" x="718.9" y="383.9466">has</text><text fill="#000000" font-family="sans-serif" font-size="9.1" lengthAdjust="spacing" textLength="3.5" x="682.7503" y="394.3022">*</text><text fill="#000000" font-family="sans-serif" font-size="9.1" lengthAdjust="spacing" textLength="4.9" x="744.7132" y="399.4116">1</text><!--MD5=[c14db07f1eaff8d802a7dec050cf6e49]
link Vehicle to Scooter--><path codeLine="136" d="M494.935,511.273 C519.876,526.295 552.65,546.035 581.7,563.5 C588.441,567.553 595.672,571.893 602.546,576.016 " fill="none" id="Vehicle-Scooter" style="stroke:#A80036;stroke-width:0.7;"/><polygon fill="#000000" points="522.3991,519.2274,518.0343,514.2005,515.9131,517.7261,522.3991,519.2274" style="stroke:#000000;stroke-width:0.7;"/><text fill="#000000" font-family="sans-serif" font-size="9.1" lengthAdjust="spacing" textLength="34.3" x="525.7" y="521.1466">could be</text><text fill="#000000" font-family="sans-serif" font-size="9.1" lengthAdjust="spacing" textLength="4.9" x="500.4553" y="524.5218">1</text><text fill="#000000" font-family="sans-serif" font-size="9.1" lengthAdjust="spacing" textLength="4.9" x="592.0991" y="583.3583">1</text><!--MD5=[71c2ac33c1932184e052bff4022d6f4b]
@startuml
skinparam classAttributeIconSize 0
hide methods
left to right direction



class User {
    -String name
    -String email
    -String password
    -Integer NIF

}


class Client {
    -Integer credits
}

class Address {
    -String Street
    -String PostalCode
    -String GeographicalLocation
    -Integer doorNumber

}


class Pharmacy {
    -Integer id
    -String designation
}

class Vehicle{
    -int id
    -float batteryCapacity
    -float actualBattery
    -double maxWeight
}
class Scooter {
    -boolean qrCode
}


class Park {
    -Integer id
    -Integer maxCapacity
}

class ParkPlace {
    -Integer id
}


class ChargingStation {
    -Integer id
}

class Courier {
    -float maxWeight
}



class Delivery {
    -Integer id
}

class Order {
    -Integer id
    -Date orderDate
    -Date deliverDate
    -Integer NIF

}

class VehicleState{
-int id
-String description
}

class VehicleState{
    -int id
    -String descricao
}

class EmailService {
}


/'- - - - - - - - - - - - - - - - - - - - - - - - - - - - - - - - - - - - - - - - - - - - - - - - - - - - - - - - - - - - - - - - - - - - - - - - - - - - - - - - - - - - '/








ChargingStation "1" - - "1" ParkPlace : is a >


Client "1" - - "1" User: acts like >
Client "1" - - - - "1" Address: has >
Client "1" - - "*" Delivery: requests >
Client "1" - - "*" Order: place >




Park "1" - - "1..*" ChargingStation: has >
Park "1" - - "1..*" ParkPlace: has >

Pharmacy "1" - - "1..*" Park: has >
Pharmacy "1" - - "1..*" Vehicle: has >
Pharmacy "1" - - "1" Address: has >


Vehicle "1" - - "1" ParkPlace: parks at >
Vehicle "1" - - "1" VehicleState: has >

Courier "1" - - - "1..*" Scooter: uses >
Courier "1" - - - "*" Delivery: makes >
Courier "*" - - - "1" Pharmacy: works in >


Delivery "1" - - "1..*" Order: delivers >




Order "1" - - "1" OrderState: has >

ChargingStation "*" - - "1" EmailService: has >

Vehicle "1" - - "1" Scooter: could be >


@enduml

@startuml
skinparam classAttributeIconSize 0
hide methods
left to right direction



class User {
    -String name
    -String email
    -String password
    -Integer NIF

}


class Client {
    -Integer credits
}

class Address {
    -String Street
    -String PostalCode
    -String GeographicalLocation
    -Integer doorNumber

}


class Pharmacy {
    -Integer id
    -String designation
}

class Vehicle{
    -int id
    -float batteryCapacity
    -float actualBattery
    -double maxWeight
}
class Scooter {
    -boolean qrCode
}


class Park {
    -Integer id
    -Integer maxCapacity
}

class ParkPlace {
    -Integer id
}


class ChargingStation {
    -Integer id
}

class Courier {
    -float maxWeight
}



class Delivery {
    -Integer id
}

class Order {
    -Integer id
    -Date orderDate
    -Date deliverDate
    -Integer NIF

}

class VehicleState{
-int id
-String description
}

class VehicleState{
    -int id
    -String descricao
}

class EmailService {
}










ChargingStation "1" - - "1" ParkPlace : is a >


Client "1" - - "1" User: acts like >
Client "1" - - - - "1" Address: has >
Client "1" - - "*" Delivery: requests >
Client "1" - - "*" Order: place >




Park "1" - - "1..*" ChargingStation: has >
Park "1" - - "1..*" ParkPlace: has >

Pharmacy "1" - - "1..*" Park: has >
Pharmacy "1" - - "1..*" Vehicle: has >
Pharmacy "1" - - "1" Address: has >


Vehicle "1" - - "1" ParkPlace: parks at >
Vehicle "1" - - "1" VehicleState: has >

Courier "1" - - - "1..*" Scooter: uses >
Courier "1" - - - "*" Delivery: makes >
Courier "*" - - - "1" Pharmacy: works in >


Delivery "1" - - "1..*" Order: delivers >




Order "1" - - "1" OrderState: has >

ChargingStation "*" - - "1" EmailService: has >

Vehicle "1" - - "1" Scooter: could be >


@enduml

PlantUML version 1.2021.00(Sun Jan 10 10:25:05 GMT 2021)
(GPL source distribution)
Java Runtime: OpenJDK Runtime Environment
JVM: OpenJDK 64-Bit Server VM
Default Encoding: Cp1252
Language: pt
Country: PT
--></g></svg>