<?xml version="1.0" encoding="UTF-8" standalone="no"?><svg xmlns="http://www.w3.org/2000/svg" xmlns:xlink="http://www.w3.org/1999/xlink" contentScriptType="application/ecmascript" contentStyleType="text/css" height="358.4px" preserveAspectRatio="none" style="width:495px;height:358px;" version="1.1" viewBox="0 0 495 358" width="495.2px" zoomAndPan="magnify"><defs><filter height="300%" id="f12sppj72yngq9" width="300%" x="-1" y="-1"><feGaussianBlur result="blurOut" stdDeviation="1.6"/><feColorMatrix in="blurOut" result="blurOut2" type="matrix" values="0 0 0 0 0 0 0 0 0 0 0 0 0 0 0 0 0 0 .4 0"/><feOffset dx="3.2" dy="3.2" in="blurOut2" result="blurOut3"/><feBlend in="SourceGraphic" in2="blurOut3" mode="normal"/></filter></defs><g><!--MD5=[f771292531ecc1dc08fe4858c35ef04c]
class AddCreditCardUI--><rect codeLine="2" fill="#FEFECE" filter="url(#f12sppj72yngq9)" height="38.4" id="AddCreditCardUI" style="stroke:#A80036;stroke-width:1.2000000000000002;" width="100" x="241.2" y="5.6"/><ellipse cx="253.2" cy="18.4" fill="#ADD1B2" rx="8.8" ry="8.8" style="stroke:#A80036;stroke-width:0.8;"/><path d="M254.8,15.6 Q254.9625,15.2 255.15,15 Q255.3375,14.8 255.55,14.8 Q255.925,14.8 256.1625,15.025 Q256.4,15.25 256.4,15.775 L256.4,17.025 Q256.4,17.55 256.175,17.775 Q255.95,18 255.6,18 Q255.2875,18 255.0875,17.8625 Q254.8875,17.725 254.8,17.3625 Q254.7625,17.1125 254.625,16.975 Q254.375,16.7125 253.925,16.5625 Q253.475,16.4 253.025,16.4 Q252.4625,16.4 251.9875,16.625 Q251.525,16.85 251.1625,17.35 Q250.8,17.85 250.8,18.5375 L250.8,19.275 Q250.8,20.1 251.475,20.65 Q252.15,21.2 253.35,21.2 Q254.0625,21.2 254.5625,21.0375 Q254.85,20.95 255.175,20.6625 Q255.3875,20.5 255.5,20.45 Q255.6125,20.4 255.75,20.4 Q256.0125,20.4 256.2,20.6125 Q256.4,20.8125 256.4,21.1 Q256.4,21.375 256.125,21.7 Q255.725,22.175 255.0875,22.4375 Q254.25,22.8 253.225,22.8 Q252.025,22.8 251.0625,22.325 Q250.2875,21.95 249.7375,21.1375 Q249.2,20.325 249.2,19.3625 L249.2,18.4875 Q249.2,17.4875 249.675,16.6125 Q250.1625,15.7375 251,15.275 Q251.85,14.8 252.8,14.8 Q253.375,14.8 253.875,15 Q254.375,15.2 254.8,15.6 Z " fill="#000000"/><text fill="#000000" font-family="sans-serif" font-size="9.6" lengthAdjust="spacingAndGlyphs" textLength="74.4" x="264.4" y="22.3281">AddCreditCardUI</text><line style="stroke:#A80036;stroke-width:1.2000000000000002;" x1="242" x2="340.4" y1="31.2" y2="31.2"/><line style="stroke:#A80036;stroke-width:1.2000000000000002;" x1="242" x2="340.4" y1="37.6" y2="37.6"/><!--MD5=[93176d23755606fd8634338ef2998a21]
class AddCreditCardController--><rect codeLine="6" fill="#FEFECE" filter="url(#f12sppj72yngq9)" height="49.4688" id="AddCreditCardController" style="stroke:#A80036;stroke-width:1.2000000000000002;" width="268.8" x="156.8" y="92"/><ellipse cx="233.8" cy="104.8" fill="#ADD1B2" rx="8.8" ry="8.8" style="stroke:#A80036;stroke-width:0.8;"/><path d="M235.4,102 Q235.5625,101.6 235.75,101.4 Q235.9375,101.2 236.15,101.2 Q236.525,101.2 236.7625,101.425 Q237,101.65 237,102.175 L237,103.425 Q237,103.95 236.775,104.175 Q236.55,104.4 236.2,104.4 Q235.8875,104.4 235.6875,104.2625 Q235.4875,104.125 235.4,103.7625 Q235.3625,103.5125 235.225,103.375 Q234.975,103.1125 234.525,102.9625 Q234.075,102.8 233.625,102.8 Q233.0625,102.8 232.5875,103.025 Q232.125,103.25 231.7625,103.75 Q231.4,104.25 231.4,104.9375 L231.4,105.675 Q231.4,106.5 232.075,107.05 Q232.75,107.6 233.95,107.6 Q234.6625,107.6 235.1625,107.4375 Q235.45,107.35 235.775,107.0625 Q235.9875,106.9 236.1,106.85 Q236.2125,106.8 236.35,106.8 Q236.6125,106.8 236.8,107.0125 Q237,107.2125 237,107.5 Q237,107.775 236.725,108.1 Q236.325,108.575 235.6875,108.8375 Q234.85,109.2 233.825,109.2 Q232.625,109.2 231.6625,108.725 Q230.8875,108.35 230.3375,107.5375 Q229.8,106.725 229.8,105.7625 L229.8,104.8875 Q229.8,103.8875 230.275,103.0125 Q230.7625,102.1375 231.6,101.675 Q232.45,101.2 233.4,101.2 Q233.975,101.2 234.475,101.4 Q234.975,101.6 235.4,102 Z " fill="#000000"/><text fill="#000000" font-family="sans-serif" font-size="9.6" lengthAdjust="spacingAndGlyphs" textLength="108" x="250.2" y="108.7281">AddCreditCardController</text><line style="stroke:#A80036;stroke-width:1.2000000000000002;" x1="157.6" x2="424.8" y1="117.6" y2="117.6"/><line style="stroke:#A80036;stroke-width:1.2000000000000002;" x1="157.6" x2="424.8" y1="124" y2="124"/><ellipse cx="165.6" cy="132.8" fill="#84BE84" rx="2.4" ry="2.4" style="stroke:#038048;stroke-width:0.8;"/><text fill="#000000" font-family="sans-serif" font-size="8.8" lengthAdjust="spacingAndGlyphs" textLength="248" x="172.8" y="136.3352">newCreditCard(Integer number, Integer CVV, Date expirateDate)</text><!--MD5=[79201099e7ad95730d4f601b46d6ddd1]
class ClientDB--><rect codeLine="11" fill="#FEFECE" filter="url(#f12sppj72yngq9)" height="49.4688" id="ClientDB" style="stroke:#A80036;stroke-width:1.2000000000000002;" width="195.2" x="96" y="195.2"/><ellipse cx="170.6" cy="208" fill="#ADD1B2" rx="8.8" ry="8.8" style="stroke:#A80036;stroke-width:0.8;"/><path d="M172.2,205.2 Q172.3625,204.8 172.55,204.6 Q172.7375,204.4 172.95,204.4 Q173.325,204.4 173.5625,204.625 Q173.8,204.85 173.8,205.375 L173.8,206.625 Q173.8,207.15 173.575,207.375 Q173.35,207.6 173,207.6 Q172.6875,207.6 172.4875,207.4625 Q172.2875,207.325 172.2,206.9625 Q172.1625,206.7125 172.025,206.575 Q171.775,206.3125 171.325,206.1625 Q170.875,206 170.425,206 Q169.8625,206 169.3875,206.225 Q168.925,206.45 168.5625,206.95 Q168.2,207.45 168.2,208.1375 L168.2,208.875 Q168.2,209.7 168.875,210.25 Q169.55,210.8 170.75,210.8 Q171.4625,210.8 171.9625,210.6375 Q172.25,210.55 172.575,210.2625 Q172.7875,210.1 172.9,210.05 Q173.0125,210 173.15,210 Q173.4125,210 173.6,210.2125 Q173.8,210.4125 173.8,210.7 Q173.8,210.975 173.525,211.3 Q173.125,211.775 172.4875,212.0375 Q171.65,212.4 170.625,212.4 Q169.425,212.4 168.4625,211.925 Q167.6875,211.55 167.1375,210.7375 Q166.6,209.925 166.6,208.9625 L166.6,208.0875 Q166.6,207.0875 167.075,206.2125 Q167.5625,205.3375 168.4,204.875 Q169.25,204.4 170.2,204.4 Q170.775,204.4 171.275,204.6 Q171.775,204.8 172.2,205.2 Z " fill="#000000"/><text fill="#000000" font-family="sans-serif" font-size="9.6" lengthAdjust="spacingAndGlyphs" textLength="39.2" x="187" y="211.9281">ClientDB</text><line style="stroke:#A80036;stroke-width:1.2000000000000002;" x1="96.8" x2="290.4" y1="220.8" y2="220.8"/><line style="stroke:#A80036;stroke-width:1.2000000000000002;" x1="96.8" x2="290.4" y1="227.2" y2="227.2"/><ellipse cx="104.8" cy="236" fill="#84BE84" rx="2.4" ry="2.4" style="stroke:#038048;stroke-width:0.8;"/><text fill="#000000" font-family="sans-serif" font-size="8.8" lengthAdjust="spacingAndGlyphs" textLength="174.4" x="112" y="239.5352">newCreditCard(CreditCard card, String email)</text><!--MD5=[c5b08e60048ef1bcd788d24cf324082e]
class UserSession--><rect codeLine="15" fill="#FEFECE" filter="url(#f12sppj72yngq9)" height="60.5375" id="UserSession" style="stroke:#A80036;stroke-width:1.2000000000000002;" width="140.8" x="319.2" y="189.6"/><ellipse cx="357" cy="202.4" fill="#ADD1B2" rx="8.8" ry="8.8" style="stroke:#A80036;stroke-width:0.8;"/><path d="M358.6,199.6 Q358.7625,199.2 358.95,199 Q359.1375,198.8 359.35,198.8 Q359.725,198.8 359.9625,199.025 Q360.2,199.25 360.2,199.775 L360.2,201.025 Q360.2,201.55 359.975,201.775 Q359.75,202 359.4,202 Q359.0875,202 358.8875,201.8625 Q358.6875,201.725 358.6,201.3625 Q358.5625,201.1125 358.425,200.975 Q358.175,200.7125 357.725,200.5625 Q357.275,200.4 356.825,200.4 Q356.2625,200.4 355.7875,200.625 Q355.325,200.85 354.9625,201.35 Q354.6,201.85 354.6,202.5375 L354.6,203.275 Q354.6,204.1 355.275,204.65 Q355.95,205.2 357.15,205.2 Q357.8625,205.2 358.3625,205.0375 Q358.65,204.95 358.975,204.6625 Q359.1875,204.5 359.3,204.45 Q359.4125,204.4 359.55,204.4 Q359.8125,204.4 360,204.6125 Q360.2,204.8125 360.2,205.1 Q360.2,205.375 359.925,205.7 Q359.525,206.175 358.8875,206.4375 Q358.05,206.8 357.025,206.8 Q355.825,206.8 354.8625,206.325 Q354.0875,205.95 353.5375,205.1375 Q353,204.325 353,203.3625 L353,202.4875 Q353,201.4875 353.475,200.6125 Q353.9625,199.7375 354.8,199.275 Q355.65,198.8 356.6,198.8 Q357.175,198.8 357.675,199 Q358.175,199.2 358.6,199.6 Z " fill="#000000"/><text fill="#000000" font-family="sans-serif" font-size="9.6" lengthAdjust="spacingAndGlyphs" textLength="58.4" x="373.4" y="206.3281">UserSession</text><line style="stroke:#A80036;stroke-width:1.2000000000000002;" x1="320" x2="459.2" y1="215.2" y2="215.2"/><line style="stroke:#A80036;stroke-width:1.2000000000000002;" x1="320" x2="459.2" y1="221.6" y2="221.6"/><ellipse cx="328" cy="230.4" fill="#84BE84" rx="2.4" ry="2.4" style="stroke:#038048;stroke-width:0.8;"/><text fill="#000000" font-family="sans-serif" font-size="8.8" lengthAdjust="spacingAndGlyphs" textLength="120" x="335.2" y="233.9352">UserSession getUserSession()</text><ellipse cx="328" cy="241.4688" fill="#84BE84" rx="2.4" ry="2.4" style="stroke:#038048;stroke-width:0.8;"/><text fill="#000000" font-family="sans-serif" font-size="8.8" lengthAdjust="spacingAndGlyphs" textLength="57.6" x="335.2" y="245.0039">User getUser()</text><!--MD5=[91d4151b6d4c9a3d01b6d84b2458eece]
class CreditCard--><rect codeLine="20" fill="#FEFECE" filter="url(#f12sppj72yngq9)" height="49.4688" id="CreditCard" style="stroke:#A80036;stroke-width:1.2000000000000002;" width="235.2" x="5.6" y="298.4"/><ellipse cx="95.8" cy="311.2" fill="#ADD1B2" rx="8.8" ry="8.8" style="stroke:#A80036;stroke-width:0.8;"/><path d="M97.4,308.4 Q97.5625,308 97.75,307.8 Q97.9375,307.6 98.15,307.6 Q98.525,307.6 98.7625,307.825 Q99,308.05 99,308.575 L99,309.825 Q99,310.35 98.775,310.575 Q98.55,310.8 98.2,310.8 Q97.8875,310.8 97.6875,310.6625 Q97.4875,310.525 97.4,310.1625 Q97.3625,309.9125 97.225,309.775 Q96.975,309.5125 96.525,309.3625 Q96.075,309.2 95.625,309.2 Q95.0625,309.2 94.5875,309.425 Q94.125,309.65 93.7625,310.15 Q93.4,310.65 93.4,311.3375 L93.4,312.075 Q93.4,312.9 94.075,313.45 Q94.75,314 95.95,314 Q96.6625,314 97.1625,313.8375 Q97.45,313.75 97.775,313.4625 Q97.9875,313.3 98.1,313.25 Q98.2125,313.2 98.35,313.2 Q98.6125,313.2 98.8,313.4125 Q99,313.6125 99,313.9 Q99,314.175 98.725,314.5 Q98.325,314.975 97.6875,315.2375 Q96.85,315.6 95.825,315.6 Q94.625,315.6 93.6625,315.125 Q92.8875,314.75 92.3375,313.9375 Q91.8,313.125 91.8,312.1625 L91.8,311.2875 Q91.8,310.2875 92.275,309.4125 Q92.7625,308.5375 93.6,308.075 Q94.45,307.6 95.4,307.6 Q95.975,307.6 96.475,307.8 Q96.975,308 97.4,308.4 Z " fill="#000000"/><text fill="#000000" font-family="sans-serif" font-size="9.6" lengthAdjust="spacingAndGlyphs" textLength="48" x="112.2" y="315.1281">CreditCard</text><line style="stroke:#A80036;stroke-width:1.2000000000000002;" x1="6.4" x2="240" y1="324" y2="324"/><line style="stroke:#A80036;stroke-width:1.2000000000000002;" x1="6.4" x2="240" y1="330.4" y2="330.4"/><ellipse cx="14.4" cy="339.2" fill="#84BE84" rx="2.4" ry="2.4" style="stroke:#038048;stroke-width:0.8;"/><text fill="#000000" font-family="sans-serif" font-size="8.8" lengthAdjust="spacingAndGlyphs" textLength="214.4" x="21.6" y="342.7352">create(Integer number, Integer CVV, Date expirateDate)</text><!--MD5=[3fd616f346a44cd59a91eb10b19e157c]
class User--><rect codeLine="25" fill="#FEFECE" filter="url(#f12sppj72yngq9)" height="49.4688" id="User" style="stroke:#A80036;stroke-width:1.2000000000000002;" width="101.6" x="338.8" y="298.4"/><ellipse cx="375.4" cy="311.2" fill="#ADD1B2" rx="8.8" ry="8.8" style="stroke:#A80036;stroke-width:0.8;"/><path d="M377,308.4 Q377.1625,308 377.35,307.8 Q377.5375,307.6 377.75,307.6 Q378.125,307.6 378.3625,307.825 Q378.6,308.05 378.6,308.575 L378.6,309.825 Q378.6,310.35 378.375,310.575 Q378.15,310.8 377.8,310.8 Q377.4875,310.8 377.2875,310.6625 Q377.0875,310.525 377,310.1625 Q376.9625,309.9125 376.825,309.775 Q376.575,309.5125 376.125,309.3625 Q375.675,309.2 375.225,309.2 Q374.6625,309.2 374.1875,309.425 Q373.725,309.65 373.3625,310.15 Q373,310.65 373,311.3375 L373,312.075 Q373,312.9 373.675,313.45 Q374.35,314 375.55,314 Q376.2625,314 376.7625,313.8375 Q377.05,313.75 377.375,313.4625 Q377.5875,313.3 377.7,313.25 Q377.8125,313.2 377.95,313.2 Q378.2125,313.2 378.4,313.4125 Q378.6,313.6125 378.6,313.9 Q378.6,314.175 378.325,314.5 Q377.925,314.975 377.2875,315.2375 Q376.45,315.6 375.425,315.6 Q374.225,315.6 373.2625,315.125 Q372.4875,314.75 371.9375,313.9375 Q371.4,313.125 371.4,312.1625 L371.4,311.2875 Q371.4,310.2875 371.875,309.4125 Q372.3625,308.5375 373.2,308.075 Q374.05,307.6 375,307.6 Q375.575,307.6 376.075,307.8 Q376.575,308 377,308.4 Z " fill="#000000"/><text fill="#000000" font-family="sans-serif" font-size="9.6" lengthAdjust="spacingAndGlyphs" textLength="21.6" x="391.8" y="315.1281">User</text><line style="stroke:#A80036;stroke-width:1.2000000000000002;" x1="339.6" x2="439.6" y1="324" y2="324"/><line style="stroke:#A80036;stroke-width:1.2000000000000002;" x1="339.6" x2="439.6" y1="330.4" y2="330.4"/><ellipse cx="347.6" cy="339.2" fill="#84BE84" rx="2.4" ry="2.4" style="stroke:#038048;stroke-width:0.8;"/><text fill="#000000" font-family="sans-serif" font-size="8.8" lengthAdjust="spacingAndGlyphs" textLength="80.8" x="354.8" y="342.7352">String getUserEmail()</text><!--MD5=[a1b30bcb03bff263c3f2d74004db4dfb]
link AddCreditCardUI to AddCreditCardController--><path codeLine="31" d="M291.2,44.112 C291.2,56.568 291.2,73.224 291.2,87.376 " fill="none" id="AddCreditCardUI-to-AddCreditCardController" style="stroke:#A80036;stroke-width:0.8;stroke-dasharray:7.0,7.0;"/><polygon fill="#A80036" points="291.2,91.68,294.4,84.48,291.2,87.68,288,84.48,291.2,91.68" style="stroke:#A80036;stroke-width:0.8;"/><!--MD5=[175e8220a558af10652b236fe04981c5]
link AddCreditCardController to UserSession--><path codeLine="33" d="M314.52,141.68 C327.52,155.104 343.888,172.008 358.024,186.6 " fill="none" id="AddCreditCardController-to-UserSession" style="stroke:#A80036;stroke-width:0.8;stroke-dasharray:7.0,7.0;"/><polygon fill="#A80036" points="360.824,189.488,358.115,182.0893,358.0417,186.6141,353.5169,186.5409,360.824,189.488" style="stroke:#A80036;stroke-width:0.8;"/><!--MD5=[ffe13dbe1d6e1f16ea0bced0293a3cad]
link AddCreditCardController to ClientDB--><path codeLine="34" d="M268.072,141.68 C253.592,156.752 234.896,176.216 219.856,191.864 " fill="none" id="AddCreditCardController-to-ClientDB" style="stroke:#A80036;stroke-width:0.8;stroke-dasharray:7.0,7.0;"/><polygon fill="#A80036" points="216.904,194.944,224.2053,191.9824,219.6805,192.0646,219.5983,187.5399,216.904,194.944" style="stroke:#A80036;stroke-width:0.8;"/><!--MD5=[ac2edcd74d58c6f0cf98b2998f86fc0d]
link AddCreditCardController to CreditCard--><path codeLine="35" d="M156.656,136.976 C127.336,147.712 99.704,164.232 81.6,189.6 C58.8,221.536 81.672,266.392 101.44,294.928 " fill="none" id="AddCreditCardController-to-CreditCard" style="stroke:#A80036;stroke-width:0.8;stroke-dasharray:7.0,7.0;"/><polygon fill="#A80036" points="103.832,298.328,102.2921,290.6009,101.5244,295.0608,97.0645,294.2931,103.832,298.328" style="stroke:#A80036;stroke-width:0.8;"/><!--MD5=[41adc32f663fad53937fdb87157dcc5f]
link AddCreditCardController to User--><path codeLine="36" d="M411.968,141.672 C436.52,152.288 459.392,167.576 474.4,189.6 C489.616,211.928 485.752,225.88 474.4,250.4 C465.952,268.648 450.352,283.968 434.808,295.712 " fill="none" id="AddCreditCardController-to-User" style="stroke:#A80036;stroke-width:0.8;stroke-dasharray:7.0,7.0;"/><polygon fill="#A80036" points="431.288,298.32,438.9789,296.6084,434.503,295.9402,435.1712,291.4643,431.288,298.32" style="stroke:#A80036;stroke-width:0.8;"/><!--MD5=[261a9f975a95b8b9805b87baf77053d0]
link UserSession to User--><path codeLine="38" d="M389.6,250.464 C389.6,264.264 389.6,280.592 389.6,294.208 " fill="none" id="UserSession-to-User" style="stroke:#A80036;stroke-width:0.8;stroke-dasharray:7.0,7.0;"/><polygon fill="#A80036" points="389.6,298.344,392.8,291.144,389.6,294.344,386.4,291.144,389.6,298.344" style="stroke:#A80036;stroke-width:0.8;"/><!--MD5=[e7b28c169aa08116f6e7ceb5922ffc18]
link ClientDB to CreditCard--><path codeLine="40" d="M176.92,244.88 C166.56,259.824 153.208,279.088 142.416,294.672 " fill="none" id="ClientDB-to-CreditCard" style="stroke:#A80036;stroke-width:0.8;stroke-dasharray:7.0,7.0;"/><polygon fill="#A80036" points="140.008,298.144,146.7432,294.0554,142.2896,294.8585,141.4865,290.4049,140.008,298.144" style="stroke:#A80036;stroke-width:0.8;"/><!--MD5=[f31a3509f2b2ba65e039a21f6bea376f]
link ClientDB to User--><path codeLine="41" d="M240.048,244.88 C269.96,260.384 308.84,280.536 339.456,296.408 " fill="none" id="ClientDB-to-User" style="stroke:#A80036;stroke-width:0.8;stroke-dasharray:7.0,7.0;"/><polygon fill="#A80036" points="343.144,298.32,338.2211,292.1681,339.5918,296.4811,335.2788,297.8517,343.144,298.32" style="stroke:#A80036;stroke-width:0.8;"/><!--MD5=[50d1c944420a03461770cedf04fb0edb]
@startuml

class AddCreditCardUI {

}

class AddCreditCardController {
  +newCreditCard(Integer number, Integer CVV, Date expirateDate)

}

class ClientDB {
    +newCreditCard(CreditCard card, String email)
}

class UserSession {
    +UserSession getUserSession()
    +User getUser()
}

class CreditCard {
    +create(Integer number, Integer CVV, Date expirateDate)
}


class User {
    +String getUserEmail()

}


AddCreditCardUI ..> AddCreditCardController

AddCreditCardController ..> UserSession
AddCreditCardController ..> ClientDB
AddCreditCardController ..> CreditCard
AddCreditCardController ..> User

UserSession ..> User

ClientDB ..> CreditCard
ClientDB ..> User




@enduml

PlantUML version 1.2020.23(Sun Dec 13 19:14:58 GMT 2020)
(GPL source distribution)
Java Runtime: OpenJDK Runtime Environment
JVM: OpenJDK 64-Bit Server VM
Default Encoding: Cp1252
Language: pt
Country: PT
--></g></svg>