<?xml version="1.0" encoding="UTF-8" standalone="no"?><svg xmlns="http://www.w3.org/2000/svg" xmlns:xlink="http://www.w3.org/1999/xlink" contentScriptType="application/ecmascript" contentStyleType="text/css" height="316px" preserveAspectRatio="none" style="width:357px;height:316px;" version="1.1" viewBox="0 0 357 316" width="357px" zoomAndPan="magnify"><defs><filter height="300%" id="futzzypckvral" width="300%" x="-1" y="-1"><feGaussianBlur result="blurOut" stdDeviation="2.0"/><feColorMatrix in="blurOut" result="blurOut2" type="matrix" values="0 0 0 0 0 0 0 0 0 0 0 0 0 0 0 0 0 0 .4 0"/><feOffset dx="4.0" dy="4.0" in="blurOut2" result="blurOut3"/><feBlend in="SourceGraphic" in2="blurOut3" mode="normal"/></filter></defs><g><rect fill="#FFFFFF" filter="url(#futzzypckvral)" height="113.4063" style="stroke: #A80036; stroke-width: 1.0;" width="10" x="21" y="99.6094"/><rect fill="#FFFFFF" filter="url(#futzzypckvral)" height="30.3516" style="stroke: #A80036; stroke-width: 1.0;" width="10" x="308" y="121.9609"/><rect fill="#FFFFFF" filter="url(#futzzypckvral)" height="30.3516" style="stroke: #A80036; stroke-width: 1.0;" width="10" x="308" y="182.6641"/><line style="stroke: #A80036; stroke-width: 1.0; stroke-dasharray: 5.0,5.0;" x1="26" x2="26" y1="89.6094" y2="231.0156"/><line style="stroke: #A80036; stroke-width: 1.0; stroke-dasharray: 5.0,5.0;" x1="313" x2="313" y1="89.6094" y2="231.0156"/><text fill="#000000" font-family="sans-serif" font-size="14" lengthAdjust="spacingAndGlyphs" textLength="36" x="5" y="86.5332">Client</text><ellipse cx="26" cy="15" fill="#FEFECE" filter="url(#futzzypckvral)" rx="8" ry="8" style="stroke: #A80036; stroke-width: 2.0;"/><path d="M26,23 L26,50 M13,31 L39,31 M26,50 L13,65 M26,50 L39,65 " fill="none" filter="url(#futzzypckvral)" style="stroke: #A80036; stroke-width: 2.0;"/><text fill="#000000" font-family="sans-serif" font-size="14" lengthAdjust="spacingAndGlyphs" textLength="36" x="5" y="244.5488">Client</text><ellipse cx="26" cy="257.625" fill="#FEFECE" filter="url(#futzzypckvral)" rx="8" ry="8" style="stroke: #A80036; stroke-width: 2.0;"/><path d="M26,265.625 L26,292.625 M13,273.625 L39,273.625 M26,292.625 L13,307.625 M26,292.625 L39,307.625 " fill="none" filter="url(#futzzypckvral)" style="stroke: #A80036; stroke-width: 2.0;"/><rect fill="#FEFECE" filter="url(#futzzypckvral)" height="31.6094" style="stroke: #A80036; stroke-width: 1.5;" width="64" x="279" y="53"/><text fill="#000000" font-family="sans-serif" font-size="14" lengthAdjust="spacingAndGlyphs" textLength="50" x="286" y="74.5332">:System</text><rect fill="#FEFECE" filter="url(#futzzypckvral)" height="31.6094" style="stroke: #A80036; stroke-width: 1.5;" width="64" x="279" y="230.0156"/><text fill="#000000" font-family="sans-serif" font-size="14" lengthAdjust="spacingAndGlyphs" textLength="50" x="286" y="251.5488">:System</text><rect fill="#FFFFFF" filter="url(#futzzypckvral)" height="113.4063" style="stroke: #A80036; stroke-width: 1.0;" width="10" x="21" y="99.6094"/><rect fill="#FFFFFF" filter="url(#futzzypckvral)" height="30.3516" style="stroke: #A80036; stroke-width: 1.0;" width="10" x="308" y="121.9609"/><rect fill="#FFFFFF" filter="url(#futzzypckvral)" height="30.3516" style="stroke: #A80036; stroke-width: 1.0;" width="10" x="308" y="182.6641"/><polygon fill="#A80036" points="296,117.9609,306,121.9609,296,125.9609,300,121.9609" style="stroke: #A80036; stroke-width: 1.0;"/><line style="stroke: #A80036; stroke-width: 1.0;" x1="31" x2="302" y1="121.9609" y2="121.9609"/><text fill="#000000" font-family="sans-serif" font-size="13" font-weight="bold" lengthAdjust="spacingAndGlyphs" textLength="7" x="38" y="117.1045">1</text><text fill="#000000" font-family="sans-serif" font-size="13" lengthAdjust="spacingAndGlyphs" textLength="143" x="49" y="117.1045">starts canceling an order</text><polygon fill="#A80036" points="42,148.3125,32,152.3125,42,156.3125,38,152.3125" style="stroke: #A80036; stroke-width: 1.0;"/><line style="stroke: #A80036; stroke-width: 1.0; stroke-dasharray: 2.0,2.0;" x1="36" x2="312" y1="152.3125" y2="152.3125"/><text fill="#000000" font-family="sans-serif" font-size="13" font-weight="bold" lengthAdjust="spacingAndGlyphs" textLength="7" x="48" y="147.4561">2</text><text fill="#000000" font-family="sans-serif" font-size="13" lengthAdjust="spacingAndGlyphs" textLength="242" x="59" y="147.4561">shows all orders and requests the order id</text><polygon fill="#A80036" points="296,178.6641,306,182.6641,296,186.6641,300,182.6641" style="stroke: #A80036; stroke-width: 1.0;"/><line style="stroke: #A80036; stroke-width: 1.0;" x1="31" x2="302" y1="182.6641" y2="182.6641"/><text fill="#000000" font-family="sans-serif" font-size="13" font-weight="bold" lengthAdjust="spacingAndGlyphs" textLength="7" x="38" y="177.8076">3</text><text fill="#000000" font-family="sans-serif" font-size="13" lengthAdjust="spacingAndGlyphs" textLength="86" x="49" y="177.8076">inserts order id</text><polygon fill="#A80036" points="37,209.0156,27,213.0156,37,217.0156,33,213.0156" style="stroke: #A80036; stroke-width: 1.0;"/><line style="stroke: #A80036; stroke-width: 1.0; stroke-dasharray: 2.0,2.0;" x1="31" x2="312" y1="213.0156" y2="213.0156"/><text fill="#000000" font-family="sans-serif" font-size="13" font-weight="bold" lengthAdjust="spacingAndGlyphs" textLength="7" x="43" y="208.1592">4</text><text fill="#000000" font-family="sans-serif" font-size="13" lengthAdjust="spacingAndGlyphs" textLength="94" x="54" y="208.1592">process finished</text><!--MD5=[e763bf0c30171d481a1b0e53b7a91acb]
@startuml
autonumber
actor "Client" as ADM

activate ADM
ADM -> ":System" : starts canceling an order
activate ":System"
":System" - -> ADM : shows all orders and requests the order id
deactivate ":System"
ADM -> ":System" : inserts order id

activate ":System"
":System" - -> ADM : process finished
deactivate ":System"

deactivate ADM
@enduml

PlantUML version 1.2020.20(Sat Nov 21 10:02:45 GMT 2020)
(GPL source distribution)
Java Runtime: OpenJDK Runtime Environment
JVM: OpenJDK 64-Bit Server VM
Default Encoding: Cp1252
Language: pt
Country: PT
--></g></svg>