<?xml version="1.0" encoding="UTF-8" standalone="no"?><svg xmlns="http://www.w3.org/2000/svg" xmlns:xlink="http://www.w3.org/1999/xlink" contentScriptType="application/ecmascript" contentStyleType="text/css" height="462px" preserveAspectRatio="none" style="width:592px;height:462px;" version="1.1" viewBox="0 0 592 462" width="592px" zoomAndPan="magnify"><defs><filter height="300%" id="ffvxv7jp7shde" width="300%" x="-1" y="-1"><feGaussianBlur result="blurOut" stdDeviation="2.0"/><feColorMatrix in="blurOut" result="blurOut2" type="matrix" values="0 0 0 0 0 0 0 0 0 0 0 0 0 0 0 0 0 0 .4 0"/><feOffset dx="4.0" dy="4.0" in="blurOut2" result="blurOut3"/><feBlend in="SourceGraphic" in2="blurOut3" mode="normal"/></filter></defs><g><!--MD5=[fc37b66ccca3382197850c7547634786]
class CancelOrderUI--><rect codeLine="2" fill="#FEFECE" filter="url(#ffvxv7jp7shde)" height="48" id="CancelOrderUI" style="stroke: #A80036; stroke-width: 1.5;" width="114" x="179" y="7"/><ellipse cx="194" cy="23" fill="#ADD1B2" rx="11" ry="11" style="stroke: #A80036; stroke-width: 1.0;"/><path d="M196,19.5 Q196.2031,19 196.4375,18.75 Q196.6719,18.5 196.9375,18.5 Q197.4063,18.5 197.7031,18.7813 Q198,19.0625 198,19.7188 L198,21.2813 Q198,21.9375 197.7188,22.2188 Q197.4375,22.5 197,22.5 Q196.6094,22.5 196.3594,22.3281 Q196.1094,22.1563 196,21.7031 Q195.9531,21.3906 195.7813,21.2188 Q195.4688,20.8906 194.9063,20.7031 Q194.3438,20.5 193.7813,20.5 Q193.0781,20.5 192.4844,20.7813 Q191.9063,21.0625 191.4531,21.6875 Q191,22.3125 191,23.1719 L191,24.0938 Q191,25.125 191.8438,25.8125 Q192.6875,26.5 194.1875,26.5 Q195.0781,26.5 195.7031,26.2969 Q196.0625,26.1875 196.4688,25.8281 Q196.7344,25.625 196.875,25.5625 Q197.0156,25.5 197.1875,25.5 Q197.5156,25.5 197.75,25.7656 Q198,26.0156 198,26.375 Q198,26.7188 197.6563,27.125 Q197.1563,27.7188 196.3594,28.0469 Q195.3125,28.5 194.0313,28.5 Q192.5313,28.5 191.3281,27.9063 Q190.3594,27.4375 189.6719,26.4219 Q189,25.4063 189,24.2031 L189,23.1094 Q189,21.8594 189.5938,20.7656 Q190.2031,19.6719 191.25,19.0938 Q192.3125,18.5 193.5,18.5 Q194.2188,18.5 194.8438,18.75 Q195.4688,19 196,19.5 Z " fill="#000000"/><text fill="#000000" font-family="sans-serif" font-size="12" lengthAdjust="spacingAndGlyphs" textLength="82" x="208" y="27.9102">CancelOrderUI</text><line style="stroke: #A80036; stroke-width: 1.5;" x1="180" x2="292" y1="39" y2="39"/><line style="stroke: #A80036; stroke-width: 1.5;" x1="180" x2="292" y1="47" y2="47"/><!--MD5=[658cb5454b82ac073554f655fece6158]
class CheckoutBasketController--><rect codeLine="6" fill="#FEFECE" filter="url(#ffvxv7jp7shde)" height="75.6719" id="CheckoutBasketController" style="stroke: #A80036; stroke-width: 1.5;" width="176" x="148" y="115"/><ellipse cx="163" cy="131" fill="#ADD1B2" rx="11" ry="11" style="stroke: #A80036; stroke-width: 1.0;"/><path d="M165,127.5 Q165.2031,127 165.4375,126.75 Q165.6719,126.5 165.9375,126.5 Q166.4063,126.5 166.7031,126.7813 Q167,127.0625 167,127.7188 L167,129.2813 Q167,129.9375 166.7188,130.2188 Q166.4375,130.5 166,130.5 Q165.6094,130.5 165.3594,130.3281 Q165.1094,130.1563 165,129.7031 Q164.9531,129.3906 164.7813,129.2188 Q164.4688,128.8906 163.9063,128.7031 Q163.3438,128.5 162.7813,128.5 Q162.0781,128.5 161.4844,128.7813 Q160.9063,129.0625 160.4531,129.6875 Q160,130.3125 160,131.1719 L160,132.0938 Q160,133.125 160.8438,133.8125 Q161.6875,134.5 163.1875,134.5 Q164.0781,134.5 164.7031,134.2969 Q165.0625,134.1875 165.4688,133.8281 Q165.7344,133.625 165.875,133.5625 Q166.0156,133.5 166.1875,133.5 Q166.5156,133.5 166.75,133.7656 Q167,134.0156 167,134.375 Q167,134.7188 166.6563,135.125 Q166.1563,135.7188 165.3594,136.0469 Q164.3125,136.5 163.0313,136.5 Q161.5313,136.5 160.3281,135.9063 Q159.3594,135.4375 158.6719,134.4219 Q158,133.4063 158,132.2031 L158,131.1094 Q158,129.8594 158.5938,128.7656 Q159.2031,127.6719 160.25,127.0938 Q161.3125,126.5 162.5,126.5 Q163.2188,126.5 163.8438,126.75 Q164.4688,127 165,127.5 Z " fill="#000000"/><text fill="#000000" font-family="sans-serif" font-size="12" lengthAdjust="spacingAndGlyphs" textLength="144" x="177" y="135.9102">CheckoutBasketController</text><line style="stroke: #A80036; stroke-width: 1.5;" x1="149" x2="323" y1="147" y2="147"/><line style="stroke: #A80036; stroke-width: 1.5;" x1="149" x2="323" y1="155" y2="155"/><ellipse cx="159" cy="166" fill="#84BE84" rx="3" ry="3" style="stroke: #038048; stroke-width: 1.0;"/><text fill="#000000" font-family="sans-serif" font-size="11" lengthAdjust="spacingAndGlyphs" textLength="120" x="168" y="170.4189">getClientOrdersByEmail()</text><ellipse cx="159" cy="179.8359" fill="#84BE84" rx="3" ry="3" style="stroke: #038048; stroke-width: 1.0;"/><text fill="#000000" font-family="sans-serif" font-size="11" lengthAdjust="spacingAndGlyphs" textLength="137" x="168" y="184.2549">changeOrderToCanceled(id)</text><!--MD5=[79201099e7ad95730d4f601b46d6ddd1]
class ClientDB--><rect codeLine="11" fill="#FEFECE" filter="url(#ffvxv7jp7shde)" height="75.6719" id="ClientDB" style="stroke: #A80036; stroke-width: 1.5;" width="289" x="289.5" y="251"/><ellipse cx="405.25" cy="267" fill="#ADD1B2" rx="11" ry="11" style="stroke: #A80036; stroke-width: 1.0;"/><path d="M407.25,263.5 Q407.4531,263 407.6875,262.75 Q407.9219,262.5 408.1875,262.5 Q408.6563,262.5 408.9531,262.7813 Q409.25,263.0625 409.25,263.7188 L409.25,265.2813 Q409.25,265.9375 408.9688,266.2188 Q408.6875,266.5 408.25,266.5 Q407.8594,266.5 407.6094,266.3281 Q407.3594,266.1563 407.25,265.7031 Q407.2031,265.3906 407.0313,265.2188 Q406.7188,264.8906 406.1563,264.7031 Q405.5938,264.5 405.0313,264.5 Q404.3281,264.5 403.7344,264.7813 Q403.1563,265.0625 402.7031,265.6875 Q402.25,266.3125 402.25,267.1719 L402.25,268.0938 Q402.25,269.125 403.0938,269.8125 Q403.9375,270.5 405.4375,270.5 Q406.3281,270.5 406.9531,270.2969 Q407.3125,270.1875 407.7188,269.8281 Q407.9844,269.625 408.125,269.5625 Q408.2656,269.5 408.4375,269.5 Q408.7656,269.5 409,269.7656 Q409.25,270.0156 409.25,270.375 Q409.25,270.7188 408.9063,271.125 Q408.4063,271.7188 407.6094,272.0469 Q406.5625,272.5 405.2813,272.5 Q403.7813,272.5 402.5781,271.9063 Q401.6094,271.4375 400.9219,270.4219 Q400.25,269.4063 400.25,268.2031 L400.25,267.1094 Q400.25,265.8594 400.8438,264.7656 Q401.4531,263.6719 402.5,263.0938 Q403.5625,262.5 404.75,262.5 Q405.4688,262.5 406.0938,262.75 Q406.7188,263 407.25,263.5 Z " fill="#000000"/><text fill="#000000" font-family="sans-serif" font-size="12" lengthAdjust="spacingAndGlyphs" textLength="49" x="425.75" y="271.9102">ClientDB</text><line style="stroke: #A80036; stroke-width: 1.5;" x1="290.5" x2="577.5" y1="283" y2="283"/><line style="stroke: #A80036; stroke-width: 1.5;" x1="290.5" x2="577.5" y1="291" y2="291"/><ellipse cx="300.5" cy="302" fill="#84BE84" rx="3" ry="3" style="stroke: #038048; stroke-width: 1.0;"/><text fill="#000000" font-family="sans-serif" font-size="11" lengthAdjust="spacingAndGlyphs" textLength="263" x="309.5" y="306.4189">List&lt;Order&gt; getClientCreditOrdersByEmail(String email)</text><ellipse cx="300.5" cy="315.8359" fill="#84BE84" rx="3" ry="3" style="stroke: #038048; stroke-width: 1.0;"/><text fill="#000000" font-family="sans-serif" font-size="11" lengthAdjust="spacingAndGlyphs" textLength="151" x="309.5" y="320.2549">changeOrderToCanceled(int id)</text><!--MD5=[c5b08e60048ef1bcd788d24cf324082e]
class UserSession--><rect codeLine="16" fill="#FEFECE" filter="url(#ffvxv7jp7shde)" height="75.6719" id="UserSession" style="stroke: #A80036; stroke-width: 1.5;" width="176" x="7" y="251"/><ellipse cx="54.25" cy="267" fill="#ADD1B2" rx="11" ry="11" style="stroke: #A80036; stroke-width: 1.0;"/><path d="M56.25,263.5 Q56.4531,263 56.6875,262.75 Q56.9219,262.5 57.1875,262.5 Q57.6563,262.5 57.9531,262.7813 Q58.25,263.0625 58.25,263.7188 L58.25,265.2813 Q58.25,265.9375 57.9688,266.2188 Q57.6875,266.5 57.25,266.5 Q56.8594,266.5 56.6094,266.3281 Q56.3594,266.1563 56.25,265.7031 Q56.2031,265.3906 56.0313,265.2188 Q55.7188,264.8906 55.1563,264.7031 Q54.5938,264.5 54.0313,264.5 Q53.3281,264.5 52.7344,264.7813 Q52.1563,265.0625 51.7031,265.6875 Q51.25,266.3125 51.25,267.1719 L51.25,268.0938 Q51.25,269.125 52.0938,269.8125 Q52.9375,270.5 54.4375,270.5 Q55.3281,270.5 55.9531,270.2969 Q56.3125,270.1875 56.7188,269.8281 Q56.9844,269.625 57.125,269.5625 Q57.2656,269.5 57.4375,269.5 Q57.7656,269.5 58,269.7656 Q58.25,270.0156 58.25,270.375 Q58.25,270.7188 57.9063,271.125 Q57.4063,271.7188 56.6094,272.0469 Q55.5625,272.5 54.2813,272.5 Q52.7813,272.5 51.5781,271.9063 Q50.6094,271.4375 49.9219,270.4219 Q49.25,269.4063 49.25,268.2031 L49.25,267.1094 Q49.25,265.8594 49.8438,264.7656 Q50.4531,263.6719 51.5,263.0938 Q52.5625,262.5 53.75,262.5 Q54.4688,262.5 55.0938,262.75 Q55.7188,263 56.25,263.5 Z " fill="#000000"/><text fill="#000000" font-family="sans-serif" font-size="12" lengthAdjust="spacingAndGlyphs" textLength="73" x="74.75" y="271.9102">UserSession</text><line style="stroke: #A80036; stroke-width: 1.5;" x1="8" x2="182" y1="283" y2="283"/><line style="stroke: #A80036; stroke-width: 1.5;" x1="8" x2="182" y1="291" y2="291"/><ellipse cx="18" cy="302" fill="#84BE84" rx="3" ry="3" style="stroke: #038048; stroke-width: 1.0;"/><text fill="#000000" font-family="sans-serif" font-size="11" lengthAdjust="spacingAndGlyphs" textLength="150" x="27" y="306.4189">UserSession getUserSession()</text><ellipse cx="18" cy="315.8359" fill="#84BE84" rx="3" ry="3" style="stroke: #038048; stroke-width: 1.0;"/><text fill="#000000" font-family="sans-serif" font-size="11" lengthAdjust="spacingAndGlyphs" textLength="72" x="27" y="320.2549">User getUser()</text><!--MD5=[3fd616f346a44cd59a91eb10b19e157c]
class User--><rect codeLine="21" fill="#FEFECE" filter="url(#ffvxv7jp7shde)" height="61.8359" id="User" style="stroke: #A80036; stroke-width: 1.5;" width="127" x="172.5" y="387"/><ellipse cx="218.25" cy="403" fill="#ADD1B2" rx="11" ry="11" style="stroke: #A80036; stroke-width: 1.0;"/><path d="M220.25,399.5 Q220.4531,399 220.6875,398.75 Q220.9219,398.5 221.1875,398.5 Q221.6563,398.5 221.9531,398.7813 Q222.25,399.0625 222.25,399.7188 L222.25,401.2813 Q222.25,401.9375 221.9688,402.2188 Q221.6875,402.5 221.25,402.5 Q220.8594,402.5 220.6094,402.3281 Q220.3594,402.1563 220.25,401.7031 Q220.2031,401.3906 220.0313,401.2188 Q219.7188,400.8906 219.1563,400.7031 Q218.5938,400.5 218.0313,400.5 Q217.3281,400.5 216.7344,400.7813 Q216.1563,401.0625 215.7031,401.6875 Q215.25,402.3125 215.25,403.1719 L215.25,404.0938 Q215.25,405.125 216.0938,405.8125 Q216.9375,406.5 218.4375,406.5 Q219.3281,406.5 219.9531,406.2969 Q220.3125,406.1875 220.7188,405.8281 Q220.9844,405.625 221.125,405.5625 Q221.2656,405.5 221.4375,405.5 Q221.7656,405.5 222,405.7656 Q222.25,406.0156 222.25,406.375 Q222.25,406.7188 221.9063,407.125 Q221.4063,407.7188 220.6094,408.0469 Q219.5625,408.5 218.2813,408.5 Q216.7813,408.5 215.5781,407.9063 Q214.6094,407.4375 213.9219,406.4219 Q213.25,405.4063 213.25,404.2031 L213.25,403.1094 Q213.25,401.8594 213.8438,400.7656 Q214.4531,399.6719 215.5,399.0938 Q216.5625,398.5 217.75,398.5 Q218.4688,398.5 219.0938,398.75 Q219.7188,399 220.25,399.5 Z " fill="#000000"/><text fill="#000000" font-family="sans-serif" font-size="12" lengthAdjust="spacingAndGlyphs" textLength="27" x="238.75" y="407.9102">User</text><line style="stroke: #A80036; stroke-width: 1.5;" x1="173.5" x2="298.5" y1="419" y2="419"/><line style="stroke: #A80036; stroke-width: 1.5;" x1="173.5" x2="298.5" y1="427" y2="427"/><ellipse cx="183.5" cy="438" fill="#84BE84" rx="3" ry="3" style="stroke: #038048; stroke-width: 1.0;"/><text fill="#000000" font-family="sans-serif" font-size="11" lengthAdjust="spacingAndGlyphs" textLength="101" x="192.5" y="442.4189">String getUserEmail()</text><!--MD5=[ea7b8c668fef3cf93191d7c76aeabc5e]
class OrdersQueue--><rect codeLine="26" fill="#FEFECE" filter="url(#ffvxv7jp7shde)" height="61.8359" id="OrdersQueue" style="stroke: #A80036; stroke-width: 1.5;" width="162" x="353" y="387"/><ellipse cx="392.75" cy="403" fill="#ADD1B2" rx="11" ry="11" style="stroke: #A80036; stroke-width: 1.0;"/><path d="M394.75,399.5 Q394.9531,399 395.1875,398.75 Q395.4219,398.5 395.6875,398.5 Q396.1563,398.5 396.4531,398.7813 Q396.75,399.0625 396.75,399.7188 L396.75,401.2813 Q396.75,401.9375 396.4688,402.2188 Q396.1875,402.5 395.75,402.5 Q395.3594,402.5 395.1094,402.3281 Q394.8594,402.1563 394.75,401.7031 Q394.7031,401.3906 394.5313,401.2188 Q394.2188,400.8906 393.6563,400.7031 Q393.0938,400.5 392.5313,400.5 Q391.8281,400.5 391.2344,400.7813 Q390.6563,401.0625 390.2031,401.6875 Q389.75,402.3125 389.75,403.1719 L389.75,404.0938 Q389.75,405.125 390.5938,405.8125 Q391.4375,406.5 392.9375,406.5 Q393.8281,406.5 394.4531,406.2969 Q394.8125,406.1875 395.2188,405.8281 Q395.4844,405.625 395.625,405.5625 Q395.7656,405.5 395.9375,405.5 Q396.2656,405.5 396.5,405.7656 Q396.75,406.0156 396.75,406.375 Q396.75,406.7188 396.4063,407.125 Q395.9063,407.7188 395.1094,408.0469 Q394.0625,408.5 392.7813,408.5 Q391.2813,408.5 390.0781,407.9063 Q389.1094,407.4375 388.4219,406.4219 Q387.75,405.4063 387.75,404.2031 L387.75,403.1094 Q387.75,401.8594 388.3438,400.7656 Q388.9531,399.6719 390,399.0938 Q391.0625,398.5 392.25,398.5 Q392.9688,398.5 393.5938,398.75 Q394.2188,399 394.75,399.5 Z " fill="#000000"/><text fill="#000000" font-family="sans-serif" font-size="12" lengthAdjust="spacingAndGlyphs" textLength="75" x="412.25" y="407.9102">OrdersQueue</text><line style="stroke: #A80036; stroke-width: 1.5;" x1="354" x2="514" y1="419" y2="419"/><line style="stroke: #A80036; stroke-width: 1.5;" x1="354" x2="514" y1="427" y2="427"/><ellipse cx="364" cy="438" fill="#84BE84" rx="3" ry="3" style="stroke: #038048; stroke-width: 1.0;"/><text fill="#000000" font-family="sans-serif" font-size="11" lengthAdjust="spacingAndGlyphs" textLength="136" x="373" y="442.4189">removeOrderFromQueue(id)</text><!--MD5=[f4f0ea8e739802e3db5048a5ab929585]
link CancelOrderUI to CheckoutBasketController--><path codeLine="33" d="M236,55.137 C236,70.576 236,91.332 236,109.669 " fill="none" id="CancelOrderUI-to-CheckoutBasketController" style="stroke: #A80036; stroke-width: 1.0; stroke-dasharray: 7.0,7.0;"/><polygon fill="#A80036" points="236,114.771,240,105.771,236,109.771,232,105.771,236,114.771" style="stroke: #A80036; stroke-width: 1.0;"/><!--MD5=[07fcb5180212c1b4ee0c293d332c16bf]
link CheckoutBasketController to UserSession--><path codeLine="35" d="M196.724,191.326 C178.389,208.751 156.524,229.53 137.773,247.351 " fill="none" id="CheckoutBasketController-to-UserSession" style="stroke: #A80036; stroke-width: 1.0; stroke-dasharray: 7.0,7.0;"/><polygon fill="#A80036" points="134.066,250.874,143.3454,247.5736,137.6904,247.4296,137.8344,241.7746,134.066,250.874" style="stroke: #A80036; stroke-width: 1.0;"/><!--MD5=[32dd7d1a5e74388aa021f02488e7ff62]
link CheckoutBasketController to ClientDB--><path codeLine="36" d="M290.891,191.149 C316.964,208.794 348.167,229.911 374.773,247.917 " fill="none" id="CheckoutBasketController-to-ClientDB" style="stroke: #A80036; stroke-width: 1.0; stroke-dasharray: 7.0,7.0;"/><polygon fill="#A80036" points="379.002,250.779,373.7905,242.422,374.8612,247.9766,369.3066,249.0473,379.002,250.779" style="stroke: #A80036; stroke-width: 1.0;"/><!--MD5=[2a7e2082fb3aa24831b2c413c5743fb9]
link CheckoutBasketController to User--><path codeLine="37" d="M236,191.124 C236,241.808 236,332.028 236,381.7282 " fill="none" id="CheckoutBasketController-to-User" style="stroke: #A80036; stroke-width: 1.0; stroke-dasharray: 7.0,7.0;"/><polygon fill="#A80036" points="236,386.9957,240,377.9957,236,381.9957,232,377.9957,236,386.9957" style="stroke: #A80036; stroke-width: 1.0;"/><!--MD5=[c92396fd7a74535317a7b678fdf68827]
link ClientDB to OrdersQueue--><path codeLine="38" d="M434,327.075 C434,344.326 434,364.7443 434,381.7609 " fill="none" id="ClientDB-to-OrdersQueue" style="stroke: #A80036; stroke-width: 1.0; stroke-dasharray: 7.0,7.0;"/><polygon fill="#A80036" points="434,386.9254,438,377.9254,434,381.9254,430,377.9254,434,386.9254" style="stroke: #A80036; stroke-width: 1.0;"/><!--MD5=[261a9f975a95b8b9805b87baf77053d0]
link UserSession to User--><path codeLine="39" d="M136.162,327.075 C155.975,344.921 179.551,366.1562 198.817,383.5088 " fill="none" id="UserSession-to-User" style="stroke: #A80036; stroke-width: 1.0; stroke-dasharray: 7.0,7.0;"/><polygon fill="#A80036" points="202.61,386.9254,198.599,377.9303,198.8946,383.5794,193.2454,383.875,202.61,386.9254" style="stroke: #A80036; stroke-width: 1.0;"/><!--MD5=[f31a3509f2b2ba65e039a21f6bea376f]
link ClientDB to User--><path codeLine="41" d="M376.198,327.075 C348.027,345.144 314.44,366.6876 287.203,384.1577 " fill="none" id="ClientDB-to-User" style="stroke: #A80036; stroke-width: 1.0; stroke-dasharray: 7.0,7.0;"/><polygon fill="#A80036" points="282.888,386.9254,292.6234,385.4348,287.0971,384.2266,288.3053,378.7003,282.888,386.9254" style="stroke: #A80036; stroke-width: 1.0;"/><!--MD5=[7e4a4328bd70630c05f69bc2a05ec5a9]
@startuml

class CancelOrderUI {

}

class CheckoutBasketController {
  +getClientOrdersByEmail()
  +changeOrderToCanceled(id)
}

class ClientDB {
    +List<Order> getClientCreditOrdersByEmail(String email)
    +changeOrderToCanceled(int id)
}

class UserSession {
    +UserSession getUserSession()
    +User getUser()
}

class User {
    +String getUserEmail()

}

class OrdersQueue {
    +removeOrderFromQueue(id)

}



CancelOrderUI ..> CheckoutBasketController

CheckoutBasketController ..> UserSession
CheckoutBasketController ..> ClientDB
CheckoutBasketController ..> User
ClientDB ..> OrdersQueue
UserSession ..> User

ClientDB ..> User





@enduml

PlantUML version 1.2020.20(Sat Nov 21 10:02:45 GMT 2020)
(GPL source distribution)
Java Runtime: OpenJDK Runtime Environment
JVM: OpenJDK 64-Bit Server VM
Default Encoding: Cp1252
Language: pt
Country: PT
--></g></svg>