<?xml version="1.0" encoding="UTF-8" standalone="no"?><svg xmlns="http://www.w3.org/2000/svg" xmlns:xlink="http://www.w3.org/1999/xlink" contentScriptType="application/ecmascript" contentStyleType="text/css" height="253px" preserveAspectRatio="none" style="width:779px;height:253px;" version="1.1" viewBox="0 0 779 253" width="779px" zoomAndPan="magnify"><defs><filter height="300%" id="f1ke5jokejws9p" width="300%" x="-1" y="-1"><feGaussianBlur result="blurOut" stdDeviation="2.0"/><feColorMatrix in="blurOut" result="blurOut2" type="matrix" values="0 0 0 0 0 0 0 0 0 0 0 0 0 0 0 0 0 0 .4 0"/><feOffset dx="4.0" dy="4.0" in="blurOut2" result="blurOut3"/><feBlend in="SourceGraphic" in2="blurOut3" mode="normal"/></filter></defs><g><!--MD5=[ed6624c6556d5e7b1bd23032162d20b7]
class Client--><rect codeLine="6" fill="#FEFECE" filter="url(#f1ke5jokejws9p)" height="52.9551" id="Client" style="stroke:#A80036;stroke-width:1.5;" width="96" x="9" y="69"/><ellipse cx="38.4" cy="85" fill="#ADD1B2" rx="11" ry="11" style="stroke:#A80036;stroke-width:1.0;"/><path d="M40.8731,91.1431 Q40.2921,91.4419 39.6529,91.5913 Q39.0138,91.7407 38.3082,91.7407 Q35.8014,91.7407 34.4815,90.0889 Q33.1617,88.437 33.1617,85.3159 Q33.1617,82.1865 34.4815,80.5347 Q35.8014,78.8828 38.3082,78.8828 Q39.0138,78.8828 39.6612,79.0322 Q40.3087,79.1816 40.8731,79.4805 L40.8731,82.2031 Q40.2423,81.6221 39.6488,81.3523 Q39.0553,81.0825 38.4244,81.0825 Q37.0797,81.0825 36.3949,82.1492 Q35.7101,83.2158 35.7101,85.3159 Q35.7101,87.4077 36.3949,88.4744 Q37.0797,89.541 38.4244,89.541 Q39.0553,89.541 39.6488,89.2712 Q40.2423,89.0015 40.8731,88.4204 Z " fill="#000000"/><text fill="#000000" font-family="sans-serif" font-size="12" lengthAdjust="spacing" textLength="32" x="55.6" y="89.5352">Client</text><line style="stroke:#A80036;stroke-width:1.5;" x1="10" x2="104" y1="101" y2="101"/><text fill="#000000" font-family="sans-serif" font-size="11" lengthAdjust="spacing" textLength="84" x="15" y="115.6348">-Integer credits</text><!--MD5=[fff5db4abcb6eec6574b9ea9c3ee0eae]
class Delivery--><rect codeLine="10" fill="#FEFECE" filter="url(#f1ke5jokejws9p)" height="104.7754" id="Delivery" style="stroke:#A80036;stroke-width:1.5;" width="126" x="236" y="7"/><ellipse cx="272.6" cy="23" fill="#ADD1B2" rx="11" ry="11" style="stroke:#A80036;stroke-width:1.0;"/><path d="M275.0731,29.1431 Q274.4921,29.4419 273.8529,29.5913 Q273.2138,29.7407 272.5082,29.7407 Q270.0014,29.7407 268.6815,28.0889 Q267.3617,26.437 267.3617,23.3159 Q267.3617,20.1865 268.6815,18.5347 Q270.0014,16.8828 272.5082,16.8828 Q273.2138,16.8828 273.8612,17.0322 Q274.5087,17.1816 275.0731,17.4805 L275.0731,20.2031 Q274.4423,19.6221 273.8488,19.3523 Q273.2553,19.0825 272.6244,19.0825 Q271.2797,19.0825 270.5949,20.1492 Q269.9101,21.2158 269.9101,23.3159 Q269.9101,25.4077 270.5949,26.4744 Q271.2797,27.541 272.6244,27.541 Q273.2553,27.541 273.8488,27.2712 Q274.4423,27.0015 275.0731,26.4204 Z " fill="#000000"/><text fill="#000000" font-family="sans-serif" font-size="12" lengthAdjust="spacing" textLength="46" x="291.4" y="27.5352">Delivery</text><line style="stroke:#A80036;stroke-width:1.5;" x1="237" x2="361" y1="39" y2="39"/><text fill="#000000" font-family="sans-serif" font-size="11" lengthAdjust="spacing" textLength="57" x="242" y="53.6348">-Integer id</text><text fill="#000000" font-family="sans-serif" font-size="11" lengthAdjust="spacing" textLength="61" x="242" y="66.5898">-Integer nif</text><text fill="#000000" font-family="sans-serif" font-size="11" lengthAdjust="spacing" textLength="114" x="242" y="79.5449">-float distanceMeters</text><text fill="#000000" font-family="sans-serif" font-size="11" lengthAdjust="spacing" textLength="98" x="242" y="92.5">-float timeMinutes</text><text fill="#000000" font-family="sans-serif" font-size="11" lengthAdjust="spacing" textLength="112" x="242" y="105.4551">-float energyCostWH</text><!--MD5=[b0808aa00a5c1d2430824b5104b080bc]
class OrderState--><rect codeLine="17" fill="#FEFECE" filter="url(#f1ke5jokejws9p)" height="65.9102" id="OrderState" style="stroke:#A80036;stroke-width:1.5;" width="116" x="649" y="26.5"/><ellipse cx="673.9" cy="42.5" fill="#ADD1B2" rx="11" ry="11" style="stroke:#A80036;stroke-width:1.0;"/><path d="M676.3731,48.6431 Q675.7921,48.9419 675.1529,49.0913 Q674.5138,49.2407 673.8082,49.2407 Q671.3014,49.2407 669.9815,47.5889 Q668.6617,45.937 668.6617,42.8159 Q668.6617,39.6865 669.9815,38.0347 Q671.3014,36.3828 673.8082,36.3828 Q674.5138,36.3828 675.1612,36.5322 Q675.8087,36.6816 676.3731,36.9805 L676.3731,39.7031 Q675.7423,39.1221 675.1488,38.8523 Q674.5553,38.5825 673.9244,38.5825 Q672.5797,38.5825 671.8949,39.6492 Q671.2101,40.7158 671.2101,42.8159 Q671.2101,44.9077 671.8949,45.9744 Q672.5797,47.041 673.9244,47.041 Q674.5553,47.041 675.1488,46.7712 Q675.7423,46.5015 676.3731,45.9204 Z " fill="#000000"/><text fill="#000000" font-family="sans-serif" font-size="12" lengthAdjust="spacing" textLength="62" x="690.1" y="47.0352">OrderState</text><line style="stroke:#A80036;stroke-width:1.5;" x1="650" x2="764" y1="58.5" y2="58.5"/><text fill="#000000" font-family="sans-serif" font-size="11" lengthAdjust="spacing" textLength="57" x="655" y="73.1348">-Integer id</text><text fill="#000000" font-family="sans-serif" font-size="11" lengthAdjust="spacing" textLength="104" x="655" y="86.0898">-String designation</text><!--MD5=[3fd616f346a44cd59a91eb10b19e157c]
class User--><rect codeLine="22" fill="#FEFECE" filter="url(#f1ke5jokejws9p)" height="91.8203" id="User" style="stroke:#A80036;stroke-width:1.5;" width="105" x="246.5" y="147.5"/><ellipse cx="282.65" cy="163.5" fill="#ADD1B2" rx="11" ry="11" style="stroke:#A80036;stroke-width:1.0;"/><path d="M285.1231,169.6431 Q284.5421,169.9419 283.9029,170.0913 Q283.2638,170.2407 282.5582,170.2407 Q280.0514,170.2407 278.7315,168.5889 Q277.4117,166.937 277.4117,163.8159 Q277.4117,160.6865 278.7315,159.0347 Q280.0514,157.3828 282.5582,157.3828 Q283.2638,157.3828 283.9112,157.5322 Q284.5587,157.6816 285.1231,157.9805 L285.1231,160.7031 Q284.4923,160.1221 283.8988,159.8523 Q283.3053,159.5825 282.6744,159.5825 Q281.3297,159.5825 280.6449,160.6492 Q279.9601,161.7158 279.9601,163.8159 Q279.9601,165.9077 280.6449,166.9744 Q281.3297,168.041 282.6744,168.041 Q283.3053,168.041 283.8988,167.7712 Q284.4923,167.5015 285.1231,166.9204 Z " fill="#000000"/><text fill="#000000" font-family="sans-serif" font-size="12" lengthAdjust="spacing" textLength="26" x="301.35" y="168.0352">User</text><line style="stroke:#A80036;stroke-width:1.5;" x1="247.5" x2="350.5" y1="179.5" y2="179.5"/><text fill="#000000" font-family="sans-serif" font-size="11" lengthAdjust="spacing" textLength="69" x="252.5" y="194.1348">-String email</text><text fill="#000000" font-family="sans-serif" font-size="11" lengthAdjust="spacing" textLength="40" x="252.5" y="207.0898">-int NIF</text><text fill="#000000" font-family="sans-serif" font-size="11" lengthAdjust="spacing" textLength="70" x="252.5" y="220.0449">-String name</text><text fill="#000000" font-family="sans-serif" font-size="11" lengthAdjust="spacing" textLength="93" x="252.5" y="233">-String password</text><!--MD5=[c5b08e60048ef1bcd788d24cf324082e]
class UserSession--><rect codeLine="29" fill="#FEFECE" filter="url(#f1ke5jokejws9p)" height="40" id="UserSession" style="stroke:#A80036;stroke-width:1.5;" width="100" x="7" y="173.5"/><ellipse cx="22" cy="189.5" fill="#ADD1B2" rx="11" ry="11" style="stroke:#A80036;stroke-width:1.0;"/><path d="M24.4731,195.6431 Q23.8921,195.9419 23.2529,196.0913 Q22.6138,196.2407 21.9082,196.2407 Q19.4014,196.2407 18.0815,194.5889 Q16.7617,192.937 16.7617,189.8159 Q16.7617,186.6865 18.0815,185.0347 Q19.4014,183.3828 21.9082,183.3828 Q22.6138,183.3828 23.2612,183.5322 Q23.9087,183.6816 24.4731,183.9805 L24.4731,186.7031 Q23.8423,186.1221 23.2488,185.8523 Q22.6553,185.5825 22.0244,185.5825 Q20.6797,185.5825 19.9949,186.6492 Q19.3101,187.7158 19.3101,189.8159 Q19.3101,191.9077 19.9949,192.9744 Q20.6797,194.041 22.0244,194.041 Q22.6553,194.041 23.2488,193.7712 Q23.8423,193.5015 24.4731,192.9204 Z " fill="#000000"/><text fill="#000000" font-family="sans-serif" font-size="12" lengthAdjust="spacing" textLength="68" x="36" y="194.0352">UserSession</text><line style="stroke:#A80036;stroke-width:1.5;" x1="8" x2="106" y1="205.5" y2="205.5"/><!--MD5=[cf4d6237fcae255cd2e1656cf84a30e2]
class Order--><rect fill="#FEFECE" filter="url(#f1ke5jokejws9p)" height="40" id="Order" style="stroke:#A80036;stroke-width:1.5;" width="66" x="486" y="39.5"/><ellipse cx="501" cy="55.5" fill="#ADD1B2" rx="11" ry="11" style="stroke:#A80036;stroke-width:1.0;"/><path d="M503.4731,61.6431 Q502.8921,61.9419 502.2529,62.0913 Q501.6138,62.2407 500.9082,62.2407 Q498.4014,62.2407 497.0815,60.5889 Q495.7617,58.937 495.7617,55.8159 Q495.7617,52.6865 497.0815,51.0347 Q498.4014,49.3828 500.9082,49.3828 Q501.6138,49.3828 502.2612,49.5322 Q502.9087,49.6816 503.4731,49.9805 L503.4731,52.7031 Q502.8423,52.1221 502.2488,51.8523 Q501.6553,51.5825 501.0244,51.5825 Q499.6797,51.5825 498.9949,52.6492 Q498.3101,53.7158 498.3101,55.8159 Q498.3101,57.9077 498.9949,58.9744 Q499.6797,60.041 501.0244,60.041 Q501.6553,60.041 502.2488,59.7712 Q502.8423,59.5015 503.4731,58.9204 Z " fill="#000000"/><text fill="#000000" font-family="sans-serif" font-size="12" lengthAdjust="spacing" textLength="34" x="515" y="60.0352">Order</text><line style="stroke:#A80036;stroke-width:1.5;" x1="487" x2="551" y1="71.5" y2="71.5"/><!--MD5=[261a9f975a95b8b9805b87baf77053d0]
link UserSession to User--><path codeLine="35" d="M107.15,193.5 C147.74,193.5 205.19,193.5 246.43,193.5 " fill="none" id="UserSession-User" style="stroke:#A80036;stroke-width:1.0;"/><polygon fill="#000000" points="163,185.1553,153.9549,182.2163,153.9549,188.0942,163,185.1553" style="stroke:#000000;stroke-width:1.0;"/><text fill="#000000" font-family="sans-serif" font-size="13" lengthAdjust="spacing" textLength="22" x="167" y="190.0684">has</text><text fill="#000000" font-family="sans-serif" font-size="13" lengthAdjust="spacing" textLength="8" x="115.1033" y="207.1927">1</text><text fill="#000000" font-family="sans-serif" font-size="13" lengthAdjust="spacing" textLength="8" x="230.4748" y="207.1575">1</text><!--MD5=[9a8dc34b38f85b9f3fcdb440f4bffc6a]
link Client to User--><path codeLine="37" d="M105.13,114.74 C145.81,131.36 204.47,155.31 246.4,172.43 " fill="none" id="Client-User" style="stroke:#A80036;stroke-width:1.0;"/><polygon fill="#000000" points="147.1289,123.0456,139.8662,116.9052,137.644,122.3468,147.1289,123.0456" style="stroke:#000000;stroke-width:1.0;"/><text fill="#000000" font-family="sans-serif" font-size="13" lengthAdjust="spacing" textLength="53" x="151.5" y="126.0684">acts like</text><text fill="#000000" font-family="sans-serif" font-size="13" lengthAdjust="spacing" textLength="8" x="113.1124" y="131.4301">1</text><text fill="#000000" font-family="sans-serif" font-size="13" lengthAdjust="spacing" textLength="8" x="230.4406" y="183.1245">1</text><!--MD5=[708fc3f4650a2ae1237917fe048fe522]
link Client to Delivery--><path codeLine="38" d="M105.13,88.43 C142.53,82.82 195.14,74.93 235.97,68.81 " fill="none" id="Client-Delivery" style="stroke:#A80036;stroke-width:1.0;"/><polygon fill="#000000" points="146.9447,64.4138,137.5638,62.8487,138.4355,68.6616,146.9447,64.4138" style="stroke:#000000;stroke-width:1.0;"/><text fill="#000000" font-family="sans-serif" font-size="13" lengthAdjust="spacing" textLength="54" x="151" y="70.0684">requests</text><text fill="#000000" font-family="sans-serif" font-size="13" lengthAdjust="spacing" textLength="8" x="113.1124" y="101.0914">1</text><text fill="#000000" font-family="sans-serif" font-size="13" lengthAdjust="spacing" textLength="6" x="221.9226" y="83.4597">*</text><!--MD5=[5d462235496920812faf21348f4080ac]
link Delivery to Order--><path codeLine="41" d="M362.18,59.5 C402.58,59.5 453.57,59.5 485.99,59.5 " fill="none" id="Delivery-Order" style="stroke:#A80036;stroke-width:1.0;"/><polygon fill="#000000" points="402,51.1553,392.9549,48.2163,392.9549,54.0942,402,51.1553" style="stroke:#000000;stroke-width:1.0;"/><text fill="#000000" font-family="sans-serif" font-size="13" lengthAdjust="spacing" textLength="49" x="406" y="56.0684">delivers</text><text fill="#000000" font-family="sans-serif" font-size="13" lengthAdjust="spacing" textLength="8" x="369.9477" y="72.9665">1</text><text fill="#000000" font-family="sans-serif" font-size="13" lengthAdjust="spacing" textLength="22" x="455.8757" y="73.4798">1..*</text><!--MD5=[ab4946417b991c9aec273b5527d3eb58]
link Order to OrderState--><path codeLine="43" d="M552.4,59.5 C578.94,59.5 617.14,59.5 648.81,59.5 " fill="none" id="Order-OrderState" style="stroke:#A80036;stroke-width:1.0;"/><polygon fill="#000000" points="592,51.1553,582.9549,48.2163,582.9549,54.0942,592,51.1553" style="stroke:#000000;stroke-width:1.0;"/><text fill="#000000" font-family="sans-serif" font-size="13" lengthAdjust="spacing" textLength="22" x="596" y="56.0684">has</text><text fill="#000000" font-family="sans-serif" font-size="13" lengthAdjust="spacing" textLength="8" x="560.1138" y="73.6473">1</text><text fill="#000000" font-family="sans-serif" font-size="13" lengthAdjust="spacing" textLength="8" x="632.8419" y="73.0549">1</text><!--MD5=[3bd2a3edcf19f0a4bde9b780cc568a25]
@startuml
skinparam classAttributeIconSize 0
hide methods
left to right direction


class Client {
    -Integer credits
}

class Delivery {
    -Integer id
    -Integer nif
    -float distanceMeters
    -float timeMinutes
    -float energyCostWH
}
class OrderState {
    -Integer id
    -String designation
}

class User{
-String email
-int NIF
-String name
-String password
}

class UserSession {
}


/'- - - - - - - - - - - - - - - - - - - - - - - - - - - - - - - - - - - - - - - - - - - - - - - - - - - - - - - - - - - - - - - - - - - - - - - - - - - - - - - - - - - - '/

UserSession "1" - - "1" User: has >

Client "1" - - "1" User: acts like >
Client "1" - - "*" Delivery: requests >


Delivery "1" - - "1..*" Order: delivers >

Order "1" - - "1" OrderState: has >


@enduml

@startuml
skinparam classAttributeIconSize 0
hide methods
left to right direction


class Client {
    -Integer credits
}

class Delivery {
    -Integer id
    -Integer nif
    -float distanceMeters
    -float timeMinutes
    -float energyCostWH
}
class OrderState {
    -Integer id
    -String designation
}

class User{
-String email
-int NIF
-String name
-String password
}

class UserSession {
}



UserSession "1" - - "1" User: has >

Client "1" - - "1" User: acts like >
Client "1" - - "*" Delivery: requests >


Delivery "1" - - "1..*" Order: delivers >

Order "1" - - "1" OrderState: has >


@enduml

PlantUML version 1.2021.00(Sun Jan 10 10:25:05 WET 2021)
(GPL source distribution)
Java Runtime: OpenJDK Runtime Environment
JVM: OpenJDK 64-Bit Server VM
Default Encoding: UTF-8
Language: en
Country: GB
--></g></svg>