<?xml version="1.0" encoding="UTF-8" standalone="no"?><svg xmlns="http://www.w3.org/2000/svg" xmlns:xlink="http://www.w3.org/1999/xlink" contentScriptType="application/ecmascript" contentStyleType="text/css" height="43.8px" preserveAspectRatio="none" style="width:205px;height:43px;" version="1.1" viewBox="0 0 205 43" width="205.2px" zoomAndPan="magnify"><defs><filter height="300%" id="fwn517rp1l52x" width="300%" x="-1" y="-1"><feGaussianBlur result="blurOut" stdDeviation="1.2"/><feColorMatrix in="blurOut" result="blurOut2" type="matrix" values="0 0 0 0 0 0 0 0 0 0 0 0 0 0 0 0 0 0 .4 0"/><feOffset dx="2.4" dy="2.4" in="blurOut2" result="blurOut3"/><feBlend in="SourceGraphic" in2="blurOut3" mode="normal"/></filter></defs><g><!--MD5=[7ca35fa42fdd2584ef5892c05d53c42e]
class ChargingStation--><rect codeLine="5" fill="#FEFECE" filter="url(#fwn517rp1l52x)" height="31.773" id="ChargingStation" style="stroke:#A80036;stroke-width:0.8999999999999999;" width="72.6" x="4.2" y="4.2"/><ellipse cx="13.2" cy="13.8" fill="#ADD1B2" rx="6.6" ry="6.6" style="stroke:#A80036;stroke-width:0.6;"/><path d="M14.6839,17.4858 Q14.3353,17.6651 13.9518,17.7548 Q13.5683,17.8444 13.1449,17.8444 Q11.6408,17.8444 10.8489,16.8533 Q10.057,15.8622 10.057,13.9896 Q10.057,12.1119 10.8489,11.1208 Q11.6408,10.1297 13.1449,10.1297 Q13.5683,10.1297 13.9567,10.2193 Q14.3452,10.309 14.6839,10.4883 L14.6839,12.1219 Q14.3054,11.7732 13.9493,11.6114 Q13.5932,11.4495 13.2146,11.4495 Q12.4078,11.4495 11.9969,12.0895 Q11.586,12.7295 11.586,13.9896 Q11.586,15.2446 11.9969,15.8846 Q12.4078,16.5246 13.2146,16.5246 Q13.5932,16.5246 13.9493,16.3627 Q14.3054,16.2009 14.6839,15.8522 Z " fill="#000000"/><text fill="#000000" font-family="sans-serif" font-size="7.2" lengthAdjust="spacingAndGlyphs" textLength="53.4" x="21.6" y="16.5211">ChargingStation</text><line style="stroke:#A80036;stroke-width:0.8999999999999999;" x1="4.8" x2="76.2" y1="23.4" y2="23.4"/><text fill="#000000" font-family="sans-serif" font-size="6.6" lengthAdjust="spacingAndGlyphs" textLength="34.2" x="7.8" y="32.1809">-Integer id</text><!--MD5=[bcf33e039c9f38a306ec5209c2a9f4f8]
class EmailService--><rect codeLine="9" fill="#FEFECE" filter="url(#fwn517rp1l52x)" height="24" id="EmailService" style="stroke:#A80036;stroke-width:0.8999999999999999;" width="61.8" x="135" y="8.1"/><ellipse cx="144" cy="17.7" fill="#ADD1B2" rx="6.6" ry="6.6" style="stroke:#A80036;stroke-width:0.6;"/><path d="M145.4839,21.3858 Q145.1353,21.5651 144.7518,21.6548 Q144.3683,21.7444 143.9449,21.7444 Q142.4408,21.7444 141.6489,20.7533 Q140.857,19.7622 140.857,17.8896 Q140.857,16.0119 141.6489,15.0208 Q142.4408,14.0297 143.9449,14.0297 Q144.3683,14.0297 144.7567,14.1193 Q145.1452,14.209 145.4839,14.3883 L145.4839,16.0219 Q145.1054,15.6732 144.7493,15.5114 Q144.3932,15.3495 144.0146,15.3495 Q143.2078,15.3495 142.7969,15.9895 Q142.386,16.6295 142.386,17.8896 Q142.386,19.1446 142.7969,19.7846 Q143.2078,20.4246 144.0146,20.4246 Q144.3932,20.4246 144.7493,20.2627 Q145.1054,20.1009 145.4839,19.7522 Z " fill="#000000"/><text fill="#000000" font-family="sans-serif" font-size="7.2" lengthAdjust="spacingAndGlyphs" textLength="42.6" x="152.4" y="20.4211">EmailService</text><line style="stroke:#A80036;stroke-width:0.8999999999999999;" x1="135.6" x2="196.2" y1="27.3" y2="27.3"/><!--MD5=[588bc571d22cacd243791d0fd5983e05]
link ChargingStation to EmailService--><path codeLine="14" d="M76.86,20.1 C95.202,20.1 117.312,20.1 134.838,20.1 " fill="none" id="ChargingStation-EmailService" style="stroke:#A80036;stroke-width:0.6;"/><polygon fill="#000000" points="100.8,15.0932,95.3729,13.3298,95.3729,16.8565,100.8,15.0932" style="stroke:#000000;stroke-width:0.6;"/><text fill="#000000" font-family="sans-serif" font-size="7.8" lengthAdjust="spacingAndGlyphs" textLength="13.2" x="103.2" y="18.041">has</text><text fill="#000000" font-family="sans-serif" font-size="7.8" lengthAdjust="spacingAndGlyphs" textLength="4.8" x="81.5839" y="28.2024">1</text><text fill="#000000" font-family="sans-serif" font-size="7.8" lengthAdjust="spacingAndGlyphs" textLength="4.8" x="125.3324" y="28.2869">1</text><!--MD5=[ea2c6248ad3a53787ddeb96d6cb3b938]
@startuml
skinparam classAttributeIconSize 0
hide methods
left to right direction

class ChargingStation {
    -Integer id
}

class EmailService {
}

/'- - - - - - - - - - - - - - - - - - - - - - - - - - - - - - - - - - - - - - - - - - - - - - - - - - - - - - - - - - - - - - - - - - - - - - - - - - - - - - - - - - - - '/

ChargingStation "1" - - "1" EmailService : has >

@enduml

@startuml
skinparam classAttributeIconSize 0
hide methods
left to right direction

class ChargingStation {
    -Integer id
}

class EmailService {
}


ChargingStation "1" - - "1" EmailService : has >

@enduml

PlantUML version 1.2020.23(Sun Dec 13 19:14:58 WET 2020)
(GPL source distribution)
Java Runtime: OpenJDK Runtime Environment
JVM: OpenJDK 64-Bit Server VM
Default Encoding: UTF-8
Language: en
Country: GB
--></g></svg>