<?xml version="1.0" encoding="UTF-8" standalone="no"?><svg xmlns="http://www.w3.org/2000/svg" xmlns:xlink="http://www.w3.org/1999/xlink" contentScriptType="application/ecmascript" contentStyleType="text/css" height="313.2px" preserveAspectRatio="none" style="width:710px;height:313px;" version="1.1" viewBox="0 0 710 313" width="710.1px" zoomAndPan="magnify"><defs><filter height="300%" id="fj8ztjrfkytl5" width="300%" x="-1" y="-1"><feGaussianBlur result="blurOut" stdDeviation="1.8"/><feColorMatrix in="blurOut" result="blurOut2" type="matrix" values="0 0 0 0 0 0 0 0 0 0 0 0 0 0 0 0 0 0 .4 0"/><feOffset dx="3.6" dy="3.6" in="blurOut2" result="blurOut3"/><feBlend in="SourceGraphic" in2="blurOut3" mode="normal"/></filter></defs><g><!--MD5=[3fd616f346a44cd59a91eb10b19e157c]
class User--><rect codeLine="7" fill="#FEFECE" filter="url(#fj8ztjrfkytl5)" height="85.8094" id="User" style="stroke: #A80036; stroke-width: 1.35;" width="87.3" x="195.3" y="6.3"/><ellipse cx="224.19" cy="20.7" fill="#ADD1B2" rx="9.9" ry="9.9" style="stroke: #A80036; stroke-width: 0.9;"/><path d="M225.99,17.55 Q226.1728,17.1 226.3838,16.875 Q226.5947,16.65 226.8338,16.65 Q227.2556,16.65 227.5228,16.9031 Q227.79,17.1563 227.79,17.7469 L227.79,19.1531 Q227.79,19.7438 227.5369,19.9969 Q227.2838,20.25 226.89,20.25 Q226.5384,20.25 226.3134,20.0953 Q226.0884,19.9406 225.99,19.5328 Q225.9478,19.2516 225.7931,19.0969 Q225.5119,18.8016 225.0056,18.6328 Q224.4994,18.45 223.9931,18.45 Q223.3603,18.45 222.8259,18.7031 Q222.3056,18.9563 221.8978,19.5188 Q221.49,20.0813 221.49,20.8547 L221.49,21.6844 Q221.49,22.6125 222.2494,23.2313 Q223.0088,23.85 224.3588,23.85 Q225.1603,23.85 225.7228,23.6672 Q226.0463,23.5688 226.4119,23.2453 Q226.6509,23.0625 226.7775,23.0063 Q226.9041,22.95 227.0588,22.95 Q227.3541,22.95 227.565,23.1891 Q227.79,23.4141 227.79,23.7375 Q227.79,24.0469 227.4806,24.4125 Q227.0306,24.9469 226.3134,25.2422 Q225.3713,25.65 224.2181,25.65 Q222.8681,25.65 221.7853,25.1156 Q220.9134,24.6938 220.2947,23.7797 Q219.69,22.8656 219.69,21.7828 L219.69,20.7984 Q219.69,19.6734 220.2244,18.6891 Q220.7728,17.7047 221.715,17.1844 Q222.6713,16.65 223.74,16.65 Q224.3869,16.65 224.9494,16.875 Q225.5119,17.1 225.99,17.55 Z " fill="#000000"/><text fill="#000000" font-family="sans-serif" font-size="10.8" lengthAdjust="spacingAndGlyphs" textLength="24.3" x="240.21" y="25.1191">User</text><line style="stroke: #A80036; stroke-width: 1.35;" x1="196.2" x2="281.7" y1="35.1" y2="35.1"/><text fill="#000000" font-family="sans-serif" font-size="9.9" lengthAdjust="spacingAndGlyphs" textLength="54.9" x="200.7" y="48.9771">-String name</text><text fill="#000000" font-family="sans-serif" font-size="9.9" lengthAdjust="spacingAndGlyphs" textLength="53.1" x="200.7" y="61.4294">-String email</text><text fill="#000000" font-family="sans-serif" font-size="9.9" lengthAdjust="spacingAndGlyphs" textLength="76.5" x="200.7" y="73.8817">-String password</text><text fill="#000000" font-family="sans-serif" font-size="9.9" lengthAdjust="spacingAndGlyphs" textLength="49.5" x="200.7" y="86.3341">-Integer NIF</text><!--MD5=[ed6624c6556d5e7b1bd23032162d20b7]
class Client--><rect codeLine="16" fill="#FEFECE" filter="url(#fj8ztjrfkytl5)" height="48.4523" id="Client" style="stroke: #A80036; stroke-width: 1.35;" width="76.5" x="6.3" y="143.55"/><ellipse cx="28.305" cy="157.95" fill="#ADD1B2" rx="9.9" ry="9.9" style="stroke: #A80036; stroke-width: 0.9;"/><path d="M30.105,154.8 Q30.2878,154.35 30.4988,154.125 Q30.7097,153.9 30.9488,153.9 Q31.3706,153.9 31.6378,154.1531 Q31.905,154.4063 31.905,154.9969 L31.905,156.4031 Q31.905,156.9938 31.6519,157.2469 Q31.3988,157.5 31.005,157.5 Q30.6534,157.5 30.4284,157.3453 Q30.2034,157.1906 30.105,156.7828 Q30.0628,156.5016 29.9081,156.3469 Q29.6269,156.0516 29.1206,155.8828 Q28.6144,155.7 28.1081,155.7 Q27.4753,155.7 26.9409,155.9531 Q26.4206,156.2063 26.0128,156.7688 Q25.605,157.3313 25.605,158.1047 L25.605,158.9344 Q25.605,159.8625 26.3644,160.4813 Q27.1238,161.1 28.4738,161.1 Q29.2753,161.1 29.8378,160.9172 Q30.1613,160.8188 30.5269,160.4953 Q30.7659,160.3125 30.8925,160.2563 Q31.0191,160.2 31.1738,160.2 Q31.4691,160.2 31.68,160.4391 Q31.905,160.6641 31.905,160.9875 Q31.905,161.2969 31.5956,161.6625 Q31.1456,162.1969 30.4284,162.4922 Q29.4863,162.9 28.3331,162.9 Q26.9831,162.9 25.9003,162.3656 Q25.0284,161.9438 24.4097,161.0297 Q23.805,160.1156 23.805,159.0328 L23.805,158.0484 Q23.805,156.9234 24.3394,155.9391 Q24.8878,154.9547 25.83,154.4344 Q26.7863,153.9 27.855,153.9 Q28.5019,153.9 29.0644,154.125 Q29.6269,154.35 30.105,154.8 Z " fill="#000000"/><text fill="#000000" font-family="sans-serif" font-size="10.8" lengthAdjust="spacingAndGlyphs" textLength="28.8" x="42.795" y="162.3691">Client</text><line style="stroke: #A80036; stroke-width: 1.35;" x1="7.2" x2="81.9" y1="172.35" y2="172.35"/><text fill="#000000" font-family="sans-serif" font-size="9.9" lengthAdjust="spacingAndGlyphs" textLength="65.7" x="11.7" y="186.2271">-Integer credits</text><!--MD5=[0f39e4cb6f03951afbf6d14bd2505654]
class Address--><rect codeLine="20" fill="#FEFECE" filter="url(#fj8ztjrfkytl5)" height="85.8094" id="Address" style="stroke: #A80036; stroke-width: 1.35;" width="136.8" x="560.7" y="97.2"/><ellipse cx="604.575" cy="111.6" fill="#ADD1B2" rx="9.9" ry="9.9" style="stroke: #A80036; stroke-width: 0.9;"/><path d="M606.375,108.45 Q606.5578,108 606.7688,107.775 Q606.9797,107.55 607.2188,107.55 Q607.6406,107.55 607.9078,107.8031 Q608.175,108.0563 608.175,108.6469 L608.175,110.0531 Q608.175,110.6438 607.9219,110.8969 Q607.6688,111.15 607.275,111.15 Q606.9234,111.15 606.6984,110.9953 Q606.4734,110.8406 606.375,110.4328 Q606.3328,110.1516 606.1781,109.9969 Q605.8969,109.7016 605.3906,109.5328 Q604.8844,109.35 604.3781,109.35 Q603.7453,109.35 603.2109,109.6031 Q602.6906,109.8563 602.2828,110.4188 Q601.875,110.9813 601.875,111.7547 L601.875,112.5844 Q601.875,113.5125 602.6344,114.1313 Q603.3938,114.75 604.7438,114.75 Q605.5453,114.75 606.1078,114.5672 Q606.4313,114.4688 606.7969,114.1453 Q607.0359,113.9625 607.1625,113.9063 Q607.2891,113.85 607.4438,113.85 Q607.7391,113.85 607.95,114.0891 Q608.175,114.3141 608.175,114.6375 Q608.175,114.9469 607.8656,115.3125 Q607.4156,115.8469 606.6984,116.1422 Q605.7563,116.55 604.6031,116.55 Q603.2531,116.55 602.1703,116.0156 Q601.2984,115.5938 600.6797,114.6797 Q600.075,113.7656 600.075,112.6828 L600.075,111.6984 Q600.075,110.5734 600.6094,109.5891 Q601.1578,108.6047 602.1,108.0844 Q603.0563,107.55 604.125,107.55 Q604.7719,107.55 605.3344,107.775 Q605.8969,108 606.375,108.45 Z " fill="#000000"/><text fill="#000000" font-family="sans-serif" font-size="10.8" lengthAdjust="spacingAndGlyphs" textLength="41.4" x="623.025" y="116.0191">Address</text><line style="stroke: #A80036; stroke-width: 1.35;" x1="561.6" x2="696.6" y1="126" y2="126"/><text fill="#000000" font-family="sans-serif" font-size="9.9" lengthAdjust="spacingAndGlyphs" textLength="57.6" x="566.1" y="139.8771">-String Street</text><text fill="#000000" font-family="sans-serif" font-size="9.9" lengthAdjust="spacingAndGlyphs" textLength="80.1" x="566.1" y="152.3294">-String PostalCode</text><text fill="#000000" font-family="sans-serif" font-size="9.9" lengthAdjust="spacingAndGlyphs" textLength="126" x="566.1" y="164.7817">-String GeographicalLocation</text><text fill="#000000" font-family="sans-serif" font-size="9.9" lengthAdjust="spacingAndGlyphs" textLength="89.1" x="566.1" y="177.2341">-Integer doorNumber</text><!--MD5=[fff5db4abcb6eec6574b9ea9c3ee0eae]
class Delivery--><rect codeLine="32" fill="#FEFECE" filter="url(#fj8ztjrfkytl5)" height="48.4523" id="Delivery" style="stroke: #A80036; stroke-width: 1.35;" width="67.5" x="205.2" y="187.65"/><ellipse cx="218.7" cy="202.05" fill="#ADD1B2" rx="9.9" ry="9.9" style="stroke: #A80036; stroke-width: 0.9;"/><path d="M220.5,198.9 Q220.6828,198.45 220.8938,198.225 Q221.1047,198 221.3438,198 Q221.7656,198 222.0328,198.2531 Q222.3,198.5063 222.3,199.0969 L222.3,200.5031 Q222.3,201.0938 222.0469,201.3469 Q221.7938,201.6 221.4,201.6 Q221.0484,201.6 220.8234,201.4453 Q220.5984,201.2906 220.5,200.8828 Q220.4578,200.6016 220.3031,200.4469 Q220.0219,200.1516 219.5156,199.9828 Q219.0094,199.8 218.5031,199.8 Q217.8703,199.8 217.3359,200.0531 Q216.8156,200.3063 216.4078,200.8688 Q216,201.4313 216,202.2047 L216,203.0344 Q216,203.9625 216.7594,204.5813 Q217.5188,205.2 218.8688,205.2 Q219.6703,205.2 220.2328,205.0172 Q220.5563,204.9188 220.9219,204.5953 Q221.1609,204.4125 221.2875,204.3563 Q221.4141,204.3 221.5688,204.3 Q221.8641,204.3 222.075,204.5391 Q222.3,204.7641 222.3,205.0875 Q222.3,205.3969 221.9906,205.7625 Q221.5406,206.2969 220.8234,206.5922 Q219.8813,207 218.7281,207 Q217.3781,207 216.2953,206.4656 Q215.4234,206.0438 214.8047,205.1297 Q214.2,204.2156 214.2,203.1328 L214.2,202.1484 Q214.2,201.0234 214.7344,200.0391 Q215.2828,199.0547 216.225,198.5344 Q217.1813,198 218.25,198 Q218.8969,198 219.4594,198.225 Q220.0219,198.45 220.5,198.9 Z " fill="#000000"/><text fill="#000000" font-family="sans-serif" font-size="10.8" lengthAdjust="spacingAndGlyphs" textLength="38.7" x="231.3" y="206.4691">Delivery</text><line style="stroke: #A80036; stroke-width: 1.35;" x1="206.1" x2="271.8" y1="216.45" y2="216.45"/><text fill="#000000" font-family="sans-serif" font-size="9.9" lengthAdjust="spacingAndGlyphs" textLength="43.2" x="210.6" y="230.3271">-Integer id</text><!--MD5=[cf4d6237fcae255cd2e1656cf84a30e2]
class Order--><rect codeLine="36" fill="#FEFECE" filter="url(#fj8ztjrfkytl5)" height="85.8094" id="Order" style="stroke: #A80036; stroke-width: 1.35;" width="85.5" x="388.8" y="215.1"/><ellipse cx="415.26" cy="229.5" fill="#ADD1B2" rx="9.9" ry="9.9" style="stroke: #A80036; stroke-width: 0.9;"/><path d="M417.06,226.35 Q417.2428,225.9 417.4538,225.675 Q417.6647,225.45 417.9038,225.45 Q418.3256,225.45 418.5928,225.7031 Q418.86,225.9563 418.86,226.5469 L418.86,227.9531 Q418.86,228.5438 418.6069,228.7969 Q418.3538,229.05 417.96,229.05 Q417.6084,229.05 417.3834,228.8953 Q417.1584,228.7406 417.06,228.3328 Q417.0178,228.0516 416.8631,227.8969 Q416.5819,227.6016 416.0756,227.4328 Q415.5694,227.25 415.0631,227.25 Q414.4303,227.25 413.8959,227.5031 Q413.3756,227.7563 412.9678,228.3188 Q412.56,228.8813 412.56,229.6547 L412.56,230.4844 Q412.56,231.4125 413.3194,232.0313 Q414.0788,232.65 415.4288,232.65 Q416.2303,232.65 416.7928,232.4672 Q417.1163,232.3688 417.4819,232.0453 Q417.7209,231.8625 417.8475,231.8063 Q417.9741,231.75 418.1287,231.75 Q418.4241,231.75 418.635,231.9891 Q418.86,232.2141 418.86,232.5375 Q418.86,232.8469 418.5506,233.2125 Q418.1006,233.7469 417.3834,234.0422 Q416.4412,234.45 415.2881,234.45 Q413.9381,234.45 412.8553,233.9156 Q411.9834,233.4938 411.3647,232.5797 Q410.76,231.6656 410.76,230.5828 L410.76,229.5984 Q410.76,228.4734 411.2944,227.4891 Q411.8428,226.5047 412.785,225.9844 Q413.7413,225.45 414.81,225.45 Q415.4569,225.45 416.0194,225.675 Q416.5819,225.9 417.06,226.35 Z " fill="#000000"/><text fill="#000000" font-family="sans-serif" font-size="10.8" lengthAdjust="spacingAndGlyphs" textLength="27.9" x="430.74" y="233.9191">Order</text><line style="stroke: #A80036; stroke-width: 1.35;" x1="389.7" x2="473.4" y1="243.9" y2="243.9"/><text fill="#000000" font-family="sans-serif" font-size="9.9" lengthAdjust="spacingAndGlyphs" textLength="43.2" x="394.2" y="257.7771">-Integer id</text><text fill="#000000" font-family="sans-serif" font-size="9.9" lengthAdjust="spacingAndGlyphs" textLength="69.3" x="394.2" y="270.2294">-Date orderDate</text><text fill="#000000" font-family="sans-serif" font-size="9.9" lengthAdjust="spacingAndGlyphs" textLength="74.7" x="394.2" y="282.6817">-Date deliverDate</text><text fill="#000000" font-family="sans-serif" font-size="9.9" lengthAdjust="spacingAndGlyphs" textLength="49.5" x="394.2" y="295.1341">-Integer NIF</text><!--MD5=[b0808aa00a5c1d2430824b5104b080bc]
class OrderState--><rect fill="#FEFECE" filter="url(#fj8ztjrfkytl5)" height="36" id="OrderState" style="stroke: #A80036; stroke-width: 1.35;" width="81.9" x="588.15" y="239.85"/><ellipse cx="601.65" cy="254.25" fill="#ADD1B2" rx="9.9" ry="9.9" style="stroke: #A80036; stroke-width: 0.9;"/><path d="M603.45,251.1 Q603.6328,250.65 603.8438,250.425 Q604.0547,250.2 604.2938,250.2 Q604.7156,250.2 604.9828,250.4531 Q605.25,250.7063 605.25,251.2969 L605.25,252.7031 Q605.25,253.2938 604.9969,253.5469 Q604.7438,253.8 604.35,253.8 Q603.9984,253.8 603.7734,253.6453 Q603.5484,253.4906 603.45,253.0828 Q603.4078,252.8016 603.2531,252.6469 Q602.9719,252.3516 602.4656,252.1828 Q601.9594,252 601.4531,252 Q600.8203,252 600.2859,252.2531 Q599.7656,252.5063 599.3578,253.0688 Q598.95,253.6313 598.95,254.4047 L598.95,255.2344 Q598.95,256.1625 599.7094,256.7813 Q600.4688,257.4 601.8188,257.4 Q602.6203,257.4 603.1828,257.2172 Q603.5063,257.1188 603.8719,256.7953 Q604.1109,256.6125 604.2375,256.5563 Q604.3641,256.5 604.5188,256.5 Q604.8141,256.5 605.025,256.7391 Q605.25,256.9641 605.25,257.2875 Q605.25,257.5969 604.9406,257.9625 Q604.4906,258.4969 603.7734,258.7922 Q602.8313,259.2 601.6781,259.2 Q600.3281,259.2 599.2453,258.6656 Q598.3734,258.2438 597.7547,257.3297 Q597.15,256.4156 597.15,255.3328 L597.15,254.3484 Q597.15,253.2234 597.6844,252.2391 Q598.2328,251.2547 599.175,250.7344 Q600.1313,250.2 601.2,250.2 Q601.8469,250.2 602.4094,250.425 Q602.9719,250.65 603.45,251.1 Z " fill="#000000"/><text fill="#000000" font-family="sans-serif" font-size="10.8" lengthAdjust="spacingAndGlyphs" textLength="53.1" x="614.25" y="258.6691">OrderState</text><line style="stroke: #A80036; stroke-width: 1.35;" x1="589.05" x2="669.15" y1="268.65" y2="268.65"/><!--MD5=[9a8dc34b38f85b9f3fcdb440f4bffc6a]
link Client to User--><path codeLine="58" d="M73.7301,143.4069 C84.6573,134.4762 97.4808,124.5996 109.8,116.55 C137.0772,98.7273 169.5762,81.6633 195.0336,69.1515 " fill="none" id="Client-User" style="stroke: #A80036; stroke-width: 0.9;"/><polygon fill="#000000" points="118.588,72.9588,110.264,74.953,113.0259,79.4648,118.588,72.9588" style="stroke: #000000; stroke-width: 0.9;"/><text fill="#000000" font-family="sans-serif" font-size="11.7" lengthAdjust="spacingAndGlyphs" textLength="44.1" x="122.85" y="80.0956">acts like</text><text fill="#000000" font-family="sans-serif" font-size="11.7" lengthAdjust="spacingAndGlyphs" textLength="6.3" x="73.4495" y="133.8887">1</text><text fill="#000000" font-family="sans-serif" font-size="11.7" lengthAdjust="spacingAndGlyphs" textLength="6.3" x="181.8207" y="85.3075">1</text><!--MD5=[bd708f2371c655af07b49ddbdb30848a]
link Client to Address--><path codeLine="59" d="M82.8227,162.5868 C91.6532,161.4987 101.0466,160.4664 109.8,159.75 C271.1529,146.5389 461.4957,142.1181 560.5695,140.6574 " fill="none" id="Client-Address" style="stroke: #A80036; stroke-width: 0.9;"/><polygon fill="#000000" points="328.4953,137.2019,320.242,134.9329,320.4845,140.2174,328.4953,137.2019" style="stroke: #000000; stroke-width: 0.9;"/><text fill="#000000" font-family="sans-serif" font-size="11.7" lengthAdjust="spacingAndGlyphs" textLength="18.9" x="332.1" y="142.1956">has</text><text fill="#000000" font-family="sans-serif" font-size="11.7" lengthAdjust="spacingAndGlyphs" textLength="6.3" x="89.9422" y="175.1052">1</text><text fill="#000000" font-family="sans-serif" font-size="11.7" lengthAdjust="spacingAndGlyphs" textLength="6.3" x="547.2135" y="153.5817">1</text><!--MD5=[708fc3f4650a2ae1237917fe048fe522]
link Client to Delivery--><path codeLine="60" d="M82.8136,176.4054 C118.2573,184.5207 171.0072,196.5987 204.9669,204.3747 " fill="none" id="Client-Delivery" style="stroke: #A80036; stroke-width: 0.9;"/><polygon fill="#000000" points="118.6865,176.2126,111.3416,171.8173,110.1609,176.974,118.6865,176.2126" style="stroke: #000000; stroke-width: 0.9;"/><text fill="#000000" font-family="sans-serif" font-size="11.7" lengthAdjust="spacingAndGlyphs" textLength="45" x="122.4" y="179.9956">requests</text><text fill="#000000" font-family="sans-serif" font-size="11.7" lengthAdjust="spacingAndGlyphs" textLength="6.3" x="89.9316" y="191.2988">1</text><text fill="#000000" font-family="sans-serif" font-size="11.7" lengthAdjust="spacingAndGlyphs" textLength="4.5" x="193.56" y="216.493">*</text><!--MD5=[879bec428a80d843af24dc47845bf14c]
link Client to Order--><path codeLine="61" d="M71.0562,192.1896 C99.0324,216.9506 146.4174,253.7387 195.3,268.65 C260.6346,288.5798 340.8822,277.9115 388.782,268.0848 " fill="none" id="Client-Order" style="stroke: #A80036; stroke-width: 0.9;"/><polygon fill="#000000" points="227.1269,261.7537,219.8236,257.2897,218.5945,262.435,227.1269,261.7537" style="stroke: #000000; stroke-width: 0.9;"/><text fill="#000000" font-family="sans-serif" font-size="11.7" lengthAdjust="spacingAndGlyphs" textLength="27.9" x="230.85" y="265.4956">place</text><text fill="#000000" font-family="sans-serif" font-size="11.7" lengthAdjust="spacingAndGlyphs" textLength="6.3" x="69.8653" y="211.2852">1</text><text fill="#000000" font-family="sans-serif" font-size="11.7" lengthAdjust="spacingAndGlyphs" textLength="4.5" x="377.1073" y="283.0096">*</text><!--MD5=[5d462235496920812faf21348f4080ac]
link Delivery to Order--><path codeLine="67" d="M273.0852,219.9452 C305.1153,227.6506 353.7054,239.3399 388.4535,247.6989 " fill="none" id="Delivery-Order" style="stroke: #A80036; stroke-width: 0.9;"/><polygon fill="#000000" points="318.4752,222.1607,311.1791,217.685,309.9417,222.8284,318.4752,222.1607" style="stroke: #000000; stroke-width: 0.9;"/><text fill="#000000" font-family="sans-serif" font-size="11.7" lengthAdjust="spacingAndGlyphs" textLength="38.7" x="322.2" y="225.8956">delivers</text><text fill="#000000" font-family="sans-serif" font-size="11.7" lengthAdjust="spacingAndGlyphs" textLength="6.3" x="279.9597" y="234.9351">1</text><text fill="#000000" font-family="sans-serif" font-size="11.7" lengthAdjust="spacingAndGlyphs" textLength="18" x="363.453" y="259.4484">1..*</text><!--MD5=[ab4946417b991c9aec273b5527d3eb58]
link Order to OrderState--><path codeLine="72" d="M474.4431,257.85 C508.0329,257.85 554.8275,257.85 587.9493,257.85 " fill="none" id="Order-OrderState" style="stroke: #A80036; stroke-width: 0.9;"/><polygon fill="#000000" points="510.3,249.9082,502.1594,247.2632,502.1594,252.5532,510.3,249.9082" style="stroke: #000000; stroke-width: 0.9;"/><text fill="#000000" font-family="sans-serif" font-size="11.7" lengthAdjust="spacingAndGlyphs" textLength="18.9" x="513.9" y="254.6956">has</text><text fill="#000000" font-family="sans-serif" font-size="11.7" lengthAdjust="spacingAndGlyphs" textLength="6.3" x="481.4934" y="271.0986">1</text><text fill="#000000" font-family="sans-serif" font-size="11.7" lengthAdjust="spacingAndGlyphs" textLength="6.3" x="574.5889" y="271.1683">1</text><!--MD5=[27b0a7ebc45518a737196769de8268a6]
@startuml
skinparam classAttributeIconSize 0
hide methods
left to right direction



class User {
    -String name
    -String email
    -String password
    -Integer NIF

}


class Client {
    -Integer credits
}

class Address {
    -String Street
    -String PostalCode
    -String GeographicalLocation
    -Integer doorNumber

}





class Delivery {
    -Integer id
}

class Order {
    -Integer id
    -Date orderDate
    -Date deliverDate
    -Integer NIF

}



/'- - - - - - - - - - - - - - - - - - - - - - - - - - - - - - - - - - - - - - - - - - - - - - - - - - - - - - - - - - - - - - - - - - - - - - - - - - - - - - - - - - - - '/











Client "1" - - "1" User: acts like >
Client "1" - - - - "1" Address: has >
Client "1" - - "*" Delivery: requests >
Client "1" - - "*" Order: place >





Delivery "1" - - "1..*" Order: delivers >




Order "1" - - "1" OrderState: has >




@enduml

@startuml
skinparam classAttributeIconSize 0
hide methods
left to right direction



class User {
    -String name
    -String email
    -String password
    -Integer NIF

}


class Client {
    -Integer credits
}

class Address {
    -String Street
    -String PostalCode
    -String GeographicalLocation
    -Integer doorNumber

}





class Delivery {
    -Integer id
}

class Order {
    -Integer id
    -Date orderDate
    -Date deliverDate
    -Integer NIF

}














Client "1" - - "1" User: acts like >
Client "1" - - - - "1" Address: has >
Client "1" - - "*" Delivery: requests >
Client "1" - - "*" Order: place >





Delivery "1" - - "1..*" Order: delivers >




Order "1" - - "1" OrderState: has >




@enduml

PlantUML version 1.2020.20(Sat Nov 21 10:02:45 GMT 2020)
(GPL source distribution)
Java Runtime: OpenJDK Runtime Environment
JVM: OpenJDK 64-Bit Server VM
Default Encoding: Cp1252
Language: pt
Country: PT
--></g></svg>