<?xml version="1.0" encoding="UTF-8" standalone="no"?><svg xmlns="http://www.w3.org/2000/svg" xmlns:xlink="http://www.w3.org/1999/xlink" contentScriptType="application/ecmascript" contentStyleType="text/css" height="218px" preserveAspectRatio="none" style="width:696px;height:218px;" version="1.1" viewBox="0 0 696 218" width="696px" zoomAndPan="magnify"><defs><filter height="300%" id="fwhcj7pldpaai" width="300%" x="-1" y="-1"><feGaussianBlur result="blurOut" stdDeviation="2.0"/><feColorMatrix in="blurOut" result="blurOut2" type="matrix" values="0 0 0 0 0 0 0 0 0 0 0 0 0 0 0 0 0 0 .4 0"/><feOffset dx="4.0" dy="4.0" in="blurOut2" result="blurOut3"/><feBlend in="SourceGraphic" in2="blurOut3" mode="normal"/></filter></defs><g><!--MD5=[74054751ba3b9eca75fda5044dcc84d9]
class TimerTask--><rect codeLine="2" fill="#FEFECE" filter="url(#fwhcj7pldpaai)" height="61.8359" id="TimerTask" style="stroke: #A80036; stroke-width: 1.5;" width="91" x="496" y="7"/><ellipse cx="511" cy="23" fill="#ADD1B2" rx="11" ry="11" style="stroke: #A80036; stroke-width: 1.0;"/><path d="M513,19.5 Q513.2031,19 513.4375,18.75 Q513.6719,18.5 513.9375,18.5 Q514.4063,18.5 514.7031,18.7813 Q515,19.0625 515,19.7188 L515,21.2813 Q515,21.9375 514.7188,22.2188 Q514.4375,22.5 514,22.5 Q513.6094,22.5 513.3594,22.3281 Q513.1094,22.1563 513,21.7031 Q512.9531,21.3906 512.7813,21.2188 Q512.4688,20.8906 511.9063,20.7031 Q511.3438,20.5 510.7813,20.5 Q510.0781,20.5 509.4844,20.7813 Q508.9063,21.0625 508.4531,21.6875 Q508,22.3125 508,23.1719 L508,24.0938 Q508,25.125 508.8438,25.8125 Q509.6875,26.5 511.1875,26.5 Q512.0781,26.5 512.7031,26.2969 Q513.0625,26.1875 513.4688,25.8281 Q513.7344,25.625 513.875,25.5625 Q514.0156,25.5 514.1875,25.5 Q514.5156,25.5 514.75,25.7656 Q515,26.0156 515,26.375 Q515,26.7188 514.6563,27.125 Q514.1563,27.7188 513.3594,28.0469 Q512.3125,28.5 511.0313,28.5 Q509.5313,28.5 508.3281,27.9063 Q507.3594,27.4375 506.6719,26.4219 Q506,25.4063 506,24.2031 L506,23.1094 Q506,21.8594 506.5938,20.7656 Q507.2031,19.6719 508.25,19.0938 Q509.3125,18.5 510.5,18.5 Q511.2188,18.5 511.8438,18.75 Q512.4688,19 513,19.5 Z " fill="#000000"/><text fill="#000000" font-family="sans-serif" font-size="12" lengthAdjust="spacingAndGlyphs" textLength="59" x="525" y="27.9102">TimerTask</text><line style="stroke: #A80036; stroke-width: 1.5;" x1="497" x2="586" y1="39" y2="39"/><line style="stroke: #A80036; stroke-width: 1.5;" x1="497" x2="586" y1="47" y2="47"/><ellipse cx="507" cy="58" fill="#84BE84" rx="3" ry="3" style="stroke: #038048; stroke-width: 1.0;"/><text fill="#000000" font-family="sans-serif" font-size="11" lengthAdjust="spacingAndGlyphs" textLength="24" x="516" y="62.4189">run()</text><!--MD5=[3aea188f90447b665181ca998025f959]
class ScooterDeliveryPlanningTask--><rect codeLine="8" fill="#FEFECE" filter="url(#fwhcj7pldpaai)" height="61.8359" id="ScooterDeliveryPlanningTask" style="stroke: #A80036; stroke-width: 1.5;" width="193" x="268" y="7"/><ellipse cx="283" cy="23" fill="#ADD1B2" rx="11" ry="11" style="stroke: #A80036; stroke-width: 1.0;"/><path d="M285,19.5 Q285.2031,19 285.4375,18.75 Q285.6719,18.5 285.9375,18.5 Q286.4063,18.5 286.7031,18.7813 Q287,19.0625 287,19.7188 L287,21.2813 Q287,21.9375 286.7188,22.2188 Q286.4375,22.5 286,22.5 Q285.6094,22.5 285.3594,22.3281 Q285.1094,22.1563 285,21.7031 Q284.9531,21.3906 284.7813,21.2188 Q284.4688,20.8906 283.9063,20.7031 Q283.3438,20.5 282.7813,20.5 Q282.0781,20.5 281.4844,20.7813 Q280.9063,21.0625 280.4531,21.6875 Q280,22.3125 280,23.1719 L280,24.0938 Q280,25.125 280.8438,25.8125 Q281.6875,26.5 283.1875,26.5 Q284.0781,26.5 284.7031,26.2969 Q285.0625,26.1875 285.4688,25.8281 Q285.7344,25.625 285.875,25.5625 Q286.0156,25.5 286.1875,25.5 Q286.5156,25.5 286.75,25.7656 Q287,26.0156 287,26.375 Q287,26.7188 286.6563,27.125 Q286.1563,27.7188 285.3594,28.0469 Q284.3125,28.5 283.0313,28.5 Q281.5313,28.5 280.3281,27.9063 Q279.3594,27.4375 278.6719,26.4219 Q278,25.4063 278,24.2031 L278,23.1094 Q278,21.8594 278.5938,20.7656 Q279.2031,19.6719 280.25,19.0938 Q281.3125,18.5 282.5,18.5 Q283.2188,18.5 283.8438,18.75 Q284.4688,19 285,19.5 Z " fill="#000000"/><text fill="#000000" font-family="sans-serif" font-size="12" lengthAdjust="spacingAndGlyphs" textLength="161" x="297" y="27.9102">ScooterDeliveryPlanningTask</text><line style="stroke: #A80036; stroke-width: 1.5;" x1="269" x2="460" y1="39" y2="39"/><line style="stroke: #A80036; stroke-width: 1.5;" x1="269" x2="460" y1="47" y2="47"/><ellipse cx="279" cy="58" fill="#84BE84" rx="3" ry="3" style="stroke: #038048; stroke-width: 1.0;"/><text fill="#000000" font-family="sans-serif" font-size="11" lengthAdjust="spacingAndGlyphs" textLength="24" x="288" y="62.4189">run()</text><!--MD5=[ea7b8c668fef3cf93191d7c76aeabc5e]
class OrdersQueue--><rect codeLine="12" fill="#FEFECE" filter="url(#fwhcj7pldpaai)" height="75.6719" id="OrdersQueue" style="stroke: #A80036; stroke-width: 1.5;" width="219" x="7" y="129"/><ellipse cx="74.75" cy="145" fill="#ADD1B2" rx="11" ry="11" style="stroke: #A80036; stroke-width: 1.0;"/><path d="M76.75,141.5 Q76.9531,141 77.1875,140.75 Q77.4219,140.5 77.6875,140.5 Q78.1563,140.5 78.4531,140.7813 Q78.75,141.0625 78.75,141.7188 L78.75,143.2813 Q78.75,143.9375 78.4688,144.2188 Q78.1875,144.5 77.75,144.5 Q77.3594,144.5 77.1094,144.3281 Q76.8594,144.1563 76.75,143.7031 Q76.7031,143.3906 76.5313,143.2188 Q76.2188,142.8906 75.6563,142.7031 Q75.0938,142.5 74.5313,142.5 Q73.8281,142.5 73.2344,142.7813 Q72.6563,143.0625 72.2031,143.6875 Q71.75,144.3125 71.75,145.1719 L71.75,146.0938 Q71.75,147.125 72.5938,147.8125 Q73.4375,148.5 74.9375,148.5 Q75.8281,148.5 76.4531,148.2969 Q76.8125,148.1875 77.2188,147.8281 Q77.4844,147.625 77.625,147.5625 Q77.7656,147.5 77.9375,147.5 Q78.2656,147.5 78.5,147.7656 Q78.75,148.0156 78.75,148.375 Q78.75,148.7188 78.4063,149.125 Q77.9063,149.7188 77.1094,150.0469 Q76.0625,150.5 74.7813,150.5 Q73.2813,150.5 72.0781,149.9063 Q71.1094,149.4375 70.4219,148.4219 Q69.75,147.4063 69.75,146.2031 L69.75,145.1094 Q69.75,143.8594 70.3438,142.7656 Q70.9531,141.6719 72,141.0938 Q73.0625,140.5 74.25,140.5 Q74.9688,140.5 75.5938,140.75 Q76.2188,141 76.75,141.5 Z " fill="#000000"/><text fill="#000000" font-family="sans-serif" font-size="12" lengthAdjust="spacingAndGlyphs" textLength="75" x="95.25" y="149.9102">OrdersQueue</text><line style="stroke: #A80036; stroke-width: 1.5;" x1="8" x2="225" y1="161" y2="161"/><line style="stroke: #A80036; stroke-width: 1.5;" x1="8" x2="225" y1="169" y2="169"/><ellipse cx="18" cy="180" fill="#84BE84" rx="3" ry="3" style="stroke: #038048; stroke-width: 1.0;"/><text fill="#000000" font-family="sans-serif" font-size="11" lengthAdjust="spacingAndGlyphs" textLength="193" x="27" y="184.4189">Map&lt;Integer, List&lt;Integer&gt;&gt; getOrders()</text><ellipse cx="18" cy="193.8359" fill="#84BE84" rx="3" ry="3" style="stroke: #038048; stroke-width: 1.0;"/><text fill="#000000" font-family="sans-serif" font-size="11" lengthAdjust="spacingAndGlyphs" textLength="64" x="27" y="198.2549">clearQueue()</text><!--MD5=[30aa2e6d262eb55099bf3223aa7d8540]
class PlanningDB--><rect codeLine="17" fill="#FEFECE" filter="url(#fwhcj7pldpaai)" height="61.8359" id="PlanningDB" style="stroke: #A80036; stroke-width: 1.5;" width="206" x="261.5" y="136"/><ellipse cx="327.25" cy="152" fill="#ADD1B2" rx="11" ry="11" style="stroke: #A80036; stroke-width: 1.0;"/><path d="M329.25,148.5 Q329.4531,148 329.6875,147.75 Q329.9219,147.5 330.1875,147.5 Q330.6563,147.5 330.9531,147.7813 Q331.25,148.0625 331.25,148.7188 L331.25,150.2813 Q331.25,150.9375 330.9688,151.2188 Q330.6875,151.5 330.25,151.5 Q329.8594,151.5 329.6094,151.3281 Q329.3594,151.1563 329.25,150.7031 Q329.2031,150.3906 329.0313,150.2188 Q328.7188,149.8906 328.1563,149.7031 Q327.5938,149.5 327.0313,149.5 Q326.3281,149.5 325.7344,149.7813 Q325.1563,150.0625 324.7031,150.6875 Q324.25,151.3125 324.25,152.1719 L324.25,153.0938 Q324.25,154.125 325.0938,154.8125 Q325.9375,155.5 327.4375,155.5 Q328.3281,155.5 328.9531,155.2969 Q329.3125,155.1875 329.7188,154.8281 Q329.9844,154.625 330.125,154.5625 Q330.2656,154.5 330.4375,154.5 Q330.7656,154.5 331,154.7656 Q331.25,155.0156 331.25,155.375 Q331.25,155.7188 330.9063,156.125 Q330.4063,156.7188 329.6094,157.0469 Q328.5625,157.5 327.2813,157.5 Q325.7813,157.5 324.5781,156.9063 Q323.6094,156.4375 322.9219,155.4219 Q322.25,154.4063 322.25,153.2031 L322.25,152.1094 Q322.25,150.8594 322.8438,149.7656 Q323.4531,148.6719 324.5,148.0938 Q325.5625,147.5 326.75,147.5 Q327.4688,147.5 328.0938,147.75 Q328.7188,148 329.25,148.5 Z " fill="#000000"/><text fill="#000000" font-family="sans-serif" font-size="12" lengthAdjust="spacingAndGlyphs" textLength="66" x="347.75" y="156.9102">PlanningDB</text><line style="stroke: #A80036; stroke-width: 1.5;" x1="262.5" x2="466.5" y1="168" y2="168"/><line style="stroke: #A80036; stroke-width: 1.5;" x1="262.5" x2="466.5" y1="176" y2="176"/><ellipse cx="272.5" cy="187" fill="#84BE84" rx="3" ry="3" style="stroke: #038048; stroke-width: 1.0;"/><text fill="#000000" font-family="sans-serif" font-size="11" lengthAdjust="spacingAndGlyphs" textLength="180" x="281.5" y="191.4189">String getClientEmailByOrder(orderID)</text><!--MD5=[521cc6c47fce74bf7ca28013b98c2589]
class EmailHandler--><rect codeLine="21" fill="#FEFECE" filter="url(#fwhcj7pldpaai)" height="61.8359" id="EmailHandler" style="stroke: #A80036; stroke-width: 1.5;" width="179" x="503" y="136"/><ellipse cx="550.25" cy="152" fill="#ADD1B2" rx="11" ry="11" style="stroke: #A80036; stroke-width: 1.0;"/><path d="M552.25,148.5 Q552.4531,148 552.6875,147.75 Q552.9219,147.5 553.1875,147.5 Q553.6563,147.5 553.9531,147.7813 Q554.25,148.0625 554.25,148.7188 L554.25,150.2813 Q554.25,150.9375 553.9688,151.2188 Q553.6875,151.5 553.25,151.5 Q552.8594,151.5 552.6094,151.3281 Q552.3594,151.1563 552.25,150.7031 Q552.2031,150.3906 552.0313,150.2188 Q551.7188,149.8906 551.1563,149.7031 Q550.5938,149.5 550.0313,149.5 Q549.3281,149.5 548.7344,149.7813 Q548.1563,150.0625 547.7031,150.6875 Q547.25,151.3125 547.25,152.1719 L547.25,153.0938 Q547.25,154.125 548.0938,154.8125 Q548.9375,155.5 550.4375,155.5 Q551.3281,155.5 551.9531,155.2969 Q552.3125,155.1875 552.7188,154.8281 Q552.9844,154.625 553.125,154.5625 Q553.2656,154.5 553.4375,154.5 Q553.7656,154.5 554,154.7656 Q554.25,155.0156 554.25,155.375 Q554.25,155.7188 553.9063,156.125 Q553.4063,156.7188 552.6094,157.0469 Q551.5625,157.5 550.2813,157.5 Q548.7813,157.5 547.5781,156.9063 Q546.6094,156.4375 545.9219,155.4219 Q545.25,154.4063 545.25,153.2031 L545.25,152.1094 Q545.25,150.8594 545.8438,149.7656 Q546.4531,148.6719 547.5,148.0938 Q548.5625,147.5 549.75,147.5 Q550.4688,147.5 551.0938,147.75 Q551.7188,148 552.25,148.5 Z " fill="#000000"/><text fill="#000000" font-family="sans-serif" font-size="12" lengthAdjust="spacingAndGlyphs" textLength="76" x="570.75" y="156.9102">EmailHandler</text><line style="stroke: #A80036; stroke-width: 1.5;" x1="504" x2="681" y1="168" y2="168"/><line style="stroke: #A80036; stroke-width: 1.5;" x1="504" x2="681" y1="176" y2="176"/><ellipse cx="514" cy="187" fill="#84BE84" rx="3" ry="3" style="stroke: #038048; stroke-width: 1.0;"/><text fill="#000000" font-family="sans-serif" font-size="11" lengthAdjust="spacingAndGlyphs" textLength="153" x="523" y="191.4189">boolean sendEmail(destinatario)</text><!--MD5=[c45b8082f968faf7292442257c4b20c2]
link ScooterDeliveryPlanningTask to TimerTask--><path codeLine="29" d="M461.297,38 C466.053,38 470.81,38 475.566,38 " fill="none" id="ScooterDeliveryPlanningTask-to-TimerTask" style="stroke: #A80036; stroke-width: 1.0;"/><polygon fill="none" points="475.759,31,495.759,38,475.759,45,475.759,31" style="stroke: #A80036; stroke-width: 1.0;"/><!--MD5=[ba24390ffe9d162b37e76b6283ade47a]
link ScooterDeliveryPlanningTask to OrdersQueue--><path codeLine="32" d="M305.727,69.097 C272.28,86.226 229.98,107.8873 193.86,126.3839 " fill="none" id="ScooterDeliveryPlanningTask-to-OrdersQueue" style="stroke: #A80036; stroke-width: 1.0; stroke-dasharray: 7.0,7.0;"/><polygon fill="#A80036" points="189.034,128.8555,198.868,128.3143,193.4846,126.5768,195.222,121.1934,189.034,128.8555" style="stroke: #A80036; stroke-width: 1.0;"/><!--MD5=[a612d68850e947853fb1b13771afe5ab]
link ScooterDeliveryPlanningTask to PlanningDB--><path codeLine="33" d="M364.5,69.097 C364.5,87.468 364.5,111.0535 364.5,130.3559 " fill="none" id="ScooterDeliveryPlanningTask-to-PlanningDB" style="stroke: #A80036; stroke-width: 1.0; stroke-dasharray: 7.0,7.0;"/><polygon fill="#A80036" points="364.5,135.6787,368.5,126.6787,364.5,130.6787,360.5,126.6787,364.5,135.6787" style="stroke: #A80036; stroke-width: 1.0;"/><!--MD5=[660ad289d486729ad69727760a54eda2]
link ScooterDeliveryPlanningTask to EmailHandler--><path codeLine="34" d="M418.533,69.097 C453.19,88.402 498.184,113.4646 533.731,133.2649 " fill="none" id="ScooterDeliveryPlanningTask-to-EmailHandler" style="stroke: #A80036; stroke-width: 1.0; stroke-dasharray: 7.0,7.0;"/><polygon fill="#A80036" points="538.46,135.899,532.5436,128.0253,534.0918,133.4661,528.651,135.0144,538.46,135.899" style="stroke: #A80036; stroke-width: 1.0;"/><!--MD5=[01cc1a5e23d4b626ce5acdc34eb4b5c2]
@startuml

class TimerTask {
    +run()
}



class ScooterDeliveryPlanningTask {
    +run()
}

class OrdersQueue {
    +Map<Integer, List<Integer>> getOrders()
    +clearQueue()
}

class PlanningDB {
 +String getClientEmailByOrder(orderID)
}

class EmailHandler {
 +boolean sendEmail(destinatario)
}





ScooterDeliveryPlanningTask -|> TimerTask


ScooterDeliveryPlanningTask ..> OrdersQueue
ScooterDeliveryPlanningTask ..> PlanningDB
ScooterDeliveryPlanningTask ..> EmailHandler








@enduml

PlantUML version 1.2020.20(Sat Nov 21 10:02:45 GMT 2020)
(GPL source distribution)
Java Runtime: OpenJDK Runtime Environment
JVM: OpenJDK 64-Bit Server VM
Default Encoding: Cp1252
Language: pt
Country: PT
--></g></svg>