<?xml version="1.0" encoding="UTF-8" standalone="no"?><svg xmlns="http://www.w3.org/2000/svg" xmlns:xlink="http://www.w3.org/1999/xlink" contentScriptType="application/ecmascript" contentStyleType="text/css" height="225px" preserveAspectRatio="none" style="width:429px;height:225px;" version="1.1" viewBox="0 0 429 225" width="429px" zoomAndPan="magnify"><defs><filter height="300%" id="f19nnjlj5p1lhm" width="300%" x="-1" y="-1"><feGaussianBlur result="blurOut" stdDeviation="2.0"/><feColorMatrix in="blurOut" result="blurOut2" type="matrix" values="0 0 0 0 0 0 0 0 0 0 0 0 0 0 0 0 0 0 .4 0"/><feOffset dx="4.0" dy="4.0" in="blurOut2" result="blurOut3"/><feBlend in="SourceGraphic" in2="blurOut3" mode="normal"/></filter></defs><g><rect fill="#FFFFFF" filter="url(#f19nnjlj5p1lhm)" height="22.3516" style="stroke: #A80036; stroke-width: 1.0;" width="10" x="21" y="99.6094"/><line style="stroke: #A80036; stroke-width: 1.0; stroke-dasharray: 5.0,5.0;" x1="26" x2="26" y1="89.6094" y2="139.9609"/><line style="stroke: #A80036; stroke-width: 1.0; stroke-dasharray: 5.0,5.0;" x1="385" x2="385" y1="89.6094" y2="139.9609"/><text fill="#000000" font-family="sans-serif" font-size="14" lengthAdjust="spacingAndGlyphs" textLength="36" x="5" y="86.5332">Timer</text><ellipse cx="26" cy="15" fill="#FEFECE" filter="url(#f19nnjlj5p1lhm)" rx="8" ry="8" style="stroke: #A80036; stroke-width: 2.0;"/><path d="M26,23 L26,50 M13,31 L39,31 M26,50 L13,65 M26,50 L39,65 " fill="none" filter="url(#f19nnjlj5p1lhm)" style="stroke: #A80036; stroke-width: 2.0;"/><text fill="#000000" font-family="sans-serif" font-size="14" lengthAdjust="spacingAndGlyphs" textLength="36" x="5" y="153.4941">Timer</text><ellipse cx="26" cy="166.5703" fill="#FEFECE" filter="url(#f19nnjlj5p1lhm)" rx="8" ry="8" style="stroke: #A80036; stroke-width: 2.0;"/><path d="M26,174.5703 L26,201.5703 M13,182.5703 L39,182.5703 M26,201.5703 L13,216.5703 M26,201.5703 L39,216.5703 " fill="none" filter="url(#f19nnjlj5p1lhm)" style="stroke: #A80036; stroke-width: 2.0;"/><rect fill="#FEFECE" filter="url(#f19nnjlj5p1lhm)" height="31.6094" style="stroke: #A80036; stroke-width: 1.5;" width="64" x="351" y="53"/><text fill="#000000" font-family="sans-serif" font-size="14" lengthAdjust="spacingAndGlyphs" textLength="50" x="358" y="74.5332">:System</text><rect fill="#FEFECE" filter="url(#f19nnjlj5p1lhm)" height="31.6094" style="stroke: #A80036; stroke-width: 1.5;" width="64" x="351" y="138.9609"/><text fill="#000000" font-family="sans-serif" font-size="14" lengthAdjust="spacingAndGlyphs" textLength="50" x="358" y="160.4941">:System</text><rect fill="#FFFFFF" filter="url(#f19nnjlj5p1lhm)" height="22.3516" style="stroke: #A80036; stroke-width: 1.0;" width="10" x="21" y="99.6094"/><polygon fill="#A80036" points="373,117.9609,383,121.9609,373,125.9609,377,121.9609" style="stroke: #A80036; stroke-width: 1.0;"/><line style="stroke: #A80036; stroke-width: 1.0;" x1="26" x2="379" y1="121.9609" y2="121.9609"/><text fill="#000000" font-family="sans-serif" font-size="13" font-weight="bold" lengthAdjust="spacingAndGlyphs" textLength="7" x="33" y="117.1045">1</text><text fill="#000000" font-family="sans-serif" font-size="13" lengthAdjust="spacingAndGlyphs" textLength="319" x="44" y="117.1045">When the delivery starts it sends an email to the client.</text><!--MD5=[cbb3ebaba87582d9c9a1f063fab5ce74]
@startuml
autonumber
actor "Timer" as ADM

activate ADM
ADM -> ":System" : When the delivery starts it sends an email to the client.
deactivate ":System"

deactivate ADM
@enduml

PlantUML version 1.2020.20(Sat Nov 21 10:02:45 GMT 2020)
(GPL source distribution)
Java Runtime: OpenJDK Runtime Environment
JVM: OpenJDK 64-Bit Server VM
Default Encoding: Cp1252
Language: pt
Country: PT
--></g></svg>