<?xml version="1.0" encoding="UTF-8" standalone="no"?><svg xmlns="http://www.w3.org/2000/svg" xmlns:xlink="http://www.w3.org/1999/xlink" contentScriptType="application/ecmascript" contentStyleType="text/css" height="185.5px" preserveAspectRatio="none" style="width:2264px;height:185px;" version="1.1" viewBox="0 0 2264 185" width="2264px" zoomAndPan="magnify"><defs><filter height="300%" id="frf6mskdmxfbx" width="300%" x="-1" y="-1"><feGaussianBlur result="blurOut" stdDeviation="1.0"/><feColorMatrix in="blurOut" result="blurOut2" type="matrix" values="0 0 0 0 0 0 0 0 0 0 0 0 0 0 0 0 0 0 .4 0"/><feOffset dx="2.0" dy="2.0" in="blurOut2" result="blurOut3"/><feBlend in="SourceGraphic" in2="blurOut3" mode="normal"/></filter></defs><g><!--MD5=[a046d640d88ed63f622f54ae7bf961fb]
class LinkedList--><rect codeLine="2" fill="#FEFECE" filter="url(#frf6mskdmxfbx)" height="37.8359" id="LinkedList" style="stroke:#A80036;stroke-width:0.75;" width="62.5" x="3.5" y="109.5"/><ellipse cx="11" cy="117.5" fill="#ADD1B2" rx="5.5" ry="5.5" style="stroke:#A80036;stroke-width:0.5;"/><path d="M12,115.75 Q12.1016,115.5 12.2188,115.375 Q12.3359,115.25 12.4688,115.25 Q12.7031,115.25 12.8516,115.3906 Q13,115.5313 13,115.8594 L13,116.6406 Q13,116.9688 12.8594,117.1094 Q12.7188,117.25 12.5,117.25 Q12.3047,117.25 12.1797,117.1641 Q12.0547,117.0781 12,116.8516 Q11.9766,116.6953 11.8906,116.6094 Q11.7344,116.4453 11.4531,116.3516 Q11.1719,116.25 10.8906,116.25 Q10.5391,116.25 10.2422,116.3906 Q9.9531,116.5313 9.7266,116.8438 Q9.5,117.1563 9.5,117.5859 L9.5,118.0469 Q9.5,118.5625 9.9219,118.9063 Q10.3438,119.25 11.0938,119.25 Q11.5391,119.25 11.8516,119.1484 Q12.0313,119.0938 12.2344,118.9141 Q12.3672,118.8125 12.4375,118.7813 Q12.5078,118.75 12.5938,118.75 Q12.7578,118.75 12.875,118.8828 Q13,119.0078 13,119.1875 Q13,119.3594 12.8281,119.5625 Q12.5781,119.8594 12.1797,120.0234 Q11.6563,120.25 11.0156,120.25 Q10.2656,120.25 9.6641,119.9531 Q9.1797,119.7188 8.8359,119.2109 Q8.5,118.7031 8.5,118.1016 L8.5,117.5547 Q8.5,116.9297 8.7969,116.3828 Q9.1016,115.8359 9.625,115.5469 Q10.1563,115.25 10.75,115.25 Q11.1094,115.25 11.4219,115.375 Q11.7344,115.5 12,115.75 Z " fill="#000000"/><text fill="#000000" font-family="sans-serif" font-size="6" lengthAdjust="spacing" textLength="28.5" x="18" y="119.9551">LinkedList</text><rect fill="#FFFFFF" height="8.5469" style="stroke:#000000;stroke-width:0.5;stroke-dasharray:2.0,2.0;" width="17" x="50.5" y="108"/><text fill="#000000" font-family="sans-serif" font-size="6" font-style="italic" lengthAdjust="spacing" textLength="16" x="51" y="114.7285">String</text><line style="stroke:#A80036;stroke-width:0.75;" x1="4" x2="65.5" y1="125.5" y2="125.5"/><line style="stroke:#A80036;stroke-width:0.75;" x1="4" x2="65.5" y1="129.5" y2="129.5"/><ellipse cx="9" cy="135" fill="#84BE84" rx="1.5" ry="1.5" style="stroke:#038048;stroke-width:0.5;"/><text fill="#000000" font-family="sans-serif" font-size="5.5" lengthAdjust="spacing" textLength="48" x="13.5" y="137.2095">String removeFirst()</text><ellipse cx="9" cy="141.918" fill="#84BE84" rx="1.5" ry="1.5" style="stroke:#038048;stroke-width:0.5;"/><text fill="#000000" font-family="sans-serif" font-size="5.5" lengthAdjust="spacing" textLength="48" x="13.5" y="144.1274">String removeLast()</text><!--MD5=[3aea188f90447b665181ca998025f959]
class ScooterDeliveryPlanningTask--><rect codeLine="8" fill="#FEFECE" filter="url(#frf6mskdmxfbx)" height="44.7539" id="ScooterDeliveryPlanningTask" style="stroke:#A80036;stroke-width:0.75;" width="186.5" x="510.5" y="3.5"/><ellipse cx="561.375" cy="11.5" fill="#ADD1B2" rx="5.5" ry="5.5" style="stroke:#A80036;stroke-width:0.5;"/><path d="M562.375,9.75 Q562.4766,9.5 562.5938,9.375 Q562.7109,9.25 562.8438,9.25 Q563.0781,9.25 563.2266,9.3906 Q563.375,9.5313 563.375,9.8594 L563.375,10.6406 Q563.375,10.9688 563.2344,11.1094 Q563.0938,11.25 562.875,11.25 Q562.6797,11.25 562.5547,11.1641 Q562.4297,11.0781 562.375,10.8516 Q562.3516,10.6953 562.2656,10.6094 Q562.1094,10.4453 561.8281,10.3516 Q561.5469,10.25 561.2656,10.25 Q560.9141,10.25 560.6172,10.3906 Q560.3281,10.5313 560.1016,10.8438 Q559.875,11.1563 559.875,11.5859 L559.875,12.0469 Q559.875,12.5625 560.2969,12.9063 Q560.7188,13.25 561.4688,13.25 Q561.9141,13.25 562.2266,13.1484 Q562.4063,13.0938 562.6094,12.9141 Q562.7422,12.8125 562.8125,12.7813 Q562.8828,12.75 562.9688,12.75 Q563.1328,12.75 563.25,12.8828 Q563.375,13.0078 563.375,13.1875 Q563.375,13.3594 563.2031,13.5625 Q562.9531,13.8594 562.5547,14.0234 Q562.0313,14.25 561.3906,14.25 Q560.6406,14.25 560.0391,13.9531 Q559.5547,13.7188 559.2109,13.2109 Q558.875,12.7031 558.875,12.1016 L558.875,11.5547 Q558.875,10.9297 559.1719,10.3828 Q559.4766,9.8359 560,9.5469 Q560.5313,9.25 561.125,9.25 Q561.4844,9.25 561.7969,9.375 Q562.1094,9.5 562.375,9.75 Z " fill="#000000"/><text fill="#000000" font-family="sans-serif" font-size="6" lengthAdjust="spacing" textLength="80.5" x="571.625" y="13.9551">ScooterDeliveryPlanningTask</text><line style="stroke:#A80036;stroke-width:0.75;" x1="511" x2="696.5" y1="19.5" y2="19.5"/><line style="stroke:#A80036;stroke-width:0.75;" x1="511" x2="696.5" y1="23.5" y2="23.5"/><ellipse cx="516" cy="29" fill="#84BE84" rx="1.5" ry="1.5" style="stroke:#038048;stroke-width:0.5;"/><text fill="#000000" font-family="sans-serif" font-size="5.5" lengthAdjust="spacing" textLength="74" x="520.5" y="31.2095">ScooterDeliveryPlanningTask()</text><ellipse cx="516" cy="35.918" fill="#84BE84" rx="1.5" ry="1.5" style="stroke:#038048;stroke-width:0.5;"/><text fill="#000000" font-family="sans-serif" font-size="5.5" lengthAdjust="spacing" textLength="12" x="520.5" y="38.1274">run()</text><ellipse cx="516" cy="42.8359" fill="#84BE84" rx="1.5" ry="1.5" style="stroke:#038048;stroke-width:0.5;"/><text fill="#000000" font-family="sans-serif" font-size="5.5" lengthAdjust="spacing" textLength="173.5" x="520.5" y="45.0454">changeStates(Integer courierNIF, Integer scooterID, Integer pharmacyID)</text><!--MD5=[ea7b8c668fef3cf93191d7c76aeabc5e]
class OrdersQueue--><rect codeLine="15" fill="#FEFECE" filter="url(#frf6mskdmxfbx)" height="37.8359" id="OrdersQueue" style="stroke:#A80036;stroke-width:0.75;" width="109.5" x="83.5" y="109.5"/><ellipse cx="117.375" cy="117.5" fill="#ADD1B2" rx="5.5" ry="5.5" style="stroke:#A80036;stroke-width:0.5;"/><path d="M118.375,115.75 Q118.4766,115.5 118.5938,115.375 Q118.7109,115.25 118.8438,115.25 Q119.0781,115.25 119.2266,115.3906 Q119.375,115.5313 119.375,115.8594 L119.375,116.6406 Q119.375,116.9688 119.2344,117.1094 Q119.0938,117.25 118.875,117.25 Q118.6797,117.25 118.5547,117.1641 Q118.4297,117.0781 118.375,116.8516 Q118.3516,116.6953 118.2656,116.6094 Q118.1094,116.4453 117.8281,116.3516 Q117.5469,116.25 117.2656,116.25 Q116.9141,116.25 116.6172,116.3906 Q116.3281,116.5313 116.1016,116.8438 Q115.875,117.1563 115.875,117.5859 L115.875,118.0469 Q115.875,118.5625 116.2969,118.9063 Q116.7188,119.25 117.4688,119.25 Q117.9141,119.25 118.2266,119.1484 Q118.4063,119.0938 118.6094,118.9141 Q118.7422,118.8125 118.8125,118.7813 Q118.8828,118.75 118.9688,118.75 Q119.1328,118.75 119.25,118.8828 Q119.375,119.0078 119.375,119.1875 Q119.375,119.3594 119.2031,119.5625 Q118.9531,119.8594 118.5547,120.0234 Q118.0313,120.25 117.3906,120.25 Q116.6406,120.25 116.0391,119.9531 Q115.5547,119.7188 115.2109,119.2109 Q114.875,118.7031 114.875,118.1016 L114.875,117.5547 Q114.875,116.9297 115.1719,116.3828 Q115.4766,115.8359 116,115.5469 Q116.5313,115.25 117.125,115.25 Q117.4844,115.25 117.7969,115.375 Q118.1094,115.5 118.375,115.75 Z " fill="#000000"/><text fill="#000000" font-family="sans-serif" font-size="6" lengthAdjust="spacing" textLength="37.5" x="127.625" y="119.9551">OrdersQueue</text><line style="stroke:#A80036;stroke-width:0.75;" x1="84" x2="192.5" y1="125.5" y2="125.5"/><line style="stroke:#A80036;stroke-width:0.75;" x1="84" x2="192.5" y1="129.5" y2="129.5"/><ellipse cx="89" cy="135" fill="#84BE84" rx="1.5" ry="1.5" style="stroke:#038048;stroke-width:0.5;"/><text fill="#000000" font-family="sans-serif" font-size="5.5" lengthAdjust="spacing" textLength="96.5" x="93.5" y="137.2095">Map&lt;Integer, List&lt;Integer&gt;&gt; getOrders()</text><ellipse cx="89" cy="141.918" fill="#84BE84" rx="1.5" ry="1.5" style="stroke:#038048;stroke-width:0.5;"/><text fill="#000000" font-family="sans-serif" font-size="5.5" lengthAdjust="spacing" textLength="32" x="93.5" y="144.1274">clearQueue()</text><!--MD5=[30aa2e6d262eb55099bf3223aa7d8540]
class PlanningDB--><rect codeLine="21" fill="#FEFECE" filter="url(#frf6mskdmxfbx)" height="100.0977" id="PlanningDB" style="stroke:#A80036;stroke-width:0.75;" width="310" x="210.75" y="78.5"/><ellipse cx="347.125" cy="86.5" fill="#ADD1B2" rx="5.5" ry="5.5" style="stroke:#A80036;stroke-width:0.5;"/><path d="M348.125,84.75 Q348.2266,84.5 348.3438,84.375 Q348.4609,84.25 348.5938,84.25 Q348.8281,84.25 348.9766,84.3906 Q349.125,84.5313 349.125,84.8594 L349.125,85.6406 Q349.125,85.9688 348.9844,86.1094 Q348.8438,86.25 348.625,86.25 Q348.4297,86.25 348.3047,86.1641 Q348.1797,86.0781 348.125,85.8516 Q348.1016,85.6953 348.0156,85.6094 Q347.8594,85.4453 347.5781,85.3516 Q347.2969,85.25 347.0156,85.25 Q346.6641,85.25 346.3672,85.3906 Q346.0781,85.5313 345.8516,85.8438 Q345.625,86.1563 345.625,86.5859 L345.625,87.0469 Q345.625,87.5625 346.0469,87.9063 Q346.4688,88.25 347.2188,88.25 Q347.6641,88.25 347.9766,88.1484 Q348.1563,88.0938 348.3594,87.9141 Q348.4922,87.8125 348.5625,87.7813 Q348.6328,87.75 348.7188,87.75 Q348.8828,87.75 349,87.8828 Q349.125,88.0078 349.125,88.1875 Q349.125,88.3594 348.9531,88.5625 Q348.7031,88.8594 348.3047,89.0234 Q347.7813,89.25 347.1406,89.25 Q346.3906,89.25 345.7891,88.9531 Q345.3047,88.7188 344.9609,88.2109 Q344.625,87.7031 344.625,87.1016 L344.625,86.5547 Q344.625,85.9297 344.9219,85.3828 Q345.2266,84.8359 345.75,84.5469 Q346.2813,84.25 346.875,84.25 Q347.2344,84.25 347.5469,84.375 Q347.8594,84.5 348.125,84.75 Z " fill="#000000"/><text fill="#000000" font-family="sans-serif" font-size="6" lengthAdjust="spacing" textLength="33" x="357.375" y="88.9551">PlanningDB</text><line style="stroke:#A80036;stroke-width:0.75;" x1="211.25" x2="520.25" y1="94.5" y2="94.5"/><line style="stroke:#A80036;stroke-width:0.75;" x1="211.25" x2="520.25" y1="98.5" y2="98.5"/><ellipse cx="216.25" cy="104" fill="#84BE84" rx="1.5" ry="1.5" style="stroke:#038048;stroke-width:0.5;"/><text fill="#000000" font-family="sans-serif" font-size="5.5" lengthAdjust="spacing" textLength="168.5" x="220.75" y="106.2095">LinkedList&lt;String&gt; getCordsByOrders(List&lt;Integer&gt; pharmacyOrders)</text><ellipse cx="216.25" cy="110.918" fill="#84BE84" rx="1.5" ry="1.5" style="stroke:#038048;stroke-width:0.5;"/><text fill="#000000" font-family="sans-serif" font-size="5.5" lengthAdjust="spacing" textLength="204" x="220.75" y="113.1274">Map&lt;Integer, List&lt;Integer&gt;&gt; getPesosPorEncomenda(List&lt;Integer&gt; pharmacyOrders)</text><ellipse cx="216.25" cy="117.8359" fill="#84BE84" rx="1.5" ry="1.5" style="stroke:#038048;stroke-width:0.5;"/><text fill="#000000" font-family="sans-serif" font-size="5.5" lengthAdjust="spacing" textLength="137.5" x="220.75" y="120.0454">String getCoordinatesByPharmacyID(Integer pharmacyID)</text><ellipse cx="216.25" cy="124.7539" fill="#84BE84" rx="1.5" ry="1.5" style="stroke:#038048;stroke-width:0.5;"/><text fill="#000000" font-family="sans-serif" font-size="5.5" lengthAdjust="spacing" textLength="115.5" x="220.75" y="126.9634">Integer getAvailableCourier(Integer pharmacyID)</text><ellipse cx="216.25" cy="131.6719" fill="#84BE84" rx="1.5" ry="1.5" style="stroke:#038048;stroke-width:0.5;"/><text fill="#000000" font-family="sans-serif" font-size="5.5" lengthAdjust="spacing" textLength="198" x="220.75" y="133.8813">Integer getAvailableScooter(Integer, courierNIF, Integer pharmacyID, float payload)</text><ellipse cx="216.25" cy="138.5898" fill="#84BE84" rx="1.5" ry="1.5" style="stroke:#038048;stroke-width:0.5;"/><text fill="#000000" font-family="sans-serif" font-size="5.5" lengthAdjust="spacing" textLength="162" x="220.75" y="140.7993">Float getActualBatteryVehicle(Integer scooterID, Integer courierNIF)</text><ellipse cx="216.25" cy="145.5078" fill="#84BE84" rx="1.5" ry="1.5" style="stroke:#038048;stroke-width:0.5;"/><text fill="#000000" font-family="sans-serif" font-size="5.5" lengthAdjust="spacing" textLength="222.5" x="220.75" y="147.7173">Map&lt;Integer, String&gt; getCordsOfPharmacysWithAvailableChargingStation(VehicleType type)</text><ellipse cx="216.25" cy="152.4258" fill="#84BE84" rx="1.5" ry="1.5" style="stroke:#038048;stroke-width:0.5;"/><text fill="#000000" font-family="sans-serif" font-size="5.5" lengthAdjust="spacing" textLength="297" x="220.75" y="154.6353">Integer insertDelivery(Integer courierNIF, Integer scooterID, Integer pharmacyID, Float distance, Float time, Float energyCost)</text><ellipse cx="216.25" cy="159.3438" fill="#84BE84" rx="1.5" ry="1.5" style="stroke:#038048;stroke-width:0.5;"/><text fill="#000000" font-family="sans-serif" font-size="5.5" lengthAdjust="spacing" textLength="183.5" x="220.75" y="161.5532">takeVehicleEnergy(Integer scooterID, Float energyCost, Integer pharmacyID)</text><ellipse cx="216.25" cy="166.2617" fill="#84BE84" rx="1.5" ry="1.5" style="stroke:#038048;stroke-width:0.5;"/><text fill="#000000" font-family="sans-serif" font-size="5.5" lengthAdjust="spacing" textLength="179.5" x="220.75" y="168.4712">updateOrdersDeliveryID(List&lt;Integer&gt; pharmacyOrders, Integer idDelivery)</text><ellipse cx="216.25" cy="173.1797" fill="#84BE84" rx="1.5" ry="1.5" style="stroke:#038048;stroke-width:0.5;"/><text fill="#000000" font-family="sans-serif" font-size="5.5" lengthAdjust="spacing" textLength="117" x="220.75" y="175.3892">updateOrderStateToDelivered(Integer idDelivery)</text><!--MD5=[5fae18e8aa20ca672b42fb4f551f7ea3]
class DeliveryPlanning--><rect codeLine="38" fill="#FEFECE" filter="url(#frf6mskdmxfbx)" height="79.3438" id="DeliveryPlanning" style="stroke:#A80036;stroke-width:0.75;" width="607" x="538.25" y="88.75"/><ellipse cx="816.625" cy="96.75" fill="#ADD1B2" rx="5.5" ry="5.5" style="stroke:#A80036;stroke-width:0.5;"/><path d="M817.625,95 Q817.7266,94.75 817.8438,94.625 Q817.9609,94.5 818.0938,94.5 Q818.3281,94.5 818.4766,94.6406 Q818.625,94.7813 818.625,95.1094 L818.625,95.8906 Q818.625,96.2188 818.4844,96.3594 Q818.3438,96.5 818.125,96.5 Q817.9297,96.5 817.8047,96.4141 Q817.6797,96.3281 817.625,96.1016 Q817.6016,95.9453 817.5156,95.8594 Q817.3594,95.6953 817.0781,95.6016 Q816.7969,95.5 816.5156,95.5 Q816.1641,95.5 815.8672,95.6406 Q815.5781,95.7813 815.3516,96.0938 Q815.125,96.4063 815.125,96.8359 L815.125,97.2969 Q815.125,97.8125 815.5469,98.1563 Q815.9688,98.5 816.7188,98.5 Q817.1641,98.5 817.4766,98.3984 Q817.6563,98.3438 817.8594,98.1641 Q817.9922,98.0625 818.0625,98.0313 Q818.1328,98 818.2188,98 Q818.3828,98 818.5,98.1328 Q818.625,98.2578 818.625,98.4375 Q818.625,98.6094 818.4531,98.8125 Q818.2031,99.1094 817.8047,99.2734 Q817.2813,99.5 816.6406,99.5 Q815.8906,99.5 815.2891,99.2031 Q814.8047,98.9688 814.4609,98.4609 Q814.125,97.9531 814.125,97.3516 L814.125,96.8047 Q814.125,96.1797 814.4219,95.6328 Q814.7266,95.0859 815.25,94.7969 Q815.7813,94.5 816.375,94.5 Q816.7344,94.5 817.0469,94.625 Q817.3594,94.75 817.625,95 Z " fill="#000000"/><text fill="#000000" font-family="sans-serif" font-size="6" lengthAdjust="spacing" textLength="46" x="826.875" y="99.2051">DeliveryPlanning</text><line style="stroke:#A80036;stroke-width:0.75;" x1="538.75" x2="1144.75" y1="104.75" y2="104.75"/><line style="stroke:#A80036;stroke-width:0.75;" x1="538.75" x2="1144.75" y1="108.75" y2="108.75"/><ellipse cx="543.75" cy="114.25" fill="#84BE84" rx="1.5" ry="1.5" style="stroke:#038048;stroke-width:0.5;"/><text fill="#000000" font-family="sans-serif" font-size="5.5" lengthAdjust="spacing" textLength="171" x="548.25" y="116.4595">Float getTotalPayload(Map&lt;Integer, List&lt;Integer&gt;&gt; pesosPorEcomenda)</text><ellipse cx="543.75" cy="121.168" fill="#84BE84" rx="1.5" ry="1.5" style="stroke:#038048;stroke-width:0.5;"/><text fill="#000000" font-family="sans-serif" font-size="5.5" lengthAdjust="spacing" textLength="574.5" x="548.25" y="123.3774">List&lt;String&gt; shortestPath(List&lt;String&gt; cords, String pharmacyCords, VehicleType type, Float actualBatteryWH, Map&lt;Integer, String&gt; allFarmacias, List&lt;String&gt; remainingPath, Float payload, Map&lt;Integer, List&lt;Integer&gt;&gt; pesosPorEncomenda)</text><ellipse cx="543.75" cy="128.0859" fill="#84BE84" rx="1.5" ry="1.5" style="stroke:#038048;stroke-width:0.5;"/><text fill="#000000" font-family="sans-serif" font-size="5.5" lengthAdjust="spacing" textLength="84.5" x="548.25" y="130.2954">Float pathWeight(List&lt;String&gt; path)</text><ellipse cx="543.75" cy="135.0039" fill="#84BE84" rx="1.5" ry="1.5" style="stroke:#038048;stroke-width:0.5;"/><text fill="#000000" font-family="sans-serif" font-size="5.5" lengthAdjust="spacing" textLength="70.5" x="548.25" y="137.2134">Float getVelocidadeScooter()</text><ellipse cx="543.75" cy="141.9219" fill="#84BE84" rx="1.5" ry="1.5" style="stroke:#038048;stroke-width:0.5;"/><text fill="#000000" font-family="sans-serif" font-size="5.5" lengthAdjust="spacing" textLength="139" x="548.25" y="144.1313">Float calculateSpentTime(Float distance, Float velocidade)</text><ellipse cx="543.75" cy="148.8398" fill="#84BE84" rx="1.5" ry="1.5" style="stroke:#038048;stroke-width:0.5;"/><text fill="#000000" font-family="sans-serif" font-size="5.5" lengthAdjust="spacing" textLength="309" x="548.25" y="151.0493">Float calculateEnergyCost(List&lt;String&gt; path, Float payload, VehicleType type, Map&lt;Integer, List&lt;Integer&gt;&gt; pesosPorEncomenda)</text><ellipse cx="543.75" cy="155.7578" fill="#84BE84" rx="1.5" ry="1.5" style="stroke:#038048;stroke-width:0.5;"/><text fill="#000000" font-family="sans-serif" font-size="5.5" lengthAdjust="spacing" textLength="260.5" x="548.25" y="157.9673">List&lt;String&gt; shortestPathScooter(List&lt;String&gt; remainingPath, String actualFarmacia, String startingFarmacia)</text><ellipse cx="543.75" cy="162.6758" fill="#84BE84" rx="1.5" ry="1.5" style="stroke:#038048;stroke-width:0.5;"/><text fill="#000000" font-family="sans-serif" font-size="5.5" lengthAdjust="spacing" textLength="594" x="548.25" y="164.8853">List&lt;String&gt; mostEficientPath(List&lt;String&gt; casasClientes, String startingFarmacia, VehicleType type, float bateriaAtualMW, float payload, Map&lt;String, Float&gt; pesosPorEncomenda, Map&lt;Integer, String&gt; allFarmacias, LinkedList&lt;String&gt; remainingPath)</text><!--MD5=[0356cafb68da2b0b54ca6630c89310d5]
class Print--><rect codeLine="49" fill="#FEFECE" filter="url(#frf6mskdmxfbx)" height="44.7539" id="Print" style="stroke:#A80036;stroke-width:0.75;" width="539" x="1162.75" y="106"/><ellipse cx="1423.875" cy="114" fill="#ADD1B2" rx="5.5" ry="5.5" style="stroke:#A80036;stroke-width:0.5;"/><path d="M1424.875,112.25 Q1424.9766,112 1425.0938,111.875 Q1425.2109,111.75 1425.3438,111.75 Q1425.5781,111.75 1425.7266,111.8906 Q1425.875,112.0313 1425.875,112.3594 L1425.875,113.1406 Q1425.875,113.4688 1425.7344,113.6094 Q1425.5938,113.75 1425.375,113.75 Q1425.1797,113.75 1425.0547,113.6641 Q1424.9297,113.5781 1424.875,113.3516 Q1424.8516,113.1953 1424.7656,113.1094 Q1424.6094,112.9453 1424.3281,112.8516 Q1424.0469,112.75 1423.7656,112.75 Q1423.4141,112.75 1423.1172,112.8906 Q1422.8281,113.0313 1422.6016,113.3438 Q1422.375,113.6563 1422.375,114.0859 L1422.375,114.5469 Q1422.375,115.0625 1422.7969,115.4063 Q1423.2188,115.75 1423.9688,115.75 Q1424.4141,115.75 1424.7266,115.6484 Q1424.9063,115.5938 1425.1094,115.4141 Q1425.2422,115.3125 1425.3125,115.2813 Q1425.3828,115.25 1425.4688,115.25 Q1425.6328,115.25 1425.75,115.3828 Q1425.875,115.5078 1425.875,115.6875 Q1425.875,115.8594 1425.7031,116.0625 Q1425.4531,116.3594 1425.0547,116.5234 Q1424.5313,116.75 1423.8906,116.75 Q1423.1406,116.75 1422.5391,116.4531 Q1422.0547,116.2188 1421.7109,115.7109 Q1421.375,115.2031 1421.375,114.6016 L1421.375,114.0547 Q1421.375,113.4297 1421.6719,112.8828 Q1421.9766,112.3359 1422.5,112.0469 Q1423.0313,111.75 1423.625,111.75 Q1423.9844,111.75 1424.2969,111.875 Q1424.6094,112 1424.875,112.25 Z " fill="#000000"/><text fill="#000000" font-family="sans-serif" font-size="6" lengthAdjust="spacing" textLength="12.5" x="1434.125" y="116.4551">Print</text><line style="stroke:#A80036;stroke-width:0.75;" x1="1163.25" x2="1701.25" y1="122" y2="122"/><line style="stroke:#A80036;stroke-width:0.75;" x1="1163.25" x2="1701.25" y1="126" y2="126"/><ellipse cx="1168.25" cy="131.5" fill="#84BE84" rx="1.5" ry="1.5" style="stroke:#038048;stroke-width:0.5;"/><text fill="#000000" font-family="sans-serif" font-size="5.5" lengthAdjust="spacing" textLength="526" x="1172.75" y="133.7095">printFileDelivery(List&lt;String&gt; path, Float distance, Float time, Float energyCost, Integer deliveryID, String outputFileName, Float actualBatteryWH, Float payload, Integer scooterID, Integer courierNIF, String pharmacyCords)</text><ellipse cx="1168.25" cy="138.418" fill="#84BE84" rx="1.5" ry="1.5" style="stroke:#038048;stroke-width:0.5;"/><text fill="#000000" font-family="sans-serif" font-size="5.5" lengthAdjust="spacing" textLength="482" x="1172.75" y="140.6274">printRemainingDeliveryPath(String outputFileName,String actualFarmacia, List&lt;String&gt; fullRemainingPath, Float gastoEnergeticoRestante, Float distanciaRestante, Float tempoRestante, VehicleType type)</text><ellipse cx="1168.25" cy="145.3359" fill="#84BE84" rx="1.5" ry="1.5" style="stroke:#038048;stroke-width:0.5;"/><text fill="#000000" font-family="sans-serif" font-size="5.5" lengthAdjust="spacing" textLength="128.5" x="1172.75" y="147.5454">printPhisics(String outputFileName, VehicleType type)</text><!--MD5=[5e0d82805469b0e2e9b571db9ba415a6]
class StopForCharging--><rect codeLine="55" fill="#FEFECE" filter="url(#frf6mskdmxfbx)" height="37.8359" id="StopForCharging" style="stroke:#A80036;stroke-width:0.75;" width="538" x="1719.25" y="109.5"/><ellipse cx="1962.625" cy="117.5" fill="#ADD1B2" rx="5.5" ry="5.5" style="stroke:#A80036;stroke-width:0.5;"/><path d="M1963.625,115.75 Q1963.7266,115.5 1963.8438,115.375 Q1963.9609,115.25 1964.0938,115.25 Q1964.3281,115.25 1964.4766,115.3906 Q1964.625,115.5313 1964.625,115.8594 L1964.625,116.6406 Q1964.625,116.9688 1964.4844,117.1094 Q1964.3438,117.25 1964.125,117.25 Q1963.9297,117.25 1963.8047,117.1641 Q1963.6797,117.0781 1963.625,116.8516 Q1963.6016,116.6953 1963.5156,116.6094 Q1963.3594,116.4453 1963.0781,116.3516 Q1962.7969,116.25 1962.5156,116.25 Q1962.1641,116.25 1961.8672,116.3906 Q1961.5781,116.5313 1961.3516,116.8438 Q1961.125,117.1563 1961.125,117.5859 L1961.125,118.0469 Q1961.125,118.5625 1961.5469,118.9063 Q1961.9688,119.25 1962.7188,119.25 Q1963.1641,119.25 1963.4766,119.1484 Q1963.6563,119.0938 1963.8594,118.9141 Q1963.9922,118.8125 1964.0625,118.7813 Q1964.1328,118.75 1964.2188,118.75 Q1964.3828,118.75 1964.5,118.8828 Q1964.625,119.0078 1964.625,119.1875 Q1964.625,119.3594 1964.4531,119.5625 Q1964.2031,119.8594 1963.8047,120.0234 Q1963.2813,120.25 1962.6406,120.25 Q1961.8906,120.25 1961.2891,119.9531 Q1960.8047,119.7188 1960.4609,119.2109 Q1960.125,118.7031 1960.125,118.1016 L1960.125,117.5547 Q1960.125,116.9297 1960.4219,116.3828 Q1960.7266,115.8359 1961.25,115.5469 Q1961.7813,115.25 1962.375,115.25 Q1962.7344,115.25 1963.0469,115.375 Q1963.3594,115.5 1963.625,115.75 Z " fill="#000000"/><text fill="#000000" font-family="sans-serif" font-size="6" lengthAdjust="spacing" textLength="47" x="1972.875" y="119.9551">StopForCharging</text><line style="stroke:#A80036;stroke-width:0.75;" x1="1719.75" x2="2256.75" y1="125.5" y2="125.5"/><line style="stroke:#A80036;stroke-width:0.75;" x1="1719.75" x2="2256.75" y1="129.5" y2="129.5"/><ellipse cx="1724.75" cy="135" fill="#84BE84" rx="1.5" ry="1.5" style="stroke:#038048;stroke-width:0.5;"/><text fill="#000000" font-family="sans-serif" font-size="5.5" lengthAdjust="spacing" textLength="525" x="1729.25" y="137.2095">StopForCharging(List&lt;String&gt; fullRemainingPath, Float gastoEnergeticoRestante, Float tempoRestante, Float distanciaRestante, Integer courierNIF, Integer scooterID, Integer pharmacyID, Integer deliveryID, PlanningDB db)</text><ellipse cx="1724.75" cy="141.918" fill="#84BE84" rx="1.5" ry="1.5" style="stroke:#038048;stroke-width:0.5;"/><text fill="#000000" font-family="sans-serif" font-size="5.5" lengthAdjust="spacing" textLength="12" x="1729.25" y="144.1274">run()</text><!--MD5=[b512e8e41693d1e32180055954462ec4]
link ScooterDeliveryPlanningTask to DeliveryPlanning--><path codeLine="63" d="M655.39,48.525 C682.24,59.975 715.91,74.335 747.22,87.685 " fill="none" id="ScooterDeliveryPlanningTask-to-DeliveryPlanning" style="stroke:#A80036;stroke-width:0.5;stroke-dasharray:7.0,7.0;"/><polygon fill="#A80036" points="749.66,88.725,746.3117,85.1141,747.3621,87.7402,744.736,88.7907,749.66,88.725" style="stroke:#A80036;stroke-width:0.5;"/><!--MD5=[ba24390ffe9d162b37e76b6283ade47a]
link ScooterDeliveryPlanningTask to OrdersQueue--><path codeLine="64" d="M510.3,32.865 C409.37,40.75 255.775,55.95 201.75,78.5 C185.655,85.22 170.16,97.145 158.51,107.61 " fill="none" id="ScooterDeliveryPlanningTask-to-OrdersQueue" style="stroke:#A80036;stroke-width:0.5;stroke-dasharray:7.0,7.0;"/><polygon fill="#A80036" points="156.525,109.41,161.2016,107.8673,158.3765,107.7301,158.5137,104.905,156.525,109.41" style="stroke:#A80036;stroke-width:0.5;"/><!--MD5=[a612d68850e947853fb1b13771afe5ab]
link ScooterDeliveryPlanningTask to PlanningDB--><path codeLine="65" d="M552.11,48.525 C532.045,57.08 508.17,67.265 484.315,77.435 " fill="none" id="ScooterDeliveryPlanningTask-to-PlanningDB" style="stroke:#A80036;stroke-width:0.5;stroke-dasharray:7.0,7.0;"/><polygon fill="#A80036" points="482.01,78.42,486.9338,78.4986,484.3104,77.4412,485.3678,74.8179,482.01,78.42" style="stroke:#A80036;stroke-width:0.5;"/><!--MD5=[f08273813af655fd8f825f3d08dd17c1]
link ScooterDeliveryPlanningTask to LinkedList--><path codeLine="66" d="M510.48,27.11 C379.2,29.405 147.775,39.12 74.75,78.5 C62.765,84.965 53.05,96.675 46.195,107.085 " fill="none" id="ScooterDeliveryPlanningTask-to-LinkedList" style="stroke:#A80036;stroke-width:0.5;stroke-dasharray:7.0,7.0;"/><polygon fill="#A80036" points="44.775,109.28,48.8973,106.5861,46.1319,107.1803,45.5377,104.415,44.775,109.28" style="stroke:#A80036;stroke-width:0.5;"/><!--MD5=[a14b19fe9072dab48e28fd68f86e2f4a]
link ScooterDeliveryPlanningTask to Print--><path codeLine="67" d="M697.035,32.965 C806.745,41.115 994.205,56.73 1154.25,78.5 C1208.35,85.86 1267.99,96.185 1318.115,105.5 " fill="none" id="ScooterDeliveryPlanningTask-to-Print" style="stroke:#A80036;stroke-width:0.5;stroke-dasharray:7.0,7.0;"/><polygon fill="#A80036" points="1320.645,105.97,1316.5867,103.1807,1318.1872,105.5127,1315.8551,107.1132,1320.645,105.97" style="stroke:#A80036;stroke-width:0.5;"/><!--MD5=[4de1d947c95d3f34a4e9f7f21e81c88c]
link ScooterDeliveryPlanningTask to StopForCharging--><path codeLine="68" d="M697.01,26.81 C887.905,28.34 1336.715,36.535 1710.75,78.5 C1773.94,85.59 1844.475,98.235 1898.62,108.97 " fill="none" id="ScooterDeliveryPlanningTask-to-StopForCharging" style="stroke:#A80036;stroke-width:0.5;stroke-dasharray:7.0,7.0;"/><polygon fill="#A80036" points="1901.185,109.48,1897.1598,106.6431,1898.7327,108.9938,1896.382,110.5667,1901.185,109.48" style="stroke:#A80036;stroke-width:0.5;"/><!--MD5=[be86fe905c57275f32961d96a5febc97]
@startuml

class LinkedList<String> {
 +String removeFirst()
 +String removeLast()
}


class ScooterDeliveryPlanningTask {
    +ScooterDeliveryPlanningTask()
    +run()
    +changeStates(Integer courierNIF, Integer scooterID, Integer pharmacyID)

}

class OrdersQueue {
    +Map<Integer, List<Integer>> getOrders()
    +clearQueue()

}

class PlanningDB {
 +LinkedList<String> getCordsByOrders(List<Integer> pharmacyOrders)
 +Map<Integer, List<Integer>> getPesosPorEncomenda(List<Integer> pharmacyOrders)
 +String getCoordinatesByPharmacyID(Integer pharmacyID)
+Integer getAvailableCourier(Integer pharmacyID)
 +Integer getAvailableScooter(Integer, courierNIF, Integer pharmacyID, float payload)
+Float getActualBatteryVehicle(Integer scooterID, Integer courierNIF)
+Map<Integer, String> getCordsOfPharmacysWithAvailableChargingStation(VehicleType type)
 +Integer insertDelivery(Integer courierNIF, Integer scooterID, Integer pharmacyID, Float distance, Float time, Float energyCost)
+takeVehicleEnergy(Integer scooterID, Float energyCost, Integer pharmacyID)
 +updateOrdersDeliveryID(List<Integer> pharmacyOrders, Integer idDelivery)
 +updateOrderStateToDelivered(Integer idDelivery)



}

class DeliveryPlanning {
  +Float getTotalPayload(Map<Integer, List<Integer>> pesosPorEcomenda)
  +List<String> shortestPath(List<String> cords, String pharmacyCords, VehicleType type, Float actualBatteryWH, Map<Integer, String> allFarmacias, List<String> remainingPath, Float payload, Map<Integer, List<Integer>> pesosPorEncomenda)
    +Float pathWeight(List<String> path)
    +Float getVelocidadeScooter()
    +Float calculateSpentTime(Float distance, Float velocidade)
    +Float calculateEnergyCost(List<String> path, Float payload, VehicleType type, Map<Integer, List<Integer>> pesosPorEncomenda)
    +List<String> shortestPathScooter(List<String> remainingPath, String actualFarmacia, String startingFarmacia)
    +List<String> mostEficientPath(List<String> casasClientes, String startingFarmacia, VehicleType type, float bateriaAtualMW, float payload, Map<String, Float> pesosPorEncomenda, Map<Integer, String> allFarmacias, LinkedList<String> remainingPath) 
}

class Print {
+printFileDelivery(List<String> path, Float distance, Float time, Float energyCost, Integer deliveryID, String outputFileName, Float actualBatteryWH, Float payload, Integer scooterID, Integer courierNIF, String pharmacyCords)
 +printRemainingDeliveryPath(String outputFileName,String actualFarmacia, List<String> fullRemainingPath, Float gastoEnergeticoRestante, Float distanciaRestante, Float tempoRestante, VehicleType type)
+printPhisics(String outputFileName, VehicleType type)
}

class StopForCharging {
 +StopForCharging(List<String> fullRemainingPath, Float gastoEnergeticoRestante, Float tempoRestante, Float distanciaRestante, Integer courierNIF, Integer scooterID, Integer pharmacyID, Integer deliveryID, PlanningDB db)
    +run()
}




ScooterDeliveryPlanningTask ..> DeliveryPlanning
ScooterDeliveryPlanningTask ..> OrdersQueue
ScooterDeliveryPlanningTask ..> PlanningDB
ScooterDeliveryPlanningTask ..> LinkedList
ScooterDeliveryPlanningTask ..> Print
ScooterDeliveryPlanningTask ..> StopForCharging






@enduml

PlantUML version 1.2021.00(Sun Jan 10 10:25:05 GMT 2021)
(GPL source distribution)
Java Runtime: OpenJDK Runtime Environment
JVM: OpenJDK 64-Bit Server VM
Default Encoding: Cp1252
Language: pt
Country: PT
--></g></svg>