<?xml version="1.0" encoding="UTF-8" standalone="no"?><svg xmlns="http://www.w3.org/2000/svg" xmlns:xlink="http://www.w3.org/1999/xlink" contentScriptType="application/ecmascript" contentStyleType="text/css" height="3666.25px" preserveAspectRatio="none" style="width:622px;height:3666px;" version="1.1" viewBox="0 0 622 3666" width="622.5px" zoomAndPan="magnify"><defs><filter height="300%" id="f10o1ixhtz857b" width="300%" x="-1" y="-1"><feGaussianBlur result="blurOut" stdDeviation="2.5"/><feColorMatrix in="blurOut" result="blurOut2" type="matrix" values="0 0 0 0 0 0 0 0 0 0 0 0 0 0 0 0 0 0 .4 0"/><feOffset dx="5.0" dy="5.0" in="blurOut2" result="blurOut3"/><feBlend in="SourceGraphic" in2="blurOut3" mode="normal"/></filter></defs><g><ellipse cx="424.2191" cy="2257.7188" fill="#FEFECE" filter="url(#f10o1ixhtz857b)" rx="117.3441" ry="26.4688" style="stroke:#A80036;stroke-width:1.875;"/><text fill="#000000" font-family="sans-serif" font-size="17.5" lengthAdjust="spacing" textLength="183.75" x="332.3441" y="2262.3795">UC1 - Add new Scooter</text><ellipse cx="424.3772" cy="2353.7504" fill="#FEFECE" filter="url(#f10o1ixhtz857b)" rx="116.2522" ry="26.2504" style="stroke:#A80036;stroke-width:1.875;"/><text fill="#000000" font-family="sans-serif" font-size="17.5" lengthAdjust="spacing" textLength="181.25" x="333.7522" y="2358.4111">UC2 - Remove Scooter</text><ellipse cx="424.2468" cy="2452.7244" fill="#FEFECE" filter="url(#f10o1ixhtz857b)" rx="126.7468" ry="28.3494" style="stroke:#A80036;stroke-width:1.875;"/><text fill="#000000" font-family="sans-serif" font-size="17.5" lengthAdjust="spacing" textLength="205" x="321.7468" y="2457.385">UC3 - Update Scooter List</text><ellipse cx="424.3802" cy="2158.751" fill="#FEFECE" filter="url(#f10o1ixhtz857b)" rx="125.6302" ry="28.126" style="stroke:#A80036;stroke-width:1.875;"/><text fill="#000000" font-family="sans-serif" font-size="17.5" lengthAdjust="spacing" textLength="202.5" x="323.1302" y="2163.4117">UC4 - Sign Up On System</text><ellipse cx="424.0642" cy="1469.8128" fill="#FEFECE" filter="url(#f10o1ixhtz857b)" rx="118.4392" ry="26.6878" style="stroke:#A80036;stroke-width:1.875;"/><text fill="#000000" font-family="sans-serif" font-size="17.5" lengthAdjust="spacing" textLength="186.25" x="330.9392" y="1474.4735">UC6 - Notify Messenger</text><ellipse cx="424.4802" cy="1378.521" fill="#FEFECE" filter="url(#f10o1ixhtz857b)" rx="83.8552" ry="19.771" style="stroke:#A80036;stroke-width:1.875;"/><text fill="#000000" font-family="sans-serif" font-size="17.5" lengthAdjust="spacing" textLength="98.75" x="371.3552" y="1384.1668">UC8 - Log In</text><ellipse cx="424.3832" cy="901.5016" fill="#FEFECE" filter="url(#f10o1ixhtz857b)" rx="105.0082" ry="24.0016" style="stroke:#A80036;stroke-width:1.875;"/><text fill="#000000" font-family="sans-serif" font-size="17.5" lengthAdjust="spacing" textLength="155" x="346.8832" y="906.1623">UC9 - Update Stock</text><ellipse cx="424.6491" cy="318.6798" fill="#FEFECE" filter="url(#f10o1ixhtz857b)" rx="140.8991" ry="31.1798" style="stroke:#A80036;stroke-width:1.875;"/><text fill="#000000" font-family="sans-serif" font-size="17.5" lengthAdjust="spacing" textLength="236.25" x="306.5241" y="323.3405">UC10 - Add Product to Basket</text><ellipse cx="424.4575" cy="994.8915" fill="#FEFECE" filter="url(#f10o1ixhtz857b)" rx="115.7075" ry="26.1415" style="stroke:#A80036;stroke-width:1.875;"/><text fill="#000000" font-family="sans-serif" font-size="17.5" lengthAdjust="spacing" textLength="180" x="334.4575" y="999.5521">UC11 - Create Product</text><ellipse cx="424.3888" cy="1092.7528" fill="#FEFECE" filter="url(#f10o1ixhtz857b)" rx="120.6388" ry="27.1278" style="stroke:#A80036;stroke-width:1.875;"/><text fill="#000000" font-family="sans-serif" font-size="17.5" lengthAdjust="spacing" textLength="191.25" x="328.7638" y="1097.4134">UC12 - Remove Product</text><ellipse cx="424.2977" cy="1190.1095" fill="#FEFECE" filter="url(#f10o1ixhtz857b)" rx="116.7977" ry="26.3595" style="stroke:#A80036;stroke-width:1.875;"/><text fill="#000000" font-family="sans-serif" font-size="17.5" lengthAdjust="spacing" textLength="182.5" x="333.0477" y="1194.7702">UC13 - Update Product</text><ellipse cx="424.6549" cy="2552.681" fill="#FEFECE" filter="url(#f10o1ixhtz857b)" rx="123.4049" ry="27.681" style="stroke:#A80036;stroke-width:1.875;"/><text fill="#000000" font-family="sans-serif" font-size="17.5" lengthAdjust="spacing" textLength="197.5" x="325.9049" y="2557.3416">UC16 - Create Pharmacy</text><ellipse cx="424.3832" cy="2647.7516" fill="#FEFECE" filter="url(#f10o1ixhtz857b)" rx="105.0082" ry="24.0016" style="stroke:#A80036;stroke-width:1.875;"/><text fill="#000000" font-family="sans-serif" font-size="17.5" lengthAdjust="spacing" textLength="155" x="346.8832" y="2652.4123">UC18 - Add Courier</text><ellipse cx="424.4575" cy="2741.1415" fill="#FEFECE" filter="url(#f10o1ixhtz857b)" rx="115.7075" ry="26.1415" style="stroke:#A80036;stroke-width:1.875;"/><text fill="#000000" font-family="sans-serif" font-size="17.5" lengthAdjust="spacing" textLength="180" x="334.4575" y="2745.8021">UC20 - Update Courier</text><ellipse cx="424.2431" cy="421.0986" fill="#FEFECE" filter="url(#f10o1ixhtz857b)" rx="121.7431" ry="27.3486" style="stroke:#A80036;stroke-width:1.875;"/><text fill="#000000" font-family="sans-serif" font-size="17.5" lengthAdjust="spacing" textLength="193.75" x="327.3681" y="425.7593">UC21 - Checkout Basket</text><ellipse cx="424.613" cy="519.9226" fill="#FEFECE" filter="url(#f10o1ixhtz857b)" rx="118.988" ry="26.7976" style="stroke:#A80036;stroke-width:1.875;"/><text fill="#000000" font-family="sans-serif" font-size="17.5" lengthAdjust="spacing" textLength="187.5" x="330.863" y="524.5832">UC22 - Add Credit Card</text><ellipse cx="424.3631" cy="1569.8726" fill="#FEFECE" filter="url(#f10o1ixhtz857b)" rx="131.2381" ry="29.2476" style="stroke:#A80036;stroke-width:1.875;"/><text fill="#000000" font-family="sans-serif" font-size="17.5" lengthAdjust="spacing" textLength="215" x="316.8631" y="1574.5333">UC5- Scooter Delivery Plan</text><ellipse cx="424.426" cy="2836.5102" fill="#FEFECE" filter="url(#f10o1ixhtz857b)" rx="108.176" ry="24.6352" style="stroke:#A80036;stroke-width:1.875;"/><text fill="#000000" font-family="sans-serif" font-size="17.5" lengthAdjust="spacing" textLength="162.5" x="343.176" y="2841.1708">UC23- Create Drone</text><ellipse cx="424.2468" cy="2929.9744" fill="#FEFECE" filter="url(#f10o1ixhtz857b)" rx="112.9968" ry="25.5994" style="stroke:#A80036;stroke-width:1.875;"/><text fill="#000000" font-family="sans-serif" font-size="17.5" lengthAdjust="spacing" textLength="173.75" x="337.3718" y="2934.635">UC24- Remove Drone</text><ellipse cx="424.2404" cy="3024.8481" fill="#FEFECE" filter="url(#f10o1ixhtz857b)" rx="109.2404" ry="24.8481" style="stroke:#A80036;stroke-width:1.875;"/><text fill="#000000" font-family="sans-serif" font-size="17.5" lengthAdjust="spacing" textLength="165" x="341.7404" y="3029.5087">UC25- Update Drone</text><ellipse cx="424.1459" cy="3126.0792" fill="#FEFECE" filter="url(#f10o1ixhtz857b)" rx="146.6459" ry="32.3292" style="stroke:#A80036;stroke-width:1.875;"/><text fill="#000000" font-family="sans-serif" font-size="17.5" lengthAdjust="spacing" textLength="248.75" x="299.7709" y="3130.7398">UC28- Create Pharmacy Owner</text><ellipse cx="424.4867" cy="1672.7723" fill="#FEFECE" filter="url(#f10o1ixhtz857b)" rx="130.1117" ry="29.0223" style="stroke:#A80036;stroke-width:1.875;"/><text fill="#000000" font-family="sans-serif" font-size="17.5" lengthAdjust="spacing" textLength="212.5" x="318.2367" y="1677.433">UC29- Drone Delivery Plan</text><ellipse cx="424.6569" cy="205.0564" fill="#FEFECE" filter="url(#f10o1ixhtz857b)" rx="175.9069" ry="38.1814" style="stroke:#A80036;stroke-width:1.875;"/><text fill="#000000" font-family="sans-serif" font-size="17.5" lengthAdjust="spacing" textLength="311.25" x="269.0319" y="209.717">UC30- Automatic Pharmacy Order Back</text><ellipse cx="424.426" cy="1770.2602" fill="#FEFECE" filter="url(#f10o1ixhtz857b)" rx="108.176" ry="24.6352" style="stroke:#A80036;stroke-width:1.875;"/><text fill="#000000" font-family="sans-serif" font-size="17.5" lengthAdjust="spacing" textLength="162.5" x="343.176" y="1774.9208">UC31- Notify Courier</text><ellipse cx="424.2753" cy="1862.2301" fill="#FEFECE" filter="url(#f10o1ixhtz857b)" rx="102.4003" ry="23.4801" style="stroke:#A80036;stroke-width:1.875;"/><text fill="#000000" font-family="sans-serif" font-size="17.5" lengthAdjust="spacing" textLength="148.75" x="349.689" y="1866.9536">UC32- Notify Client</text><ellipse cx="424.4962" cy="613.8992" fill="#FEFECE" filter="url(#f10o1ixhtz857b)" rx="101.3712" ry="23.2742" style="stroke:#A80036;stroke-width:1.875;"/><text fill="#000000" font-family="sans-serif" font-size="17.5" lengthAdjust="spacing" textLength="146.25" x="350.7303" y="618.7477">UC33- Earn Points</text><ellipse cx="424.1713" cy="1287.4593" fill="#FEFECE" filter="url(#f10o1ixhtz857b)" rx="122.2963" ry="27.4593" style="stroke:#A80036;stroke-width:1.875;"/><text fill="#000000" font-family="sans-serif" font-size="17.5" lengthAdjust="spacing" textLength="195" x="326.6713" y="1292.1199">UC34- Update Pharmacy</text><ellipse cx="424.5945" cy="3227.6689" fill="#FEFECE" filter="url(#f10o1ixhtz857b)" rx="110.8445" ry="25.1689" style="stroke:#A80036;stroke-width:1.875;"/><text fill="#000000" font-family="sans-serif" font-size="17.5" lengthAdjust="spacing" textLength="168.75" x="340.2195" y="3232.3296">UC36- Create Adress</text><ellipse cx="424.116" cy="1958.5732" fill="#FEFECE" filter="url(#f10o1ixhtz857b)" rx="127.866" ry="28.5732" style="stroke:#A80036;stroke-width:1.875;"/><text fill="#000000" font-family="sans-serif" font-size="17.5" lengthAdjust="spacing" textLength="207.5" x="320.366" y="1963.2338">UC37- Notify Administrator</text><ellipse cx="424.1689" cy="3319.8338" fill="#FEFECE" filter="url(#f10o1ixhtz857b)" rx="102.9189" ry="23.5838" style="stroke:#A80036;stroke-width:1.875;"/><text fill="#000000" font-family="sans-serif" font-size="17.5" lengthAdjust="spacing" textLength="150" x="349.1689" y="3324.4944">UC38- Create Park</text><ellipse cx="424.3772" cy="57.5004" fill="#FEFECE" filter="url(#f10o1ixhtz857b)" rx="116.2522" ry="26.2504" style="stroke:#A80036;stroke-width:1.875;"/><text fill="#000000" font-family="sans-serif" font-size="17.5" lengthAdjust="spacing" textLength="181.25" x="333.7522" y="62.1611">UC39- Scooter Parking</text><ellipse cx="424.2431" cy="2058.5986" fill="#FEFECE" filter="url(#f10o1ixhtz857b)" rx="121.7431" ry="27.3486" style="stroke:#A80036;stroke-width:1.875;"/><text fill="#000000" font-family="sans-serif" font-size="17.5" lengthAdjust="spacing" textLength="193.75" x="327.3681" y="2063.2593">UC40- Scooter Charging</text><ellipse cx="424.2195" cy="3427.3439" fill="#FEFECE" filter="url(#f10o1ixhtz857b)" rx="184.2195" ry="39.8439" style="stroke:#A80036;stroke-width:1.875;"/><text fill="#000000" font-family="sans-serif" font-size="17.5" lengthAdjust="spacing" textLength="328.75" x="259.8445" y="3432.0045">UC41- Statistics on Air Or Land Deliveries</text><ellipse cx="424.5203" cy="705.1541" fill="#FEFECE" filter="url(#f10o1ixhtz857b)" rx="107.6453" ry="24.5291" style="stroke:#A80036;stroke-width:1.875;"/><text fill="#000000" font-family="sans-serif" font-size="17.5" lengthAdjust="spacing" textLength="161.25" x="343.8953" y="709.8147">UC42- Cancel Order</text><ellipse cx="424.064" cy="803.5628" fill="#FEFECE" filter="url(#f10o1ixhtz857b)" rx="134.064" ry="29.8128" style="stroke:#A80036;stroke-width:1.875;"/><text fill="#000000" font-family="sans-serif" font-size="17.5" lengthAdjust="spacing" textLength="221.25" x="313.439" y="808.2234">UC43- Consult Order Status</text><ellipse cx="424.5862" cy="3535.0422" fill="#FEFECE" filter="url(#f10o1ixhtz857b)" rx="103.9612" ry="23.7922" style="stroke:#A80036;stroke-width:1.875;"/><text fill="#000000" font-family="sans-serif" font-size="17.5" lengthAdjust="spacing" textLength="152.5" x="348.3362" y="3539.7029">UC44- Update Park</text><ellipse cx="424.5203" cy="3627.6541" fill="#FEFECE" filter="url(#f10o1ixhtz857b)" rx="107.6453" ry="24.5291" style="stroke:#A80036;stroke-width:1.875;"/><text fill="#000000" font-family="sans-serif" font-size="17.5" lengthAdjust="spacing" textLength="161.25" x="343.8953" y="3632.3147">UC45- Remove Park</text><!--MD5=[5bb58f447e60c14e9d23282c6a4405f4]
entity ADM--><ellipse cx="86.25" cy="2890" fill="#FEFECE" filter="url(#f10o1ixhtz857b)" rx="10" ry="10" style="stroke:#A80036;stroke-width:1.875;"/><path d="M86.25,2900 L86.25,2933.75 M70,2910 L102.5,2910 M86.25,2933.75 L70,2952.5 M86.25,2933.75 L102.5,2952.5 " fill="none" filter="url(#f10o1ixhtz857b)" style="stroke:#A80036;stroke-width:1.875;"/><text fill="#000000" font-family="sans-serif" font-size="17.5" lengthAdjust="spacing" textLength="103.75" x="34.375" y="2977.5415">Administrator</text><!--MD5=[2ff7ea1cb8d756b83b423af8776615c3]
entity NUSE--><ellipse cx="86.25" cy="2118.75" fill="#FEFECE" filter="url(#f10o1ixhtz857b)" rx="10" ry="10" style="stroke:#A80036;stroke-width:1.875;"/><path d="M86.25,2128.75 L86.25,2162.5 M70,2138.75 L102.5,2138.75 M86.25,2162.5 L70,2181.25 M86.25,2162.5 L102.5,2181.25 " fill="none" filter="url(#f10o1ixhtz857b)" style="stroke:#A80036;stroke-width:1.875;"/><text fill="#000000" font-family="sans-serif" font-size="17.5" lengthAdjust="spacing" textLength="157.5" x="7.5" y="2206.2915">Non-registered user</text><!--MD5=[6c54becdc59ed90a7ec6a0aa3c9cc76e]
entity OW--><ellipse cx="86.25" cy="1052.5" fill="#FEFECE" filter="url(#f10o1ixhtz857b)" rx="10" ry="10" style="stroke:#A80036;stroke-width:1.875;"/><path d="M86.25,1062.5 L86.25,1096.25 M70,1072.5 L102.5,1072.5 M86.25,1096.25 L70,1115 M86.25,1096.25 L102.5,1115 " fill="none" filter="url(#f10o1ixhtz857b)" style="stroke:#A80036;stroke-width:1.875;"/><text fill="#000000" font-family="sans-serif" font-size="17.5" lengthAdjust="spacing" textLength="135" x="18.75" y="1140.0415">Pharmacy Owner</text><!--MD5=[df6a39b053164d23cc3ecae9c3484a54]
entity CLI--><ellipse cx="86.25" cy="527.5" fill="#FEFECE" filter="url(#f10o1ixhtz857b)" rx="10" ry="10" style="stroke:#A80036;stroke-width:1.875;"/><path d="M86.25,537.5 L86.25,571.25 M70,547.5 L102.5,547.5 M86.25,571.25 L70,590 M86.25,571.25 L102.5,590 " fill="none" filter="url(#f10o1ixhtz857b)" style="stroke:#A80036;stroke-width:1.875;"/><text fill="#000000" font-family="sans-serif" font-size="17.5" lengthAdjust="spacing" textLength="45" x="63.75" y="615.0415">Client</text><!--MD5=[fa92c0c292cdeae80e2f3763d35ba241]
entity SYS--><ellipse cx="86.25" cy="1730" fill="#FEFECE" filter="url(#f10o1ixhtz857b)" rx="10" ry="10" style="stroke:#A80036;stroke-width:1.875;"/><path d="M86.25,1740 L86.25,1773.75 M70,1750 L102.5,1750 M86.25,1773.75 L70,1792.5 M86.25,1773.75 L102.5,1792.5 " fill="none" filter="url(#f10o1ixhtz857b)" style="stroke:#A80036;stroke-width:1.875;"/><text fill="#000000" font-family="sans-serif" font-size="17.5" lengthAdjust="spacing" textLength="107.5" x="32.5" y="1817.5415">System/Timer</text><!--MD5=[c6e98ce727154dd06c9c92e8bfb8e835]
entity COU--><ellipse cx="86.25" cy="17.5" fill="#FEFECE" filter="url(#f10o1ixhtz857b)" rx="10" ry="10" style="stroke:#A80036;stroke-width:1.875;"/><path d="M86.25,27.5 L86.25,61.25 M70,37.5 L102.5,37.5 M86.25,61.25 L70,80 M86.25,61.25 L102.5,80 " fill="none" filter="url(#f10o1ixhtz857b)" style="stroke:#A80036;stroke-width:1.875;"/><text fill="#000000" font-family="sans-serif" font-size="17.5" lengthAdjust="spacing" textLength="58.75" x="56.875" y="105.0415">Courier</text><!--MD5=[7fabfa302dd640995a920fac9a113367]
entity RU--><ellipse cx="86.25" cy="1338.75" fill="#FEFECE" filter="url(#f10o1ixhtz857b)" rx="10" ry="10" style="stroke:#A80036;stroke-width:1.875;"/><path d="M86.25,1348.75 L86.25,1382.5 M70,1358.75 L102.5,1358.75 M86.25,1382.5 L70,1401.25 M86.25,1382.5 L102.5,1401.25 " fill="none" filter="url(#f10o1ixhtz857b)" style="stroke:#A80036;stroke-width:1.875;"/><text fill="#000000" font-family="sans-serif" font-size="17.5" lengthAdjust="spacing" textLength="127.5" x="22.5" y="1426.2915">Registered User</text><!--MD5=[adec32fe9ea263a4fdfa628539becf82]
entity PH--><ellipse cx="86.25" cy="165" fill="#FEFECE" filter="url(#f10o1ixhtz857b)" rx="10" ry="10" style="stroke:#A80036;stroke-width:1.875;"/><path d="M86.25,175 L86.25,208.75 M70,185 L102.5,185 M86.25,208.75 L70,227.5 M86.25,208.75 L102.5,227.5 " fill="none" filter="url(#f10o1ixhtz857b)" style="stroke:#A80036;stroke-width:1.875;"/><text fill="#000000" font-family="sans-serif" font-size="17.5" lengthAdjust="spacing" textLength="78.75" x="46.875" y="252.5415">Pharmacy</text><!--MD5=[18ce05042804bf44dcb7a3204862a39a]
link ADM to UC1--><path d="M93.425,2877.7875 C109.7375,2743.0375 159.5375,2388.3625 240,2306.25 C258.3375,2287.5375 282.975,2275.75 308.225,2268.3875 " fill="none" id="ADM-to-UC1" style="stroke:#A80036;stroke-width:1.25;"/><polygon fill="#A80036" points="314.3125,2266.7,302.1342,2264.8971,308.291,2268.3746,304.8135,2274.5315,314.3125,2266.7" style="stroke:#A80036;stroke-width:1.25;"/><!--MD5=[afb96f077b5aad6802be8a4e992892ce]
link ADM to UC2--><path d="M86.7125,2877.7875 C88.0625,2772.375 106.65,2533.0375 240,2402.5 C258.9375,2383.9625 284.0875,2372.2625 309.6625,2364.9375 " fill="none" id="ADM-to-UC2" style="stroke:#A80036;stroke-width:1.25;"/><polygon fill="#A80036" points="315.8125,2363.2625,303.6443,2361.3927,309.7819,2364.904,306.2706,2371.0416,315.8125,2363.2625" style="stroke:#A80036;stroke-width:1.25;"/><!--MD5=[db1eef6a14ce759cd1b7bb831ae99df7]
link ADM to UC3--><path d="M91.1125,2877.7875 C100.15,2788.1125 131.6,2604.7375 240,2503.75 C258.2625,2486.7375 281.7,2475.3 305.675,2467.6375 " fill="none" id="ADM-to-UC3" style="stroke:#A80036;stroke-width:1.25;"/><polygon fill="#A80036" points="311.775,2465.7625,299.5511,2464.2998,305.8025,2467.6043,302.498,2473.8557,311.775,2465.7625" style="stroke:#A80036;stroke-width:1.25;"/><!--MD5=[5ba4dc5c0b33c7d554ea7c211a6141b1]
link ADM to UC23--><path d="M138.125,2913.475 C167.7125,2904 205.8375,2892.125 240,2882.5 C273.5875,2873.0375 310.8875,2863.45 343.0125,2855.475 " fill="none" id="ADM-to-UC23" style="stroke:#A80036;stroke-width:1.25;"/><polygon fill="#A80036" points="349.375,2853.9,337.2527,2851.7526,343.3085,2855.4032,339.6578,2861.459,349.375,2853.9" style="stroke:#A80036;stroke-width:1.25;"/><!--MD5=[9d681beb0fdcd4f497bca6f1f0c839bf]
link ADM to UC24--><path d="M138.475,2930 C182.4375,2930 247.65,2930 304.5625,2930 " fill="none" id="ADM-to-UC24" style="stroke:#A80036;stroke-width:1.25;"/><polygon fill="#A80036" points="311.1125,2930,299.8625,2925,304.8625,2930,299.8625,2935,311.1125,2930" style="stroke:#A80036;stroke-width:1.25;"/><!--MD5=[3d26ced15f6ddbc11ae088adbfb8cc82]
link ADM to UC25--><path d="M138.15,2946.45 C167.7375,2955.8875 205.8625,2967.7625 240,2977.5 C273.6125,2987.0875 310.9125,2996.9125 343.0375,3005.1125 " fill="none" id="ADM-to-UC25" style="stroke:#A80036;stroke-width:1.25;"/><polygon fill="#A80036" points="349.3875,3006.7375,339.7124,2999.1247,343.3294,3005.2006,337.2534,3008.8176,349.3875,3006.7375" style="stroke:#A80036;stroke-width:1.25;"/><!--MD5=[236b57f59f21e0ce9e22d866ec58a234]
link ADM to UC28--><path d="M131.575,2981.925 C159.8,3012.2125 198.775,3048.975 240,3072.5 C261.625,3084.8375 286.325,3094.5625 310.4375,3102.15 " fill="none" id="ADM-to-UC28" style="stroke:#A80036;stroke-width:1.25;"/><polygon fill="#A80036" points="316.5625,3104.025,307.2855,3095.9318,310.59,3102.1832,304.3386,3105.4877,316.5625,3104.025" style="stroke:#A80036;stroke-width:1.25;"/><!--MD5=[02742756c1c0c354ce8446f89adcbfa6]
link ADM to UC16--><path d="M97.4375,2877.975 C114.05,2805.4375 154.425,2674.6875 240,2602.5 C259.625,2585.95 284.2625,2574.8375 309.0375,2567.3875 " fill="none" id="ADM-to-UC16" style="stroke:#A80036;stroke-width:1.25;"/><polygon fill="#A80036" points="315.3375,2565.575,303.1434,2563.8819,309.3313,2567.3038,305.9094,2573.4917,315.3375,2565.575" style="stroke:#A80036;stroke-width:1.25;"/><!--MD5=[b868c83a83a0899e1fb9ae4fe43ecc71]
link ADM to UC38--><path d="M95.775,2982.1875 C110.65,3058.3 149.3,3198.95 240,3275 C262.275,3293.675 291.125,3304.8125 319.3125,3311.3875 " fill="none" id="ADM-to-UC38" style="stroke:#A80036;stroke-width:1.25;"/><polygon fill="#A80036" points="325.6875,3312.8,315.79,3305.4786,319.5863,3311.4442,313.6207,3315.2405,325.6875,3312.8" style="stroke:#A80036;stroke-width:1.25;"/><!--MD5=[2933c5e9a5993f1705d2419e8edae7a7]
link ADM to UC41--><path d="M91.1875,2982.125 C100.375,3072.725 132.05,3259.75 240,3366.25 C252.975,3379.05 268.6875,3389.175 285.4,3397.175 " fill="none" id="ADM-to-UC41" style="stroke:#A80036;stroke-width:1.25;"/><polygon fill="#A80036" points="291.1125,3399.8125,283.0099,3390.5437,285.4425,3397.1832,278.803,3399.6157,291.1125,3399.8125" style="stroke:#A80036;stroke-width:1.25;"/><!--MD5=[695111958783a8827bfe3b57adbfbda4]
link ADM to UC44--><path d="M94.85,2981.9625 C113.5375,3106.775 166.6,3418.4125 240,3490 C260.5875,3510.0875 288.6125,3521.6875 316.55,3528.25 " fill="none" id="ADM-to-UC44" style="stroke:#A80036;stroke-width:1.25;"/><polygon fill="#A80036" points="322.875,3529.6625,312.9821,3522.335,316.7747,3528.3029,310.8067,3532.0955,322.875,3529.6625" style="stroke:#A80036;stroke-width:1.25;"/><!--MD5=[a351ba5498f27120f05c31610dee90a2]
link ADM to UC36--><path d="M105.325,2982.1375 C127.7125,3039.6625 171.675,3130.7625 240,3181.25 C262.5625,3197.9125 290.4875,3208.6125 317.675,3215.4625 " fill="none" id="ADM-to-UC36" style="stroke:#A80036;stroke-width:1.25;"/><polygon fill="#A80036" points="323.825,3216.95,314.0608,3209.4518,317.7492,3215.4847,311.7163,3219.173,323.825,3216.95" style="stroke:#A80036;stroke-width:1.25;"/><!--MD5=[e99d2a5174385cf80c08584e238e34ca]
link ADM to UC18--><path d="M107.4375,2877.9875 C130.9375,2823.75 175.15,2740.2875 240,2693.75 C264.125,2676.4375 294.1,2665.5875 322.7625,2658.7875 " fill="none" id="ADM-to-UC18" style="stroke:#A80036;stroke-width:1.25;"/><polygon fill="#A80036" points="328.85,2657.4,316.7698,2655.0267,322.7565,2658.7898,318.9935,2664.7764,328.85,2657.4" style="stroke:#A80036;stroke-width:1.25;"/><!--MD5=[cab17656c778e3b9abd691d0daf1ec46]
link ADM to UC20--><path d="M132.1875,2877.9625 C160.3375,2848.2125 199.025,2812.4625 240,2790 C265.75,2775.8875 295.8,2765.6875 324.025,2758.3875 " fill="none" id="ADM-to-UC20" style="stroke:#A80036;stroke-width:1.25;"/><polygon fill="#A80036" points="330.4,2756.7875,318.2674,2754.6989,324.3408,2758.3201,320.7196,2764.3935,330.4,2756.7875" style="stroke:#A80036;stroke-width:1.25;"/><!--MD5=[b38918ff22aad2819dc25ba1d566f1db]
link ADM to UC45--><path d="M92.75,2982.0125 C107.8125,3120.825 155.55,3495.325 240,3581.25 C259.6625,3601.25 286.625,3613.05 313.8125,3619.9 " fill="none" id="ADM-to-UC45" style="stroke:#A80036;stroke-width:1.25;"/><polygon fill="#A80036" points="319.9875,3621.3625,310.1976,3613.8979,313.9067,3619.9181,307.8865,3623.6272,319.9875,3621.3625" style="stroke:#A80036;stroke-width:1.25;"/><!--MD5=[c237c83837888e01786b52c2868fe00d]
link SYS to UC5--><path d="M129.5875,1717.9 C157.7875,1686.1625 197.425,1647.1 240,1622.5 C263.725,1608.7875 291.275,1598.45 317.6875,1590.75 " fill="none" id="SYS-to-UC5" style="stroke:#A80036;stroke-width:1.25;"/><polygon fill="#A80036" points="324.025,1588.9375,311.8356,1587.2109,318.0141,1590.6498,314.5753,1596.8283,324.025,1588.9375" style="stroke:#A80036;stroke-width:1.25;"/><!--MD5=[4cf4040473ac3d3d3e8499cff1c127e9]
link SYS to UC6--><path d="M105.45,1718.0125 C127.9375,1660.6375 172,1569.675 240,1518.75 C261.45,1502.6875 287.8,1491.9125 313.75,1484.675 " fill="none" id="SYS-to-UC6" style="stroke:#A80036;stroke-width:1.25;"/><polygon fill="#A80036" points="319.9875,1483.0125,307.8245,1481.1091,313.9524,1484.6373,310.4242,1490.7653,319.9875,1483.0125" style="stroke:#A80036;stroke-width:1.25;"/><!--MD5=[7aa28b5d0aac3de5008081fd59608e2a]
link SYS to UC29--><path d="M140.35,1753.6625 C169.6625,1744.6875 206.8,1733.425 240,1723.75 C271.2,1714.65 305.4875,1704.975 335.8625,1696.5125 " fill="none" id="SYS-to-UC29" style="stroke:#A80036;stroke-width:1.25;"/><polygon fill="#A80036" points="341.8875,1694.825,329.7078,1693.0314,335.8673,1696.5042,332.3945,1702.6638,341.8875,1694.825" style="stroke:#A80036;stroke-width:1.25;"/><!--MD5=[f64013c8c1a3494103f721a8d9cf9a9b]
link SYS to UC32--><path d="M140.25,1786.6625 C169.5375,1795.75 206.675,1807 240,1816.25 C274.65,1825.875 313.2375,1835.7375 346.0125,1843.875 " fill="none" id="SYS-to-UC32" style="stroke:#A80036;stroke-width:1.25;"/><polygon fill="#A80036" points="352.4875,1845.4875,342.7703,1837.9285,346.421,1843.9843,340.3652,1847.6349,352.4875,1845.4875" style="stroke:#A80036;stroke-width:1.25;"/><!--MD5=[ff739053abf67c908579107d1c8ea99d]
link SYS to UC37--><path d="M132.975,1822.15 C161.125,1851.4625 199.525,1886.5125 240,1908.75 C263.8,1921.825 291.25,1931.6625 317.5375,1938.9875 " fill="none" id="SYS-to-UC37" style="stroke:#A80036;stroke-width:1.25;"/><polygon fill="#A80036" points="323.825,1940.7125,314.2831,1932.9334,317.7944,1939.071,311.6568,1942.5823,323.825,1940.7125" style="stroke:#A80036;stroke-width:1.25;"/><!--MD5=[b7a7989107a4bbab2a11afaa51088995]
link SYS to UC31--><path d="M140.3125,1770 C185.55,1770 252.275,1770 309.55,1770 " fill="none" id="SYS-to-UC31" style="stroke:#A80036;stroke-width:1.25;"/><polygon fill="#A80036" points="316.125,1770,304.875,1765,309.875,1770,304.875,1775,316.125,1770" style="stroke:#A80036;stroke-width:1.25;"/><!--MD5=[76f126c883d36c1d268549fc5fa73f7d]
link SYS to UC40--><path d="M107.125,1822.1625 C130.475,1877.1 174.7,1962.1375 240,2010 C261.125,2025.4875 286.825,2036.05 312.2125,2043.2625 " fill="none" id="SYS-to-UC40" style="stroke:#A80036;stroke-width:1.25;"/><polygon fill="#A80036" points="318.3,2044.9375,308.7639,2037.1512,312.2706,2043.2915,306.1304,2046.7982,318.3,2044.9375" style="stroke:#A80036;stroke-width:1.25;"/><!--MD5=[bb84c341b41dca1bf0e9e8259f86e886]
link CLI to UC10--><path d="M108.9,527 C134.375,482.6625 180.975,412.5625 240,372.5 C260.6,358.525 284.875,348.1125 308.9125,340.3875 " fill="none" id="CLI-to-UC10" style="stroke:#A80036;stroke-width:1.25;"/><polygon fill="#A80036" points="315.0125,338.4875,302.7808,337.0915,309.0502,340.3619,305.7798,346.6312,315.0125,338.4875" style="stroke:#A80036;stroke-width:1.25;"/><!--MD5=[9a310a655d1c597514f91596cb32e65d]
link CLI to UC21--><path d="M109.075,550.9625 C137.6125,529.775 190.1375,493.2 240,471.25 C267.7375,459.0375 299.175,449.15 328.075,441.4875 " fill="none" id="CLI-to-UC21" style="stroke:#A80036;stroke-width:1.25;"/><polygon fill="#A80036" points="334.2,439.8875,322.0491,437.9081,328.1549,441.4746,324.5884,447.5803,334.2,439.8875" style="stroke:#A80036;stroke-width:1.25;"/><!--MD5=[93ec3e11e6d74bc851f0f6347f3e70c3]
link CLI to UC22--><path d="M109,564.4625 C150.2375,558.625 242.8875,545.5125 316.95,535.025 " fill="none" id="CLI-to-UC22" style="stroke:#A80036;stroke-width:1.25;"/><polygon fill="#A80036" points="323.15,534.15,311.31,530.7769,316.9617,535.0264,312.7122,540.6781,323.15,534.15" style="stroke:#A80036;stroke-width:1.25;"/><!--MD5=[f70992eb518e65d4a619441ad073f774]
link CLI to UC43--><path d="M108.9625,604.95 C134.8,646.725 182.0375,713.3875 240,751.25 C261.6625,765.4 287.1875,775.8 312.1875,783.425 " fill="none" id="CLI-to-UC43" style="stroke:#A80036;stroke-width:1.25;"/><polygon fill="#A80036" points="318.1875,785.2125,308.8158,777.2292,312.1937,783.4412,305.9817,786.8192,318.1875,785.2125" style="stroke:#A80036;stroke-width:1.25;"/><!--MD5=[e4229da299103f8ae9325e00f5efe6e7]
link CLI to UC42--><path d="M109.15,583.2625 C137.7875,603.4125 190.4125,638.175 240,658.75 C269.825,671.125 303.8125,680.825 334.3375,688.075 " fill="none" id="CLI-to-UC42" style="stroke:#A80036;stroke-width:1.25;"/><polygon fill="#A80036" points="340.8,689.5875,330.9894,682.1501,334.7152,688.16,328.7054,691.8858,340.8,689.5875" style="stroke:#A80036;stroke-width:1.25;"/><!--MD5=[7f612d884bf3564f9e188539103f8ee0]
link CLI to UC33--><path d="M109,570.4625 C152.8375,576.5 254.8,590.55 330.7375,601.0125 " fill="none" id="CLI-to-UC33" style="stroke:#A80036;stroke-width:1.25;"/><polygon fill="#A80036" points="337.075,601.8875,326.6004,595.4187,330.8819,601.0462,325.2544,605.3277,337.075,601.8875" style="stroke:#A80036;stroke-width:1.25;"/><!--MD5=[90dbc7381a9da60dc501da8329be6ebb]
link OW to UC11--><path d="M154.0875,1070.425 C180.7125,1061.8125 211.725,1052.025 240,1043.75 C272.5625,1034.2125 308.6,1024.45 340.0375,1016.1875 " fill="none" id="OW-to-UC11" style="stroke:#A80036;stroke-width:1.25;"/><polygon fill="#A80036" points="346.2625,1014.5625,334.1116,1012.5831,340.2174,1016.1496,336.6509,1022.2553,346.2625,1014.5625" style="stroke:#A80036;stroke-width:1.25;"/><!--MD5=[4bdadeb2d8e027f85cb788727d273e6a]
link OW to UC12--><path d="M153.8125,1092.5 C194.675,1092.5 248.4,1092.5 297.1,1092.5 " fill="none" id="OW-to-UC12" style="stroke:#A80036;stroke-width:1.25;"/><polygon fill="#A80036" points="303.6375,1092.5,292.3875,1087.5,297.3875,1092.5,292.3875,1097.5,303.6375,1092.5" style="stroke:#A80036;stroke-width:1.25;"/><!--MD5=[0e75d8d946ef3f2019294cc321247926]
link OW to UC13--><path d="M154.0875,1114.575 C180.7125,1123.1875 211.725,1132.975 240,1141.25 C272.5625,1150.7875 308.6,1160.55 340.0375,1168.8125 " fill="none" id="OW-to-UC13" style="stroke:#A80036;stroke-width:1.25;"/><polygon fill="#A80036" points="346.2625,1170.4375,336.6509,1162.7447,340.2174,1168.8504,334.1116,1172.4169,346.2625,1170.4375" style="stroke:#A80036;stroke-width:1.25;"/><!--MD5=[09421b2d4e7817febabd105082018e23]
link OW to UC9--><path d="M129.8125,1040.4875 C157.95,1009.175 197.45,970.9625 240,947.5 C267.2125,932.5 299.375,922.2625 329.0875,915.325 " fill="none" id="OW-to-UC9" style="stroke:#A80036;stroke-width:1.25;"/><polygon fill="#A80036" points="335.3875,913.9,323.3058,911.5344,329.2949,915.2936,325.5356,921.2826,335.3875,913.9" style="stroke:#A80036;stroke-width:1.25;"/><!--MD5=[fb08d7d73ff5711baa4455e7a73229c5]
link OW to UC34--><path d="M129.5125,1144.425 C157.675,1176 197.3125,1214.7375 240,1238.75 C264.2625,1252.4 292.4875,1262.35 319.4,1269.55 " fill="none" id="OW-to-UC34" style="stroke:#A80036;stroke-width:1.25;"/><polygon fill="#A80036" points="325.4875,1271.1375,315.8815,1263.4377,319.4435,1269.546,313.3352,1273.1081,325.4875,1271.1375" style="stroke:#A80036;stroke-width:1.25;"/><!--MD5=[0c8a1ed4993aecd6bfde1558a30f6538]
link NUSE to UC4--><path d="M165.3375,2158.75 C203.0875,2158.75 249.45,2158.75 292.4,2158.75 " fill="none" id="NUSE-to-UC4" style="stroke:#A80036;stroke-width:1.25;"/><polygon fill="#A80036" points="298.7125,2158.75,287.4625,2153.75,292.4625,2158.75,287.4625,2163.75,298.7125,2158.75" style="stroke:#A80036;stroke-width:1.25;"/><!--MD5=[d66ba207fe68e2dd182b7f2026f70b90]
link RU to UC8--><path d="M150.2375,1378.75 C202.0375,1378.75 276.2,1378.75 334.1375,1378.75 " fill="none" id="RU-to-UC8" style="stroke:#A80036;stroke-width:1.25;"/><polygon fill="#A80036" points="340.4125,1378.75,329.1625,1373.75,334.1625,1378.75,329.1625,1383.75,340.4125,1378.75" style="stroke:#A80036;stroke-width:1.25;"/><!--MD5=[f95b7810f8562e012368c2025e16ccc6]
link COU to UC39--><path d="M116.1125,57.5 C156.9625,57.5 234.4625,57.5 301.375,57.5 " fill="none" id="COU-to-UC39" style="stroke:#A80036;stroke-width:1.25;"/><polygon fill="#A80036" points="307.8125,57.5,296.5625,52.5,301.5625,57.5,296.5625,62.5,307.8125,57.5" style="stroke:#A80036;stroke-width:1.25;"/><!--MD5=[817057ea2b1747b60fa8d2a83281e516]
link PH to UC30--><path d="M125.675,205 C155.0625,205 198.025,205 242.2125,205 " fill="none" id="PH-to-UC30" style="stroke:#A80036;stroke-width:1.25;"/><polygon fill="#A80036" points="248.7375,205,237.4875,200,242.4875,205,237.4875,210,248.7375,205" style="stroke:#A80036;stroke-width:1.25;"/><!--MD5=[8be756188e7290e5ca1f95b95952b403]
@startuml

usecase UC1 as "UC1 - Add new Scooter"
usecase UC2 as "UC2 - Remove Scooter"
usecase UC3 as "UC3 - Update Scooter List"
usecase UC4 as "UC4 - Sign Up On System"
usecase UC6 as "UC6 - Notify Messenger"
usecase UC8 as "UC8 - Log In"
usecase UC9 as "UC9 - Update Stock"
usecase UC10 as "UC10 - Add Product to Basket"
usecase UC11 as "UC11 - Create Product"
usecase UC12 as "UC12 - Remove Product"
usecase UC13 as "UC13 - Update Product"
usecase UC16 as "UC16 - Create Pharmacy"
usecase UC18 as "UC18 - Add Courier"
usecase UC20 as "UC20 - Update Courier"
usecase UC21 as "UC21 - Checkout Basket"
usecase UC22 as "UC22 - Add Credit Card"
usecase UC5 as "UC5- Scooter Delivery Plan"
usecase UC23 as "UC23- Create Drone"
usecase UC24 as "UC24- Remove Drone"
usecase UC25 as "UC25- Update Drone"
usecase UC28 as "UC28- Create Pharmacy Owner"
usecase UC29 as "UC29- Drone Delivery Plan"
usecase UC30 as "UC30- Automatic Pharmacy Order Back"
usecase UC31 as "UC31- Notify Courier"
usecase UC32 as "UC32- Notify Client"
usecase UC33 as "UC33- Earn Points"
usecase UC34 as "UC34- Update Pharmacy"
usecase UC36 as "UC36- Create Adress"
usecase UC37 as "UC37- Notify Administrator"
usecase UC38 as "UC38- Create Park"
usecase UC39 as "UC39- Scooter Parking"
usecase UC40 as "UC40- Scooter Charging"
usecase UC41 as "UC41- Statistics on Air Or Land Deliveries"
usecase UC42 as "UC42- Cancel Order"
usecase UC43 as "UC43- Consult Order Status"
usecase UC44 as "UC44- Update Park"
usecase UC45 as "UC45- Remove Park"



actor "Administrator" as ADM
actor "Non-registered user" as NUSE
actor "Pharmacy Owner" as OW
actor "Client" as CLI
actor "System/Timer" as SYS
actor "Courier" as COU
actor "Registered User"as RU
actor "Pharmacy" as PH

ADM- ->(UC1)
ADM- ->(UC2)
ADM- ->(UC3)
ADM- ->(UC23)
ADM- ->(UC24)
ADM- ->(UC25)
ADM- ->(UC28)
ADM- ->(UC16)
ADM- ->(UC38)
ADM- ->(UC41)
ADM- ->(UC44)
ADM- ->(UC36)
ADM- ->(UC18)
ADM- ->(UC20)
ADM- ->(UC45)


SYS- ->(UC5)
SYS- ->(UC6)
SYS- ->(UC29)
SYS- ->(UC32)
SYS- ->(UC37)
SYS- ->(UC31)
SYS- ->(UC40)

CLI- ->(UC10)
CLI- ->(UC21)
CLI- ->(UC22)
CLI- ->(UC43)
CLI- ->(UC42)
CLI- ->(UC33)

OW- ->(UC11)
OW- ->(UC12)
OW- ->(UC13)
OW- ->(UC9)
OW- ->(UC34)

NUSE- ->(UC4)

RU- ->(UC8)

COU- ->(UC39)

PH- ->(UC30)

LEFT to right direction




@enduml

PlantUML version 1.2021.00(Sun Jan 10 10:25:05 GMT 2021)
(GPL source distribution)
Java Runtime: OpenJDK Runtime Environment
JVM: OpenJDK 64-Bit Server VM
Default Encoding: Cp1252
Language: pt
Country: PT
--></g></svg>