<?xml version="1.0" encoding="UTF-8" standalone="no"?><svg xmlns="http://www.w3.org/2000/svg" xmlns:xlink="http://www.w3.org/1999/xlink" contentScriptType="application/ecmascript" contentStyleType="text/css" height="173.7px" preserveAspectRatio="none" style="width:760px;height:173px;" version="1.1" viewBox="0 0 760 173" width="760.5px" zoomAndPan="magnify"><defs><filter height="300%" id="fdkf4rwvnb7sf" width="300%" x="-1" y="-1"><feGaussianBlur result="blurOut" stdDeviation="1.8"/><feColorMatrix in="blurOut" result="blurOut2" type="matrix" values="0 0 0 0 0 0 0 0 0 0 0 0 0 0 0 0 0 0 .4 0"/><feOffset dx="3.6" dy="3.6" in="blurOut2" result="blurOut3"/><feBlend in="SourceGraphic" in2="blurOut3" mode="normal"/></filter></defs><g><!--MD5=[17a3ebf5611c1ba9c6fd429f5d0d77a4]
class CourierDB--><rect codeLine="5" fill="#FEFECE" filter="url(#fdkf4rwvnb7sf)" height="68.1047" id="CourierDB" style="stroke: #A80036; stroke-width: 1.35;" width="270.9" x="477" y="6.3"/><ellipse cx="582.525" cy="20.7" fill="#ADD1B2" rx="9.9" ry="9.9" style="stroke: #A80036; stroke-width: 0.9;"/><path d="M584.325,17.55 Q584.5078,17.1 584.7188,16.875 Q584.9297,16.65 585.1688,16.65 Q585.5906,16.65 585.8578,16.9031 Q586.125,17.1563 586.125,17.7469 L586.125,19.1531 Q586.125,19.7438 585.8719,19.9969 Q585.6188,20.25 585.225,20.25 Q584.8734,20.25 584.6484,20.0953 Q584.4234,19.9406 584.325,19.5328 Q584.2828,19.2516 584.1281,19.0969 Q583.8469,18.8016 583.3406,18.6328 Q582.8344,18.45 582.3281,18.45 Q581.6953,18.45 581.1609,18.7031 Q580.6406,18.9563 580.2328,19.5188 Q579.825,20.0813 579.825,20.8547 L579.825,21.6844 Q579.825,22.6125 580.5844,23.2313 Q581.3438,23.85 582.6938,23.85 Q583.4953,23.85 584.0578,23.6672 Q584.3813,23.5688 584.7469,23.2453 Q584.9859,23.0625 585.1125,23.0063 Q585.2391,22.95 585.3938,22.95 Q585.6891,22.95 585.9,23.1891 Q586.125,23.4141 586.125,23.7375 Q586.125,24.0469 585.8156,24.4125 Q585.3656,24.9469 584.6484,25.2422 Q583.7063,25.65 582.5531,25.65 Q581.2031,25.65 580.1203,25.1156 Q579.2484,24.6938 578.6297,23.7797 Q578.025,22.8656 578.025,21.7828 L578.025,20.7984 Q578.025,19.6734 578.5594,18.6891 Q579.1078,17.7047 580.05,17.1844 Q581.0063,16.65 582.075,16.65 Q582.7219,16.65 583.2844,16.875 Q583.8469,17.1 584.325,17.55 Z " fill="#000000"/><text fill="#000000" font-family="sans-serif" font-size="10.8" lengthAdjust="spacingAndGlyphs" textLength="52.2" x="600.975" y="25.1191">CourierDB</text><line style="stroke: #A80036; stroke-width: 1.35;" x1="477.9" x2="747" y1="35.1" y2="35.1"/><line style="stroke: #A80036; stroke-width: 1.35;" x1="477.9" x2="747" y1="42.3" y2="42.3"/><text fill="#000000" font-family="sans-serif" font-size="9.9" lengthAdjust="spacingAndGlyphs" textLength="217.8" x="482.4" y="56.1771">+addCourierHandler(courier,pharmacyId,vehicleId)</text><text fill="#000000" font-family="sans-serif" font-size="9.9" lengthAdjust="spacingAndGlyphs" textLength="260.1" x="482.4" y="68.6294">+addCourier(name,nif,niss,email,state,pharmacyId,vehicleId)</text><!--MD5=[b860ecc58d0ca70e482845cb1f7b4615]
class PharmacyDB--><rect codeLine="10" fill="#FEFECE" filter="url(#fdkf4rwvnb7sf)" height="55.6523" id="PharmacyDB" style="stroke: #A80036; stroke-width: 1.35;" width="98.1" x="563.4" y="106.2"/><ellipse cx="578.925" cy="120.6" fill="#ADD1B2" rx="9.9" ry="9.9" style="stroke: #A80036; stroke-width: 0.9;"/><path d="M580.725,117.45 Q580.9078,117 581.1188,116.775 Q581.3297,116.55 581.5688,116.55 Q581.9906,116.55 582.2578,116.8031 Q582.525,117.0563 582.525,117.6469 L582.525,119.0531 Q582.525,119.6438 582.2719,119.8969 Q582.0188,120.15 581.625,120.15 Q581.2734,120.15 581.0484,119.9953 Q580.8234,119.8406 580.725,119.4328 Q580.6828,119.1516 580.5281,118.9969 Q580.2469,118.7016 579.7406,118.5328 Q579.2344,118.35 578.7281,118.35 Q578.0953,118.35 577.5609,118.6031 Q577.0406,118.8563 576.6328,119.4188 Q576.225,119.9813 576.225,120.7547 L576.225,121.5844 Q576.225,122.5125 576.9844,123.1313 Q577.7438,123.75 579.0938,123.75 Q579.8953,123.75 580.4578,123.5672 Q580.7813,123.4688 581.1469,123.1453 Q581.3859,122.9625 581.5125,122.9063 Q581.6391,122.85 581.7938,122.85 Q582.0891,122.85 582.3,123.0891 Q582.525,123.3141 582.525,123.6375 Q582.525,123.9469 582.2156,124.3125 Q581.7656,124.8469 581.0484,125.1422 Q580.1063,125.55 578.9531,125.55 Q577.6031,125.55 576.5203,125.0156 Q575.6484,124.5938 575.0297,123.6797 Q574.425,122.7656 574.425,121.6828 L574.425,120.6984 Q574.425,119.5734 574.9594,118.5891 Q575.5078,117.6047 576.45,117.0844 Q577.4063,116.55 578.475,116.55 Q579.1219,116.55 579.6844,116.775 Q580.2469,117 580.725,117.45 Z " fill="#000000"/><text fill="#000000" font-family="sans-serif" font-size="10.8" lengthAdjust="spacingAndGlyphs" textLength="64.8" x="591.975" y="125.0191">PharmacyDB</text><line style="stroke: #A80036; stroke-width: 1.35;" x1="564.3" x2="660.6" y1="135" y2="135"/><line style="stroke: #A80036; stroke-width: 1.35;" x1="564.3" x2="660.6" y1="142.2" y2="142.2"/><text fill="#000000" font-family="sans-serif" font-size="9.9" lengthAdjust="spacingAndGlyphs" textLength="87.3" x="568.8" y="156.0771">+getAllPharmacies()</text><!--MD5=[31cd0dbce0ee273eb91fa6d1836b5e4c]
class ManageCourierController--><rect codeLine="15" fill="#FEFECE" filter="url(#fdkf4rwvnb7sf)" height="68.1047" id="ManageCourierController" style="stroke: #A80036; stroke-width: 1.35;" width="246.6" x="176.4" y="6.3"/><ellipse cx="233.325" cy="20.7" fill="#ADD1B2" rx="9.9" ry="9.9" style="stroke: #A80036; stroke-width: 0.9;"/><path d="M235.125,17.55 Q235.3078,17.1 235.5188,16.875 Q235.7297,16.65 235.9688,16.65 Q236.3906,16.65 236.6578,16.9031 Q236.925,17.1563 236.925,17.7469 L236.925,19.1531 Q236.925,19.7438 236.6719,19.9969 Q236.4188,20.25 236.025,20.25 Q235.6734,20.25 235.4484,20.0953 Q235.2234,19.9406 235.125,19.5328 Q235.0828,19.2516 234.9281,19.0969 Q234.6469,18.8016 234.1406,18.6328 Q233.6344,18.45 233.1281,18.45 Q232.4953,18.45 231.9609,18.7031 Q231.4406,18.9563 231.0328,19.5188 Q230.625,20.0813 230.625,20.8547 L230.625,21.6844 Q230.625,22.6125 231.3844,23.2313 Q232.1438,23.85 233.4938,23.85 Q234.2953,23.85 234.8578,23.6672 Q235.1813,23.5688 235.5469,23.2453 Q235.7859,23.0625 235.9125,23.0063 Q236.0391,22.95 236.1938,22.95 Q236.4891,22.95 236.7,23.1891 Q236.925,23.4141 236.925,23.7375 Q236.925,24.0469 236.6156,24.4125 Q236.1656,24.9469 235.4484,25.2422 Q234.5063,25.65 233.3531,25.65 Q232.0031,25.65 230.9203,25.1156 Q230.0484,24.6938 229.4297,23.7797 Q228.825,22.8656 228.825,21.7828 L228.825,20.7984 Q228.825,19.6734 229.3594,18.6891 Q229.9078,17.7047 230.85,17.1844 Q231.8063,16.65 232.875,16.65 Q233.5219,16.65 234.0844,16.875 Q234.6469,17.1 235.125,17.55 Z " fill="#000000"/><text fill="#000000" font-family="sans-serif" font-size="10.8" lengthAdjust="spacingAndGlyphs" textLength="125.1" x="251.775" y="25.1191">ManageCourierController</text><line style="stroke: #A80036; stroke-width: 1.35;" x1="177.3" x2="422.1" y1="35.1" y2="35.1"/><line style="stroke: #A80036; stroke-width: 1.35;" x1="177.3" x2="422.1" y1="42.3" y2="42.3"/><text fill="#000000" font-family="sans-serif" font-size="9.9" lengthAdjust="spacingAndGlyphs" textLength="145.8" x="181.8" y="56.1771">+newCourier(name,nif,niss,email)</text><text fill="#000000" font-family="sans-serif" font-size="9.9" lengthAdjust="spacingAndGlyphs" textLength="235.8" x="181.8" y="68.6294">+addCourier(name,nif,niss,email,pharmacyId,vehicleId)</text><!--MD5=[72850ab1f2b39c2e9c41c48bf9ecb15e]
class PharmacyController--><rect codeLine="20" fill="#FEFECE" filter="url(#fdkf4rwvnb7sf)" height="55.6523" id="PharmacyController" style="stroke: #A80036; stroke-width: 1.35;" width="126.9" x="236.25" y="106.2"/><ellipse cx="249.75" cy="120.6" fill="#ADD1B2" rx="9.9" ry="9.9" style="stroke: #A80036; stroke-width: 0.9;"/><path d="M251.55,117.45 Q251.7328,117 251.9438,116.775 Q252.1547,116.55 252.3938,116.55 Q252.8156,116.55 253.0828,116.8031 Q253.35,117.0563 253.35,117.6469 L253.35,119.0531 Q253.35,119.6438 253.0969,119.8969 Q252.8438,120.15 252.45,120.15 Q252.0984,120.15 251.8734,119.9953 Q251.6484,119.8406 251.55,119.4328 Q251.5078,119.1516 251.3531,118.9969 Q251.0719,118.7016 250.5656,118.5328 Q250.0594,118.35 249.5531,118.35 Q248.9203,118.35 248.3859,118.6031 Q247.8656,118.8563 247.4578,119.4188 Q247.05,119.9813 247.05,120.7547 L247.05,121.5844 Q247.05,122.5125 247.8094,123.1313 Q248.5688,123.75 249.9188,123.75 Q250.7203,123.75 251.2828,123.5672 Q251.6063,123.4688 251.9719,123.1453 Q252.2109,122.9625 252.3375,122.9063 Q252.4641,122.85 252.6188,122.85 Q252.9141,122.85 253.125,123.0891 Q253.35,123.3141 253.35,123.6375 Q253.35,123.9469 253.0406,124.3125 Q252.5906,124.8469 251.8734,125.1422 Q250.9313,125.55 249.7781,125.55 Q248.4281,125.55 247.3453,125.0156 Q246.4734,124.5938 245.8547,123.6797 Q245.25,122.7656 245.25,121.6828 L245.25,120.6984 Q245.25,119.5734 245.7844,118.5891 Q246.3328,117.6047 247.275,117.0844 Q248.2313,116.55 249.3,116.55 Q249.9469,116.55 250.5094,116.775 Q251.0719,117 251.55,117.45 Z " fill="#000000"/><text fill="#000000" font-family="sans-serif" font-size="10.8" lengthAdjust="spacingAndGlyphs" textLength="98.1" x="262.35" y="125.0191">PharmacyController</text><line style="stroke: #A80036; stroke-width: 1.35;" x1="237.15" x2="362.25" y1="135" y2="135"/><line style="stroke: #A80036; stroke-width: 1.35;" x1="237.15" x2="362.25" y1="142.2" y2="142.2"/><text fill="#000000" font-family="sans-serif" font-size="9.9" lengthAdjust="spacingAndGlyphs" textLength="87.3" x="241.65" y="156.0771">+getAllPharmacies()</text><!--MD5=[2de770b2ef94d36b74d5d6e3885db709]
class ManageCourierUI--><rect codeLine="24" fill="#FEFECE" filter="url(#fdkf4rwvnb7sf)" height="43.2" id="ManageCourierUI" style="stroke: #A80036; stroke-width: 1.35;" width="116.1" x="6.3" y="65.7"/><ellipse cx="19.8" cy="80.1" fill="#ADD1B2" rx="9.9" ry="9.9" style="stroke: #A80036; stroke-width: 0.9;"/><path d="M21.6,76.95 Q21.7828,76.5 21.9938,76.275 Q22.2047,76.05 22.4438,76.05 Q22.8656,76.05 23.1328,76.3031 Q23.4,76.5563 23.4,77.1469 L23.4,78.5531 Q23.4,79.1438 23.1469,79.3969 Q22.8938,79.65 22.5,79.65 Q22.1484,79.65 21.9234,79.4953 Q21.6984,79.3406 21.6,78.9328 Q21.5578,78.6516 21.4031,78.4969 Q21.1219,78.2016 20.6156,78.0328 Q20.1094,77.85 19.6031,77.85 Q18.9703,77.85 18.4359,78.1031 Q17.9156,78.3563 17.5078,78.9188 Q17.1,79.4813 17.1,80.2547 L17.1,81.0844 Q17.1,82.0125 17.8594,82.6313 Q18.6188,83.25 19.9688,83.25 Q20.7703,83.25 21.3328,83.0672 Q21.6563,82.9688 22.0219,82.6453 Q22.2609,82.4625 22.3875,82.4063 Q22.5141,82.35 22.6688,82.35 Q22.9641,82.35 23.175,82.5891 Q23.4,82.8141 23.4,83.1375 Q23.4,83.4469 23.0906,83.8125 Q22.6406,84.3469 21.9234,84.6422 Q20.9813,85.05 19.8281,85.05 Q18.4781,85.05 17.3953,84.5156 Q16.5234,84.0938 15.9047,83.1797 Q15.3,82.2656 15.3,81.1828 L15.3,80.1984 Q15.3,79.0734 15.8344,78.0891 Q16.3828,77.1047 17.325,76.5844 Q18.2813,76.05 19.35,76.05 Q19.9969,76.05 20.5594,76.275 Q21.1219,76.5 21.6,76.95 Z " fill="#000000"/><text fill="#000000" font-family="sans-serif" font-size="10.8" lengthAdjust="spacingAndGlyphs" textLength="87.3" x="32.4" y="84.5191">ManageCourierUI</text><line style="stroke: #A80036; stroke-width: 1.35;" x1="7.2" x2="121.5" y1="94.5" y2="94.5"/><line style="stroke: #A80036; stroke-width: 1.35;" x1="7.2" x2="121.5" y1="101.7" y2="101.7"/><!--MD5=[18279d0653af75169e9be7b9d4abdc8b]
link ManageCourierUI to ManageCourierController--><path codeLine="27" d="M122.6817,75.7915 C137.682,72.7857 154.4607,69.4233 171.5409,66.0006 " fill="none" id="ManageCourierUI-to-ManageCourierController" style="stroke: #A80036; stroke-width: 0.9; stroke-dasharray: 7.0,7.0;"/><polygon fill="#A80036" points="176.3658,65.034,167.7161,63.0968,171.9536,65.9187,169.1317,70.1563,176.3658,65.034" style="stroke: #A80036; stroke-width: 0.9;"/><!--MD5=[ba7725e3b063ae998a1a21ab81cba398]
link ManageCourierUI to PharmacyController--><path codeLine="28" d="M122.6817,98.8085 C155.5137,105.3875 196.8696,113.6746 231.2541,120.5648 " fill="none" id="ManageCourierUI-to-PharmacyController" style="stroke: #A80036; stroke-width: 0.9; stroke-dasharray: 7.0,7.0;"/><polygon fill="#A80036" points="235.8423,121.4842,228.608,116.3622,231.4301,120.5996,227.1927,123.4217,235.8423,121.4842" style="stroke: #A80036; stroke-width: 0.9;"/><!--MD5=[737adc4311a9c7ffecc65510e75532b5]
link PharmacyController to PharmacyDB--><path codeLine="29" d="M363.1509,134.1 C420.4782,134.1 504.4284,134.1 558.5355,134.1 " fill="none" id="PharmacyController-to-PharmacyDB" style="stroke: #A80036; stroke-width: 0.9; stroke-dasharray: 7.0,7.0;"/><polygon fill="#A80036" points="563.3514,134.1,555.2514,130.5,558.8514,134.1,555.2514,137.7,563.3514,134.1" style="stroke: #A80036; stroke-width: 0.9;"/><!--MD5=[dec3ea2a98b4a1a7c0312487dd7aef04]
link ManageCourierController to CourierDB--><path codeLine="30" d="M423.0495,40.5 C439.2054,40.5 455.8599,40.5 472.2714,40.5 " fill="none" id="ManageCourierController-to-CourierDB" style="stroke: #A80036; stroke-width: 0.9; stroke-dasharray: 7.0,7.0;"/><polygon fill="#A80036" points="476.8938,40.5,468.7938,36.9,472.3938,40.5,468.7938,44.1,476.8938,40.5" style="stroke: #A80036; stroke-width: 0.9;"/><!--MD5=[b07ecb7dc78bae1f71e81a00e44646f9]
@startuml
skinparam classAttributeIconSize 0
left to right direction


class CourierDB{
  +addCourierHandler(courier,pharmacyId,vehicleId)
  +addCourier(name,nif,niss,email,state,pharmacyId,vehicleId)
}

class PharmacyDB{
  +getAllPharmacies()
}


class ManageCourierController {
 +newCourier(name,nif,niss,email)
 +addCourier(name,nif,niss,email,pharmacyId,vehicleId)
}

class PharmacyController {
  +getAllPharmacies()
}

class ManageCourierUI {
}

ManageCourierUI  ..>  ManageCourierController
ManageCourierUI  ..>  PharmacyController
PharmacyController  ..>  PharmacyDB
ManageCourierController  ..>  CourierDB
@enduml

PlantUML version 1.2020.20(Sat Nov 21 10:02:45 GMT 2020)
(GPL source distribution)
Java Runtime: OpenJDK Runtime Environment
JVM: OpenJDK 64-Bit Server VM
Default Encoding: Cp1252
Language: pt
Country: PT
--></g></svg>