<?xml version="1.0" encoding="UTF-8" standalone="no"?><svg xmlns="http://www.w3.org/2000/svg" xmlns:xlink="http://www.w3.org/1999/xlink" contentScriptType="application/ecmascript" contentStyleType="text/css" height="586px" preserveAspectRatio="none" style="width:1239px;height:586px;" version="1.1" viewBox="0 0 1239 586" width="1239px" zoomAndPan="magnify"><defs><filter height="300%" id="f10dlp9yuymi7k" width="300%" x="-1" y="-1"><feGaussianBlur result="blurOut" stdDeviation="2.0"/><feColorMatrix in="blurOut" result="blurOut2" type="matrix" values="0 0 0 0 0 0 0 0 0 0 0 0 0 0 0 0 0 0 .4 0"/><feOffset dx="4.0" dy="4.0" in="blurOut2" result="blurOut3"/><feBlend in="SourceGraphic" in2="blurOut3" mode="normal"/></filter></defs><g><!--MD5=[99f24dd5d1039fcfc0858ba0a8fa269c]
class CheckoutBasketUI--><rect codeLine="2" fill="#FEFECE" filter="url(#f10dlp9yuymi7k)" height="48" id="CheckoutBasketUI" style="stroke:#A80036;stroke-width:1.5;" width="134" x="721" y="7"/><ellipse cx="736" cy="23" fill="#ADD1B2" rx="11" ry="11" style="stroke:#A80036;stroke-width:1.0;"/><path d="M738,19.5 Q738.2031,19 738.4375,18.75 Q738.6719,18.5 738.9375,18.5 Q739.4063,18.5 739.7031,18.7813 Q740,19.0625 740,19.7188 L740,21.2813 Q740,21.9375 739.7188,22.2188 Q739.4375,22.5 739,22.5 Q738.6094,22.5 738.3594,22.3281 Q738.1094,22.1563 738,21.7031 Q737.9531,21.3906 737.7813,21.2188 Q737.4688,20.8906 736.9063,20.7031 Q736.3438,20.5 735.7813,20.5 Q735.0781,20.5 734.4844,20.7813 Q733.9063,21.0625 733.4531,21.6875 Q733,22.3125 733,23.1719 L733,24.0938 Q733,25.125 733.8438,25.8125 Q734.6875,26.5 736.1875,26.5 Q737.0781,26.5 737.7031,26.2969 Q738.0625,26.1875 738.4688,25.8281 Q738.7344,25.625 738.875,25.5625 Q739.0156,25.5 739.1875,25.5 Q739.5156,25.5 739.75,25.7656 Q740,26.0156 740,26.375 Q740,26.7188 739.6563,27.125 Q739.1563,27.7188 738.3594,28.0469 Q737.3125,28.5 736.0313,28.5 Q734.5313,28.5 733.3281,27.9063 Q732.3594,27.4375 731.6719,26.4219 Q731,25.4063 731,24.2031 L731,23.1094 Q731,21.8594 731.5938,20.7656 Q732.2031,19.6719 733.25,19.0938 Q734.3125,18.5 735.5,18.5 Q736.2188,18.5 736.8438,18.75 Q737.4688,19 738,19.5 Z " fill="#000000"/><text fill="#000000" font-family="sans-serif" font-size="12" lengthAdjust="spacing" textLength="102" x="750" y="27.9102">CheckoutBasketUI</text><line style="stroke:#A80036;stroke-width:1.5;" x1="722" x2="854" y1="39" y2="39"/><line style="stroke:#A80036;stroke-width:1.5;" x1="722" x2="854" y1="47" y2="47"/><!--MD5=[658cb5454b82ac073554f655fece6158]
class CheckoutBasketController--><rect codeLine="6" fill="#FEFECE" filter="url(#f10dlp9yuymi7k)" height="131.0156" id="CheckoutBasketController" style="stroke:#A80036;stroke-width:1.5;" width="176" x="700" y="115"/><ellipse cx="715" cy="131" fill="#ADD1B2" rx="11" ry="11" style="stroke:#A80036;stroke-width:1.0;"/><path d="M717,127.5 Q717.2031,127 717.4375,126.75 Q717.6719,126.5 717.9375,126.5 Q718.4063,126.5 718.7031,126.7813 Q719,127.0625 719,127.7188 L719,129.2813 Q719,129.9375 718.7188,130.2188 Q718.4375,130.5 718,130.5 Q717.6094,130.5 717.3594,130.3281 Q717.1094,130.1563 717,129.7031 Q716.9531,129.3906 716.7813,129.2188 Q716.4688,128.8906 715.9063,128.7031 Q715.3438,128.5 714.7813,128.5 Q714.0781,128.5 713.4844,128.7813 Q712.9063,129.0625 712.4531,129.6875 Q712,130.3125 712,131.1719 L712,132.0938 Q712,133.125 712.8438,133.8125 Q713.6875,134.5 715.1875,134.5 Q716.0781,134.5 716.7031,134.2969 Q717.0625,134.1875 717.4688,133.8281 Q717.7344,133.625 717.875,133.5625 Q718.0156,133.5 718.1875,133.5 Q718.5156,133.5 718.75,133.7656 Q719,134.0156 719,134.375 Q719,134.7188 718.6563,135.125 Q718.1563,135.7188 717.3594,136.0469 Q716.3125,136.5 715.0313,136.5 Q713.5313,136.5 712.3281,135.9063 Q711.3594,135.4375 710.6719,134.4219 Q710,133.4063 710,132.2031 L710,131.1094 Q710,129.8594 710.5938,128.7656 Q711.2031,127.6719 712.25,127.0938 Q713.3125,126.5 714.5,126.5 Q715.2188,126.5 715.8438,126.75 Q716.4688,127 717,127.5 Z " fill="#000000"/><text fill="#000000" font-family="sans-serif" font-size="12" lengthAdjust="spacing" textLength="144" x="729" y="135.9102">CheckoutBasketController</text><line style="stroke:#A80036;stroke-width:1.5;" x1="701" x2="875" y1="147" y2="147"/><line style="stroke:#A80036;stroke-width:1.5;" x1="701" x2="875" y1="155" y2="155"/><ellipse cx="711" cy="166" fill="#84BE84" rx="3" ry="3" style="stroke:#038048;stroke-width:1.0;"/><text fill="#000000" font-family="sans-serif" font-size="11" lengthAdjust="spacing" textLength="49" x="720" y="170.4189">getClient()</text><ellipse cx="711" cy="179.8359" fill="#84BE84" rx="3" ry="3" style="stroke:#038048;stroke-width:1.0;"/><text fill="#000000" font-family="sans-serif" font-size="11" lengthAdjust="spacing" textLength="106" x="720" y="184.2549">getCreditCardsClient()</text><ellipse cx="711" cy="193.6719" fill="#84BE84" rx="3" ry="3" style="stroke:#038048;stroke-width:1.0;"/><text fill="#000000" font-family="sans-serif" font-size="11" lengthAdjust="spacing" textLength="90" x="720" y="198.0908">getCardByOption()</text><ellipse cx="711" cy="207.5078" fill="#84BE84" rx="3" ry="3" style="stroke:#038048;stroke-width:1.0;"/><text fill="#000000" font-family="sans-serif" font-size="11" lengthAdjust="spacing" textLength="81" x="720" y="211.9268">newCreditCard()</text><ellipse cx="711" cy="221.3438" fill="#84BE84" rx="3" ry="3" style="stroke:#038048;stroke-width:1.0;"/><text fill="#000000" font-family="sans-serif" font-size="11" lengthAdjust="spacing" textLength="36" x="720" y="225.7627">setNif()</text><ellipse cx="711" cy="235.1797" fill="#84BE84" rx="3" ry="3" style="stroke:#038048;stroke-width:1.0;"/><text fill="#000000" font-family="sans-serif" font-size="11" lengthAdjust="spacing" textLength="58" x="720" y="239.5986">newOrder()</text><!--MD5=[79201099e7ad95730d4f601b46d6ddd1]
class ClientDB--><rect codeLine="16" fill="#FEFECE" filter="url(#f10dlp9yuymi7k)" height="144.8516" id="ClientDB" style="stroke:#A80036;stroke-width:1.5;" width="499" x="165.5" y="306"/><ellipse cx="386.25" cy="322" fill="#ADD1B2" rx="11" ry="11" style="stroke:#A80036;stroke-width:1.0;"/><path d="M388.25,318.5 Q388.4531,318 388.6875,317.75 Q388.9219,317.5 389.1875,317.5 Q389.6563,317.5 389.9531,317.7813 Q390.25,318.0625 390.25,318.7188 L390.25,320.2813 Q390.25,320.9375 389.9688,321.2188 Q389.6875,321.5 389.25,321.5 Q388.8594,321.5 388.6094,321.3281 Q388.3594,321.1563 388.25,320.7031 Q388.2031,320.3906 388.0313,320.2188 Q387.7188,319.8906 387.1563,319.7031 Q386.5938,319.5 386.0313,319.5 Q385.3281,319.5 384.7344,319.7813 Q384.1563,320.0625 383.7031,320.6875 Q383.25,321.3125 383.25,322.1719 L383.25,323.0938 Q383.25,324.125 384.0938,324.8125 Q384.9375,325.5 386.4375,325.5 Q387.3281,325.5 387.9531,325.2969 Q388.3125,325.1875 388.7188,324.8281 Q388.9844,324.625 389.125,324.5625 Q389.2656,324.5 389.4375,324.5 Q389.7656,324.5 390,324.7656 Q390.25,325.0156 390.25,325.375 Q390.25,325.7188 389.9063,326.125 Q389.4063,326.7188 388.6094,327.0469 Q387.5625,327.5 386.2813,327.5 Q384.7813,327.5 383.5781,326.9063 Q382.6094,326.4375 381.9219,325.4219 Q381.25,324.4063 381.25,323.2031 L381.25,322.1094 Q381.25,320.8594 381.8438,319.7656 Q382.4531,318.6719 383.5,318.0938 Q384.5625,317.5 385.75,317.5 Q386.4688,317.5 387.0938,317.75 Q387.7188,318 388.25,318.5 Z " fill="#000000"/><text fill="#000000" font-family="sans-serif" font-size="12" lengthAdjust="spacing" textLength="49" x="406.75" y="326.9102">ClientDB</text><line style="stroke:#A80036;stroke-width:1.5;" x1="166.5" x2="663.5" y1="338" y2="338"/><line style="stroke:#A80036;stroke-width:1.5;" x1="166.5" x2="663.5" y1="346" y2="346"/><ellipse cx="176.5" cy="357" fill="#84BE84" rx="3" ry="3" style="stroke:#038048;stroke-width:1.0;"/><text fill="#000000" font-family="sans-serif" font-size="11" lengthAdjust="spacing" textLength="281" x="185.5" y="361.4189">List&lt;CreditCard&gt; getClientCreditCardsByEmail(String email)</text><ellipse cx="176.5" cy="370.8359" fill="#84BE84" rx="3" ry="3" style="stroke:#038048;stroke-width:1.0;"/><text fill="#000000" font-family="sans-serif" font-size="11" lengthAdjust="spacing" textLength="161" x="185.5" y="375.2549">boolean hasClientNif(String email)</text><ellipse cx="176.5" cy="384.6719" fill="#84BE84" rx="3" ry="3" style="stroke:#038048;stroke-width:1.0;"/><text fill="#000000" font-family="sans-serif" font-size="11" lengthAdjust="spacing" textLength="190" x="185.5" y="389.0908">Integer getClientNifByEmail(String email)</text><ellipse cx="176.5" cy="398.5078" fill="#84BE84" rx="3" ry="3" style="stroke:#038048;stroke-width:1.0;"/><text fill="#000000" font-family="sans-serif" font-size="11" lengthAdjust="spacing" textLength="211" x="185.5" y="402.9268">Integer getClientCreditsByEmail(String email)</text><ellipse cx="176.5" cy="412.3438" fill="#84BE84" rx="3" ry="3" style="stroke:#038048;stroke-width:1.0;"/><text fill="#000000" font-family="sans-serif" font-size="11" lengthAdjust="spacing" textLength="294" x="185.5" y="416.7627">List&lt;Product&gt; getProductsInBasketByClientEmail(String email)</text><ellipse cx="176.5" cy="426.1797" fill="#84BE84" rx="3" ry="3" style="stroke:#038048;stroke-width:1.0;"/><text fill="#000000" font-family="sans-serif" font-size="11" lengthAdjust="spacing" textLength="234" x="185.5" y="430.5986">CreditCard getClientLastAddedCard(String email)</text><ellipse cx="176.5" cy="440.0156" fill="#84BE84" rx="3" ry="3" style="stroke:#038048;stroke-width:1.0;"/><text fill="#000000" font-family="sans-serif" font-size="11" lengthAdjust="spacing" textLength="473" x="185.5" y="444.4346">newOrder(String email, List&lt;Product&gt; products, CreditCard card, Integer nif, Integer creditsToUse)</text><!--MD5=[c5b08e60048ef1bcd788d24cf324082e]
class UserSession--><rect codeLine="28" fill="#FEFECE" filter="url(#f10dlp9yuymi7k)" height="75.6719" id="UserSession" style="stroke:#A80036;stroke-width:1.5;" width="176" x="700" y="340.5"/><ellipse cx="747.25" cy="356.5" fill="#ADD1B2" rx="11" ry="11" style="stroke:#A80036;stroke-width:1.0;"/><path d="M749.25,353 Q749.4531,352.5 749.6875,352.25 Q749.9219,352 750.1875,352 Q750.6563,352 750.9531,352.2813 Q751.25,352.5625 751.25,353.2188 L751.25,354.7813 Q751.25,355.4375 750.9688,355.7188 Q750.6875,356 750.25,356 Q749.8594,356 749.6094,355.8281 Q749.3594,355.6563 749.25,355.2031 Q749.2031,354.8906 749.0313,354.7188 Q748.7188,354.3906 748.1563,354.2031 Q747.5938,354 747.0313,354 Q746.3281,354 745.7344,354.2813 Q745.1563,354.5625 744.7031,355.1875 Q744.25,355.8125 744.25,356.6719 L744.25,357.5938 Q744.25,358.625 745.0938,359.3125 Q745.9375,360 747.4375,360 Q748.3281,360 748.9531,359.7969 Q749.3125,359.6875 749.7188,359.3281 Q749.9844,359.125 750.125,359.0625 Q750.2656,359 750.4375,359 Q750.7656,359 751,359.2656 Q751.25,359.5156 751.25,359.875 Q751.25,360.2188 750.9063,360.625 Q750.4063,361.2188 749.6094,361.5469 Q748.5625,362 747.2813,362 Q745.7813,362 744.5781,361.4063 Q743.6094,360.9375 742.9219,359.9219 Q742.25,358.9063 742.25,357.7031 L742.25,356.6094 Q742.25,355.3594 742.8438,354.2656 Q743.4531,353.1719 744.5,352.5938 Q745.5625,352 746.75,352 Q747.4688,352 748.0938,352.25 Q748.7188,352.5 749.25,353 Z " fill="#000000"/><text fill="#000000" font-family="sans-serif" font-size="12" lengthAdjust="spacing" textLength="73" x="767.75" y="361.4102">UserSession</text><line style="stroke:#A80036;stroke-width:1.5;" x1="701" x2="875" y1="372.5" y2="372.5"/><line style="stroke:#A80036;stroke-width:1.5;" x1="701" x2="875" y1="380.5" y2="380.5"/><ellipse cx="711" cy="391.5" fill="#84BE84" rx="3" ry="3" style="stroke:#038048;stroke-width:1.0;"/><text fill="#000000" font-family="sans-serif" font-size="11" lengthAdjust="spacing" textLength="150" x="720" y="395.9189">UserSession getUserSession()</text><ellipse cx="711" cy="405.3359" fill="#84BE84" rx="3" ry="3" style="stroke:#038048;stroke-width:1.0;"/><text fill="#000000" font-family="sans-serif" font-size="11" lengthAdjust="spacing" textLength="72" x="720" y="409.7549">User getUser()</text><!--MD5=[91d4151b6d4c9a3d01b6d84b2458eece]
class CreditCard--><rect codeLine="33" fill="#FEFECE" filter="url(#f10dlp9yuymi7k)" height="61.8359" id="CreditCard" style="stroke:#A80036;stroke-width:1.5;" width="294" x="7" y="511"/><ellipse cx="119.75" cy="527" fill="#ADD1B2" rx="11" ry="11" style="stroke:#A80036;stroke-width:1.0;"/><path d="M121.75,523.5 Q121.9531,523 122.1875,522.75 Q122.4219,522.5 122.6875,522.5 Q123.1563,522.5 123.4531,522.7813 Q123.75,523.0625 123.75,523.7188 L123.75,525.2813 Q123.75,525.9375 123.4688,526.2188 Q123.1875,526.5 122.75,526.5 Q122.3594,526.5 122.1094,526.3281 Q121.8594,526.1563 121.75,525.7031 Q121.7031,525.3906 121.5313,525.2188 Q121.2188,524.8906 120.6563,524.7031 Q120.0938,524.5 119.5313,524.5 Q118.8281,524.5 118.2344,524.7813 Q117.6563,525.0625 117.2031,525.6875 Q116.75,526.3125 116.75,527.1719 L116.75,528.0938 Q116.75,529.125 117.5938,529.8125 Q118.4375,530.5 119.9375,530.5 Q120.8281,530.5 121.4531,530.2969 Q121.8125,530.1875 122.2188,529.8281 Q122.4844,529.625 122.625,529.5625 Q122.7656,529.5 122.9375,529.5 Q123.2656,529.5 123.5,529.7656 Q123.75,530.0156 123.75,530.375 Q123.75,530.7188 123.4063,531.125 Q122.9063,531.7188 122.1094,532.0469 Q121.0625,532.5 119.7813,532.5 Q118.2813,532.5 117.0781,531.9063 Q116.1094,531.4375 115.4219,530.4219 Q114.75,529.4063 114.75,528.2031 L114.75,527.1094 Q114.75,525.8594 115.3438,524.7656 Q115.9531,523.6719 117,523.0938 Q118.0625,522.5 119.25,522.5 Q119.9688,522.5 120.5938,522.75 Q121.2188,523 121.75,523.5 Z " fill="#000000"/><text fill="#000000" font-family="sans-serif" font-size="12" lengthAdjust="spacing" textLength="60" x="140.25" y="531.9102">CreditCard</text><line style="stroke:#A80036;stroke-width:1.5;" x1="8" x2="300" y1="543" y2="543"/><line style="stroke:#A80036;stroke-width:1.5;" x1="8" x2="300" y1="551" y2="551"/><ellipse cx="18" cy="562" fill="#84BE84" rx="3" ry="3" style="stroke:#038048;stroke-width:1.0;"/><text fill="#000000" font-family="sans-serif" font-size="11" lengthAdjust="spacing" textLength="268" x="27" y="566.4189">create(Integer number, Integer CVV, Date expirateDate)</text><!--MD5=[3fd616f346a44cd59a91eb10b19e157c]
class User--><rect codeLine="39" fill="#FEFECE" filter="url(#f10dlp9yuymi7k)" height="61.8359" id="User" style="stroke:#A80036;stroke-width:1.5;" width="127" x="724.5" y="511"/><ellipse cx="770.25" cy="527" fill="#ADD1B2" rx="11" ry="11" style="stroke:#A80036;stroke-width:1.0;"/><path d="M772.25,523.5 Q772.4531,523 772.6875,522.75 Q772.9219,522.5 773.1875,522.5 Q773.6563,522.5 773.9531,522.7813 Q774.25,523.0625 774.25,523.7188 L774.25,525.2813 Q774.25,525.9375 773.9688,526.2188 Q773.6875,526.5 773.25,526.5 Q772.8594,526.5 772.6094,526.3281 Q772.3594,526.1563 772.25,525.7031 Q772.2031,525.3906 772.0313,525.2188 Q771.7188,524.8906 771.1563,524.7031 Q770.5938,524.5 770.0313,524.5 Q769.3281,524.5 768.7344,524.7813 Q768.1563,525.0625 767.7031,525.6875 Q767.25,526.3125 767.25,527.1719 L767.25,528.0938 Q767.25,529.125 768.0938,529.8125 Q768.9375,530.5 770.4375,530.5 Q771.3281,530.5 771.9531,530.2969 Q772.3125,530.1875 772.7188,529.8281 Q772.9844,529.625 773.125,529.5625 Q773.2656,529.5 773.4375,529.5 Q773.7656,529.5 774,529.7656 Q774.25,530.0156 774.25,530.375 Q774.25,530.7188 773.9063,531.125 Q773.4063,531.7188 772.6094,532.0469 Q771.5625,532.5 770.2813,532.5 Q768.7813,532.5 767.5781,531.9063 Q766.6094,531.4375 765.9219,530.4219 Q765.25,529.4063 765.25,528.2031 L765.25,527.1094 Q765.25,525.8594 765.8438,524.7656 Q766.4531,523.6719 767.5,523.0938 Q768.5625,522.5 769.75,522.5 Q770.4688,522.5 771.0938,522.75 Q771.7188,523 772.25,523.5 Z " fill="#000000"/><text fill="#000000" font-family="sans-serif" font-size="12" lengthAdjust="spacing" textLength="27" x="790.75" y="531.9102">User</text><line style="stroke:#A80036;stroke-width:1.5;" x1="725.5" x2="850.5" y1="543" y2="543"/><line style="stroke:#A80036;stroke-width:1.5;" x1="725.5" x2="850.5" y1="551" y2="551"/><ellipse cx="735.5" cy="562" fill="#84BE84" rx="3" ry="3" style="stroke:#038048;stroke-width:1.0;"/><text fill="#000000" font-family="sans-serif" font-size="11" lengthAdjust="spacing" textLength="101" x="744.5" y="566.4189">String getUserEmail()</text><!--MD5=[f8d2b21678b6ea5d90e779ee6463ca37]
class Utils--><rect codeLine="44" fill="#FEFECE" filter="url(#f10dlp9yuymi7k)" height="61.8359" id="Utils" style="stroke:#A80036;stroke-width:1.5;" width="243" x="982.5" y="347.5"/><ellipse cx="1087.25" cy="363.5" fill="#ADD1B2" rx="11" ry="11" style="stroke:#A80036;stroke-width:1.0;"/><path d="M1089.25,360 Q1089.4531,359.5 1089.6875,359.25 Q1089.9219,359 1090.1875,359 Q1090.6563,359 1090.9531,359.2813 Q1091.25,359.5625 1091.25,360.2188 L1091.25,361.7813 Q1091.25,362.4375 1090.9688,362.7188 Q1090.6875,363 1090.25,363 Q1089.8594,363 1089.6094,362.8281 Q1089.3594,362.6563 1089.25,362.2031 Q1089.2031,361.8906 1089.0313,361.7188 Q1088.7188,361.3906 1088.1563,361.2031 Q1087.5938,361 1087.0313,361 Q1086.3281,361 1085.7344,361.2813 Q1085.1563,361.5625 1084.7031,362.1875 Q1084.25,362.8125 1084.25,363.6719 L1084.25,364.5938 Q1084.25,365.625 1085.0938,366.3125 Q1085.9375,367 1087.4375,367 Q1088.3281,367 1088.9531,366.7969 Q1089.3125,366.6875 1089.7188,366.3281 Q1089.9844,366.125 1090.125,366.0625 Q1090.2656,366 1090.4375,366 Q1090.7656,366 1091,366.2656 Q1091.25,366.5156 1091.25,366.875 Q1091.25,367.2188 1090.9063,367.625 Q1090.4063,368.2188 1089.6094,368.5469 Q1088.5625,369 1087.2813,369 Q1085.7813,369 1084.5781,368.4063 Q1083.6094,367.9375 1082.9219,366.9219 Q1082.25,365.9063 1082.25,364.7031 L1082.25,363.6094 Q1082.25,362.3594 1082.8438,361.2656 Q1083.4531,360.1719 1084.5,359.5938 Q1085.5625,359 1086.75,359 Q1087.4688,359 1088.0938,359.25 Q1088.7188,359.5 1089.25,360 Z " fill="#000000"/><text fill="#000000" font-family="sans-serif" font-size="12" lengthAdjust="spacing" textLength="25" x="1107.75" y="368.4102">Utils</text><line style="stroke:#A80036;stroke-width:1.5;" x1="983.5" x2="1224.5" y1="379.5" y2="379.5"/><line style="stroke:#A80036;stroke-width:1.5;" x1="983.5" x2="1224.5" y1="387.5" y2="387.5"/><ellipse cx="993.5" cy="398.5" fill="#84BE84" rx="3" ry="3" style="stroke:#038048;stroke-width:1.0;"/><text fill="#000000" font-family="sans-serif" font-size="11" lengthAdjust="spacing" textLength="217" x="1002.5" y="402.9189">E getItemByOption(List&lt;E&gt; list, Integer option)</text><!--MD5=[72136138052d025cffdce3c22fbd185f]
class Product--><rect codeLine="50" fill="#FEFECE" filter="url(#f10dlp9yuymi7k)" height="48" id="Product" style="stroke:#A80036;stroke-width:1.5;" width="74" x="378" y="518"/><ellipse cx="393" cy="534" fill="#ADD1B2" rx="11" ry="11" style="stroke:#A80036;stroke-width:1.0;"/><path d="M395,530.5 Q395.2031,530 395.4375,529.75 Q395.6719,529.5 395.9375,529.5 Q396.4063,529.5 396.7031,529.7813 Q397,530.0625 397,530.7188 L397,532.2813 Q397,532.9375 396.7188,533.2188 Q396.4375,533.5 396,533.5 Q395.6094,533.5 395.3594,533.3281 Q395.1094,533.1563 395,532.7031 Q394.9531,532.3906 394.7813,532.2188 Q394.4688,531.8906 393.9063,531.7031 Q393.3438,531.5 392.7813,531.5 Q392.0781,531.5 391.4844,531.7813 Q390.9063,532.0625 390.4531,532.6875 Q390,533.3125 390,534.1719 L390,535.0938 Q390,536.125 390.8438,536.8125 Q391.6875,537.5 393.1875,537.5 Q394.0781,537.5 394.7031,537.2969 Q395.0625,537.1875 395.4688,536.8281 Q395.7344,536.625 395.875,536.5625 Q396.0156,536.5 396.1875,536.5 Q396.5156,536.5 396.75,536.7656 Q397,537.0156 397,537.375 Q397,537.7188 396.6563,538.125 Q396.1563,538.7188 395.3594,539.0469 Q394.3125,539.5 393.0313,539.5 Q391.5313,539.5 390.3281,538.9063 Q389.3594,538.4375 388.6719,537.4219 Q388,536.4063 388,535.2031 L388,534.1094 Q388,532.8594 388.5938,531.7656 Q389.2031,530.6719 390.25,530.0938 Q391.3125,529.5 392.5,529.5 Q393.2188,529.5 393.8438,529.75 Q394.4688,530 395,530.5 Z " fill="#000000"/><text fill="#000000" font-family="sans-serif" font-size="12" lengthAdjust="spacing" textLength="42" x="407" y="538.9102">Product</text><line style="stroke:#A80036;stroke-width:1.5;" x1="379" x2="451" y1="550" y2="550"/><line style="stroke:#A80036;stroke-width:1.5;" x1="379" x2="451" y1="558" y2="558"/><!--MD5=[f6ee160a748c55d6415d61e641c40afc]
link CheckoutBasketUI to CheckoutBasketController--><path codeLine="58" d="M788,55.05 C788,69.91 788,90.1 788,109.89 " fill="none" id="CheckoutBasketUI-to-CheckoutBasketController" style="stroke:#A80036;stroke-width:1.0;stroke-dasharray:7.0,7.0;"/><polygon fill="#A80036" points="788,114.91,792,105.91,788,109.91,784,105.91,788,114.91" style="stroke:#A80036;stroke-width:1.0;"/><!--MD5=[07fcb5180212c1b4ee0c293d332c16bf]
link CheckoutBasketController to UserSession--><path codeLine="60" d="M788,246.22 C788,275.49 788,309.26 788,335.21 " fill="none" id="CheckoutBasketController-to-UserSession" style="stroke:#A80036;stroke-width:1.0;stroke-dasharray:7.0,7.0;"/><polygon fill="#A80036" points="788,340.3,792,331.3,788,335.3,784,331.3,788,340.3" style="stroke:#A80036;stroke-width:1.0;"/><!--MD5=[32dd7d1a5e74388aa021f02488e7ff62]
link CheckoutBasketController to ClientDB--><path codeLine="61" d="M699.6,227.95 C656.72,250.49 604.15,278.11 555.92,303.45 " fill="none" id="CheckoutBasketController-to-ClientDB" style="stroke:#A80036;stroke-width:1.0;stroke-dasharray:7.0,7.0;"/><polygon fill="#A80036" points="551.27,305.9,561.0975,305.2519,555.6955,303.573,557.3744,298.171,551.27,305.9" style="stroke:#A80036;stroke-width:1.0;"/><!--MD5=[c89291c6b692b7c269ea19ac14196b90]
link CheckoutBasketController to CreditCard--><path codeLine="62" d="M699.72,185.3 C540.86,194.19 216.93,222.36 148,306 C101.35,362.59 123.15,455.53 140.29,505.9 " fill="none" id="CheckoutBasketController-to-CreditCard" style="stroke:#A80036;stroke-width:1.0;stroke-dasharray:7.0,7.0;"/><polygon fill="#A80036" points="141.93,510.64,142.7548,500.8257,140.2891,505.9169,135.1979,503.4512,141.93,510.64" style="stroke:#A80036;stroke-width:1.0;"/><!--MD5=[2a7e2082fb3aa24831b2c413c5743fb9]
link CheckoutBasketController to User--><path codeLine="63" d="M857.75,246.24 C872.53,264.03 886.06,284.42 894,306 C916.26,366.48 921.07,392.51 894,451 C883.44,473.81 863.94,492.96 844.51,507.64 " fill="none" id="CheckoutBasketController-to-User" style="stroke:#A80036;stroke-width:1.0;stroke-dasharray:7.0,7.0;"/><polygon fill="#A80036" points="840.11,510.9,849.7237,508.7605,844.1288,507.9252,844.964,502.3304,840.11,510.9" style="stroke:#A80036;stroke-width:1.0;"/><!--MD5=[64b19580be6178a26690d063fc7ea370]
link CheckoutBasketController to Utils--><path codeLine="64" d="M876.02,236.1 C932.4,271.06 1003.66,315.26 1051.37,344.86 " fill="none" id="CheckoutBasketController-to-Utils" style="stroke:#A80036;stroke-width:1.0;stroke-dasharray:7.0,7.0;"/><polygon fill="#A80036" points="1055.62,347.5,1050.0834,339.3547,1051.372,344.8628,1045.8639,346.1515,1055.62,347.5" style="stroke:#A80036;stroke-width:1.0;"/><!--MD5=[261a9f975a95b8b9805b87baf77053d0]
link UserSession to User--><path codeLine="66" d="M788,416.55 C788,443.35 788,479.35 788,505.73 " fill="none" id="UserSession-to-User" style="stroke:#A80036;stroke-width:1.0;stroke-dasharray:7.0,7.0;"/><polygon fill="#A80036" points="788,510.87,792,501.87,788,505.87,784,501.87,788,510.87" style="stroke:#A80036;stroke-width:1.0;"/><!--MD5=[e7b28c169aa08116f6e7ceb5922ffc18]
link ClientDB to CreditCard--><path codeLine="68" d="M299.38,451.04 C267.29,470.9 233.97,491.51 207.35,507.99 " fill="none" id="ClientDB-to-CreditCard" style="stroke:#A80036;stroke-width:1.0;stroke-dasharray:7.0,7.0;"/><polygon fill="#A80036" points="202.8,510.81,212.5573,509.4705,207.0504,508.1767,208.3441,502.6698,202.8,510.81" style="stroke:#A80036;stroke-width:1.0;"/><!--MD5=[c66245cc82d73f467c8785518f5a76c5]
link ClientDB to Product--><path codeLine="69" d="M415,451.28 C415,472.96 415,495.51 415,512.59 " fill="none" id="ClientDB-to-Product" style="stroke:#A80036;stroke-width:1.0;stroke-dasharray:7.0,7.0;"/><polygon fill="#A80036" points="415,517.7,419,508.7,415,512.7,411,508.7,415,517.7" style="stroke:#A80036;stroke-width:1.0;"/><!--MD5=[f31a3509f2b2ba65e039a21f6bea376f]
link ClientDB to User--><path codeLine="70" d="M580.23,451.04 C629.29,472.28 680.34,494.39 719.56,511.37 " fill="none" id="ClientDB-to-User" style="stroke:#A80036;stroke-width:1.0;stroke-dasharray:7.0,7.0;"/><polygon fill="#A80036" points="724.28,513.41,717.6105,506.1631,719.6917,511.4232,714.4316,513.5043,724.28,513.41" style="stroke:#A80036;stroke-width:1.0;"/><!--MD5=[857fbcaf531602e0108b66aa7e2c2538]
@startuml

class CheckoutBasketUI {

}

class CheckoutBasketController {
  +getClient()
  +getCreditCardsClient()
  +getCardByOption()
  +newCreditCard()
  +setNif()
  +newOrder()

}

class ClientDB {
    +List<CreditCard> getClientCreditCardsByEmail(String email)
    +boolean hasClientNif(String email)
    +Integer getClientNifByEmail(String email)
    +Integer getClientCreditsByEmail(String email)
    +List<Product> getProductsInBasketByClientEmail(String email)
    +CreditCard getClientLastAddedCard(String email)
    +newOrder(String email, List<Product> products, CreditCard card, Integer nif, Integer creditsToUse)


}

class UserSession {
    +UserSession getUserSession()
    +User getUser()
}

class CreditCard {
    +create(Integer number, Integer CVV, Date expirateDate)

}


class User {
    +String getUserEmail()

}

class Utils {
 +E getItemByOption(List<E> list, Integer option)
}



class Product {


}




CheckoutBasketUI ..> CheckoutBasketController

CheckoutBasketController ..> UserSession
CheckoutBasketController ..> ClientDB
CheckoutBasketController ..> CreditCard
CheckoutBasketController ..> User
CheckoutBasketController ..> Utils

UserSession ..> User

ClientDB ..> CreditCard
ClientDB ..> Product
ClientDB ..> User





@enduml

PlantUML version 1.2021.00(Sun Jan 10 10:25:05 GMT 2021)
(GPL source distribution)
Java Runtime: OpenJDK Runtime Environment
JVM: OpenJDK 64-Bit Server VM
Default Encoding: Cp1252
Language: pt
Country: PT
--></g></svg>