<?xml version="1.0" encoding="UTF-8" standalone="no"?><svg xmlns="http://www.w3.org/2000/svg" xmlns:xlink="http://www.w3.org/1999/xlink" contentScriptType="application/ecmascript" contentStyleType="text/css" height="748px" preserveAspectRatio="none" style="width:404px;height:748px;" version="1.1" viewBox="0 0 404 748" width="404px" zoomAndPan="magnify"><defs><filter height="300%" id="f9qmhwjvk2dcc" width="300%" x="-1" y="-1"><feGaussianBlur result="blurOut" stdDeviation="2.0"/><feColorMatrix in="blurOut" result="blurOut2" type="matrix" values="0 0 0 0 0 0 0 0 0 0 0 0 0 0 0 0 0 0 .4 0"/><feOffset dx="4.0" dy="4.0" in="blurOut2" result="blurOut3"/><feBlend in="SourceGraphic" in2="blurOut3" mode="normal"/></filter></defs><g><rect fill="#FFFFFF" filter="url(#f9qmhwjvk2dcc)" height="545.625" style="stroke:#A80036;stroke-width:1.0;" width="10" x="36" y="99.6094"/><rect fill="#FFFFFF" filter="url(#f9qmhwjvk2dcc)" height="46.7031" style="stroke:#A80036;stroke-width:1.0;" width="10" x="341" y="121.9609"/><rect fill="#FFFFFF" filter="url(#f9qmhwjvk2dcc)" height="30.3516" style="stroke:#A80036;stroke-width:1.0;" width="10" x="341" y="224.3672"/><rect fill="#FFFFFF" filter="url(#f9qmhwjvk2dcc)" height="30" style="stroke:#A80036;stroke-width:1.0;" width="10" x="341" y="285.0703"/><rect fill="#FFFFFF" filter="url(#f9qmhwjvk2dcc)" height="30" style="stroke:#A80036;stroke-width:1.0;" width="10" x="341" y="377.7734"/><rect fill="#FFFFFF" filter="url(#f9qmhwjvk2dcc)" height="30" style="stroke:#A80036;stroke-width:1.0;" width="10" x="341" y="500.8281"/><rect fill="#FFFFFF" filter="url(#f9qmhwjvk2dcc)" height="30.3516" style="stroke:#A80036;stroke-width:1.0;" width="10" x="341" y="614.8828"/><rect fill="#FFFFFF" filter="url(#f9qmhwjvk2dcc)" height="139.4063" style="stroke:#000000;stroke-width:2.0;" width="380" x="10" y="183.6641"/><rect fill="#FFFFFF" filter="url(#f9qmhwjvk2dcc)" height="78.7031" style="stroke:#000000;stroke-width:2.0;" width="380" x="10" y="337.0703"/><rect fill="#FFFFFF" filter="url(#f9qmhwjvk2dcc)" height="109.0547" style="stroke:#000000;stroke-width:2.0;" width="380" x="10" y="429.7734"/><line style="stroke:#A80036;stroke-width:1.0;stroke-dasharray:5.0,5.0;" x1="41" x2="41" y1="89.6094" y2="663.2344"/><line style="stroke:#A80036;stroke-width:1.0;stroke-dasharray:5.0,5.0;" x1="346" x2="346" y1="89.6094" y2="663.2344"/><text fill="#000000" font-family="sans-serif" font-size="14" lengthAdjust="spacingAndGlyphs" textLength="36" x="20" y="86.5332">Client</text><ellipse cx="41" cy="15" fill="#FEFECE" filter="url(#f9qmhwjvk2dcc)" rx="8" ry="8" style="stroke:#A80036;stroke-width:2.0;"/><path d="M41,23 L41,50 M28,31 L54,31 M41,50 L28,65 M41,50 L54,65 " fill="none" filter="url(#f9qmhwjvk2dcc)" style="stroke:#A80036;stroke-width:2.0;"/><text fill="#000000" font-family="sans-serif" font-size="14" lengthAdjust="spacingAndGlyphs" textLength="36" x="20" y="676.7676">Client</text><ellipse cx="41" cy="689.8438" fill="#FEFECE" filter="url(#f9qmhwjvk2dcc)" rx="8" ry="8" style="stroke:#A80036;stroke-width:2.0;"/><path d="M41,697.8438 L41,724.8438 M28,705.8438 L54,705.8438 M41,724.8438 L28,739.8438 M41,724.8438 L54,739.8438 " fill="none" filter="url(#f9qmhwjvk2dcc)" style="stroke:#A80036;stroke-width:2.0;"/><rect fill="#FEFECE" filter="url(#f9qmhwjvk2dcc)" height="31.6094" style="stroke:#A80036;stroke-width:1.5;" width="64" x="312" y="53"/><text fill="#000000" font-family="sans-serif" font-size="14" lengthAdjust="spacingAndGlyphs" textLength="50" x="319" y="74.5332">:System</text><rect fill="#FEFECE" filter="url(#f9qmhwjvk2dcc)" height="31.6094" style="stroke:#A80036;stroke-width:1.5;" width="64" x="312" y="662.2344"/><text fill="#000000" font-family="sans-serif" font-size="14" lengthAdjust="spacingAndGlyphs" textLength="50" x="319" y="683.7676">:System</text><rect fill="#FFFFFF" filter="url(#f9qmhwjvk2dcc)" height="545.625" style="stroke:#A80036;stroke-width:1.0;" width="10" x="36" y="99.6094"/><rect fill="#FFFFFF" filter="url(#f9qmhwjvk2dcc)" height="46.7031" style="stroke:#A80036;stroke-width:1.0;" width="10" x="341" y="121.9609"/><rect fill="#FFFFFF" filter="url(#f9qmhwjvk2dcc)" height="30.3516" style="stroke:#A80036;stroke-width:1.0;" width="10" x="341" y="224.3672"/><rect fill="#FFFFFF" filter="url(#f9qmhwjvk2dcc)" height="30" style="stroke:#A80036;stroke-width:1.0;" width="10" x="341" y="285.0703"/><rect fill="#FFFFFF" filter="url(#f9qmhwjvk2dcc)" height="30" style="stroke:#A80036;stroke-width:1.0;" width="10" x="341" y="377.7734"/><rect fill="#FFFFFF" filter="url(#f9qmhwjvk2dcc)" height="30" style="stroke:#A80036;stroke-width:1.0;" width="10" x="341" y="500.8281"/><rect fill="#FFFFFF" filter="url(#f9qmhwjvk2dcc)" height="30.3516" style="stroke:#A80036;stroke-width:1.0;" width="10" x="341" y="614.8828"/><polygon fill="#A80036" points="329,117.9609,339,121.9609,329,125.9609,333,121.9609" style="stroke:#A80036;stroke-width:1.0;"/><line style="stroke:#A80036;stroke-width:1.0;" x1="46" x2="335" y1="121.9609" y2="121.9609"/><text fill="#000000" font-family="sans-serif" font-size="13" font-weight="bold" lengthAdjust="spacingAndGlyphs" textLength="7" x="53" y="117.1045">1</text><text fill="#000000" font-family="sans-serif" font-size="13" lengthAdjust="spacingAndGlyphs" textLength="90" x="64" y="117.1045">starts checkout</text><polygon fill="#A80036" points="57,164.6641,47,168.6641,57,172.6641,53,168.6641" style="stroke:#A80036;stroke-width:1.0;"/><line style="stroke:#A80036;stroke-width:1.0;stroke-dasharray:2.0,2.0;" x1="51" x2="345" y1="168.6641" y2="168.6641"/><text fill="#000000" font-family="sans-serif" font-size="13" font-weight="bold" lengthAdjust="spacingAndGlyphs" textLength="7" x="63" y="155.6318">2</text><text fill="#000000" font-family="sans-serif" font-size="13" lengthAdjust="spacingAndGlyphs" textLength="174" x="74" y="147.4561">asks user if he want to use an</text><text fill="#000000" font-family="sans-serif" font-size="13" lengthAdjust="spacingAndGlyphs" textLength="227" x="78" y="163.8076">existing credit card or to create another</text><path d="M10,183.6641 L71,183.6641 L71,191.6641 L61,201.6641 L10,201.6641 L10,183.6641 " fill="#EEEEEE" style="stroke:#000000;stroke-width:1.0;"/><rect fill="none" height="139.4063" style="stroke:#000000;stroke-width:2.0;" width="380" x="10" y="183.6641"/><text fill="#000000" font-family="sans-serif" font-size="13" font-weight="bold" lengthAdjust="spacingAndGlyphs" textLength="16" x="25" y="198.1592">alt</text><text fill="#000000" font-family="sans-serif" font-size="11" font-weight="bold" lengthAdjust="spacingAndGlyphs" textLength="79" x="86" y="197.083">[existing card]</text><polygon fill="#A80036" points="329,220.3672,339,224.3672,329,228.3672,333,224.3672" style="stroke:#A80036;stroke-width:1.0;"/><line style="stroke:#A80036;stroke-width:1.0;" x1="46" x2="335" y1="224.3672" y2="224.3672"/><text fill="#000000" font-family="sans-serif" font-size="13" font-weight="bold" lengthAdjust="spacingAndGlyphs" textLength="7" x="53" y="219.5107">3</text><text fill="#000000" font-family="sans-serif" font-size="13" lengthAdjust="spacingAndGlyphs" textLength="167" x="64" y="219.5107">asks for existing credit cards</text><polygon fill="#A80036" points="57,250.7188,47,254.7188,57,258.7188,53,254.7188" style="stroke:#A80036;stroke-width:1.0;"/><line style="stroke:#A80036;stroke-width:1.0;stroke-dasharray:2.0,2.0;" x1="51" x2="345" y1="254.7188" y2="254.7188"/><text fill="#000000" font-family="sans-serif" font-size="13" font-weight="bold" lengthAdjust="spacingAndGlyphs" textLength="7" x="63" y="249.8623">4</text><text fill="#000000" font-family="sans-serif" font-size="13" lengthAdjust="spacingAndGlyphs" textLength="155" x="74" y="249.8623">shows a list of credit cards</text><polygon fill="#A80036" points="329,281.0703,339,285.0703,329,289.0703,333,285.0703" style="stroke:#A80036;stroke-width:1.0;"/><line style="stroke:#A80036;stroke-width:1.0;" x1="46" x2="335" y1="285.0703" y2="285.0703"/><text fill="#000000" font-family="sans-serif" font-size="13" font-weight="bold" lengthAdjust="spacingAndGlyphs" textLength="7" x="53" y="280.2139">5</text><text fill="#000000" font-family="sans-serif" font-size="13" lengthAdjust="spacingAndGlyphs" textLength="132" x="64" y="280.2139">selects one credit card</text><path d="M10,337.0703 L71,337.0703 L71,345.0703 L61,355.0703 L10,355.0703 L10,337.0703 " fill="#EEEEEE" style="stroke:#000000;stroke-width:1.0;"/><rect fill="none" height="78.7031" style="stroke:#000000;stroke-width:2.0;" width="380" x="10" y="337.0703"/><text fill="#000000" font-family="sans-serif" font-size="13" font-weight="bold" lengthAdjust="spacingAndGlyphs" textLength="16" x="25" y="351.5654">alt</text><text fill="#000000" font-family="sans-serif" font-size="11" font-weight="bold" lengthAdjust="spacingAndGlyphs" textLength="141" x="86" y="350.4893">[create a new credit card]</text><polygon fill="#A80036" points="329,373.7734,339,377.7734,329,381.7734,333,377.7734" style="stroke:#A80036;stroke-width:1.0;"/><line style="stroke:#A80036;stroke-width:1.0;" x1="46" x2="335" y1="377.7734" y2="377.7734"/><text fill="#000000" font-family="sans-serif" font-size="13" font-weight="bold" lengthAdjust="spacingAndGlyphs" textLength="7" x="53" y="372.917">6</text><text fill="#000000" font-family="sans-serif" font-size="13" lengthAdjust="spacingAndGlyphs" textLength="173" x="64" y="372.917">wich to create new credit card</text><path d="M10,429.7734 L71,429.7734 L71,437.7734 L61,447.7734 L10,447.7734 L10,429.7734 " fill="#EEEEEE" style="stroke:#000000;stroke-width:1.0;"/><rect fill="none" height="109.0547" style="stroke:#000000;stroke-width:2.0;" width="380" x="10" y="429.7734"/><text fill="#000000" font-family="sans-serif" font-size="13" font-weight="bold" lengthAdjust="spacingAndGlyphs" textLength="16" x="25" y="444.2686">alt</text><text fill="#000000" font-family="sans-serif" font-size="11" font-weight="bold" lengthAdjust="spacingAndGlyphs" textLength="103" x="86" y="443.1924">[if user has no NIF]</text><polygon fill="#A80036" points="57,466.4766,47,470.4766,57,474.4766,53,470.4766" style="stroke:#A80036;stroke-width:1.0;"/><line style="stroke:#A80036;stroke-width:1.0;stroke-dasharray:2.0,2.0;" x1="51" x2="345" y1="470.4766" y2="470.4766"/><text fill="#000000" font-family="sans-serif" font-size="13" font-weight="bold" lengthAdjust="spacingAndGlyphs" textLength="7" x="63" y="465.6201">7</text><text fill="#000000" font-family="sans-serif" font-size="13" lengthAdjust="spacingAndGlyphs" textLength="111" x="74" y="465.6201">requests data (NIF)</text><polygon fill="#A80036" points="329,496.8281,339,500.8281,329,504.8281,333,500.8281" style="stroke:#A80036;stroke-width:1.0;"/><line style="stroke:#A80036;stroke-width:1.0;" x1="46" x2="335" y1="500.8281" y2="500.8281"/><text fill="#000000" font-family="sans-serif" font-size="13" font-weight="bold" lengthAdjust="spacingAndGlyphs" textLength="7" x="53" y="495.9717">8</text><text fill="#000000" font-family="sans-serif" font-size="13" lengthAdjust="spacingAndGlyphs" textLength="78" x="64" y="495.9717">insert the NIF</text><polygon fill="#A80036" points="57,580.5313,47,584.5313,57,588.5313,53,584.5313" style="stroke:#A80036;stroke-width:1.0;"/><line style="stroke:#A80036;stroke-width:1.0;stroke-dasharray:2.0,2.0;" x1="51" x2="345" y1="584.5313" y2="584.5313"/><text fill="#000000" font-family="sans-serif" font-size="13" font-weight="bold" lengthAdjust="spacingAndGlyphs" textLength="7" x="63" y="571.499">9</text><text fill="#000000" font-family="sans-serif" font-size="13" lengthAdjust="spacingAndGlyphs" textLength="261" x="74" y="563.3232">shows available credits for discount and asks</text><text fill="#000000" font-family="sans-serif" font-size="13" lengthAdjust="spacingAndGlyphs" textLength="231" x="78" y="579.6748">how many credits the user wants to use</text><polygon fill="#A80036" points="329,610.8828,339,614.8828,329,618.8828,333,614.8828" style="stroke:#A80036;stroke-width:1.0;"/><line style="stroke:#A80036;stroke-width:1.0;" x1="46" x2="335" y1="614.8828" y2="614.8828"/><text fill="#000000" font-family="sans-serif" font-size="13" font-weight="bold" lengthAdjust="spacingAndGlyphs" textLength="14" x="53" y="610.0264">10</text><text fill="#000000" font-family="sans-serif" font-size="13" lengthAdjust="spacingAndGlyphs" textLength="103" x="71" y="610.0264">introduces credits</text><polygon fill="#A80036" points="52,641.2344,42,645.2344,52,649.2344,48,645.2344" style="stroke:#A80036;stroke-width:1.0;"/><line style="stroke:#A80036;stroke-width:1.0;stroke-dasharray:2.0,2.0;" x1="46" x2="345" y1="645.2344" y2="645.2344"/><text fill="#000000" font-family="sans-serif" font-size="13" font-weight="bold" lengthAdjust="spacingAndGlyphs" textLength="14" x="58" y="640.3779">11</text><text fill="#000000" font-family="sans-serif" font-size="13" lengthAdjust="spacingAndGlyphs" textLength="94" x="76" y="640.3779">process finished</text><!--MD5=[6014d657e43718249ff6af007dada09c]
@startuml
autonumber
actor "Client" as CLB

participant ":System" as S

activate CLB
CLB -> S : starts checkout
activate S
S - -> CLB : asks user if he want to use an\n existing credit card or to create another
deactivate S


alt existing card



CLB -> S : asks for existing credit cards

activate S

S - -> CLB: shows a list of credit cards

deactivate S

CLB -> S: selects one credit card

activate S
deactivate S

end

alt create a new credit card

CLB -> S: wich to create new credit card

activate S
deactivate S


end



 alt if user has no NIF

 S - -> CLB: requests data (NIF)


 CLB -> S: insert the NIF

 activate S
 deactivate S


 end

 S - -> CLB: shows available credits for discount and asks \n how many credits the user wants to use
 
 
 CLB -> S: introduces credits
 activate S
 
 S - -> CLB : process finished 
 
 deactivate S
 
 deactivate CLB
 
 


@enduml

PlantUML version 1.2020.23(Sun Dec 13 19:14:58 GMT 2020)
(GPL source distribution)
Java Runtime: OpenJDK Runtime Environment
JVM: OpenJDK 64-Bit Server VM
Default Encoding: Cp1252
Language: pt
Country: PT
--></g></svg>