<?xml version="1.0" encoding="UTF-8" standalone="no"?><svg xmlns="http://www.w3.org/2000/svg" xmlns:xlink="http://www.w3.org/1999/xlink" contentScriptType="application/ecmascript" contentStyleType="text/css" height="136px" preserveAspectRatio="none" style="width:580px;height:136px;" version="1.1" viewBox="0 0 580 136" width="580px" zoomAndPan="magnify"><defs><filter height="300%" id="f38k0401yzmfe" width="300%" x="-1" y="-1"><feGaussianBlur result="blurOut" stdDeviation="2.0"/><feColorMatrix in="blurOut" result="blurOut2" type="matrix" values="0 0 0 0 0 0 0 0 0 0 0 0 0 0 0 0 0 0 .4 0"/><feOffset dx="4.0" dy="4.0" in="blurOut2" result="blurOut3"/><feBlend in="SourceGraphic" in2="blurOut3" mode="normal"/></filter></defs><g><!--MD5=[7f2a9fafcebe4f099f71398fd3e2ed00]
class Pharmacy--><rect codeLine="5" fill="#FEFECE" filter="url(#f38k0401yzmfe)" height="65.9102" id="Pharmacy" style="stroke:#A80036;stroke-width:1.5;" width="116" x="7" y="32"/><ellipse cx="34.6" cy="48" fill="#ADD1B2" rx="11" ry="11" style="stroke:#A80036;stroke-width:1.0;"/><path d="M37.0731,54.1431 Q36.4921,54.4419 35.8529,54.5913 Q35.2138,54.7407 34.5082,54.7407 Q32.0014,54.7407 30.6815,53.0889 Q29.3617,51.437 29.3617,48.3159 Q29.3617,45.1865 30.6815,43.5347 Q32.0014,41.8828 34.5082,41.8828 Q35.2138,41.8828 35.8612,42.0322 Q36.5087,42.1816 37.0731,42.4805 L37.0731,45.2031 Q36.4423,44.6221 35.8488,44.3523 Q35.2553,44.0825 34.6244,44.0825 Q33.2797,44.0825 32.5949,45.1492 Q31.9101,46.2158 31.9101,48.3159 Q31.9101,50.4077 32.5949,51.4744 Q33.2797,52.541 34.6244,52.541 Q35.2553,52.541 35.8488,52.2712 Q36.4423,52.0015 37.0731,51.4204 Z " fill="#000000"/><text fill="#000000" font-family="sans-serif" font-size="12" lengthAdjust="spacing" textLength="56" x="51.4" y="52.5352">Pharmacy</text><line style="stroke:#A80036;stroke-width:1.5;" x1="8" x2="122" y1="64" y2="64"/><text fill="#000000" font-family="sans-serif" font-size="11" lengthAdjust="spacing" textLength="57" x="13" y="78.6348">-Integer id</text><text fill="#000000" font-family="sans-serif" font-size="11" lengthAdjust="spacing" textLength="104" x="13" y="91.5898">-String designation</text><!--MD5=[d1eeb527b96f439f56c6bd12ac0dd707]
class Park--><rect codeLine="11" fill="#FEFECE" filter="url(#f38k0401yzmfe)" height="65.9102" id="Park" style="stroke:#A80036;stroke-width:1.5;" width="128" x="220" y="32"/><ellipse cx="266.75" cy="48" fill="#ADD1B2" rx="11" ry="11" style="stroke:#A80036;stroke-width:1.0;"/><path d="M269.2231,54.1431 Q268.6421,54.4419 268.0029,54.5913 Q267.3638,54.7407 266.6582,54.7407 Q264.1514,54.7407 262.8315,53.0889 Q261.5117,51.437 261.5117,48.3159 Q261.5117,45.1865 262.8315,43.5347 Q264.1514,41.8828 266.6582,41.8828 Q267.3638,41.8828 268.0112,42.0322 Q268.6587,42.1816 269.2231,42.4805 L269.2231,45.2031 Q268.5923,44.6221 267.9988,44.3523 Q267.4053,44.0825 266.7744,44.0825 Q265.4297,44.0825 264.7449,45.1492 Q264.0601,46.2158 264.0601,48.3159 Q264.0601,50.4077 264.7449,51.4744 Q265.4297,52.541 266.7744,52.541 Q267.4053,52.541 267.9988,52.2712 Q268.5923,52.0015 269.2231,51.4204 Z " fill="#000000"/><text fill="#000000" font-family="sans-serif" font-size="12" lengthAdjust="spacing" textLength="26" x="287.25" y="52.5352">Park</text><line style="stroke:#A80036;stroke-width:1.5;" x1="221" x2="347" y1="64" y2="64"/><text fill="#000000" font-family="sans-serif" font-size="11" lengthAdjust="spacing" textLength="57" x="226" y="78.6348">-Integer id</text><text fill="#000000" font-family="sans-serif" font-size="11" lengthAdjust="spacing" textLength="116" x="226" y="91.5898">-Integer maxCapacity</text><!--MD5=[7ca35fa42fdd2584ef5892c05d53c42e]
class ChargingStation--><rect fill="#FEFECE" filter="url(#f38k0401yzmfe)" height="40" id="ChargingStation" style="stroke:#A80036;stroke-width:1.5;" width="121" x="445" y="7"/><ellipse cx="460" cy="23" fill="#ADD1B2" rx="11" ry="11" style="stroke:#A80036;stroke-width:1.0;"/><path d="M462.4731,29.1431 Q461.8921,29.4419 461.2529,29.5913 Q460.6138,29.7407 459.9082,29.7407 Q457.4014,29.7407 456.0815,28.0889 Q454.7617,26.437 454.7617,23.3159 Q454.7617,20.1865 456.0815,18.5347 Q457.4014,16.8828 459.9082,16.8828 Q460.6138,16.8828 461.2612,17.0322 Q461.9087,17.1816 462.4731,17.4805 L462.4731,20.2031 Q461.8423,19.6221 461.2488,19.3523 Q460.6553,19.0825 460.0244,19.0825 Q458.6797,19.0825 457.9949,20.1492 Q457.3101,21.2158 457.3101,23.3159 Q457.3101,25.4077 457.9949,26.4744 Q458.6797,27.541 460.0244,27.541 Q460.6553,27.541 461.2488,27.2712 Q461.8423,27.0015 462.4731,26.4204 Z " fill="#000000"/><text fill="#000000" font-family="sans-serif" font-size="12" lengthAdjust="spacing" textLength="89" x="474" y="27.5352">ChargingStation</text><line style="stroke:#A80036;stroke-width:1.5;" x1="446" x2="565" y1="39" y2="39"/><!--MD5=[388196bfb1e60c011795b3c04c7c53f7]
class ParkPlace--><rect fill="#FEFECE" filter="url(#f38k0401yzmfe)" height="40" id="ParkPlace" style="stroke:#A80036;stroke-width:1.5;" width="88" x="461.5" y="82"/><ellipse cx="476.5" cy="98" fill="#ADD1B2" rx="11" ry="11" style="stroke:#A80036;stroke-width:1.0;"/><path d="M478.9731,104.1431 Q478.3921,104.4419 477.7529,104.5913 Q477.1138,104.7407 476.4082,104.7407 Q473.9014,104.7407 472.5815,103.0889 Q471.2617,101.437 471.2617,98.3159 Q471.2617,95.1865 472.5815,93.5347 Q473.9014,91.8828 476.4082,91.8828 Q477.1138,91.8828 477.7612,92.0322 Q478.4087,92.1816 478.9731,92.4805 L478.9731,95.2031 Q478.3423,94.6221 477.7488,94.3523 Q477.1553,94.0825 476.5244,94.0825 Q475.1797,94.0825 474.4949,95.1492 Q473.8101,96.2158 473.8101,98.3159 Q473.8101,100.4077 474.4949,101.4744 Q475.1797,102.541 476.5244,102.541 Q477.1553,102.541 477.7488,102.2712 Q478.3423,102.0015 478.9731,101.4204 Z " fill="#000000"/><text fill="#000000" font-family="sans-serif" font-size="12" lengthAdjust="spacing" textLength="56" x="490.5" y="102.5352">ParkPlace</text><line style="stroke:#A80036;stroke-width:1.5;" x1="462.5" x2="548.5" y1="114" y2="114"/><!--MD5=[80882edf1ba1a5a23075835c2ff1cb78]
link Park to ChargingStation--><path codeLine="18" d="M348.19,54.06 C378.59,48.8 414.83,42.52 444.77,37.34 " fill="none" id="Park-ChargingStation" style="stroke:#A80036;stroke-width:1.0;"/><polygon fill="#000000" points="387.9267,33.8024,378.5129,32.4494,379.5155,38.2411,387.9267,33.8024" style="stroke:#000000;stroke-width:1.0;"/><text fill="#000000" font-family="sans-serif" font-size="13" lengthAdjust="spacing" textLength="22" x="392" y="39.5684">has</text><text fill="#000000" font-family="sans-serif" font-size="13" lengthAdjust="spacing" textLength="8" x="356.0745" y="66.2538">1</text><text fill="#000000" font-family="sans-serif" font-size="13" lengthAdjust="spacing" textLength="22" x="414.9245" y="51.8766">1..*</text><!--MD5=[9afa01edeb13dd686951f07f9b6d7017]
link Park to ParkPlace--><path codeLine="19" d="M348.08,80.95 C358.05,83.17 368.28,85.28 378,87 C405.55,91.88 436.76,95.59 461.29,98.11 " fill="none" id="Park-ParkPlace" style="stroke:#A80036;stroke-width:1.0;"/><polygon fill="#000000" points="387.9435,79.4046,379.441,75.1433,378.5602,80.9548,387.9435,79.4046" style="stroke:#000000;stroke-width:1.0;"/><text fill="#000000" font-family="sans-serif" font-size="13" lengthAdjust="spacing" textLength="22" x="392" y="83.5684">has</text><text fill="#000000" font-family="sans-serif" font-size="13" lengthAdjust="spacing" textLength="8" x="355.9518" y="96.2529">1</text><text fill="#000000" font-family="sans-serif" font-size="13" lengthAdjust="spacing" textLength="22" x="431.5261" y="111.2079">1..*</text><!--MD5=[0ae4e3be80761dbc176b3d01b8ab98e4]
link Pharmacy to Park--><path codeLine="21" d="M123.01,65 C152.77,65 189.26,65 219.87,65 " fill="none" id="Pharmacy-Park" style="stroke:#A80036;stroke-width:1.0;"/><polygon fill="#000000" points="163,56.6553,153.9549,53.7163,153.9549,59.5942,163,56.6553" style="stroke:#000000;stroke-width:1.0;"/><text fill="#000000" font-family="sans-serif" font-size="13" lengthAdjust="spacing" textLength="22" x="167" y="61.5684">has</text><text fill="#000000" font-family="sans-serif" font-size="13" lengthAdjust="spacing" textLength="8" x="130.955" y="78.5549">1</text><text fill="#000000" font-family="sans-serif" font-size="13" lengthAdjust="spacing" textLength="22" x="190.1222" y="78.3624">1..*</text><!--MD5=[d69a9f0f784e64f2d043aa67286ea8d6]
@startuml
skinparam classAttributeIconSize 0
hide methods
left to right direction

class Pharmacy {
    -Integer id
    -String designation
}


class Park {
    -Integer id
    -Integer maxCapacity
}

/'- - - - - - - - - - - - - - - - - - - - - - - - - - - - - - - - - - - - - - - - - - - - - - - - - - - - - - - - - - - - - - - - - - - - - - - - - - - - - - - - - - - - '/

Park "1" - - "1..*" ChargingStation: has >
Park "1" - - "1..*" ParkPlace: has >

Pharmacy "1" - - "1..*" Park: has >

@enduml

@startuml
skinparam classAttributeIconSize 0
hide methods
left to right direction

class Pharmacy {
    -Integer id
    -String designation
}


class Park {
    -Integer id
    -Integer maxCapacity
}


Park "1" - - "1..*" ChargingStation: has >
Park "1" - - "1..*" ParkPlace: has >

Pharmacy "1" - - "1..*" Park: has >

@enduml

PlantUML version 1.2021.00(Sun Jan 10 10:25:05 WET 2021)
(GPL source distribution)
Java Runtime: OpenJDK Runtime Environment
JVM: OpenJDK 64-Bit Server VM
Default Encoding: UTF-8
Language: en
Country: GB
--></g></svg>